<svg id="Слой_1" data-name="Слой 1" xmlns="http://www.w3.org/2000/svg" viewBox="0 0 222 174"><defs><style>.cls-1{fill:#e3dcff;}.cls-2{fill:#fff;}.cls-3{fill:#555c6a;}.cls-4{fill:#6f5cc3;}.cls-5,.cls-6,.cls-7{fill:none;stroke-miterlimit:10;}.cls-5,.cls-7{stroke:#555c6a;}.cls-6{stroke:#6f5cc3;}.cls-7{stroke-width:0.88px;stroke-dasharray:4.39 4.39;}</style></defs><path class="cls-1" d="M77.24,150.31a174.42,174.42,0,0,0-45-27.34V16.82s-8-6.5-22-7.86V128.11S39.94,128.56,77.24,150.31Z"/><path class="cls-1" d="M144.76,150.31a174.42,174.42,0,0,1,45-27.34V16.82s8-6.5,22-7.86V128.11S182.06,128.56,144.76,150.31Z"/><path class="cls-2" d="M113.4,56.94c1.74-2.14,24.27-29.12,66-48.92v108.9c-39,18.37-61.43,43.06-66,48.46Z"/><path class="cls-3" d="M178.94,8.82V116.6c-36.84,17.42-58.88,40.45-65,47.45V57.12c2.39-2.91,24.55-28.94,65-48.3m1-1.58c-44.39,20.83-67,49.52-67,49.52v110s22.65-28.69,67-49.52V7.24Z"/><path class="cls-4" d="M40.85,7.33V117.24c44.4,20.83,67.05,49.52,67.05,49.52V56.86S85.25,28.17,40.85,7.33Z"/><path class="cls-5" d="M126.44,97.46s21.23-18.9,39.84-28.56"/><path class="cls-5" d="M143.34,73.78l2.58-1.91q2-1.49,4.16-3a151.12,151.12,0,0,1,16.2-10"/><path class="cls-5" d="M126.44,87.46s3.89-3.47,9.8-8.19"/><path class="cls-5" d="M126.44,77.46a282,282,0,0,1,27.26-21"/><path class="cls-6" d="M126.44,67.46s21.23-18.9,39.84-28.56"/><path class="cls-7" d="M126.44,117.46s21.23-18.9,39.84-28.56v14.28s-26.3,14.57-39.84,29.18Z"/></svg>