<?xml version="1.0" encoding="utf-8"?>
<!-- Generator: Adobe Illustrator 21.1.0, SVG Export Plug-In . SVG Version: 6.00 Build 0)  -->
<svg version="1.1" id="Слой_1" xmlns="http://www.w3.org/2000/svg" xmlns:xlink="http://www.w3.org/1999/xlink" x="0px" y="0px"
	 viewBox="0 0 222 174" style="enable-background:new 0 0 222 174;" xml:space="preserve">
<style type="text/css">
	.st0{fill:#E6E7E8;}
	.st1{opacity:0.8;fill:none;stroke:#FFFFFF;stroke-width:2.8109;stroke-miterlimit:10;}
	.st2{opacity:0.8;}
	.st3{fill:none;stroke:#FFFFFF;stroke-width:2.8109;stroke-miterlimit:10;}
	.st4{opacity:0.5;}
	.st5{fill:#E6E7E8;stroke:#FFFFFF;stroke-width:2.8109;stroke-miterlimit:10;}
	.st6{fill:#E3DCFF;}
	.st7{fill:#6F5CC3;}
	.st8{fill:#FFFFFF;stroke:#555C6A;stroke-miterlimit:10;}
	.st9{fill:#FFFFFF;}
	.st10{opacity:7.000000e-02;clip-path:url(#SVGID_2_);}
	.st11{fill:#CFD1D4;}
	.st12{fill:#FFFFFF;stroke:#000000;stroke-miterlimit:10;}
	.st13{fill:none;stroke:#D0D2D4;stroke-miterlimit:10;stroke-dasharray:11.347,11.347;}
	.st14{fill:none;stroke:#000000;stroke-miterlimit:10;stroke-dasharray:11.347,11.347;}
	.st15{fill:#231F20;}
	.st16{fill:#FFFFFF;stroke:#000000;stroke-linejoin:round;stroke-miterlimit:10;}
	.st17{fill:#FFFFFF;stroke:#000000;}
	.st18{fill:none;stroke:#000000;stroke-miterlimit:10;}
	.st19{fill:#D0D2D4;}
	.st20{fill:none;stroke:#000000;stroke-linejoin:round;stroke-miterlimit:10;}
	.st21{stroke:#000000;stroke-miterlimit:10;}
	.st22{fill:#FFFFFF;stroke:#000000;stroke-linejoin:bevel;stroke-miterlimit:10;}
	.st23{fill:#D0D2D4;stroke:#000000;}
	.st24{opacity:7.000000e-02;clip-path:url(#SVGID_4_);}
	.st25{opacity:7.000000e-02;clip-path:url(#SVGID_6_);}
	.st26{opacity:0.2;}
	.st27{fill-rule:evenodd;clip-rule:evenodd;fill:#6F5CC3;stroke:#555C6A;stroke-width:0.8995;stroke-miterlimit:10;}
	.st28{opacity:0.2;fill:#007AC0;}
	.st29{fill:none;stroke:#555C6A;stroke-width:0.8995;stroke-miterlimit:10;stroke-dasharray:10.3401;}
	.st30{fill-rule:evenodd;clip-rule:evenodd;fill:#FFFFFF;stroke:#555C6A;stroke-width:0.8995;stroke-miterlimit:10;}
	.st31{fill:#FFFFFF;stroke:#555C6A;stroke-width:0.8995;stroke-miterlimit:10;}
	.st32{fill:#6E6E6E;}
	.st33{fill:#CFD8DC;}
	.st34{fill:#555C6A;}
	.st35{fill:#DBDADA;}
	.st36{fill:none;stroke:#555C6A;stroke-width:0.8995;stroke-miterlimit:10;}
	.st37{opacity:7.000000e-02;clip-path:url(#SVGID_10_);}
	.st38{fill:#CFD8DC;stroke:#555C6A;stroke-width:0.9152;stroke-miterlimit:10;}
	.st39{fill:#6F5CC3;stroke:#555C6A;stroke-width:0.9152;stroke-miterlimit:10;}
	.st40{fill:#FFFFFF;stroke:#555C6A;stroke-width:0.9152;stroke-miterlimit:10;}
	.st41{fill:#898E9F;}
	.st42{fill:none;stroke:#555C6A;stroke-width:0.9152;stroke-miterlimit:10;}
	.st43{fill:none;stroke:#555C6A;stroke-width:0.9152;stroke-miterlimit:10;stroke-dasharray:8.4208,8.4208;}
	.st44{fill:none;stroke:#555C6A;stroke-width:0.9152;stroke-miterlimit:10;stroke-dasharray:9.0277;}
	.st45{fill:#90A4AE;}
	.st46{fill:#E8E8EB;stroke:#555C6A;stroke-width:0.9152;stroke-miterlimit:10;}
	.st47{opacity:7.000000e-02;clip-path:url(#SVGID_12_);}
	.st48{fill:#BCBEC0;}
	.st49{fill:#CFD8DC;stroke:#555C6A;stroke-miterlimit:10;}
	.st50{fill:#E8E8EB;stroke:#555C6A;stroke-miterlimit:10;}
	.st51{fill:#E8E8EB;stroke:#555C6A;stroke-width:1.0431;stroke-miterlimit:10;}
	.st52{fill:#373637;}
	.st53{fill:none;stroke:#323132;stroke-width:1.0553;stroke-miterlimit:10;}
	.st54{fill:#595959;stroke:#262526;stroke-width:0.531;stroke-miterlimit:10;}
	.st55{fill:#2B2A2B;stroke:#262526;stroke-width:1.0553;stroke-miterlimit:10;}
	.st56{fill:#595959;stroke:#262526;stroke-width:0.3429;stroke-miterlimit:10;}
	.st57{fill:none;stroke:#E5E4E5;stroke-width:1.0553;stroke-miterlimit:10;}
	.st58{fill:none;stroke:#848284;stroke-width:2.1106;stroke-miterlimit:10;}
	.st59{fill:#FAFAFA;}
	.st60{fill:#C4C4C4;}
	.st61{fill:none;stroke:#838284;stroke-width:2.1106;stroke-miterlimit:10;}
	.st62{fill:url(#SVGID_13_);}
	.st63{fill:#E2E2E2;}
	.st64{fill:none;stroke:#1F1F1F;stroke-width:2.1106;stroke-miterlimit:10;}
	.st65{fill:url(#SVGID_14_);}
	.st66{fill:none;stroke:#1F1F1F;stroke-width:1.0553;stroke-miterlimit:10;}
	.st67{fill:none;stroke:#959CAF;stroke-width:0.7075;stroke-miterlimit:10;}
	.st68{fill:#CFD8DC;stroke:#555C6A;stroke-width:0.9207;stroke-miterlimit:10;}
	.st69{fill:none;stroke:#555C6A;stroke-width:0.6777;stroke-miterlimit:10;}
	.st70{fill:none;stroke:#555C6A;stroke-width:0.6777;stroke-miterlimit:10;stroke-dasharray:6.0735,6.0735;}
	.st71{fill:none;stroke:#555C6A;stroke-width:0.6509;stroke-miterlimit:10;}
	.st72{fill:none;stroke:#555C6A;stroke-width:0.9207;stroke-miterlimit:10;}
	.st73{fill:none;stroke:#555C6A;stroke-width:0.9207;stroke-miterlimit:10;stroke-dasharray:8.3696,8.3696;}
	.st74{fill:#6F5CC3;stroke:#555C6A;stroke-width:0.9207;stroke-miterlimit:10;}
	.st75{fill:#FFFFFF;stroke:#555C6A;stroke-width:0.9207;stroke-miterlimit:10;}
	.st76{fill:#E8E8EB;stroke:#555C6A;stroke-width:0.9207;stroke-miterlimit:10;}
	.st77{fill:none;stroke:#555C6A;stroke-width:0.919;stroke-miterlimit:10;}
	.st78{fill:none;stroke:#555C6A;stroke-width:0.919;stroke-miterlimit:10;stroke-dasharray:9.0421,9.0421;}
	.st79{fill:#CFD8DC;stroke:#555C6A;stroke-width:0.5307;stroke-miterlimit:10;}
	.st80{fill:#90A4AE;stroke:#555C6A;stroke-width:0.5839;stroke-miterlimit:10;}
	.st81{fill:#FFFFFF;stroke:#555C6A;stroke-width:0.6753;stroke-miterlimit:10;}
	.st82{fill:#90A4AE;stroke:#555C6A;stroke-width:0.6753;stroke-miterlimit:10;}
	.st83{fill:#CFD8DC;stroke:#555C6A;stroke-width:1.119;stroke-miterlimit:10;}
	.st84{fill:#90A4AE;stroke:#555C6A;stroke-width:1.119;stroke-miterlimit:10;}
	.st85{opacity:0.7;fill:#F0F6F7;}
	.st86{opacity:7.000000e-02;clip-path:url(#SVGID_16_);}
	.st87{fill-rule:evenodd;clip-rule:evenodd;fill:#FFFFFF;stroke:#555C6A;stroke-miterlimit:10;}
	.st88{fill:none;stroke:#555C6A;stroke-miterlimit:10;}
	.st89{fill:#90A4AE;stroke:#555C6A;stroke-miterlimit:10;}
	.st90{fill:none;stroke:#555C6A;stroke-miterlimit:10;stroke-dasharray:8.2847;}
	.st91{fill:#217FDC;}
	.st92{fill:#484848;}
	.st93{fill:none;stroke:#1F1F1F;stroke-miterlimit:10;}
	.st94{fill:none;stroke:#FFFFFF;stroke-miterlimit:10;}
	.st95{fill:none;stroke:#555C6A;stroke-miterlimit:10;stroke-dasharray:6.8365,6.8365;}
	.st96{fill:none;stroke:#555C6A;stroke-miterlimit:10;stroke-dasharray:6.5274,6.5274;}
	.st97{fill:#E3DCFF;stroke:#555C6A;stroke-miterlimit:10;}
	.st98{opacity:7.000000e-02;clip-path:url(#SVGID_18_);}
	.st99{fill:none;stroke:#555C6A;stroke-miterlimit:10;stroke-dasharray:6.6234,6.6234;}
	.st100{fill:#FF9F36;stroke:#555C6A;stroke-width:3.4716;stroke-linecap:round;stroke-miterlimit:10;}
	.st101{fill:none;stroke:#FFFFFF;stroke-width:4;stroke-linecap:round;stroke-miterlimit:10;}
	.st102{fill:#B5D9F8;stroke:#FFFFFF;stroke-width:2;stroke-miterlimit:10;}
	.st103{fill:#FCD3B6;}
	.st104{fill:#F2BA94;}
	.st105{fill:none;stroke:#555C6A;stroke-width:3.4716;stroke-miterlimit:10;}
	.st106{fill:#FF9F36;stroke:#640917;stroke-width:3.4716;stroke-linecap:round;stroke-miterlimit:10;}
	.st107{fill:#F4891E;}
	.st108{fill:none;stroke:#640917;stroke-width:3.4716;stroke-linecap:round;stroke-miterlimit:10;}
	.st109{fill:#FFFFFF;stroke:#555C6A;stroke-width:3.4716;stroke-linecap:round;stroke-miterlimit:10;}
	.st110{opacity:0.55;fill:#BCA49B;}
	.st111{fill:#FF9F36;stroke:#006BAC;stroke-width:2.0821;stroke-linecap:round;stroke-miterlimit:10;}
	.st112{fill:#555C6A;stroke:#555C6A;stroke-width:3.4716;stroke-linecap:round;stroke-miterlimit:10;}
	.st113{fill:#006BAC;}
	.st114{fill:none;stroke:#006BAC;stroke-width:2.0821;stroke-linecap:round;stroke-miterlimit:10;}
	.st115{fill:#555C6A;stroke:#640917;stroke-width:3.4716;stroke-linecap:round;stroke-miterlimit:10;}
	.st116{fill:none;stroke:#555C6A;stroke-width:3.4716;stroke-linecap:round;stroke-miterlimit:10;}
	.st117{fill:#FFEDD9;stroke:#555C6A;stroke-width:3.4716;stroke-miterlimit:10;}
	.st118{fill:#F7F0ED;}
	.st119{fill:none;stroke:#FFFFFF;stroke-width:3.4716;stroke-linecap:round;stroke-miterlimit:10;}
	.st120{fill:none;stroke:#555C6A;stroke-width:3.5076;stroke-linecap:round;stroke-miterlimit:10;}
</style>
<g>
	<path class="st6" d="M213.6,172h-65.9V36H220v129.6C220,169.2,217.2,172,213.6,172z"/>
	<path class="st7" d="M220,36H2V9.1C2,5.2,5.2,2,9.1,2h203.8c3.9,0,7.1,3.2,7.1,7.1V36z"/>
	<path class="st88" d="M212.9,172H9.1c-3.9,0-7.1-3.2-7.1-7.1V9.1C2,5.2,5.2,2,9.1,2h203.8c3.9,0,7.1,3.2,7.1,7.1v155.8
		C220,168.8,216.8,172,212.9,172z"/>
	<line class="st88" x1="2" y1="36" x2="220" y2="36"/>
	<line class="st88" x1="2" y1="70" x2="220" y2="70"/>
	<line class="st88" x1="2" y1="104" x2="220" y2="104"/>
	<line class="st88" x1="2" y1="138" x2="220" y2="138"/>
	<line class="st88" x1="148" y1="172" x2="148" y2="36"/>
	<line class="st88" x1="74" y1="172" x2="74" y2="70"/>
	<line class="st94" x1="179.2" y1="19.5" x2="43.2" y2="19.5"/>
	<line class="st88" x1="205.4" y1="53" x2="164.1" y2="53"/>
	<line class="st88" x1="51.4" y1="87" x2="20.4" y2="87"/>
	<line class="st88" x1="51.4" y1="121" x2="20.4" y2="121"/>
	<line class="st88" x1="51.4" y1="155" x2="20.4" y2="155"/>
	<g>
		<line class="st88" x1="118.6" y1="87" x2="87.5" y2="87"/>
		<line class="st88" x1="118.6" y1="121" x2="87.5" y2="121"/>
		<line class="st88" x1="118.6" y1="155" x2="87.5" y2="155"/>
		<line class="st88" x1="134.9" y1="87" x2="123.1" y2="87"/>
		<line class="st88" x1="134.9" y1="121" x2="123.1" y2="121"/>
		<line class="st88" x1="134.9" y1="155" x2="123.1" y2="155"/>
	</g>
	<g>
		<line class="st88" x1="94" y1="53" x2="20.4" y2="53"/>
		<line class="st88" x1="127.5" y1="53" x2="101.2" y2="53"/>
	</g>
	<g>
		<path class="st34" d="M168.7,121c0-1.9,0.8-2.8,2.3-2.8c1.5,0,2.3,0.9,2.3,2.8s-0.8,2.8-2.3,2.8
			C169.4,123.8,168.7,122.8,168.7,121z"/>
		<path class="st34" d="M182.5,121c0-1.9,0.8-2.8,2.3-2.8c1.5,0,2.3,0.9,2.3,2.8s-0.8,2.8-2.3,2.8
			C183.2,123.8,182.5,122.8,182.5,121z"/>
		<path class="st34" d="M196.3,121c0-1.9,0.8-2.8,2.3-2.8c1.5,0,2.3,0.9,2.3,2.8s-0.8,2.8-2.3,2.8C197,123.8,196.3,122.8,196.3,121z
			"/>
	</g>
	<g>
		<path class="st34" d="M168.7,87c0-1.9,0.8-2.8,2.3-2.8c1.5,0,2.3,0.9,2.3,2.8s-0.8,2.8-2.3,2.8C169.4,89.8,168.7,88.8,168.7,87z"
			/>
	</g>
	<g>
		<path class="st34" d="M168.7,155c0-1.9,0.8-2.8,2.3-2.8c1.5,0,2.3,0.9,2.3,2.8s-0.8,2.8-2.3,2.8
			C169.4,157.8,168.7,156.8,168.7,155z"/>
		<path class="st34" d="M182.5,155c0-1.9,0.8-2.8,2.3-2.8c1.5,0,2.3,0.9,2.3,2.8s-0.8,2.8-2.3,2.8
			C183.2,157.8,182.5,156.8,182.5,155z"/>
	</g>
</g>
</svg>
