<?xml version="1.0" encoding="UTF-8" standalone="no" ?><!DOCTYPE svg PUBLIC "-//W3C//DTD SVG 1.1//EN" "http://www.w3.org/Graphics/SVG/1.1/DTD/svg11.dtd"><svg xmlns="http://www.w3.org/2000/svg" xmlns:xlink="http://www.w3.org/1999/xlink" version="1.1" width="786" height="376" style="background-color: #FFFFFF" viewBox="0 0 786 376" xml:space="preserve"><desc>Created with Fabric.js 1.6.2</desc><defs></defs><g style="stroke: none; stroke-width: 1; stroke-dasharray: none; stroke-linecap: butt; stroke-linejoin: miter; stroke-miterlimit: 10; fill: none; fill-rule: nonzero; opacity: 1" transform="translate(0.5 0.5)" ><path d="M 0.5 0.5 L 785.5 0.5 L 785.5 375.5 L 0.5 375.5 Z" style="stroke:#000000;stroke-opacity:1; stroke-opacity: 0; stroke-width: 1; stroke-dasharray: none; stroke-linecap: butt; stroke-linejoin: miter; stroke-miterlimit: 10;fill:#FFFFFF;fill-opacity:1; fill-opacity: 0; fill-rule: nonzero; opacity: 1" transform="" stroke-linecap="round" /><path d="M 0.5 0.5 L 681.5 0.5 L 681.5 275.5 L 0.5 275.5 L 0.5 0.5 Z" style="stroke:#000000;stroke-opacity:1; stroke-opacity: 0; stroke-width: 1; stroke-dasharray: none; stroke-linecap: butt; stroke-linejoin: miter; stroke-miterlimit: 10;fill:#FFFFFF;fill-opacity:1; fill-opacity: 0; fill-rule: nonzero; opacity: 1" transform=" matrix(1 0 0 1 64 40) " stroke-linecap="round" /><path d="M 0.5 275.5 L 0.5 275.5 L 0.5 0.5" style="stroke:#000000;stroke-opacity:1; stroke-opacity: 0.15; stroke-width: 1; stroke-dasharray: 1 1; stroke-linecap: butt; stroke-linejoin: miter; stroke-miterlimit: 10; fill: none; fill-rule: nonzero; opacity: 1" transform=" matrix(1 0 0 1 64 40) " stroke-linecap="round" /><path d="M 97.5 275.5 L 97.5 275.5 L 97.5 0.5" style="stroke:#000000;stroke-opacity:1; stroke-opacity: 0.15; stroke-width: 1; stroke-dasharray: 1 1; stroke-linecap: butt; stroke-linejoin: miter; stroke-miterlimit: 10; fill: none; fill-rule: nonzero; opacity: 1" transform=" matrix(1 0 0 1 64 40) " stroke-linecap="round" /><path d="M 195.5 275.5 L 195.5 275.5 L 195.5 0.5" style="stroke:#000000;stroke-opacity:1; stroke-opacity: 0.15; stroke-width: 1; stroke-dasharray: 1 1; stroke-linecap: butt; stroke-linejoin: miter; stroke-miterlimit: 10; fill: none; fill-rule: nonzero; opacity: 1" transform=" matrix(1 0 0 1 64 40) " stroke-linecap="round" /><path d="M 292.5 275.5 L 292.5 275.5 L 292.5 0.5" style="stroke:#000000;stroke-opacity:1; stroke-opacity: 0.15; stroke-width: 1; stroke-dasharray: 1 1; stroke-linecap: butt; stroke-linejoin: miter; stroke-miterlimit: 10; fill: none; fill-rule: nonzero; opacity: 1" transform=" matrix(1 0 0 1 64 40) " stroke-linecap="round" /><path d="M 389.5 275.5 L 389.5 275.5 L 389.5 0.5" style="stroke:#000000;stroke-opacity:1; stroke-opacity: 0.15; stroke-width: 1; stroke-dasharray: 1 1; stroke-linecap: butt; stroke-linejoin: miter; stroke-miterlimit: 10; fill: none; fill-rule: nonzero; opacity: 1" transform=" matrix(1 0 0 1 64 40) " stroke-linecap="round" /><path d="M 486.5 275.5 L 486.5 275.5 L 486.5 0.5" style="stroke:#000000;stroke-opacity:1; stroke-opacity: 0.15; stroke-width: 1; stroke-dasharray: 1 1; stroke-linecap: butt; stroke-linejoin: miter; stroke-miterlimit: 10; fill: none; fill-rule: nonzero; opacity: 1" transform=" matrix(1 0 0 1 64 40) " stroke-linecap="round" /><path d="M 584.5 275.5 L 584.5 275.5 L 584.5 0.5" style="stroke:#000000;stroke-opacity:1; stroke-opacity: 0.15; stroke-width: 1; stroke-dasharray: 1 1; stroke-linecap: butt; stroke-linejoin: miter; stroke-miterlimit: 10; fill: none; fill-rule: nonzero; opacity: 1" transform=" matrix(1 0 0 1 64 40) " stroke-linecap="round" /><path d="M 681.5 275.5 L 681.5 275.5 L 681.5 0.5" style="stroke:#000000;stroke-opacity:1; stroke-opacity: 0.15; stroke-width: 1; stroke-dasharray: 1 1; stroke-linecap: butt; stroke-linejoin: miter; stroke-miterlimit: 10; fill: none; fill-rule: nonzero; opacity: 1" transform=" matrix(1 0 0 1 64 40) " stroke-linecap="round" /><path d="M 0.5 275.5 L 0.5 275.5 L 681.5 275.5" style="stroke:#000000;stroke-opacity:1; stroke-opacity: 0.15; stroke-width: 1; stroke-dasharray: 1 1; stroke-linecap: butt; stroke-linejoin: miter; stroke-miterlimit: 10; fill: none; fill-rule: nonzero; opacity: 1" transform=" matrix(1 0 0 1 64 40) " stroke-linecap="round" /><path d="M 0.5 206.5 L 0.5 206.5 L 681.5 206.5" style="stroke:#000000;stroke-opacity:1; stroke-opacity: 0.15; stroke-width: 1; stroke-dasharray: 1 1; stroke-linecap: butt; stroke-linejoin: miter; stroke-miterlimit: 10; fill: none; fill-rule: nonzero; opacity: 1" transform=" matrix(1 0 0 1 64 40) " stroke-linecap="round" /><path d="M 0.5 138.5 L 0.5 138.5 L 681.5 138.5" style="stroke:#000000;stroke-opacity:1; stroke-opacity: 0.15; stroke-width: 1; stroke-dasharray: 1 1; stroke-linecap: butt; stroke-linejoin: miter; stroke-miterlimit: 10; fill: none; fill-rule: nonzero; opacity: 1" transform=" matrix(1 0 0 1 64 40) " stroke-linecap="round" /><path d="M 0.5 69.5 L 0.5 69.5 L 681.5 69.5" style="stroke:#000000;stroke-opacity:1; stroke-opacity: 0.15; stroke-width: 1; stroke-dasharray: 1 1; stroke-linecap: butt; stroke-linejoin: miter; stroke-miterlimit: 10; fill: none; fill-rule: nonzero; opacity: 1" transform=" matrix(1 0 0 1 64 40) " stroke-linecap="round" /><path d="M 0.5 0.5 L 0.5 0.5 L 681.5 0.5" style="stroke:#000000;stroke-opacity:1; stroke-opacity: 0.15; stroke-width: 1; stroke-dasharray: 1 1; stroke-linecap: butt; stroke-linejoin: miter; stroke-miterlimit: 10; fill: none; fill-rule: nonzero; opacity: 1" transform=" matrix(1 0 0 1 64 40) " stroke-linecap="round" /><path d="M 49.14286 268.625 L 97.78571 257.625 L 146.42857 243.875 L 195.07143 237 L 243.71429 227.375 L 292.35714 205.375 L 341 183.375 L 389.64286 165.5 L 438.28571 153.125 L 486.92857 142.125 L 535.57143 132.5 L 584.21429 114.625 M 0 0 L 0 0" style="stroke:#FF6600;stroke-opacity:1; stroke-opacity: 0; stroke-width: 1; stroke-dasharray: none; stroke-linecap: butt; stroke-linejoin: round; stroke-miterlimit: 10; fill: none; fill-rule: nonzero; opacity: 1" transform=" matrix(1 0 0 1 64 40) " stroke-linecap="round"  clip-path="url(#AmChartsEl-194)" /><path d="M 49.14286 245.25 L 97.78571 208.125 L 146.42857 205.375 L 195.07143 202.625 L 243.71429 191.625 L 292.35714 161.375 L 341 131.125 L 389.64286 106.375 L 438.28571 76.125 L 486.92857 69.25 L 535.57143 17 L 584.21429 14.25 M 0 0 L 0 0" style="stroke:#FCD202;stroke-opacity:1; stroke-opacity: 0; stroke-width: 1; stroke-dasharray: none; stroke-linecap: butt; stroke-linejoin: round; stroke-miterlimit: 10; fill: none; fill-rule: nonzero; opacity: 1" transform=" matrix(1 0 0 1 64 40) " stroke-linecap="round" /><path d="M 49.5 248.5 L 584.5 110.5 L 583.5 105.5 L 48.5 243.5 Z" style="stroke:#FF6600;stroke-opacity:1; stroke-opacity: 0.005; stroke-width: 0; stroke-dasharray: none; stroke-linecap: butt; stroke-linejoin: miter; stroke-miterlimit: 10;fill:#FF6600;fill-opacity:1; fill-opacity: 0.005; fill-rule: nonzero; opacity: 1" transform=" matrix(1 0 0 1 64 40) " stroke-linecap="round"  clip-path="url(#AmChartsEl-189)" /><path d="M 49.5 248.5 L 584.5 110.5" style="stroke:#FF6600;stroke-opacity:1; stroke-width: 1; stroke-dasharray: none; stroke-linecap: butt; stroke-linejoin: miter; stroke-miterlimit: 10; fill: none; fill-rule: nonzero; opacity: 1" transform=" matrix(1 0 0 1 64 40) " stroke-linecap="round" /><rect x="0" y="0" rx="0" ry="0" width="682" height="276" style="stroke: none; stroke-width: 0; stroke-dasharray: none; stroke-linecap: butt; stroke-linejoin: miter; stroke-miterlimit: 10; fill: none; fill-rule: nonzero; opacity: 1" transform="" clip-path="url(#AmChartsEl-196)" /><path d="M 49.5 261.5 L 584.5 14.5 L 582.5 9.5 L 47.5 256.5 Z" style="stroke:#FCD202;stroke-opacity:1; stroke-opacity: 0.005; stroke-width: 0; stroke-dasharray: none; stroke-linecap: butt; stroke-linejoin: miter; stroke-miterlimit: 10;fill:#FCD202;fill-opacity:1; fill-opacity: 0.005; fill-rule: nonzero; opacity: 1" transform=" matrix(1 0 0 1 64 40) " stroke-linecap="round"  clip-path="url(#AmChartsEl-190)" /><path d="M 49.5 261.5 L 584.5 14.5" style="stroke:#FCD202;stroke-opacity:1; stroke-width: 1; stroke-dasharray: none; stroke-linecap: butt; stroke-linejoin: miter; stroke-miterlimit: 10; fill: none; fill-rule: nonzero; opacity: 1" transform=" matrix(1 0 0 1 64 40) " stroke-linecap="round" /><rect x="0" y="0" rx="0" ry="0" width="682" height="276" style="stroke: none; stroke-width: 0; stroke-dasharray: none; stroke-linecap: butt; stroke-linejoin: miter; stroke-miterlimit: 10; fill: none; fill-rule: nonzero; opacity: 1" transform=""/><path d="M 0.5 275.5 L 681.5 275.5 L 681.5 275.5" style="stroke:#000000;stroke-opacity:1; stroke-opacity: 0.3; stroke-width: 1; stroke-dasharray: 1 1; stroke-linecap: butt; stroke-linejoin: miter; stroke-miterlimit: 10; fill: none; fill-rule: nonzero; opacity: 1" transform=" matrix(1 0 0 1 64 40) " stroke-linecap="round" /><path d="M 0.5 275.5 L 0.5 0.5 L 0.5 0.5" style="stroke:#000000;stroke-opacity:1; stroke-opacity: 0.3; stroke-width: 1; stroke-dasharray: 1 1; stroke-linecap: butt; stroke-linejoin: miter; stroke-miterlimit: 10; fill: none; fill-rule: nonzero; opacity: 1" transform=" matrix(1 0 0 1 64 40) " stroke-linecap="round" /><path d="M 0.5 0.5 L 681.5 0.5" style="stroke:#000000;stroke-opacity:1; stroke-opacity: 0; stroke-width: 1; stroke-dasharray: none; stroke-linecap: butt; stroke-linejoin: miter; stroke-miterlimit: 10; fill: none; fill-rule: nonzero; opacity: 1" transform=" matrix(1 0 0 1 64 315) " stroke-linecap="round" /><path d="M 0.5 0.5 L 0.5 275.5" style="stroke:#000000;stroke-opacity:1; stroke-opacity: 0; stroke-width: 1; stroke-dasharray: none; stroke-linecap: butt; stroke-linejoin: miter; stroke-miterlimit: 10; fill: none; fill-rule: nonzero; opacity: 1" transform=" matrix(1 0 0 1 64 40) " stroke-linecap="round" /><path d="M 0.5 0.5 L 681.5 0.5" style="stroke:#000000;stroke-opacity:1; stroke-opacity: 0; stroke-width: 1; stroke-dasharray: none; stroke-linecap: butt; stroke-linejoin: miter; stroke-miterlimit: 10; fill: none; fill-rule: nonzero; opacity: 1" transform=" matrix(1 0 0 1 0 20) " stroke-linecap="round" /><path d="M 0.5 0.5 L 0.5 276.5" style="stroke:#000000;stroke-opacity:1; stroke-opacity: 0; stroke-width: 1; stroke-dasharray: none; stroke-linecap: butt; stroke-linejoin: miter; stroke-miterlimit: 10; fill: none; fill-rule: nonzero; opacity: 1" transform=" matrix(1 0 0 1 0 0) " stroke-linecap="round" /><path d="M 0.5 0.5 L 0.5 0.5 L 0.5 275.5" style="stroke:#CC0000;stroke-opacity:1; stroke-opacity: 0; stroke-width: 1; stroke-dasharray: none; stroke-linecap: butt; stroke-linejoin: miter; stroke-miterlimit: 10; fill: none; fill-rule: nonzero; opacity: 0" transform=" matrix(1 0 0 1 64 40) " stroke-linecap="round"  clip-path="url(#AmChartsEl-188)" /><path d="M 0.5 0.5 L 681.5 0.5 L 681.5 0.5" style="stroke:#CC0000;stroke-opacity:1; stroke-opacity: 0; stroke-width: 1; stroke-dasharray: none; stroke-linecap: butt; stroke-linejoin: miter; stroke-miterlimit: 10; fill: none; fill-rule: nonzero; opacity: 0" transform=" matrix(1 0 0 1 64 40) " stroke-linecap="round" /><rect x="0" y="0" rx="0" ry="0" width="681" height="275" style="stroke: none; stroke-width: 0; stroke-dasharray: none; stroke-linecap: butt; stroke-linejoin: miter; stroke-miterlimit: 10; fill: none; fill-rule: nonzero; opacity: 1" transform=""/><rect x="0.5" y="0.5" rx="0" ry="0" width="682" height="20" style="stroke:#D4D4D4;stroke-opacity:1; stroke-width: 1; stroke-dasharray: none; stroke-linecap: butt; stroke-linejoin: miter; stroke-miterlimit: 10;fill:#D4D4D4;fill-opacity:1; fill-rule: nonzero; opacity: 1" transform=" matrix(1 0 0 1 64 20) "/><rect x="0.5" y="0.5" rx="0" ry="0" width="682" height="21" style="stroke:#EFEFEF;stroke-opacity:1; stroke-width: 0; stroke-dasharray: none; stroke-linecap: butt; stroke-linejoin: miter; stroke-miterlimit: 10;fill:#EFEFEF;fill-opacity:1; fill-rule: nonzero; opacity: 1" transform=" matrix(1 0 0 1 64 20) "/><rect x="0.5" y="0.5" rx="0" ry="0" width="682" height="20" style="stroke:#000000;stroke-opacity:1; stroke-opacity: 0.005; stroke-width: 0; stroke-dasharray: none; stroke-linecap: butt; stroke-linejoin: miter; stroke-miterlimit: 10;fill:#000000;fill-opacity:1; fill-opacity: 0.005; fill-rule: nonzero; opacity: 1" transform=" matrix(1 0 0 1 64 20) "/><rect x="0" y="0.5" rx="0" ry="0" width="682" height="20" style="stroke:#000000;stroke-opacity:1; stroke-opacity: 0.005; stroke-width: 0; stroke-dasharray: none; stroke-linecap: butt; stroke-linejoin: miter; stroke-miterlimit: 10;fill:#000000;fill-opacity:1; fill-opacity: 0.005; fill-rule: nonzero; opacity: 1" transform=" matrix(1 0 0 1 64 20) "/><g transform=" matrix(1 0 0 1 47 13) "><image xlink:href="http://localhost:8080/sampler/VAADIN/resources/amcharts/images/dragIconRoundBig.svg" x="0" y="0" style="stroke: none; stroke-width: 0; stroke-dasharray: none; stroke-linecap: butt; stroke-linejoin: miter; stroke-miterlimit: 10;fill:#000000;fill-opacity:1; fill-rule: nonzero; opacity: 1" width="35" height="35" preserveAspectRatio="none"></image></g><rect x="0.5" y="0.5" rx="0" ry="0" width="25" height="20" style="stroke:#000000;stroke-opacity:1; stroke-opacity: 0.005; stroke-width: 0; stroke-dasharray: none; stroke-linecap: butt; stroke-linejoin: miter; stroke-miterlimit: 10;fill:#000000;fill-opacity:1; fill-opacity: 0.005; fill-rule: nonzero; opacity: 1" transform=" matrix(1 0 0 1 52 21) "/><g transform=" matrix(1 0 0 1 729 13) "><image xlink:href="http://localhost:8080/sampler/VAADIN/resources/amcharts/images/dragIconRoundBig.svg" x="0" y="0" style="stroke: none; stroke-width: 0; stroke-dasharray: none; stroke-linecap: butt; stroke-linejoin: miter; stroke-miterlimit: 10;fill:#000000;fill-opacity:1; fill-rule: nonzero; opacity: 1" width="35" height="35" preserveAspectRatio="none"></image></g><rect x="0.5" y="0.5" rx="0" ry="0" width="25" height="20" style="stroke:#000000;stroke-opacity:1; stroke-opacity: 0.005; stroke-width: 0; stroke-dasharray: none; stroke-linecap: butt; stroke-linejoin: miter; stroke-miterlimit: 10;fill:#000000;fill-opacity:1; fill-opacity: 0.005; fill-rule: nonzero; opacity: 1" transform=" matrix(1 0 0 1 734 21) "/><rect x="0.5" y="0.5" rx="0" ry="0" width="20" height="276" style="stroke:#D4D4D4;stroke-opacity:1; stroke-width: 1; stroke-dasharray: none; stroke-linecap: butt; stroke-linejoin: miter; stroke-miterlimit: 10;fill:#D4D4D4;fill-opacity:1; fill-rule: nonzero; opacity: 1" transform=" matrix(1 0 0 1 746 40) "/><rect x="0.5" y="0.5" rx="0" ry="0" width="21" height="276" style="stroke:#EFEFEF;stroke-opacity:1; stroke-width: 0; stroke-dasharray: none; stroke-linecap: butt; stroke-linejoin: miter; stroke-miterlimit: 10;fill:#EFEFEF;fill-opacity:1; fill-rule: nonzero; opacity: 1" transform=" matrix(1 0 0 1 746 40) "/><rect x="0.5" y="0.5" rx="0" ry="0" width="20" height="276" style="stroke:#000000;stroke-opacity:1; stroke-opacity: 0.005; stroke-width: 0; stroke-dasharray: none; stroke-linecap: butt; stroke-linejoin: miter; stroke-miterlimit: 10;fill:#000000;fill-opacity:1; fill-opacity: 0.005; fill-rule: nonzero; opacity: 1" transform=" matrix(1 0 0 1 746 40) "/><rect x="0.5" y="0" rx="0" ry="0" width="20" height="276" style="stroke:#000000;stroke-opacity:1; stroke-opacity: 0.005; stroke-width: 0; stroke-dasharray: none; stroke-linecap: butt; stroke-linejoin: miter; stroke-miterlimit: 10;fill:#000000;fill-opacity:1; fill-opacity: 0.005; fill-rule: nonzero; opacity: 1" transform=" matrix(1 0 0 1 746 40) "/><g transform=" matrix(1 0 0 1 739 23) "><image xlink:href="http://localhost:8080/sampler/VAADIN/resources/amcharts/images/dragIconRoundBigH.svg" x="0" y="0" style="stroke: none; stroke-width: 0; stroke-dasharray: none; stroke-linecap: butt; stroke-linejoin: miter; stroke-miterlimit: 10;fill:#000000;fill-opacity:1; fill-rule: nonzero; opacity: 1" width="35" height="35" preserveAspectRatio="none"></image></g><rect x="0.5" y="0.5" rx="0" ry="0" width="25" height="20" style="stroke:#000000;stroke-opacity:1; stroke-opacity: 0.005; stroke-width: 0; stroke-dasharray: none; stroke-linecap: butt; stroke-linejoin: miter; stroke-miterlimit: 10;fill:#000000;fill-opacity:1; fill-opacity: 0.005; fill-rule: nonzero; opacity: 1" transform=" matrix(1 0 0 1 744 31) "/><g transform=" matrix(1 0 0 1 739 299) "><image xlink:href="http://localhost:8080/sampler/VAADIN/resources/amcharts/images/dragIconRoundBigH.svg" x="0" y="0" style="stroke: none; stroke-width: 0; stroke-dasharray: none; stroke-linecap: butt; stroke-linejoin: miter; stroke-miterlimit: 10;fill:#000000;fill-opacity:1; fill-rule: nonzero; opacity: 1" width="35" height="35" preserveAspectRatio="none"></image></g><rect x="0.5" y="0.5" rx="0" ry="0" width="25" height="20" style="stroke:#000000;stroke-opacity:1; stroke-opacity: 0.005; stroke-width: 0; stroke-dasharray: none; stroke-linecap: butt; stroke-linejoin: miter; stroke-miterlimit: 10;fill:#000000;fill-opacity:1; fill-opacity: 0.005; fill-rule: nonzero; opacity: 1" transform=" matrix(1 0 0 1 744 307) "/><path d="M -4 4 L 0 -4 L 4 4 Z" style="stroke:#FF6600;stroke-opacity:1; stroke-opacity: 0; stroke-width: 2; stroke-dasharray: none; stroke-linecap: butt; stroke-linejoin: miter; stroke-miterlimit: 10;fill:#FF6600;fill-opacity:1; fill-rule: nonzero; opacity: 1" transform=" matrix(1 0 0 1 113 308) " stroke-linecap="round"  clip-path="url(#AmChartsEl-195)" /><path d="M -4 4 L 0 -4 L 4 4 Z" style="stroke:#FF6600;stroke-opacity:1; stroke-opacity: 0; stroke-width: 2; stroke-dasharray: none; stroke-linecap: butt; stroke-linejoin: miter; stroke-miterlimit: 10;fill:#FF6600;fill-opacity:1; fill-rule: nonzero; opacity: 1" transform=" matrix(1 0 0 1 161 297) " stroke-linecap="round" /><path d="M -4 4 L 0 -4 L 4 4 Z" style="stroke:#FF6600;stroke-opacity:1; stroke-opacity: 0; stroke-width: 2; stroke-dasharray: none; stroke-linecap: butt; stroke-linejoin: miter; stroke-miterlimit: 10;fill:#FF6600;fill-opacity:1; fill-rule: nonzero; opacity: 1" transform=" matrix(1 0 0 1 210 283) " stroke-linecap="round" /><path d="M -4 4 L 0 -4 L 4 4 Z" style="stroke:#FF6600;stroke-opacity:1; stroke-opacity: 0; stroke-width: 2; stroke-dasharray: none; stroke-linecap: butt; stroke-linejoin: miter; stroke-miterlimit: 10;fill:#FF6600;fill-opacity:1; fill-rule: nonzero; opacity: 1" transform=" matrix(1 0 0 1 259 277) " stroke-linecap="round" /><path d="M -4 4 L 0 -4 L 4 4 Z" style="stroke:#FF6600;stroke-opacity:1; stroke-opacity: 0; stroke-width: 2; stroke-dasharray: none; stroke-linecap: butt; stroke-linejoin: miter; stroke-miterlimit: 10;fill:#FF6600;fill-opacity:1; fill-rule: nonzero; opacity: 1" transform=" matrix(1 0 0 1 307 267) " stroke-linecap="round" /><path d="M -4 4 L 0 -4 L 4 4 Z" style="stroke:#FF6600;stroke-opacity:1; stroke-opacity: 0; stroke-width: 2; stroke-dasharray: none; stroke-linecap: butt; stroke-linejoin: miter; stroke-miterlimit: 10;fill:#FF6600;fill-opacity:1; fill-rule: nonzero; opacity: 1" transform=" matrix(1 0 0 1 356 245) " stroke-linecap="round" /><path d="M -4 4 L 0 -4 L 4 4 Z" style="stroke:#FF6600;stroke-opacity:1; stroke-opacity: 0; stroke-width: 2; stroke-dasharray: none; stroke-linecap: butt; stroke-linejoin: miter; stroke-miterlimit: 10;fill:#FF6600;fill-opacity:1; fill-rule: nonzero; opacity: 1" transform=" matrix(1 0 0 1 405 223) " stroke-linecap="round" /><path d="M -4 4 L 0 -4 L 4 4 Z" style="stroke:#FF6600;stroke-opacity:1; stroke-opacity: 0; stroke-width: 2; stroke-dasharray: none; stroke-linecap: butt; stroke-linejoin: miter; stroke-miterlimit: 10;fill:#FF6600;fill-opacity:1; fill-rule: nonzero; opacity: 1" transform=" matrix(1 0 0 1 453 205) " stroke-linecap="round" /><path d="M -4 4 L 0 -4 L 4 4 Z" style="stroke:#FF6600;stroke-opacity:1; stroke-opacity: 0; stroke-width: 2; stroke-dasharray: none; stroke-linecap: butt; stroke-linejoin: miter; stroke-miterlimit: 10;fill:#FF6600;fill-opacity:1; fill-rule: nonzero; opacity: 1" transform=" matrix(1 0 0 1 502 193) " stroke-linecap="round" /><path d="M -4 4 L 0 -4 L 4 4 Z" style="stroke:#FF6600;stroke-opacity:1; stroke-opacity: 0; stroke-width: 2; stroke-dasharray: none; stroke-linecap: butt; stroke-linejoin: miter; stroke-miterlimit: 10;fill:#FF6600;fill-opacity:1; fill-rule: nonzero; opacity: 1" transform=" matrix(1 0 0 1 550 182) " stroke-linecap="round" /><path d="M -4 4 L 0 -4 L 4 4 Z" style="stroke:#FF6600;stroke-opacity:1; stroke-opacity: 0; stroke-width: 2; stroke-dasharray: none; stroke-linecap: butt; stroke-linejoin: miter; stroke-miterlimit: 10;fill:#FF6600;fill-opacity:1; fill-rule: nonzero; opacity: 1" transform=" matrix(1 0 0 1 599 172) " stroke-linecap="round" /><path d="M -4 4 L 0 -4 L 4 4 Z" style="stroke:#FF6600;stroke-opacity:1; stroke-opacity: 0; stroke-width: 2; stroke-dasharray: none; stroke-linecap: butt; stroke-linejoin: miter; stroke-miterlimit: 10;fill:#FF6600;fill-opacity:1; fill-rule: nonzero; opacity: 1" transform=" matrix(1 0 0 1 648 154) " stroke-linecap="round" /><path d="M -4 -4 L 0 4 L 4 -4 Z" style="stroke:#FCD202;stroke-opacity:1; stroke-opacity: 0; stroke-width: 2; stroke-dasharray: none; stroke-linecap: butt; stroke-linejoin: miter; stroke-miterlimit: 10;fill:#FCD202;fill-opacity:1; fill-rule: nonzero; opacity: 1" transform=" matrix(1 0 0 1 113 285) " stroke-linecap="round" /><path d="M -4 -4 L 0 4 L 4 -4 Z" style="stroke:#FCD202;stroke-opacity:1; stroke-opacity: 0; stroke-width: 2; stroke-dasharray: none; stroke-linecap: butt; stroke-linejoin: miter; stroke-miterlimit: 10;fill:#FCD202;fill-opacity:1; fill-rule: nonzero; opacity: 1" transform=" matrix(1 0 0 1 161 248) " stroke-linecap="round" /><path d="M -4 -4 L 0 4 L 4 -4 Z" style="stroke:#FCD202;stroke-opacity:1; stroke-opacity: 0; stroke-width: 2; stroke-dasharray: none; stroke-linecap: butt; stroke-linejoin: miter; stroke-miterlimit: 10;fill:#FCD202;fill-opacity:1; fill-rule: nonzero; opacity: 1" transform=" matrix(1 0 0 1 210 245) " stroke-linecap="round" /><path d="M -4 -4 L 0 4 L 4 -4 Z" style="stroke:#FCD202;stroke-opacity:1; stroke-opacity: 0; stroke-width: 2; stroke-dasharray: none; stroke-linecap: butt; stroke-linejoin: miter; stroke-miterlimit: 10;fill:#FCD202;fill-opacity:1; fill-rule: nonzero; opacity: 1" transform=" matrix(1 0 0 1 259 242) " stroke-linecap="round" /><path d="M -4 -4 L 0 4 L 4 -4 Z" style="stroke:#FCD202;stroke-opacity:1; stroke-opacity: 0; stroke-width: 2; stroke-dasharray: none; stroke-linecap: butt; stroke-linejoin: miter; stroke-miterlimit: 10;fill:#FCD202;fill-opacity:1; fill-rule: nonzero; opacity: 1" transform=" matrix(1 0 0 1 307 231) " stroke-linecap="round" /><path d="M -4 -4 L 0 4 L 4 -4 Z" style="stroke:#FCD202;stroke-opacity:1; stroke-opacity: 0; stroke-width: 2; stroke-dasharray: none; stroke-linecap: butt; stroke-linejoin: miter; stroke-miterlimit: 10;fill:#FCD202;fill-opacity:1; fill-rule: nonzero; opacity: 1" transform=" matrix(1 0 0 1 356 201) " stroke-linecap="round" /><path d="M -4 -4 L 0 4 L 4 -4 Z" style="stroke:#FCD202;stroke-opacity:1; stroke-opacity: 0; stroke-width: 2; stroke-dasharray: none; stroke-linecap: butt; stroke-linejoin: miter; stroke-miterlimit: 10;fill:#FCD202;fill-opacity:1; fill-rule: nonzero; opacity: 1" transform=" matrix(1 0 0 1 405 171) " stroke-linecap="round" /><path d="M -4 -4 L 0 4 L 4 -4 Z" style="stroke:#FCD202;stroke-opacity:1; stroke-opacity: 0; stroke-width: 2; stroke-dasharray: none; stroke-linecap: butt; stroke-linejoin: miter; stroke-miterlimit: 10;fill:#FCD202;fill-opacity:1; fill-rule: nonzero; opacity: 1" transform=" matrix(1 0 0 1 453 146) " stroke-linecap="round" /><path d="M -4 -4 L 0 4 L 4 -4 Z" style="stroke:#FCD202;stroke-opacity:1; stroke-opacity: 0; stroke-width: 2; stroke-dasharray: none; stroke-linecap: butt; stroke-linejoin: miter; stroke-miterlimit: 10;fill:#FCD202;fill-opacity:1; fill-rule: nonzero; opacity: 1" transform=" matrix(1 0 0 1 502 116) " stroke-linecap="round" /><path d="M -4 -4 L 0 4 L 4 -4 Z" style="stroke:#FCD202;stroke-opacity:1; stroke-opacity: 0; stroke-width: 2; stroke-dasharray: none; stroke-linecap: butt; stroke-linejoin: miter; stroke-miterlimit: 10;fill:#FCD202;fill-opacity:1; fill-rule: nonzero; opacity: 1" transform=" matrix(1 0 0 1 550 109) " stroke-linecap="round" /><path d="M -4 -4 L 0 4 L 4 -4 Z" style="stroke:#FCD202;stroke-opacity:1; stroke-opacity: 0; stroke-width: 2; stroke-dasharray: none; stroke-linecap: butt; stroke-linejoin: miter; stroke-miterlimit: 10;fill:#FCD202;fill-opacity:1; fill-rule: nonzero; opacity: 1" transform=" matrix(1 0 0 1 599 57) " stroke-linecap="round" /><path d="M -4 -4 L 0 4 L 4 -4 Z" style="stroke:#FCD202;stroke-opacity:1; stroke-opacity: 0; stroke-width: 2; stroke-dasharray: none; stroke-linecap: butt; stroke-linejoin: miter; stroke-miterlimit: 10;fill:#FCD202;fill-opacity:1; fill-rule: nonzero; opacity: 1" transform=" matrix(1 0 0 1 648 54) " stroke-linecap="round" /><g transform=" matrix(1 0 0 1 64 332.5) "><text font-family="Verdana" font-size="11" font-weight="normal" style="stroke: none; stroke-width: 1; stroke-dasharray: none; stroke-linecap: butt; stroke-linejoin: miter; stroke-miterlimit: 10;fill:#000000;fill-opacity:1; fill-rule: nonzero; opacity: 1" ><tspan x="-3.5" y="5.49" fill="rgba(0,0,0,1)">0</tspan></text></g><g transform=" matrix(1 0 0 1 161 332.5) "><text font-family="Verdana" font-size="11" font-weight="normal" style="stroke: none; stroke-width: 1; stroke-dasharray: none; stroke-linecap: butt; stroke-linejoin: miter; stroke-miterlimit: 10;fill:#000000;fill-opacity:1; fill-rule: nonzero; opacity: 1" ><tspan x="-3.5" y="5.49" fill="rgba(0,0,0,1)">2</tspan></text></g><g transform=" matrix(1 0 0 1 259 332.5) "><text font-family="Verdana" font-size="11" font-weight="normal" style="stroke: none; stroke-width: 1; stroke-dasharray: none; stroke-linecap: butt; stroke-linejoin: miter; stroke-miterlimit: 10;fill:#000000;fill-opacity:1; fill-rule: nonzero; opacity: 1" ><tspan x="-3.5" y="5.49" fill="rgba(0,0,0,1)">4</tspan></text></g><g transform=" matrix(1 0 0 1 356 332.5) "><text font-family="Verdana" font-size="11" font-weight="normal" style="stroke: none; stroke-width: 1; stroke-dasharray: none; stroke-linecap: butt; stroke-linejoin: miter; stroke-miterlimit: 10;fill:#000000;fill-opacity:1; fill-rule: nonzero; opacity: 1" ><tspan x="-3.5" y="5.49" fill="rgba(0,0,0,1)">6</tspan></text></g><g transform=" matrix(1 0 0 1 453 332.5) "><text font-family="Verdana" font-size="11" font-weight="normal" style="stroke: none; stroke-width: 1; stroke-dasharray: none; stroke-linecap: butt; stroke-linejoin: miter; stroke-miterlimit: 10;fill:#000000;fill-opacity:1; fill-rule: nonzero; opacity: 1" ><tspan x="-3.5" y="5.49" fill="rgba(0,0,0,1)">8</tspan></text></g><g transform=" matrix(1 0 0 1 550 332.5) "><text font-family="Verdana" font-size="11" font-weight="normal" style="stroke: none; stroke-width: 1; stroke-dasharray: none; stroke-linecap: butt; stroke-linejoin: miter; stroke-miterlimit: 10;fill:#000000;fill-opacity:1; fill-rule: nonzero; opacity: 1" ><tspan x="-6.99" y="5.49" fill="rgba(0,0,0,1)">10</tspan></text></g><g transform=" matrix(1 0 0 1 648 332.5) "><text font-family="Verdana" font-size="11" font-weight="normal" style="stroke: none; stroke-width: 1; stroke-dasharray: none; stroke-linecap: butt; stroke-linejoin: miter; stroke-miterlimit: 10;fill:#000000;fill-opacity:1; fill-rule: nonzero; opacity: 1" ><tspan x="-6.99" y="5.49" fill="rgba(0,0,0,1)">12</tspan></text></g><g transform=" matrix(1 0 0 1 745 332.5) "><text font-family="Verdana" font-size="11" font-weight="normal" style="stroke: none; stroke-width: 1; stroke-dasharray: none; stroke-linecap: butt; stroke-linejoin: miter; stroke-miterlimit: 10;fill:#000000;fill-opacity:1; fill-rule: nonzero; opacity: 1" ><tspan x="-6.99" y="5.49" fill="rgba(0,0,0,1)">14</tspan></text></g><g transform=" matrix(1 0 0 1 405 358) "><text font-family="Verdana" font-size="12" font-weight="bold" style="stroke: none; stroke-width: 1; stroke-dasharray: none; stroke-linecap: butt; stroke-linejoin: miter; stroke-miterlimit: 10;fill:#000000;fill-opacity:1; fill-rule: nonzero; opacity: 1" ><tspan x="-20.92" y="5.49" fill="rgba(0,0,0,1)">X Axis</tspan></text></g><g transform=" matrix(1 0 0 1 52 313.703125) "><text font-family="Verdana" font-size="11" font-weight="normal" style="stroke: none; stroke-width: 1; stroke-dasharray: none; stroke-linecap: butt; stroke-linejoin: miter; stroke-miterlimit: 10;fill:#000000;fill-opacity:1; fill-rule: nonzero; opacity: 1" ><tspan x="-7.49" y="5.49" fill="rgba(0,0,0,1)">0</tspan></text></g><g transform=" matrix(1 0 0 1 52 244.703125) "><text font-family="Verdana" font-size="11" font-weight="normal" style="stroke: none; stroke-width: 1; stroke-dasharray: none; stroke-linecap: butt; stroke-linejoin: miter; stroke-miterlimit: 10;fill:#000000;fill-opacity:1; fill-rule: nonzero; opacity: 1" ><tspan x="-7.49" y="5.49" fill="rgba(0,0,0,1)">5</tspan></text></g><g transform=" matrix(1 0 0 1 52 176.703125) "><text font-family="Verdana" font-size="11" font-weight="normal" style="stroke: none; stroke-width: 1; stroke-dasharray: none; stroke-linecap: butt; stroke-linejoin: miter; stroke-miterlimit: 10;fill:#000000;fill-opacity:1; fill-rule: nonzero; opacity: 1" ><tspan x="-14.49" y="5.49" fill="rgba(0,0,0,1)">10</tspan></text></g><g transform=" matrix(1 0 0 1 52 107.703125) "><text font-family="Verdana" font-size="11" font-weight="normal" style="stroke: none; stroke-width: 1; stroke-dasharray: none; stroke-linecap: butt; stroke-linejoin: miter; stroke-miterlimit: 10;fill:#000000;fill-opacity:1; fill-rule: nonzero; opacity: 1" ><tspan x="-14.49" y="5.49" fill="rgba(0,0,0,1)">15</tspan></text></g><g transform=" matrix(1 0 0 1 52 38.703125) "><text font-family="Verdana" font-size="11" font-weight="normal" style="stroke: none; stroke-width: 1; stroke-dasharray: none; stroke-linecap: butt; stroke-linejoin: miter; stroke-miterlimit: 10;fill:#000000;fill-opacity:1; fill-rule: nonzero; opacity: 1" ><tspan x="-14.49" y="5.49" fill="rgba(0,0,0,1)">20</tspan></text></g><g transform=" matrix(6.123233995736766e-17 -1 1 6.123233995736766e-17 21 178) "><text font-family="Verdana" font-size="12" font-weight="bold" style="stroke: none; stroke-width: 1; stroke-dasharray: none; stroke-linecap: butt; stroke-linejoin: miter; stroke-miterlimit: 10;fill:#000000;fill-opacity:1; fill-rule: nonzero; opacity: 1" ><tspan x="-20.75" y="5.49" fill="rgba(0,0,0,1)">Y Axis</tspan></text></g><rect x="-1" y="-1" rx="0" ry="0" width="683" height="277" style="stroke: none; stroke-width: 0; stroke-dasharray: none; stroke-linecap: butt; stroke-linejoin: miter; stroke-miterlimit: 10; fill: none; fill-rule: nonzero; opacity: 1" transform=""/><rect x="64" y="40" rx="0" ry="0" width="682" height="276" style="stroke: none; stroke-width: 0; stroke-dasharray: none; stroke-linecap: butt; stroke-linejoin: miter; stroke-miterlimit: 10; fill: none; fill-rule: nonzero; opacity: 1" transform=""/><rect x="64" y="40" rx="0" ry="0" width="682" height="276" style="stroke: none; stroke-width: 0; stroke-dasharray: none; stroke-linecap: butt; stroke-linejoin: miter; stroke-miterlimit: 10; fill: none; fill-rule: nonzero; opacity: 1" transform=""/><rect x="64" y="40" rx="0" ry="0" width="682" height="276" style="stroke: none; stroke-width: 0; stroke-dasharray: none; stroke-linecap: butt; stroke-linejoin: miter; stroke-miterlimit: 10; fill: none; fill-rule: nonzero; opacity: 1" transform=""/></g><clipPath xmlns="http://www.w3.org/2000/svg" id="AmChartsEl-194"><rect x="64" y="40" width="682" height="276" rx="0" ry="0" stroke-width="0" fill="none" fill-opacity="0" svgUid="0"/></clipPath><clipPath xmlns="http://www.w3.org/2000/svg" id="AmChartsEl-189"><rect x="0" y="0" width="682" height="276" rx="0" ry="0" stroke-width="0" fill="none" fill-opacity="0" svgUid="0"/></clipPath><clipPath xmlns="http://www.w3.org/2000/svg" id="AmChartsEl-196"><rect x="64" y="40" width="682" height="276" rx="0" ry="0" stroke-width="0" fill="none" fill-opacity="0" svgUid="0"/></clipPath><clipPath xmlns="http://www.w3.org/2000/svg" id="AmChartsEl-190"><rect x="0" y="0" width="682" height="276" rx="0" ry="0" stroke-width="0" fill="none" fill-opacity="0" svgUid="0"/></clipPath><clipPath xmlns="http://www.w3.org/2000/svg" id="AmChartsEl-188"><rect x="0" y="0" width="681" height="275" rx="0" ry="0" stroke-width="0" fill="none" fill-opacity="0" svgUid="0"/></clipPath><clipPath xmlns="http://www.w3.org/2000/svg" id="AmChartsEl-195"><rect x="64" y="40" width="682" height="276" rx="0" ry="0" stroke-width="0" fill="none" fill-opacity="0" svgUid="0"/></clipPath></svg>