<?xml version="1.0" encoding="UTF-8" standalone="no" ?><!DOCTYPE svg PUBLIC "-//W3C//DTD SVG 1.1//EN" "http://www.w3.org/Graphics/SVG/1.1/DTD/svg11.dtd"><svg xmlns="http://www.w3.org/2000/svg" xmlns:xlink="http://www.w3.org/1999/xlink" version="1.1" width="865" height="414" style="background-color: #FFFFFF" viewBox="0 0 865 414" xml:space="preserve"><desc>Created with Fabric.js 1.6.2</desc><defs></defs><g style="stroke: none; stroke-width: 1; stroke-dasharray: none; stroke-linecap: butt; stroke-linejoin: miter; stroke-miterlimit: 10; fill: none; fill-rule: nonzero; opacity: 1" transform="translate(0.5 0.5)" ><path d="M 0.5 0.5 L 864.5 0.5 L 864.5 413.5 L 0.5 413.5 Z" style="stroke:#000000;stroke-opacity:1; stroke-opacity: 0; stroke-width: 1; stroke-dasharray: none; stroke-linecap: butt; stroke-linejoin: miter; stroke-miterlimit: 10;fill:#FFFFFF;fill-opacity:1; fill-opacity: 0; fill-rule: nonzero; opacity: 1" transform="" stroke-linecap="round" /><path d="M 0.5 0.5 L 803.5 0.5 L 803.5 336.5 L 0.5 336.5 L 0.5 0.5 Z" style="stroke:#000000;stroke-opacity:1; stroke-opacity: 0; stroke-width: 1; stroke-dasharray: none; stroke-linecap: butt; stroke-linejoin: miter; stroke-miterlimit: 10;fill:#FFFFFF;fill-opacity:1; fill-opacity: 0; fill-rule: nonzero; opacity: 1" transform=" matrix(1 0 0 1 41 27) " stroke-linecap="round" /><path d="M 21.5 0.5 L 21.5 5.5" style="stroke:#000000;stroke-opacity:1; stroke-width: 1; stroke-dasharray: none; stroke-linecap: butt; stroke-linejoin: miter; stroke-miterlimit: 10; fill: none; fill-rule: nonzero; opacity: 1" transform=" matrix(1 0 0 1 41 22) " stroke-linecap="round" /><path d="M 21.5 336.5 L 21.5 336.5 L 21.5 0.5" style="stroke:#000000;stroke-opacity:1; stroke-opacity: 0.15; stroke-width: 1; stroke-dasharray: 1 1; stroke-linecap: butt; stroke-linejoin: miter; stroke-miterlimit: 10; fill: none; fill-rule: nonzero; opacity: 1" transform=" matrix(1 0 0 1 41 27) " stroke-linecap="round" /><path d="M 154.5 0.5 L 154.5 5.5" style="stroke:#000000;stroke-opacity:1; stroke-width: 1; stroke-dasharray: none; stroke-linecap: butt; stroke-linejoin: miter; stroke-miterlimit: 10; fill: none; fill-rule: nonzero; opacity: 1" transform=" matrix(1 0 0 1 41 22) " stroke-linecap="round" /><path d="M 154.5 336.5 L 154.5 336.5 L 154.5 0.5" style="stroke:#000000;stroke-opacity:1; stroke-opacity: 0.15; stroke-width: 1; stroke-dasharray: 1 1; stroke-linecap: butt; stroke-linejoin: miter; stroke-miterlimit: 10; fill: none; fill-rule: nonzero; opacity: 1" transform=" matrix(1 0 0 1 41 27) " stroke-linecap="round" /><path d="M 282.5 0.5 L 282.5 5.5" style="stroke:#000000;stroke-opacity:1; stroke-width: 1; stroke-dasharray: none; stroke-linecap: butt; stroke-linejoin: miter; stroke-miterlimit: 10; fill: none; fill-rule: nonzero; opacity: 1" transform=" matrix(1 0 0 1 41 22) " stroke-linecap="round" /><path d="M 282.5 336.5 L 282.5 336.5 L 282.5 0.5" style="stroke:#000000;stroke-opacity:1; stroke-opacity: 0.15; stroke-width: 1; stroke-dasharray: 1 1; stroke-linecap: butt; stroke-linejoin: miter; stroke-miterlimit: 10; fill: none; fill-rule: nonzero; opacity: 1" transform=" matrix(1 0 0 1 41 27) " stroke-linecap="round" /><path d="M 414.5 0.5 L 414.5 5.5" style="stroke:#000000;stroke-opacity:1; stroke-width: 1; stroke-dasharray: none; stroke-linecap: butt; stroke-linejoin: miter; stroke-miterlimit: 10; fill: none; fill-rule: nonzero; opacity: 1" transform=" matrix(1 0 0 1 41 22) " stroke-linecap="round" /><path d="M 414.5 336.5 L 414.5 336.5 L 414.5 0.5" style="stroke:#000000;stroke-opacity:1; stroke-opacity: 0.15; stroke-width: 1; stroke-dasharray: 1 1; stroke-linecap: butt; stroke-linejoin: miter; stroke-miterlimit: 10; fill: none; fill-rule: nonzero; opacity: 1" transform=" matrix(1 0 0 1 41 27) " stroke-linecap="round" /><path d="M 542.5 0.5 L 542.5 5.5" style="stroke:#000000;stroke-opacity:1; stroke-width: 1; stroke-dasharray: none; stroke-linecap: butt; stroke-linejoin: miter; stroke-miterlimit: 10; fill: none; fill-rule: nonzero; opacity: 1" transform=" matrix(1 0 0 1 41 22) " stroke-linecap="round" /><path d="M 542.5 336.5 L 542.5 336.5 L 542.5 0.5" style="stroke:#000000;stroke-opacity:1; stroke-opacity: 0.15; stroke-width: 1; stroke-dasharray: 1 1; stroke-linecap: butt; stroke-linejoin: miter; stroke-miterlimit: 10; fill: none; fill-rule: nonzero; opacity: 1" transform=" matrix(1 0 0 1 41 27) " stroke-linecap="round" /><path d="M 675.5 0.5 L 675.5 5.5" style="stroke:#000000;stroke-opacity:1; stroke-width: 1; stroke-dasharray: none; stroke-linecap: butt; stroke-linejoin: miter; stroke-miterlimit: 10; fill: none; fill-rule: nonzero; opacity: 1" transform=" matrix(1 0 0 1 41 22) " stroke-linecap="round" /><path d="M 675.5 336.5 L 675.5 336.5 L 675.5 0.5" style="stroke:#000000;stroke-opacity:1; stroke-opacity: 0.15; stroke-width: 1; stroke-dasharray: 1 1; stroke-linecap: butt; stroke-linejoin: miter; stroke-miterlimit: 10; fill: none; fill-rule: nonzero; opacity: 1" transform=" matrix(1 0 0 1 41 27) " stroke-linecap="round" /><path d="M 0.5 336.5 L 0.5 336.5 L 803.5 336.5" style="stroke:#000000;stroke-opacity:1; stroke-opacity: 0.15; stroke-width: 1; stroke-dasharray: none; stroke-linecap: butt; stroke-linejoin: miter; stroke-miterlimit: 10; fill: none; fill-rule: nonzero; opacity: 1" transform=" matrix(1 0 0 1 41 27) " stroke-linecap="round" /><path d="M 0.5 299.5 L 0.5 299.5 L 803.5 299.5" style="stroke:#000000;stroke-opacity:1; stroke-opacity: 0.15; stroke-width: 1; stroke-dasharray: none; stroke-linecap: butt; stroke-linejoin: miter; stroke-miterlimit: 10; fill: none; fill-rule: nonzero; opacity: 1" transform=" matrix(1 0 0 1 41 27) " stroke-linecap="round" /><path d="M 0.5 261.5 L 0.5 261.5 L 803.5 261.5" style="stroke:#000000;stroke-opacity:1; stroke-opacity: 0.15; stroke-width: 1; stroke-dasharray: none; stroke-linecap: butt; stroke-linejoin: miter; stroke-miterlimit: 10; fill: none; fill-rule: nonzero; opacity: 1" transform=" matrix(1 0 0 1 41 27) " stroke-linecap="round" /><path d="M 0.5 224.5 L 0.5 224.5 L 803.5 224.5" style="stroke:#000000;stroke-opacity:1; stroke-opacity: 0.15; stroke-width: 1; stroke-dasharray: none; stroke-linecap: butt; stroke-linejoin: miter; stroke-miterlimit: 10; fill: none; fill-rule: nonzero; opacity: 1" transform=" matrix(1 0 0 1 41 27) " stroke-linecap="round" /><path d="M 0.5 187.5 L 0.5 187.5 L 803.5 187.5" style="stroke:#000000;stroke-opacity:1; stroke-opacity: 0.15; stroke-width: 1; stroke-dasharray: none; stroke-linecap: butt; stroke-linejoin: miter; stroke-miterlimit: 10; fill: none; fill-rule: nonzero; opacity: 1" transform=" matrix(1 0 0 1 41 27) " stroke-linecap="round" /><path d="M 0.5 149.5 L 0.5 149.5 L 803.5 149.5" style="stroke:#000000;stroke-opacity:1; stroke-opacity: 0.15; stroke-width: 1; stroke-dasharray: none; stroke-linecap: butt; stroke-linejoin: miter; stroke-miterlimit: 10; fill: none; fill-rule: nonzero; opacity: 1" transform=" matrix(1 0 0 1 41 27) " stroke-linecap="round" /><path d="M 0.5 112.5 L 0.5 112.5 L 803.5 112.5" style="stroke:#000000;stroke-opacity:1; stroke-opacity: 0.15; stroke-width: 1; stroke-dasharray: none; stroke-linecap: butt; stroke-linejoin: miter; stroke-miterlimit: 10; fill: none; fill-rule: nonzero; opacity: 1" transform=" matrix(1 0 0 1 41 27) " stroke-linecap="round" /><path d="M 0.5 75.5 L 0.5 75.5 L 803.5 75.5" style="stroke:#000000;stroke-opacity:1; stroke-opacity: 0.15; stroke-width: 1; stroke-dasharray: none; stroke-linecap: butt; stroke-linejoin: miter; stroke-miterlimit: 10; fill: none; fill-rule: nonzero; opacity: 1" transform=" matrix(1 0 0 1 41 27) " stroke-linecap="round" /><path d="M 0.5 37.5 L 0.5 37.5 L 803.5 37.5" style="stroke:#000000;stroke-opacity:1; stroke-opacity: 0.15; stroke-width: 1; stroke-dasharray: none; stroke-linecap: butt; stroke-linejoin: miter; stroke-miterlimit: 10; fill: none; fill-rule: nonzero; opacity: 1" transform=" matrix(1 0 0 1 41 27) " stroke-linecap="round" /><path d="M 0.5 0.5 L 0.5 0.5 L 803.5 0.5" style="stroke:#000000;stroke-opacity:1; stroke-opacity: 0.15; stroke-width: 1; stroke-dasharray: none; stroke-linecap: butt; stroke-linejoin: miter; stroke-miterlimit: 10; fill: none; fill-rule: nonzero; opacity: 1" transform=" matrix(1 0 0 1 41 27) " stroke-linecap="round" /><path d="M 2.5 287.96667 L 6.5 295.43333 L 11.5 280.5 L 15.5 276.76667 L 19.5 269.3 L 23.5 287.96667 L 28.5 254.36667 L 32.5 250.63333 L 36.5 261.83333 L 41.5 273.03333 L 45.5 276.76667 L 49.5 269.3 L 53.5 258.1 L 58.5 239.43333 L 62.5 246.9 L 66.5 228.23333 L 70.5 217.03333 L 75.5 269.3 L 79.5 246.9 L 83.5 254.36667 L 88.5 269.3 L 92.5 265.56667 L 96.5 284.23333 L 100.5 280.5 L 105.5 291.7 L 109.5 306.63333 L 113.5 302.9 L 117.5 306.63333 L 122.5 310.36667 L 126.5 317.83333 L 130.5 295.43333 L 135.5 287.96667 L 139.5 269.3 L 143.5 261.83333 L 147.5 228.23333 L 152.5 213.3 L 156.5 179.7 L 160.5 205.83333 L 164.5 220.76667 L 169.5 161.03333 L 173.5 142.36667 L 177.5 164.76667 L 182.5 183.43333 L 186.5 175.96667 L 190.5 187.16667 L 194.5 190.9 L 199.5 209.56667 L 203.5 228.23333 L 207.5 209.56667 L 211.5 198.36667 L 216.5 179.7 L 220.5 153.56667 L 224.5 164.76667 L 229.5 161.03333 L 233.5 131.16667 L 237.5 116.23333 L 241.5 119.96667 L 246.5 123.7 L 250.5 108.76667 L 254.5 116.23333 L 258.5 86.36667 L 263.5 93.83333 L 267.5 108.76667 L 271.5 90.1 L 275.5 78.9 L 280.5 71.43333 L 284.5 86.36667 L 288.5 101.3 L 293.5 164.76667 L 297.5 217.03333 L 301.5 258.1 L 305.5 269.3 L 310.5 258.1 L 314.5 231.96667 L 318.5 235.7 L 322.5 202.1 L 327.5 213.3 L 331.5 220.76667 L 335.5 224.5 L 340.5 209.56667 L 344.5 194.63333 L 348.5 198.36667 L 352.5 172.23333 L 357.5 153.56667 L 361.5 138.63333 L 365.5 123.7 L 369.5 112.5 L 374.5 108.76667 L 378.5 78.9 L 382.5 86.36667 L 387.5 67.7 L 391.5 49.03333 L 395.5 56.5 L 399.5 75.16667 L 404.5 67.7 L 408.5 75.16667 L 412.5 67.7 L 416.5 63.96667 L 421.5 86.36667 L 425.5 82.63333 L 429.5 93.83333 L 434.5 71.43333 L 438.5 56.5 L 442.5 60.23333 L 446.5 71.43333 L 451.5 52.76667 L 455.5 49.03333 L 459.5 34.1 L 463.5 26.63333 L 468.5 37.83333 L 472.5 34.1 L 476.5 11.7 L 481.5 30.36667 L 485.5 15.43333 L 489.5 37.83333 L 493.5 11.7 L 498.5 26.63333 L 502.5 19.16667 L 506.5 22.9 L 510.5 30.36667 L 515.5 63.96667 L 519.5 71.43333 L 523.5 56.5 L 528.5 41.56667 L 532.5 75.16667 L 536.5 63.96667 L 540.5 108.76667 L 545.5 105.03333 L 549.5 90.1 L 553.5 93.83333 L 557.5 63.96667 L 562.5 41.56667 L 566.5 45.3 L 570.5 45.3 L 574.5 45.3 L 579.5 60.23333 L 583.5 63.96667 L 587.5 56.5 L 592.5 75.16667 L 596.5 49.03333 L 600.5 86.36667 L 604.5 105.03333 L 609.5 97.56667 L 613.5 108.76667 L 617.5 116.23333 L 621.5 138.63333 L 626.5 134.9 L 630.5 127.43333 L 634.5 116.23333 L 639.5 119.96667 L 643.5 131.16667 L 647.5 142.36667 L 651.5 134.9 L 656.5 149.83333 L 660.5 149.83333 L 664.5 146.1 L 668.5 142.36667 L 673.5 119.96667 L 677.5 112.5 L 681.5 86.36667 L 686.5 97.56667 L 690.5 90.1 L 694.5 112.5 L 698.5 101.3 L 703.5 108.76667 L 707.5 112.5 L 711.5 93.83333 L 715.5 56.5 L 720.5 49.03333 L 724.5 45.3 L 728.5 75.16667 L 733.5 75.16667 L 737.5 63.96667 L 741.5 71.43333 L 745.5 60.23333 L 750.5 45.3 L 754.5 19.16667 L 758.5 30.36667 L 762.5 26.63333 L 767.5 7.96667 L 771.5 19.16667 L 775.5 19.16667 L 780.5 37.83333 L 784.5 11.7 L 788.5 22.9 L 792.5 26.63333 L 797.5 22.9 L 801.5 34.1 M 0 0 L 0 0" style="stroke:#FF6600;stroke-opacity:1; stroke-width: 2; stroke-dasharray: none; stroke-linecap: butt; stroke-linejoin: round; stroke-miterlimit: 10; fill: none; fill-rule: nonzero; opacity: 1" transform=" matrix(1 0 0 1 41 27) " stroke-linecap="round"  clip-path="url(#AmChartsEl-475)" /><rect x="0" y="0" rx="0" ry="0" width="803" height="336" style="stroke: none; stroke-width: 0; stroke-dasharray: none; stroke-linecap: butt; stroke-linejoin: miter; stroke-miterlimit: 10; fill: none; fill-rule: nonzero; opacity: 1" transform=""/><path d="M 0.5 336.5 L 803.5 336.5 L 803.5 336.5" style="stroke:#000000;stroke-opacity:1; stroke-opacity: 0.3; stroke-width: 1; stroke-dasharray: none; stroke-linecap: butt; stroke-linejoin: miter; stroke-miterlimit: 10; fill: none; fill-rule: nonzero; opacity: 1" transform=" matrix(1 0 0 1 41 27) " stroke-linecap="round" /><path d="M 0.5 30.5 L 804.5 30.5 L 804.5 30.5" style="stroke:#000000;stroke-opacity:1; stroke-opacity: 0; stroke-width: 1; stroke-dasharray: none; stroke-linecap: butt; stroke-linejoin: miter; stroke-miterlimit: 10; fill: none; fill-rule: nonzero; opacity: 1" transform=" matrix(1 0 0 1 41 0) " stroke-linecap="round" /><path d="M 0.5 0.5 L 803.5 0.5" style="stroke:#000000;stroke-opacity:1; stroke-opacity: 0; stroke-width: 1; stroke-dasharray: none; stroke-linecap: butt; stroke-linejoin: miter; stroke-miterlimit: 10; fill: none; fill-rule: nonzero; opacity: 1" transform=" matrix(1 0 0 1 0 30) " stroke-linecap="round" /><path d="M 0.5 0.5 L 0.5 30.5" style="stroke:#000000;stroke-opacity:1; stroke-opacity: 0; stroke-width: 1; stroke-dasharray: none; stroke-linecap: butt; stroke-linejoin: miter; stroke-miterlimit: 10; fill: none; fill-rule: nonzero; opacity: 0" transform=" matrix(1 0 0 1 41 0) " stroke-linecap="round" /><path d="M 0.5 0.5 L 803.5 0.5" style="stroke:#000000;stroke-opacity:1; stroke-width: 1; stroke-dasharray: none; stroke-linecap: butt; stroke-linejoin: miter; stroke-miterlimit: 10; fill: none; fill-rule: nonzero; opacity: 1" transform=" matrix(1 0 0 1 41 27) " stroke-linecap="round" /><path d="M 0.5 0.5 L 0.5 336.5" style="stroke:#000000;stroke-opacity:1; stroke-opacity: 0; stroke-width: 1; stroke-dasharray: none; stroke-linecap: butt; stroke-linejoin: miter; stroke-miterlimit: 10; fill: none; fill-rule: nonzero; opacity: 1" transform=" matrix(1 0 0 1 41 27) " stroke-linecap="round" /><path d="M 0.5 0.5 L 0.5 0.5 L 0.5 336.5" style="stroke:#CC0000;stroke-opacity:1; stroke-opacity: 0; stroke-width: 1; stroke-dasharray: none; stroke-linecap: butt; stroke-linejoin: miter; stroke-miterlimit: 10; fill: none; fill-rule: nonzero; opacity: 0" transform=" matrix(1 0 0 1 382 27) " stroke-linecap="round"  clip-path="url(#AmChartsEl-473)" /><path d="M 0.5 0.5 L 803.5 0.5 L 803.5 0.5" style="stroke:#CC0000;stroke-opacity:1; stroke-opacity: 0; stroke-width: 1; stroke-dasharray: none; stroke-linecap: butt; stroke-linejoin: miter; stroke-miterlimit: 10; fill: none; fill-rule: nonzero; opacity: 0" transform=" matrix(1 0 0 1 41 50) " stroke-linecap="round" /><rect x="0" y="0" rx="0" ry="0" width="803" height="336" style="stroke: none; stroke-width: 0; stroke-dasharray: none; stroke-linecap: butt; stroke-linejoin: miter; stroke-miterlimit: 10; fill: none; fill-rule: nonzero; opacity: 1" transform=""/><rect x="0.5" y="0.5" rx="0" ry="0" width="804" height="30" style="stroke:#D4D4D4;stroke-opacity:1; stroke-width: 1; stroke-dasharray: none; stroke-linecap: butt; stroke-linejoin: miter; stroke-miterlimit: 10;fill:#D4D4D4;fill-opacity:1; fill-rule: nonzero; opacity: 1" transform=" matrix(1 0 0 1 41 364) "/><rect x="0.5" y="0.5" rx="0" ry="0" width="803" height="31" style="stroke:#EFEFEF;stroke-opacity:1; stroke-width: 0; stroke-dasharray: none; stroke-linecap: butt; stroke-linejoin: miter; stroke-miterlimit: 10;fill:#EFEFEF;fill-opacity:1; fill-rule: nonzero; opacity: 1" transform=" matrix(1 0 0 1 41 364) "/><path d="M 2.5 26.6 L 6.5 27.2 L 11.5 26 L 15.5 25.7 L 19.5 25.1 L 23.5 26.6 L 28.5 23.9 L 32.5 23.6 L 36.5 24.5 L 41.5 25.4 L 45.5 25.7 L 49.5 25.1 L 53.5 24.2 L 58.5 22.7 L 62.5 23.3 L 66.5 21.8 L 70.5 20.9 L 75.5 25.1 L 79.5 23.3 L 83.5 23.9 L 88.5 25.1 L 92.5 24.8 L 96.5 26.3 L 100.5 26 L 105.5 26.9 L 109.5 28.1 L 113.5 27.8 L 117.5 28.1 L 122.5 28.4 L 126.5 29 L 130.5 27.2 L 135.5 26.6 L 139.5 25.1 L 143.5 24.5 L 147.5 21.8 L 152.5 20.6 L 156.5 17.9 L 160.5 20 L 164.5 21.2 L 169.5 16.4 L 173.5 14.9 L 177.5 16.7 L 182.5 18.2 L 186.5 17.6 L 190.5 18.5 L 194.5 18.8 L 199.5 20.3 L 203.5 21.8 L 207.5 20.3 L 211.5 19.4 L 216.5 17.9 L 220.5 15.8 L 224.5 16.7 L 229.5 16.4 L 233.5 14 L 237.5 12.8 L 241.5 13.1 L 246.5 13.4 L 250.5 12.2 L 254.5 12.8 L 258.5 10.4 L 263.5 11 L 267.5 12.2 L 271.5 10.7 L 275.5 9.8 L 280.5 9.2 L 284.5 10.4 L 288.5 11.6 L 293.5 16.7 L 297.5 20.9 L 301.5 24.2 L 305.5 25.1 L 310.5 24.2 L 314.5 22.1 L 318.5 22.4 L 322.5 19.7 L 327.5 20.6 L 331.5 21.2 L 335.5 21.5 L 340.5 20.3 L 344.5 19.1 L 348.5 19.4 L 352.5 17.3 L 357.5 15.8 L 361.5 14.6 L 365.5 13.4 L 369.5 12.5 L 374.5 12.2 L 378.5 9.8 L 382.5 10.4 L 387.5 8.9 L 391.5 7.4 L 395.5 8 L 399.5 9.5 L 404.5 8.9 L 408.5 9.5 L 412.5 8.9 L 416.5 8.6 L 421.5 10.4 L 425.5 10.1 L 429.5 11 L 434.5 9.2 L 438.5 8 L 442.5 8.3 L 446.5 9.2 L 451.5 7.7 L 455.5 7.4 L 459.5 6.2 L 463.5 5.6 L 468.5 6.5 L 472.5 6.2 L 476.5 4.4 L 481.5 5.9 L 485.5 4.7 L 489.5 6.5 L 493.5 4.4 L 498.5 5.6 L 502.5 5 L 506.5 5.3 L 510.5 5.9 L 515.5 8.6 L 519.5 9.2 L 523.5 8 L 528.5 6.8 L 532.5 9.5 L 536.5 8.6 L 540.5 12.2 L 545.5 11.9 L 549.5 10.7 L 553.5 11 L 557.5 8.6 L 562.5 6.8 L 566.5 7.1 L 570.5 7.1 L 574.5 7.1 L 579.5 8.3 L 583.5 8.6 L 587.5 8 L 592.5 9.5 L 596.5 7.4 L 600.5 10.4 L 604.5 11.9 L 609.5 11.3 L 613.5 12.2 L 617.5 12.8 L 621.5 14.6 L 626.5 14.3 L 630.5 13.7 L 634.5 12.8 L 639.5 13.1 L 643.5 14 L 647.5 14.9 L 651.5 14.3 L 656.5 15.5 L 660.5 15.5 L 664.5 15.2 L 668.5 14.9 L 673.5 13.1 L 677.5 12.5 L 681.5 10.4 L 686.5 11.3 L 690.5 10.7 L 694.5 12.5 L 698.5 11.6 L 703.5 12.2 L 707.5 12.5 L 711.5 11 L 715.5 8 L 720.5 7.4 L 724.5 7.1 L 728.5 9.5 L 733.5 9.5 L 737.5 8.6 L 741.5 9.2 L 745.5 8.3 L 750.5 7.1 L 754.5 5 L 758.5 5.9 L 762.5 5.6 L 767.5 4.1 L 771.5 5 L 775.5 5 L 780.5 6.5 L 784.5 4.4 L 788.5 5.3 L 792.5 5.6 L 797.5 5.3 L 801.5 6.2 M 0 0 L 0 0" style="stroke:#BBBBBB;stroke-opacity:1; stroke-opacity: 0; stroke-width: 1; stroke-dasharray: none; stroke-linecap: butt; stroke-linejoin: round; stroke-miterlimit: 10; fill: none; fill-rule: nonzero; opacity: 1" transform=" matrix(1 0 0 1 41 364) " stroke-linecap="round" /><path d="M 2.5 26.6 L 6.5 27.2 L 11.5 26 L 15.5 25.7 L 19.5 25.1 L 23.5 26.6 L 28.5 23.9 L 32.5 23.6 L 36.5 24.5 L 41.5 25.4 L 45.5 25.7 L 49.5 25.1 L 53.5 24.2 L 58.5 22.7 L 62.5 23.3 L 66.5 21.8 L 70.5 20.9 L 75.5 25.1 L 79.5 23.3 L 83.5 23.9 L 88.5 25.1 L 92.5 24.8 L 96.5 26.3 L 100.5 26 L 105.5 26.9 L 109.5 28.1 L 113.5 27.8 L 117.5 28.1 L 122.5 28.4 L 126.5 29 L 130.5 27.2 L 135.5 26.6 L 139.5 25.1 L 143.5 24.5 L 147.5 21.8 L 152.5 20.6 L 156.5 17.9 L 160.5 20 L 164.5 21.2 L 169.5 16.4 L 173.5 14.9 L 177.5 16.7 L 182.5 18.2 L 186.5 17.6 L 190.5 18.5 L 194.5 18.8 L 199.5 20.3 L 203.5 21.8 L 207.5 20.3 L 211.5 19.4 L 216.5 17.9 L 220.5 15.8 L 224.5 16.7 L 229.5 16.4 L 233.5 14 L 237.5 12.8 L 241.5 13.1 L 246.5 13.4 L 250.5 12.2 L 254.5 12.8 L 258.5 10.4 L 263.5 11 L 267.5 12.2 L 271.5 10.7 L 275.5 9.8 L 280.5 9.2 L 284.5 10.4 L 288.5 11.6 L 293.5 16.7 L 297.5 20.9 L 301.5 24.2 L 305.5 25.1 L 310.5 24.2 L 314.5 22.1 L 318.5 22.4 L 322.5 19.7 L 327.5 20.6 L 331.5 21.2 L 335.5 21.5 L 340.5 20.3 L 344.5 19.1 L 348.5 19.4 L 352.5 17.3 L 357.5 15.8 L 361.5 14.6 L 365.5 13.4 L 369.5 12.5 L 374.5 12.2 L 378.5 9.8 L 382.5 10.4 L 387.5 8.9 L 391.5 7.4 L 395.5 8 L 399.5 9.5 L 404.5 8.9 L 408.5 9.5 L 412.5 8.9 L 416.5 8.6 L 421.5 10.4 L 425.5 10.1 L 429.5 11 L 434.5 9.2 L 438.5 8 L 442.5 8.3 L 446.5 9.2 L 451.5 7.7 L 455.5 7.4 L 459.5 6.2 L 463.5 5.6 L 468.5 6.5 L 472.5 6.2 L 476.5 4.4 L 481.5 5.9 L 485.5 4.7 L 489.5 6.5 L 493.5 4.4 L 498.5 5.6 L 502.5 5 L 506.5 5.3 L 510.5 5.9 L 515.5 8.6 L 519.5 9.2 L 523.5 8 L 528.5 6.8 L 532.5 9.5 L 536.5 8.6 L 540.5 12.2 L 545.5 11.9 L 549.5 10.7 L 553.5 11 L 557.5 8.6 L 562.5 6.8 L 566.5 7.1 L 570.5 7.1 L 574.5 7.1 L 579.5 8.3 L 583.5 8.6 L 587.5 8 L 592.5 9.5 L 596.5 7.4 L 600.5 10.4 L 604.5 11.9 L 609.5 11.3 L 613.5 12.2 L 617.5 12.8 L 621.5 14.6 L 626.5 14.3 L 630.5 13.7 L 634.5 12.8 L 639.5 13.1 L 643.5 14 L 647.5 14.9 L 651.5 14.3 L 656.5 15.5 L 660.5 15.5 L 664.5 15.2 L 668.5 14.9 L 673.5 13.1 L 677.5 12.5 L 681.5 10.4 L 686.5 11.3 L 690.5 10.7 L 694.5 12.5 L 698.5 11.6 L 703.5 12.2 L 707.5 12.5 L 711.5 11 L 715.5 8 L 720.5 7.4 L 724.5 7.1 L 728.5 9.5 L 733.5 9.5 L 737.5 8.6 L 741.5 9.2 L 745.5 8.3 L 750.5 7.1 L 754.5 5 L 758.5 5.9 L 762.5 5.6 L 767.5 4.1 L 771.5 5 L 775.5 5 L 780.5 6.5 L 784.5 4.4 L 788.5 5.3 L 792.5 5.6 L 797.5 5.3 L 801.5 6.2 L 801.5 30.5 L 2.5 30.5 L 2.5 26.6 Z" style="stroke:#000000;stroke-opacity:1; stroke-opacity: 0; stroke-width: 1; stroke-dasharray: none; stroke-linecap: butt; stroke-linejoin: miter; stroke-miterlimit: 10;fill:#BBBBBB;fill-opacity:1; fill-rule: nonzero; opacity: 1" transform=" matrix(1 0 0 1 41 364) " stroke-linecap="round" /><path d="M 2.5 26.6 L 6.5 27.2 L 11.5 26 L 15.5 25.7 L 19.5 25.1 L 23.5 26.6 L 28.5 23.9 L 32.5 23.6 L 36.5 24.5 L 41.5 25.4 L 45.5 25.7 L 49.5 25.1 L 53.5 24.2 L 58.5 22.7 L 62.5 23.3 L 66.5 21.8 L 70.5 20.9 L 75.5 25.1 L 79.5 23.3 L 83.5 23.9 L 88.5 25.1 L 92.5 24.8 L 96.5 26.3 L 100.5 26 L 105.5 26.9 L 109.5 28.1 L 113.5 27.8 L 117.5 28.1 L 122.5 28.4 L 126.5 29 L 130.5 27.2 L 135.5 26.6 L 139.5 25.1 L 143.5 24.5 L 147.5 21.8 L 152.5 20.6 L 156.5 17.9 L 160.5 20 L 164.5 21.2 L 169.5 16.4 L 173.5 14.9 L 177.5 16.7 L 182.5 18.2 L 186.5 17.6 L 190.5 18.5 L 194.5 18.8 L 199.5 20.3 L 203.5 21.8 L 207.5 20.3 L 211.5 19.4 L 216.5 17.9 L 220.5 15.8 L 224.5 16.7 L 229.5 16.4 L 233.5 14 L 237.5 12.8 L 241.5 13.1 L 246.5 13.4 L 250.5 12.2 L 254.5 12.8 L 258.5 10.4 L 263.5 11 L 267.5 12.2 L 271.5 10.7 L 275.5 9.8 L 280.5 9.2 L 284.5 10.4 L 288.5 11.6 L 293.5 16.7 L 297.5 20.9 L 301.5 24.2 L 305.5 25.1 L 310.5 24.2 L 314.5 22.1 L 318.5 22.4 L 322.5 19.7 L 327.5 20.6 L 331.5 21.2 L 335.5 21.5 L 340.5 20.3 L 344.5 19.1 L 348.5 19.4 L 352.5 17.3 L 357.5 15.8 L 361.5 14.6 L 365.5 13.4 L 369.5 12.5 L 374.5 12.2 L 378.5 9.8 L 382.5 10.4 L 387.5 8.9 L 391.5 7.4 L 395.5 8 L 399.5 9.5 L 404.5 8.9 L 408.5 9.5 L 412.5 8.9 L 416.5 8.6 L 421.5 10.4 L 425.5 10.1 L 429.5 11 L 434.5 9.2 L 438.5 8 L 442.5 8.3 L 446.5 9.2 L 451.5 7.7 L 455.5 7.4 L 459.5 6.2 L 463.5 5.6 L 468.5 6.5 L 472.5 6.2 L 476.5 4.4 L 481.5 5.9 L 485.5 4.7 L 489.5 6.5 L 493.5 4.4 L 498.5 5.6 L 502.5 5 L 506.5 5.3 L 510.5 5.9 L 515.5 8.6 L 519.5 9.2 L 523.5 8 L 528.5 6.8 L 532.5 9.5 L 536.5 8.6 L 540.5 12.2 L 545.5 11.9 L 549.5 10.7 L 553.5 11 L 557.5 8.6 L 562.5 6.8 L 566.5 7.1 L 570.5 7.1 L 574.5 7.1 L 579.5 8.3 L 583.5 8.6 L 587.5 8 L 592.5 9.5 L 596.5 7.4 L 600.5 10.4 L 604.5 11.9 L 609.5 11.3 L 613.5 12.2 L 617.5 12.8 L 621.5 14.6 L 626.5 14.3 L 630.5 13.7 L 634.5 12.8 L 639.5 13.1 L 643.5 14 L 647.5 14.9 L 651.5 14.3 L 656.5 15.5 L 660.5 15.5 L 664.5 15.2 L 668.5 14.9 L 673.5 13.1 L 677.5 12.5 L 681.5 10.4 L 686.5 11.3 L 690.5 10.7 L 694.5 12.5 L 698.5 11.6 L 703.5 12.2 L 707.5 12.5 L 711.5 11 L 715.5 8 L 720.5 7.4 L 724.5 7.1 L 728.5 9.5 L 733.5 9.5 L 737.5 8.6 L 741.5 9.2 L 745.5 8.3 L 750.5 7.1 L 754.5 5 L 758.5 5.9 L 762.5 5.6 L 767.5 4.1 L 771.5 5 L 775.5 5 L 780.5 6.5 L 784.5 4.4 L 788.5 5.3 L 792.5 5.6 L 797.5 5.3 L 801.5 6.2 M 0 0 L 0 0" style="stroke:#888888;stroke-opacity:1; stroke-opacity: 0; stroke-width: 1; stroke-dasharray: none; stroke-linecap: butt; stroke-linejoin: round; stroke-miterlimit: 10; fill: none; fill-rule: nonzero; opacity: 1" transform=" matrix(1 0 0 1 41 364) " stroke-linecap="round"  clip-path="url(#AmChartsEl-476)" /><path d="M 2.5 26.6 L 6.5 27.2 L 11.5 26 L 15.5 25.7 L 19.5 25.1 L 23.5 26.6 L 28.5 23.9 L 32.5 23.6 L 36.5 24.5 L 41.5 25.4 L 45.5 25.7 L 49.5 25.1 L 53.5 24.2 L 58.5 22.7 L 62.5 23.3 L 66.5 21.8 L 70.5 20.9 L 75.5 25.1 L 79.5 23.3 L 83.5 23.9 L 88.5 25.1 L 92.5 24.8 L 96.5 26.3 L 100.5 26 L 105.5 26.9 L 109.5 28.1 L 113.5 27.8 L 117.5 28.1 L 122.5 28.4 L 126.5 29 L 130.5 27.2 L 135.5 26.6 L 139.5 25.1 L 143.5 24.5 L 147.5 21.8 L 152.5 20.6 L 156.5 17.9 L 160.5 20 L 164.5 21.2 L 169.5 16.4 L 173.5 14.9 L 177.5 16.7 L 182.5 18.2 L 186.5 17.6 L 190.5 18.5 L 194.5 18.8 L 199.5 20.3 L 203.5 21.8 L 207.5 20.3 L 211.5 19.4 L 216.5 17.9 L 220.5 15.8 L 224.5 16.7 L 229.5 16.4 L 233.5 14 L 237.5 12.8 L 241.5 13.1 L 246.5 13.4 L 250.5 12.2 L 254.5 12.8 L 258.5 10.4 L 263.5 11 L 267.5 12.2 L 271.5 10.7 L 275.5 9.8 L 280.5 9.2 L 284.5 10.4 L 288.5 11.6 L 293.5 16.7 L 297.5 20.9 L 301.5 24.2 L 305.5 25.1 L 310.5 24.2 L 314.5 22.1 L 318.5 22.4 L 322.5 19.7 L 327.5 20.6 L 331.5 21.2 L 335.5 21.5 L 340.5 20.3 L 344.5 19.1 L 348.5 19.4 L 352.5 17.3 L 357.5 15.8 L 361.5 14.6 L 365.5 13.4 L 369.5 12.5 L 374.5 12.2 L 378.5 9.8 L 382.5 10.4 L 387.5 8.9 L 391.5 7.4 L 395.5 8 L 399.5 9.5 L 404.5 8.9 L 408.5 9.5 L 412.5 8.9 L 416.5 8.6 L 421.5 10.4 L 425.5 10.1 L 429.5 11 L 434.5 9.2 L 438.5 8 L 442.5 8.3 L 446.5 9.2 L 451.5 7.7 L 455.5 7.4 L 459.5 6.2 L 463.5 5.6 L 468.5 6.5 L 472.5 6.2 L 476.5 4.4 L 481.5 5.9 L 485.5 4.7 L 489.5 6.5 L 493.5 4.4 L 498.5 5.6 L 502.5 5 L 506.5 5.3 L 510.5 5.9 L 515.5 8.6 L 519.5 9.2 L 523.5 8 L 528.5 6.8 L 532.5 9.5 L 536.5 8.6 L 540.5 12.2 L 545.5 11.9 L 549.5 10.7 L 553.5 11 L 557.5 8.6 L 562.5 6.8 L 566.5 7.1 L 570.5 7.1 L 574.5 7.1 L 579.5 8.3 L 583.5 8.6 L 587.5 8 L 592.5 9.5 L 596.5 7.4 L 600.5 10.4 L 604.5 11.9 L 609.5 11.3 L 613.5 12.2 L 617.5 12.8 L 621.5 14.6 L 626.5 14.3 L 630.5 13.7 L 634.5 12.8 L 639.5 13.1 L 643.5 14 L 647.5 14.9 L 651.5 14.3 L 656.5 15.5 L 660.5 15.5 L 664.5 15.2 L 668.5 14.9 L 673.5 13.1 L 677.5 12.5 L 681.5 10.4 L 686.5 11.3 L 690.5 10.7 L 694.5 12.5 L 698.5 11.6 L 703.5 12.2 L 707.5 12.5 L 711.5 11 L 715.5 8 L 720.5 7.4 L 724.5 7.1 L 728.5 9.5 L 733.5 9.5 L 737.5 8.6 L 741.5 9.2 L 745.5 8.3 L 750.5 7.1 L 754.5 5 L 758.5 5.9 L 762.5 5.6 L 767.5 4.1 L 771.5 5 L 775.5 5 L 780.5 6.5 L 784.5 4.4 L 788.5 5.3 L 792.5 5.6 L 797.5 5.3 L 801.5 6.2 L 801.5 30.5 L 2.5 30.5 L 2.5 26.6 Z" style="stroke:#000000;stroke-opacity:1; stroke-opacity: 0; stroke-width: 1; stroke-dasharray: none; stroke-linecap: butt; stroke-linejoin: miter; stroke-miterlimit: 10;fill:#888888;fill-opacity:1; fill-rule: nonzero; opacity: 1" transform=" matrix(1 0 0 1 41 364) " stroke-linecap="round" /><path d="M 21.5 30.5 L 21.5 30.5 L 21.5 0.5" style="stroke:#FFFFFF;stroke-opacity:1; stroke-opacity: 0.7; stroke-width: 1; stroke-dasharray: none; stroke-linecap: butt; stroke-linejoin: miter; stroke-miterlimit: 10; fill: none; fill-rule: nonzero; opacity: 1" transform=" matrix(1 0 0 1 41 364) " stroke-linecap="round" /><path d="M 154.5 30.5 L 154.5 30.5 L 154.5 0.5" style="stroke:#FFFFFF;stroke-opacity:1; stroke-opacity: 0.7; stroke-width: 1; stroke-dasharray: none; stroke-linecap: butt; stroke-linejoin: miter; stroke-miterlimit: 10; fill: none; fill-rule: nonzero; opacity: 1" transform=" matrix(1 0 0 1 41 364) " stroke-linecap="round" /><path d="M 282.5 30.5 L 282.5 30.5 L 282.5 0.5" style="stroke:#FFFFFF;stroke-opacity:1; stroke-opacity: 0.7; stroke-width: 1; stroke-dasharray: none; stroke-linecap: butt; stroke-linejoin: miter; stroke-miterlimit: 10; fill: none; fill-rule: nonzero; opacity: 1" transform=" matrix(1 0 0 1 41 364) " stroke-linecap="round" /><path d="M 414.5 30.5 L 414.5 30.5 L 414.5 0.5" style="stroke:#FFFFFF;stroke-opacity:1; stroke-opacity: 0.7; stroke-width: 1; stroke-dasharray: none; stroke-linecap: butt; stroke-linejoin: miter; stroke-miterlimit: 10; fill: none; fill-rule: nonzero; opacity: 1" transform=" matrix(1 0 0 1 41 364) " stroke-linecap="round" /><path d="M 542.5 30.5 L 542.5 30.5 L 542.5 0.5" style="stroke:#FFFFFF;stroke-opacity:1; stroke-opacity: 0.7; stroke-width: 1; stroke-dasharray: none; stroke-linecap: butt; stroke-linejoin: miter; stroke-miterlimit: 10; fill: none; fill-rule: nonzero; opacity: 1" transform=" matrix(1 0 0 1 41 364) " stroke-linecap="round" /><path d="M 675.5 30.5 L 675.5 30.5 L 675.5 0.5" style="stroke:#FFFFFF;stroke-opacity:1; stroke-opacity: 0.7; stroke-width: 1; stroke-dasharray: none; stroke-linecap: butt; stroke-linejoin: miter; stroke-miterlimit: 10; fill: none; fill-rule: nonzero; opacity: 1" transform=" matrix(1 0 0 1 41 364) " stroke-linecap="round" /><g transform=" matrix(1 0 0 1 128.2047872381184 382.5) "><text font-family="Verdana" font-size="11" font-weight="normal" style="stroke: none; stroke-width: 1; stroke-dasharray: none; stroke-linecap: butt; stroke-linejoin: miter; stroke-miterlimit: 10;fill:#FFFFFF;fill-opacity:1; fill-rule: nonzero; opacity: 1" ><tspan x="-10.64" y="5.49" fill="rgba(255,255,255,1)">Aug</tspan></text></g><g transform=" matrix(1 0 0 1 261.2047872381184 382.5) "><text font-family="Verdana" font-size="11" font-weight="normal" style="stroke: none; stroke-width: 1; stroke-dasharray: none; stroke-linecap: butt; stroke-linejoin: miter; stroke-miterlimit: 10;fill:#FFFFFF;fill-opacity:1; fill-rule: nonzero; opacity: 1" ><tspan x="-10.46" y="5.49" fill="rgba(255,255,255,1)">Sep</tspan></text></g><g transform=" matrix(1 0 0 1 389.2047872381184 382.5) "><text font-family="Verdana" font-size="11" font-weight="normal" style="stroke: none; stroke-width: 1; stroke-dasharray: none; stroke-linecap: butt; stroke-linejoin: miter; stroke-miterlimit: 10;fill:#FFFFFF;fill-opacity:1; fill-rule: nonzero; opacity: 1" ><tspan x="-9.36" y="5.49" fill="rgba(255,255,255,1)">Oct</tspan></text></g><g transform=" matrix(1 0 0 1 521.2047872381183 382.5) "><text font-family="Verdana" font-size="11" font-weight="normal" style="stroke: none; stroke-width: 1; stroke-dasharray: none; stroke-linecap: butt; stroke-linejoin: miter; stroke-miterlimit: 10;fill:#FFFFFF;fill-opacity:1; fill-rule: nonzero; opacity: 1" ><tspan x="-10.67" y="5.49" fill="rgba(255,255,255,1)">Nov</tspan></text></g><g transform=" matrix(1 0 0 1 649.2047872381183 382.5) "><text font-family="Verdana" font-size="11" font-weight="normal" style="stroke: none; stroke-width: 1; stroke-dasharray: none; stroke-linecap: butt; stroke-linejoin: miter; stroke-miterlimit: 10;fill:#FFFFFF;fill-opacity:1; fill-rule: nonzero; opacity: 1" ><tspan x="-10.38" y="5.49" fill="rgba(255,255,255,1)">Dec</tspan></text></g><g transform=" matrix(1 0 0 1 782.2047872381183 382.5) "><text font-family="Verdana" font-size="11" font-weight="bold" style="stroke: none; stroke-width: 1; stroke-dasharray: none; stroke-linecap: butt; stroke-linejoin: miter; stroke-miterlimit: 10;fill:#FFFFFF;fill-opacity:1; fill-rule: nonzero; opacity: 1" ><tspan x="-15.64" y="5.49" fill="rgba(255,255,255,1)">2013</tspan></text></g><rect x="0.5" y="0.5" rx="0" ry="0" width="804" height="30" style="stroke:#000000;stroke-opacity:1; stroke-opacity: 0.005; stroke-width: 0; stroke-dasharray: none; stroke-linecap: butt; stroke-linejoin: miter; stroke-miterlimit: 10;fill:#000000;fill-opacity:1; fill-opacity: 0.005; fill-rule: nonzero; opacity: 1" transform=" matrix(1 0 0 1 41 364) "/><rect x="0" y="0.5" rx="0" ry="0" width="803" height="30" style="stroke:#000000;stroke-opacity:1; stroke-opacity: 0.005; stroke-width: 0; stroke-dasharray: none; stroke-linecap: butt; stroke-linejoin: miter; stroke-miterlimit: 10;fill:#000000;fill-opacity:1; fill-opacity: 0.005; fill-rule: nonzero; opacity: 1" transform=" matrix(1 0 0 1 41 364) "/><g transform=" matrix(1 0 0 1 24 362) "><image xlink:href="http://localhost:8080/sampler/VAADIN/resources/amcharts/images/dragIconRoundBig.svg" x="0" y="0" style="stroke: none; stroke-width: 0; stroke-dasharray: none; stroke-linecap: butt; stroke-linejoin: miter; stroke-miterlimit: 10;fill:#000000;fill-opacity:1; fill-rule: nonzero; opacity: 1" width="35" height="35" preserveAspectRatio="none"></image></g><rect x="0.5" y="0.5" rx="0" ry="0" width="25" height="30" style="stroke:#000000;stroke-opacity:1; stroke-opacity: 0.005; stroke-width: 0; stroke-dasharray: none; stroke-linecap: butt; stroke-linejoin: miter; stroke-miterlimit: 10;fill:#000000;fill-opacity:1; fill-opacity: 0.005; fill-rule: nonzero; opacity: 1" transform=" matrix(1 0 0 1 29 365) "/><g transform=" matrix(1 0 0 1 827 362) "><image xlink:href="http://localhost:8080/sampler/VAADIN/resources/amcharts/images/dragIconRoundBig.svg" x="0" y="0" style="stroke: none; stroke-width: 0; stroke-dasharray: none; stroke-linecap: butt; stroke-linejoin: miter; stroke-miterlimit: 10;fill:#000000;fill-opacity:1; fill-rule: nonzero; opacity: 1" width="35" height="35" preserveAspectRatio="none"></image></g><rect x="0.5" y="0.5" rx="0" ry="0" width="25" height="30" style="stroke:#000000;stroke-opacity:1; stroke-opacity: 0.005; stroke-width: 0; stroke-dasharray: none; stroke-linecap: butt; stroke-linejoin: miter; stroke-miterlimit: 10;fill:#000000;fill-opacity:1; fill-opacity: 0.005; fill-rule: nonzero; opacity: 1" transform=" matrix(1 0 0 1 832 365) "/><rect x="0" y="0" rx="0" ry="0" width="803" height="31" style="stroke: none; stroke-width: 0; stroke-dasharray: none; stroke-linecap: butt; stroke-linejoin: miter; stroke-miterlimit: 10; fill: none; fill-rule: nonzero; opacity: 1" transform=""/><g transform=" matrix(1 0 0 1 128.2047872381184 14.5) "><text font-family="Verdana" font-size="11" font-weight="normal" style="stroke: none; stroke-width: 1; stroke-dasharray: none; stroke-linecap: butt; stroke-linejoin: miter; stroke-miterlimit: 10;fill:#000000;fill-opacity:1; fill-rule: nonzero; opacity: 1" ><tspan x="-10.64" y="5.49" fill="rgba(0,0,0,1)">Aug</tspan></text></g><g transform=" matrix(1 0 0 1 261.2047872381184 14.5) "><text font-family="Verdana" font-size="11" font-weight="normal" style="stroke: none; stroke-width: 1; stroke-dasharray: none; stroke-linecap: butt; stroke-linejoin: miter; stroke-miterlimit: 10;fill:#000000;fill-opacity:1; fill-rule: nonzero; opacity: 1" ><tspan x="-10.46" y="5.49" fill="rgba(0,0,0,1)">Sep</tspan></text></g><g transform=" matrix(1 0 0 1 389.2047872381184 14.5) "><text font-family="Verdana" font-size="11" font-weight="normal" style="stroke: none; stroke-width: 1; stroke-dasharray: none; stroke-linecap: butt; stroke-linejoin: miter; stroke-miterlimit: 10;fill:#000000;fill-opacity:1; fill-rule: nonzero; opacity: 1" ><tspan x="-9.36" y="5.49" fill="rgba(0,0,0,1)">Oct</tspan></text></g><g transform=" matrix(1 0 0 1 521.2047872381183 14.5) "><text font-family="Verdana" font-size="11" font-weight="normal" style="stroke: none; stroke-width: 1; stroke-dasharray: none; stroke-linecap: butt; stroke-linejoin: miter; stroke-miterlimit: 10;fill:#000000;fill-opacity:1; fill-rule: nonzero; opacity: 1" ><tspan x="-10.67" y="5.49" fill="rgba(0,0,0,1)">Nov</tspan></text></g><g transform=" matrix(1 0 0 1 649.2047872381183 14.5) "><text font-family="Verdana" font-size="11" font-weight="normal" style="stroke: none; stroke-width: 1; stroke-dasharray: none; stroke-linecap: butt; stroke-linejoin: miter; stroke-miterlimit: 10;fill:#000000;fill-opacity:1; fill-rule: nonzero; opacity: 1" ><tspan x="-10.38" y="5.49" fill="rgba(0,0,0,1)">Dec</tspan></text></g><g transform=" matrix(1 0 0 1 782.2047872381183 14.5) "><text font-family="Verdana" font-size="11" font-weight="bold" style="stroke: none; stroke-width: 1; stroke-dasharray: none; stroke-linecap: butt; stroke-linejoin: miter; stroke-miterlimit: 10;fill:#000000;fill-opacity:1; fill-rule: nonzero; opacity: 1" ><tspan x="-15.64" y="5.49" fill="rgba(0,0,0,1)">2013</tspan></text></g><g transform=" matrix(1 0 0 1 29 362) "><text font-family="Verdana" font-size="11" font-weight="normal" style="stroke: none; stroke-width: 1; stroke-dasharray: none; stroke-linecap: butt; stroke-linejoin: miter; stroke-miterlimit: 10;fill:#000000;fill-opacity:1; fill-rule: nonzero; opacity: 1" ><tspan x="-7.49" y="5.49" fill="rgba(0,0,0,1)">0</tspan></text></g><g transform=" matrix(1 0 0 1 29 325) "><text font-family="Verdana" font-size="11" font-weight="normal" style="stroke: none; stroke-width: 1; stroke-dasharray: none; stroke-linecap: butt; stroke-linejoin: miter; stroke-miterlimit: 10;fill:#000000;fill-opacity:1; fill-rule: nonzero; opacity: 1" ><tspan x="-14.49" y="5.49" fill="rgba(0,0,0,1)">10</tspan></text></g><g transform=" matrix(1 0 0 1 29 287) "><text font-family="Verdana" font-size="11" font-weight="normal" style="stroke: none; stroke-width: 1; stroke-dasharray: none; stroke-linecap: butt; stroke-linejoin: miter; stroke-miterlimit: 10;fill:#000000;fill-opacity:1; fill-rule: nonzero; opacity: 1" ><tspan x="-14.49" y="5.49" fill="rgba(0,0,0,1)">20</tspan></text></g><g transform=" matrix(1 0 0 1 29 250) "><text font-family="Verdana" font-size="11" font-weight="normal" style="stroke: none; stroke-width: 1; stroke-dasharray: none; stroke-linecap: butt; stroke-linejoin: miter; stroke-miterlimit: 10;fill:#000000;fill-opacity:1; fill-rule: nonzero; opacity: 1" ><tspan x="-14.49" y="5.49" fill="rgba(0,0,0,1)">30</tspan></text></g><g transform=" matrix(1 0 0 1 29 213) "><text font-family="Verdana" font-size="11" font-weight="normal" style="stroke: none; stroke-width: 1; stroke-dasharray: none; stroke-linecap: butt; stroke-linejoin: miter; stroke-miterlimit: 10;fill:#000000;fill-opacity:1; fill-rule: nonzero; opacity: 1" ><tspan x="-14.49" y="5.49" fill="rgba(0,0,0,1)">40</tspan></text></g><g transform=" matrix(1 0 0 1 29 175) "><text font-family="Verdana" font-size="11" font-weight="normal" style="stroke: none; stroke-width: 1; stroke-dasharray: none; stroke-linecap: butt; stroke-linejoin: miter; stroke-miterlimit: 10;fill:#000000;fill-opacity:1; fill-rule: nonzero; opacity: 1" ><tspan x="-14.49" y="5.49" fill="rgba(0,0,0,1)">50</tspan></text></g><g transform=" matrix(1 0 0 1 29 138) "><text font-family="Verdana" font-size="11" font-weight="normal" style="stroke: none; stroke-width: 1; stroke-dasharray: none; stroke-linecap: butt; stroke-linejoin: miter; stroke-miterlimit: 10;fill:#000000;fill-opacity:1; fill-rule: nonzero; opacity: 1" ><tspan x="-14.49" y="5.49" fill="rgba(0,0,0,1)">60</tspan></text></g><g transform=" matrix(1 0 0 1 29 101) "><text font-family="Verdana" font-size="11" font-weight="normal" style="stroke: none; stroke-width: 1; stroke-dasharray: none; stroke-linecap: butt; stroke-linejoin: miter; stroke-miterlimit: 10;fill:#000000;fill-opacity:1; fill-rule: nonzero; opacity: 1" ><tspan x="-14.49" y="5.49" fill="rgba(0,0,0,1)">70</tspan></text></g><g transform=" matrix(1 0 0 1 29 63) "><text font-family="Verdana" font-size="11" font-weight="normal" style="stroke: none; stroke-width: 1; stroke-dasharray: none; stroke-linecap: butt; stroke-linejoin: miter; stroke-miterlimit: 10;fill:#000000;fill-opacity:1; fill-rule: nonzero; opacity: 1" ><tspan x="-14.49" y="5.49" fill="rgba(0,0,0,1)">80</tspan></text></g><g transform=" matrix(1 0 0 1 29 26) "><text font-family="Verdana" font-size="11" font-weight="normal" style="stroke: none; stroke-width: 1; stroke-dasharray: none; stroke-linecap: butt; stroke-linejoin: miter; stroke-miterlimit: 10;fill:#000000;fill-opacity:1; fill-rule: nonzero; opacity: 1" ><tspan x="-14.49" y="5.49" fill="rgba(0,0,0,1)">90</tspan></text></g><rect x="-1" y="-1" rx="0" ry="0" width="805" height="338" style="stroke: none; stroke-width: 0; stroke-dasharray: none; stroke-linecap: butt; stroke-linejoin: miter; stroke-miterlimit: 10; fill: none; fill-rule: nonzero; opacity: 1" transform=""/></g><clipPath xmlns="http://www.w3.org/2000/svg" id="AmChartsEl-475"><rect x="0" y="0" width="803" height="336" rx="0" ry="0" stroke-width="0" fill="none" fill-opacity="0" svgUid="1"/></clipPath><clipPath xmlns="http://www.w3.org/2000/svg" id="AmChartsEl-473"><rect x="0" y="0" width="803" height="336" rx="0" ry="0" stroke-width="0" fill="none" fill-opacity="0" svgUid="1"/></clipPath><clipPath xmlns="http://www.w3.org/2000/svg" id="AmChartsEl-476"><rect x="0" y="0" width="803" height="31" rx="0" ry="0" stroke-width="0" fill="none" fill-opacity="0" svgUid="1"/></clipPath></svg>