<?xml version="1.0" encoding="UTF-8" standalone="no" ?><!DOCTYPE svg PUBLIC "-//W3C//DTD SVG 1.1//EN" "http://www.w3.org/Graphics/SVG/1.1/DTD/svg11.dtd"><svg xmlns="http://www.w3.org/2000/svg" xmlns:xlink="http://www.w3.org/1999/xlink" version="1.1" width="866" height="413" style="background-color: #FFFFFF" viewBox="0 0 866 413" xml:space="preserve"><desc>Created with Fabric.js 1.6.2</desc><defs></defs><g style="stroke: none; stroke-width: 1; stroke-dasharray: none; stroke-linecap: butt; stroke-linejoin: miter; stroke-miterlimit: 10; fill: none; fill-rule: nonzero; opacity: 1" transform="translate(0.5 0.5)" ><path d="M 0.5 0.5 L 865.5 0.5 L 865.5 412.5 L 0.5 412.5 Z" style="stroke:#000000;stroke-opacity:1; stroke-opacity: 0; stroke-width: 1; stroke-dasharray: none; stroke-linecap: butt; stroke-linejoin: miter; stroke-miterlimit: 10;fill:#FFFFFF;fill-opacity:1; fill-opacity: 0; fill-rule: nonzero; opacity: 1" transform="" stroke-linecap="round" /><path d="M 0.5 0.5 L 827.5 0.5 L 827.5 376.5 L 0.5 376.5 L 0.5 0.5 Z" style="stroke:#000000;stroke-opacity:1; stroke-opacity: 0; stroke-width: 1; stroke-dasharray: none; stroke-linecap: butt; stroke-linejoin: miter; stroke-miterlimit: 10;fill:#FFFFFF;fill-opacity:1; fill-opacity: 0; fill-rule: nonzero; opacity: 1" transform=" matrix(1 0 0 1 30 10) " stroke-linecap="round" /><path d="M 0.5 376.5 L 0.5 376.5 L 0.5 0.5" style="stroke:#000000;stroke-opacity:1; stroke-opacity: 0.15; stroke-width: 1; stroke-dasharray: none; stroke-linecap: butt; stroke-linejoin: miter; stroke-miterlimit: 10; fill: none; fill-rule: nonzero; opacity: 1" transform=" matrix(1 0 0 1 30 10) " stroke-linecap="round" /><path d="M 138.5 376.5 L 138.5 376.5 L 138.5 0.5" style="stroke:#000000;stroke-opacity:1; stroke-opacity: 0.15; stroke-width: 1; stroke-dasharray: none; stroke-linecap: butt; stroke-linejoin: miter; stroke-miterlimit: 10; fill: none; fill-rule: nonzero; opacity: 1" transform=" matrix(1 0 0 1 30 10) " stroke-linecap="round" /><path d="M 276.5 376.5 L 276.5 376.5 L 276.5 0.5" style="stroke:#000000;stroke-opacity:1; stroke-opacity: 0.15; stroke-width: 1; stroke-dasharray: none; stroke-linecap: butt; stroke-linejoin: miter; stroke-miterlimit: 10; fill: none; fill-rule: nonzero; opacity: 1" transform=" matrix(1 0 0 1 30 10) " stroke-linecap="round" /><path d="M 413.5 376.5 L 413.5 376.5 L 413.5 0.5" style="stroke:#000000;stroke-opacity:1; stroke-opacity: 0.15; stroke-width: 1; stroke-dasharray: none; stroke-linecap: butt; stroke-linejoin: miter; stroke-miterlimit: 10; fill: none; fill-rule: nonzero; opacity: 1" transform=" matrix(1 0 0 1 30 10) " stroke-linecap="round" /><path d="M 551.5 376.5 L 551.5 376.5 L 551.5 0.5" style="stroke:#000000;stroke-opacity:1; stroke-opacity: 0.15; stroke-width: 1; stroke-dasharray: none; stroke-linecap: butt; stroke-linejoin: miter; stroke-miterlimit: 10; fill: none; fill-rule: nonzero; opacity: 1" transform=" matrix(1 0 0 1 30 10) " stroke-linecap="round" /><path d="M 689.5 376.5 L 689.5 376.5 L 689.5 0.5" style="stroke:#000000;stroke-opacity:1; stroke-opacity: 0.15; stroke-width: 1; stroke-dasharray: none; stroke-linecap: butt; stroke-linejoin: miter; stroke-miterlimit: 10; fill: none; fill-rule: nonzero; opacity: 1" transform=" matrix(1 0 0 1 30 10) " stroke-linecap="round" /><path d="M 827.5 376.5 L 827.5 376.5 L 827.5 0.5" style="stroke:#000000;stroke-opacity:1; stroke-opacity: 0.15; stroke-width: 1; stroke-dasharray: none; stroke-linecap: butt; stroke-linejoin: miter; stroke-miterlimit: 10; fill: none; fill-rule: nonzero; opacity: 1" transform=" matrix(1 0 0 1 30 10) " stroke-linecap="round" /><path d="M 0.5 376.5 L 0.5 376.5 L 827.5 376.5" style="stroke:#000000;stroke-opacity:1; stroke-opacity: 0.15; stroke-width: 1; stroke-dasharray: none; stroke-linecap: butt; stroke-linejoin: miter; stroke-miterlimit: 10; fill: none; fill-rule: nonzero; opacity: 1" transform=" matrix(1 0 0 1 30 10) " stroke-linecap="round" /><path d="M 0.5 329.5 L 0.5 329.5 L 827.5 329.5" style="stroke:#000000;stroke-opacity:1; stroke-opacity: 0.15; stroke-width: 1; stroke-dasharray: none; stroke-linecap: butt; stroke-linejoin: miter; stroke-miterlimit: 10; fill: none; fill-rule: nonzero; opacity: 1" transform=" matrix(1 0 0 1 30 10) " stroke-linecap="round" /><path d="M 0.5 282.5 L 0.5 282.5 L 827.5 282.5" style="stroke:#000000;stroke-opacity:1; stroke-opacity: 0.15; stroke-width: 1; stroke-dasharray: none; stroke-linecap: butt; stroke-linejoin: miter; stroke-miterlimit: 10; fill: none; fill-rule: nonzero; opacity: 1" transform=" matrix(1 0 0 1 30 10) " stroke-linecap="round" /><path d="M 0.5 235.5 L 0.5 235.5 L 827.5 235.5" style="stroke:#000000;stroke-opacity:1; stroke-opacity: 0.15; stroke-width: 1; stroke-dasharray: none; stroke-linecap: butt; stroke-linejoin: miter; stroke-miterlimit: 10; fill: none; fill-rule: nonzero; opacity: 1" transform=" matrix(1 0 0 1 30 10) " stroke-linecap="round" /><path d="M 0.5 188.5 L 0.5 188.5 L 827.5 188.5" style="stroke:#000000;stroke-opacity:1; stroke-opacity: 0.15; stroke-width: 1; stroke-dasharray: none; stroke-linecap: butt; stroke-linejoin: miter; stroke-miterlimit: 10; fill: none; fill-rule: nonzero; opacity: 1" transform=" matrix(1 0 0 1 30 10) " stroke-linecap="round" /><path d="M 0.5 141.5 L 0.5 141.5 L 827.5 141.5" style="stroke:#000000;stroke-opacity:1; stroke-opacity: 0.15; stroke-width: 1; stroke-dasharray: none; stroke-linecap: butt; stroke-linejoin: miter; stroke-miterlimit: 10; fill: none; fill-rule: nonzero; opacity: 1" transform=" matrix(1 0 0 1 30 10) " stroke-linecap="round" /><path d="M 0.5 94.5 L 0.5 94.5 L 827.5 94.5" style="stroke:#000000;stroke-opacity:1; stroke-opacity: 0.15; stroke-width: 1; stroke-dasharray: none; stroke-linecap: butt; stroke-linejoin: miter; stroke-miterlimit: 10; fill: none; fill-rule: nonzero; opacity: 1" transform=" matrix(1 0 0 1 30 10) " stroke-linecap="round" /><path d="M 0.5 47.5 L 0.5 47.5 L 827.5 47.5" style="stroke:#000000;stroke-opacity:1; stroke-opacity: 0.15; stroke-width: 1; stroke-dasharray: none; stroke-linecap: butt; stroke-linejoin: miter; stroke-miterlimit: 10; fill: none; fill-rule: nonzero; opacity: 1" transform=" matrix(1 0 0 1 30 10) " stroke-linecap="round" /><path d="M 0.5 0.5 L 0.5 0.5 L 827.5 0.5" style="stroke:#000000;stroke-opacity:1; stroke-opacity: 0.15; stroke-width: 1; stroke-dasharray: none; stroke-linecap: butt; stroke-linejoin: miter; stroke-miterlimit: 10; fill: none; fill-rule: nonzero; opacity: 1" transform=" matrix(1 0 0 1 30 10) " stroke-linecap="round" /><path d="M 0.5 0.5 L 0.5 -81.5 L 110.5 -81.5 L 110.5 0.5 L 0.5 0.5 Z" style="stroke:#FF6600;stroke-opacity:1; stroke-width: 1; stroke-dasharray: none; stroke-linecap: butt; stroke-linejoin: miter; stroke-miterlimit: 10;fill:#FF6600;fill-opacity:1; fill-rule: nonzero; opacity: 1" transform=" matrix(1 0 0 1 44 386) " stroke-linecap="round" /><path d="M 0.5 0.5 L 0.5 -145.5 L 110.5 -145.5 L 110.5 0.5 L 0.5 0.5 Z" style="stroke:#FF6600;stroke-opacity:1; stroke-width: 1; stroke-dasharray: none; stroke-linecap: butt; stroke-linejoin: miter; stroke-miterlimit: 10;fill:#FF6600;fill-opacity:1; fill-rule: nonzero; opacity: 1" transform=" matrix(1 0 0 1 182 386) " stroke-linecap="round" /><path d="M 0.5 0.5 L 0.5 -236.5 L 110.5 -236.5 L 110.5 0.5 L 0.5 0.5 Z" style="stroke:#FF6600;stroke-opacity:1; stroke-width: 1; stroke-dasharray: none; stroke-linecap: butt; stroke-linejoin: miter; stroke-miterlimit: 10;fill:#FF6600;fill-opacity:1; fill-rule: nonzero; opacity: 1" transform=" matrix(1 0 0 1 320 386) " stroke-linecap="round" /><path d="M 0.5 0.5 L 0.5 -222.5 L 110.5 -222.5 L 110.5 0.5 L 0.5 0.5 Z" style="stroke:#FF6600;stroke-opacity:1; stroke-width: 1; stroke-dasharray: none; stroke-linecap: butt; stroke-linejoin: miter; stroke-miterlimit: 10;fill:#FF6600;fill-opacity:1; fill-rule: nonzero; opacity: 1" transform=" matrix(1 0 0 1 457 386) " stroke-linecap="round" /><path d="M 0.5 0.5 L 0.5 -248.5 L 110.5 -248.5 L 110.5 0.5 L 0.5 0.5 Z" style="stroke:#FF6600;stroke-opacity:1; stroke-width: 1; stroke-dasharray: none; stroke-linecap: butt; stroke-linejoin: miter; stroke-miterlimit: 10;fill:#FF6600;fill-opacity:1; fill-rule: nonzero; opacity: 1" transform=" matrix(1 0 0 1 595 386) " stroke-linecap="round" /><path d="M 0.5 0.5 L 0.5 -330.5 L 110.5 -330.5 L 110.5 0.5 L 0.5 0.5 Z" style="stroke:#FF6600;stroke-opacity:1; stroke-width: 1; stroke-dasharray: 5 5; stroke-linecap: butt; stroke-linejoin: miter; stroke-miterlimit: 10;fill:#FF6600;fill-opacity:1; fill-opacity: 0.2; fill-rule: nonzero; opacity: 1" transform=" matrix(1 0 0 1 733 386) " stroke-linecap="round" /><path d="M 69.5 350.65 L 207.5 129.75 L 345.5 26.35 L 482.5 115.65 L 620.5 183.8 M 0 0 L 0 0" style="stroke:#FCD202;stroke-opacity:1; stroke-width: 3; stroke-dasharray: none; stroke-linecap: butt; stroke-linejoin: round; stroke-miterlimit: 10; fill: none; fill-rule: nonzero; opacity: 1" transform=" matrix(1 0 0 1 30 10) " stroke-linecap="round"  clip-path="url(#AmChartsEl-97)" /><rect x="0" y="0" rx="0" ry="0" width="827" height="376" style="stroke: none; stroke-width: 0; stroke-dasharray: none; stroke-linecap: butt; stroke-linejoin: miter; stroke-miterlimit: 10; fill: none; fill-rule: nonzero; opacity: 1" transform=""/><path d="M 620.5 183.8 L 758.5 73.35 M 0 0 L 0 0" style="stroke:#FCD202;stroke-opacity:1; stroke-width: 3; stroke-dasharray: 5 5; stroke-linecap: butt; stroke-linejoin: round; stroke-miterlimit: 10; fill: none; fill-rule: nonzero; opacity: 1" transform=" matrix(1 0 0 1 30 10) " stroke-linecap="round"  clip-path="url(#AmChartsEl-98)" /><rect x="0" y="0" rx="0" ry="0" width="827" height="376" style="stroke: none; stroke-width: 0; stroke-dasharray: none; stroke-linecap: butt; stroke-linejoin: miter; stroke-miterlimit: 10; fill: none; fill-rule: nonzero; opacity: 1" transform=""/><path d="M 0.5 0.5 L 827.5 0.5" style="stroke:#000000;stroke-opacity:1; stroke-opacity: 0; stroke-width: 1; stroke-dasharray: none; stroke-linecap: butt; stroke-linejoin: miter; stroke-miterlimit: 10; fill: none; fill-rule: nonzero; opacity: 1" transform=" matrix(1 0 0 1 30 386) " stroke-linecap="round" /><path d="M 0.5 0.5 L 0.5 376.5" style="stroke:#000000;stroke-opacity:1; stroke-opacity: 0; stroke-width: 1; stroke-dasharray: none; stroke-linecap: butt; stroke-linejoin: miter; stroke-miterlimit: 10; fill: none; fill-rule: nonzero; opacity: 1" transform=" matrix(1 0 0 1 30 10) " stroke-linecap="round" /><circle cx="0" cy="0" r="3.5" style="stroke:#FFFFFF;stroke-opacity:1; stroke-width: 3; stroke-dasharray: none; stroke-linecap: butt; stroke-linejoin: miter; stroke-miterlimit: 10;fill:#FFFFFF;fill-opacity:1; fill-rule: nonzero; opacity: 1" transform="  matrix(1 0 0 1 99 360) "/><circle cx="0" cy="0" r="3.5" style="stroke:#FFFFFF;stroke-opacity:1; stroke-width: 3; stroke-dasharray: none; stroke-linecap: butt; stroke-linejoin: miter; stroke-miterlimit: 10;fill:#FFFFFF;fill-opacity:1; fill-rule: nonzero; opacity: 1" transform="  matrix(1 0 0 1 237 139) "/><circle cx="0" cy="0" r="3.5" style="stroke:#FFFFFF;stroke-opacity:1; stroke-width: 3; stroke-dasharray: none; stroke-linecap: butt; stroke-linejoin: miter; stroke-miterlimit: 10;fill:#FFFFFF;fill-opacity:1; fill-rule: nonzero; opacity: 1" transform="  matrix(1 0 0 1 375 36) "/><circle cx="0" cy="0" r="3.5" style="stroke:#FFFFFF;stroke-opacity:1; stroke-width: 3; stroke-dasharray: none; stroke-linecap: butt; stroke-linejoin: miter; stroke-miterlimit: 10;fill:#FFFFFF;fill-opacity:1; fill-rule: nonzero; opacity: 1" transform="  matrix(1 0 0 1 512 125) "/><circle cx="0" cy="0" r="3.5" style="stroke:#FFFFFF;stroke-opacity:1; stroke-width: 3; stroke-dasharray: none; stroke-linecap: butt; stroke-linejoin: miter; stroke-miterlimit: 10;fill:#FFFFFF;fill-opacity:1; fill-rule: nonzero; opacity: 1" transform="  matrix(1 0 0 1 650 193) "/><circle cx="0" cy="0" r="3.5" style="stroke:#FFFFFF;stroke-opacity:1; stroke-width: 3; stroke-dasharray: none; stroke-linecap: butt; stroke-linejoin: miter; stroke-miterlimit: 10;fill:#FFFFFF;fill-opacity:1; fill-rule: nonzero; opacity: 1" transform="  matrix(1 0 0 1 788 83) "/><g transform=" matrix(1 0 0 1 98.91666666666667 398.5) "><text font-family="Verdana" font-size="11" font-weight="normal" style="stroke: none; stroke-width: 1; stroke-dasharray: none; stroke-linecap: butt; stroke-linejoin: miter; stroke-miterlimit: 10;fill:#000000;fill-opacity:1; fill-rule: nonzero; opacity: 1" ><tspan x="-13.99" y="5.49" fill="rgba(0,0,0,1)">2009</tspan></text></g><g transform=" matrix(1 0 0 1 236.91666666666669 398.5) "><text font-family="Verdana" font-size="11" font-weight="normal" style="stroke: none; stroke-width: 1; stroke-dasharray: none; stroke-linecap: butt; stroke-linejoin: miter; stroke-miterlimit: 10;fill:#000000;fill-opacity:1; fill-rule: nonzero; opacity: 1" ><tspan x="-13.99" y="5.49" fill="rgba(0,0,0,1)">2010</tspan></text></g><g transform=" matrix(1 0 0 1 374.9166666666667 398.5) "><text font-family="Verdana" font-size="11" font-weight="normal" style="stroke: none; stroke-width: 1; stroke-dasharray: none; stroke-linecap: butt; stroke-linejoin: miter; stroke-miterlimit: 10;fill:#000000;fill-opacity:1; fill-rule: nonzero; opacity: 1" ><tspan x="-13.99" y="5.49" fill="rgba(0,0,0,1)">2011</tspan></text></g><g transform=" matrix(1 0 0 1 511.9166666666667 398.5) "><text font-family="Verdana" font-size="11" font-weight="normal" style="stroke: none; stroke-width: 1; stroke-dasharray: none; stroke-linecap: butt; stroke-linejoin: miter; stroke-miterlimit: 10;fill:#000000;fill-opacity:1; fill-rule: nonzero; opacity: 1" ><tspan x="-13.99" y="5.49" fill="rgba(0,0,0,1)">2012</tspan></text></g><g transform=" matrix(1 0 0 1 649.9166666666666 398.5) "><text font-family="Verdana" font-size="11" font-weight="normal" style="stroke: none; stroke-width: 1; stroke-dasharray: none; stroke-linecap: butt; stroke-linejoin: miter; stroke-miterlimit: 10;fill:#000000;fill-opacity:1; fill-rule: nonzero; opacity: 1" ><tspan x="-13.99" y="5.49" fill="rgba(0,0,0,1)">2013</tspan></text></g><g transform=" matrix(1 0 0 1 787.9166666666666 398.5) "><text font-family="Verdana" font-size="11" font-weight="normal" style="stroke: none; stroke-width: 1; stroke-dasharray: none; stroke-linecap: butt; stroke-linejoin: miter; stroke-miterlimit: 10;fill:#000000;fill-opacity:1; fill-rule: nonzero; opacity: 1" ><tspan x="-13.99" y="5.49" fill="rgba(0,0,0,1)">2014</tspan></text></g><g transform=" matrix(1 0 0 1 18 384.6875) "><text font-family="Verdana" font-size="11" font-weight="normal" style="stroke: none; stroke-width: 1; stroke-dasharray: none; stroke-linecap: butt; stroke-linejoin: miter; stroke-miterlimit: 10;fill:#000000;fill-opacity:1; fill-rule: nonzero; opacity: 1" ><tspan x="-14.49" y="5.49" fill="rgba(0,0,0,1)">20</tspan></text></g><g transform=" matrix(1 0 0 1 18 337.6875) "><text font-family="Verdana" font-size="11" font-weight="normal" style="stroke: none; stroke-width: 1; stroke-dasharray: none; stroke-linecap: butt; stroke-linejoin: miter; stroke-miterlimit: 10;fill:#000000;fill-opacity:1; fill-rule: nonzero; opacity: 1" ><tspan x="-14.49" y="5.49" fill="rgba(0,0,0,1)">22</tspan></text></g><g transform=" matrix(1 0 0 1 18 290.6875) "><text font-family="Verdana" font-size="11" font-weight="normal" style="stroke: none; stroke-width: 1; stroke-dasharray: none; stroke-linecap: butt; stroke-linejoin: miter; stroke-miterlimit: 10;fill:#000000;fill-opacity:1; fill-rule: nonzero; opacity: 1" ><tspan x="-14.49" y="5.49" fill="rgba(0,0,0,1)">24</tspan></text></g><g transform=" matrix(1 0 0 1 18 243.6875) "><text font-family="Verdana" font-size="11" font-weight="normal" style="stroke: none; stroke-width: 1; stroke-dasharray: none; stroke-linecap: butt; stroke-linejoin: miter; stroke-miterlimit: 10;fill:#000000;fill-opacity:1; fill-rule: nonzero; opacity: 1" ><tspan x="-14.49" y="5.49" fill="rgba(0,0,0,1)">26</tspan></text></g><g transform=" matrix(1 0 0 1 18 196.6875) "><text font-family="Verdana" font-size="11" font-weight="normal" style="stroke: none; stroke-width: 1; stroke-dasharray: none; stroke-linecap: butt; stroke-linejoin: miter; stroke-miterlimit: 10;fill:#000000;fill-opacity:1; fill-rule: nonzero; opacity: 1" ><tspan x="-14.49" y="5.49" fill="rgba(0,0,0,1)">28</tspan></text></g><g transform=" matrix(1 0 0 1 18 149.6875) "><text font-family="Verdana" font-size="11" font-weight="normal" style="stroke: none; stroke-width: 1; stroke-dasharray: none; stroke-linecap: butt; stroke-linejoin: miter; stroke-miterlimit: 10;fill:#000000;fill-opacity:1; fill-rule: nonzero; opacity: 1" ><tspan x="-14.49" y="5.49" fill="rgba(0,0,0,1)">30</tspan></text></g><g transform=" matrix(1 0 0 1 18 102.6875) "><text font-family="Verdana" font-size="11" font-weight="normal" style="stroke: none; stroke-width: 1; stroke-dasharray: none; stroke-linecap: butt; stroke-linejoin: miter; stroke-miterlimit: 10;fill:#000000;fill-opacity:1; fill-rule: nonzero; opacity: 1" ><tspan x="-14.49" y="5.49" fill="rgba(0,0,0,1)">32</tspan></text></g><g transform=" matrix(1 0 0 1 18 55.6875) "><text font-family="Verdana" font-size="11" font-weight="normal" style="stroke: none; stroke-width: 1; stroke-dasharray: none; stroke-linecap: butt; stroke-linejoin: miter; stroke-miterlimit: 10;fill:#000000;fill-opacity:1; fill-rule: nonzero; opacity: 1" ><tspan x="-14.49" y="5.49" fill="rgba(0,0,0,1)">34</tspan></text></g><g transform=" matrix(1 0 0 1 18 8.6875) "><text font-family="Verdana" font-size="11" font-weight="normal" style="stroke: none; stroke-width: 1; stroke-dasharray: none; stroke-linecap: butt; stroke-linejoin: miter; stroke-miterlimit: 10;fill:#000000;fill-opacity:1; fill-rule: nonzero; opacity: 1" ><tspan x="-14.49" y="5.49" fill="rgba(0,0,0,1)">36</tspan></text></g></g><clipPath xmlns="http://www.w3.org/2000/svg" id="AmChartsEl-97"><rect x="0" y="0" width="827" height="376" rx="0" ry="0" stroke-width="0" fill="none" fill-opacity="0" svgUid="0"/></clipPath><clipPath xmlns="http://www.w3.org/2000/svg" id="AmChartsEl-98"><rect x="0" y="0" width="827" height="376" rx="0" ry="0" stroke-width="0" fill="none" fill-opacity="0" svgUid="0"/></clipPath></svg>