<?xml version="1.0" encoding="UTF-8" standalone="no" ?><!DOCTYPE svg PUBLIC "-//W3C//DTD SVG 1.1//EN" "http://www.w3.org/Graphics/SVG/1.1/DTD/svg11.dtd"><svg xmlns="http://www.w3.org/2000/svg" xmlns:xlink="http://www.w3.org/1999/xlink" version="1.1" width="1056" height="538" style="background-color: #FFFFFF" viewBox="0 0 1056 538" xml:space="preserve"><desc>Created with Fabric.js 1.6.2</desc><defs></defs><g style="stroke: none; stroke-width: 1; stroke-dasharray: none; stroke-linecap: butt; stroke-linejoin: miter; stroke-miterlimit: 10; fill: none; fill-rule: nonzero; opacity: 1" transform="translate(0.5 0.5)" ><path d="M 0.5 0.5 L 1055.5 0.5 L 1055.5 537.5 L 0.5 537.5 Z" style="stroke:#000000;stroke-opacity:1; stroke-opacity: 0; stroke-width: 1; stroke-dasharray: none; stroke-linecap: butt; stroke-linejoin: miter; stroke-miterlimit: 10;fill:#FFFFFF;fill-opacity:1; fill-opacity: 0; fill-rule: nonzero; opacity: 1" transform="" stroke-linecap="round" /><path d="M 0.5 0.5 L 971.5 0.5 L 971.5 461.5 L 0.5 461.5 L 0.5 0.5 Z" style="stroke:#000000;stroke-opacity:1; stroke-opacity: 0; stroke-width: 1; stroke-dasharray: none; stroke-linecap: butt; stroke-linejoin: miter; stroke-miterlimit: 10;fill:#FFFFFF;fill-opacity:1; fill-opacity: 0; fill-rule: nonzero; opacity: 1" transform=" matrix(1 0 0 1 64 56) " stroke-linecap="round" /><path d="M 0.5 0.5 L 6.5 0.5" style="stroke:#DADADA;stroke-opacity:1; stroke-width: 1; stroke-dasharray: none; stroke-linecap: butt; stroke-linejoin: miter; stroke-miterlimit: 10; fill: none; fill-rule: nonzero; opacity: 1" transform=" matrix(1 0 0 1 58 56) " stroke-linecap="round" /><path d="M 0.5 0.5 L 0.5 0.5 L 971.5 0.5" style="stroke:#000000;stroke-opacity:1; stroke-opacity: 0.07; stroke-width: 1; stroke-dasharray: none; stroke-linecap: butt; stroke-linejoin: miter; stroke-miterlimit: 10; fill: none; fill-rule: nonzero; opacity: 1" transform=" matrix(1 0 0 1 64 56) " stroke-linecap="round" /><path d="M 0.5 92.5 L 6.5 92.5" style="stroke:#DADADA;stroke-opacity:1; stroke-width: 1; stroke-dasharray: none; stroke-linecap: butt; stroke-linejoin: miter; stroke-miterlimit: 10; fill: none; fill-rule: nonzero; opacity: 1" transform=" matrix(1 0 0 1 58 56) " stroke-linecap="round" /><path d="M 0.5 92.5 L 0.5 92.5 L 971.5 92.5" style="stroke:#000000;stroke-opacity:1; stroke-opacity: 0.07; stroke-width: 1; stroke-dasharray: none; stroke-linecap: butt; stroke-linejoin: miter; stroke-miterlimit: 10; fill: none; fill-rule: nonzero; opacity: 1" transform=" matrix(1 0 0 1 64 56) " stroke-linecap="round" /><path d="M 0.5 184.5 L 6.5 184.5" style="stroke:#DADADA;stroke-opacity:1; stroke-width: 1; stroke-dasharray: none; stroke-linecap: butt; stroke-linejoin: miter; stroke-miterlimit: 10; fill: none; fill-rule: nonzero; opacity: 1" transform=" matrix(1 0 0 1 58 56) " stroke-linecap="round" /><path d="M 0.5 184.5 L 0.5 184.5 L 971.5 184.5" style="stroke:#000000;stroke-opacity:1; stroke-opacity: 0.07; stroke-width: 1; stroke-dasharray: none; stroke-linecap: butt; stroke-linejoin: miter; stroke-miterlimit: 10; fill: none; fill-rule: nonzero; opacity: 1" transform=" matrix(1 0 0 1 64 56) " stroke-linecap="round" /><path d="M 0.5 277.5 L 6.5 277.5" style="stroke:#DADADA;stroke-opacity:1; stroke-width: 1; stroke-dasharray: none; stroke-linecap: butt; stroke-linejoin: miter; stroke-miterlimit: 10; fill: none; fill-rule: nonzero; opacity: 1" transform=" matrix(1 0 0 1 58 56) " stroke-linecap="round" /><path d="M 0.5 277.5 L 0.5 277.5 L 971.5 277.5" style="stroke:#000000;stroke-opacity:1; stroke-opacity: 0.07; stroke-width: 1; stroke-dasharray: none; stroke-linecap: butt; stroke-linejoin: miter; stroke-miterlimit: 10; fill: none; fill-rule: nonzero; opacity: 1" transform=" matrix(1 0 0 1 64 56) " stroke-linecap="round" /><path d="M 0.5 369.5 L 6.5 369.5" style="stroke:#DADADA;stroke-opacity:1; stroke-width: 1; stroke-dasharray: none; stroke-linecap: butt; stroke-linejoin: miter; stroke-miterlimit: 10; fill: none; fill-rule: nonzero; opacity: 1" transform=" matrix(1 0 0 1 58 56) " stroke-linecap="round" /><path d="M 0.5 369.5 L 0.5 369.5 L 971.5 369.5" style="stroke:#000000;stroke-opacity:1; stroke-opacity: 0.07; stroke-width: 1; stroke-dasharray: none; stroke-linecap: butt; stroke-linejoin: miter; stroke-miterlimit: 10; fill: none; fill-rule: nonzero; opacity: 1" transform=" matrix(1 0 0 1 64 56) " stroke-linecap="round" /><path d="M 0.5 461.5 L 6.5 461.5" style="stroke:#DADADA;stroke-opacity:1; stroke-width: 1; stroke-dasharray: none; stroke-linecap: butt; stroke-linejoin: miter; stroke-miterlimit: 10; fill: none; fill-rule: nonzero; opacity: 1" transform=" matrix(1 0 0 1 58 56) " stroke-linecap="round" /><path d="M 0.5 461.5 L 0.5 461.5 L 971.5 461.5" style="stroke:#000000;stroke-opacity:1; stroke-opacity: 0.07; stroke-width: 1; stroke-dasharray: none; stroke-linecap: butt; stroke-linejoin: miter; stroke-miterlimit: 10; fill: none; fill-rule: nonzero; opacity: 1" transform=" matrix(1 0 0 1 64 56) " stroke-linecap="round" /><path d="M 0.5 0.5 L 0.5 5.5" style="stroke:#000000;stroke-opacity:1; stroke-width: 1; stroke-dasharray: none; stroke-linecap: butt; stroke-linejoin: miter; stroke-miterlimit: 10; fill: none; fill-rule: nonzero; opacity: 1" transform=" matrix(1 0 0 1 64 51) " stroke-linecap="round" /><path d="M 0.5 461.5 L 0.5 461.5 L 0.5 0.5" style="stroke:#000000;stroke-opacity:1; stroke-opacity: 0.07; stroke-width: 1; stroke-dasharray: none; stroke-linecap: butt; stroke-linejoin: miter; stroke-miterlimit: 10; fill: none; fill-rule: nonzero; opacity: 1" transform=" matrix(1 0 0 1 64 56) " stroke-linecap="round" /><path d="M 121.5 0.5 L 121.5 5.5" style="stroke:#000000;stroke-opacity:1; stroke-width: 1; stroke-dasharray: none; stroke-linecap: butt; stroke-linejoin: miter; stroke-miterlimit: 10; fill: none; fill-rule: nonzero; opacity: 1" transform=" matrix(1 0 0 1 64 51) " stroke-linecap="round" /><path d="M 121.5 461.5 L 121.5 461.5 L 121.5 0.5" style="stroke:#000000;stroke-opacity:1; stroke-opacity: 0.07; stroke-width: 1; stroke-dasharray: none; stroke-linecap: butt; stroke-linejoin: miter; stroke-miterlimit: 10; fill: none; fill-rule: nonzero; opacity: 1" transform=" matrix(1 0 0 1 64 56) " stroke-linecap="round" /><path d="M 243.5 0.5 L 243.5 5.5" style="stroke:#000000;stroke-opacity:1; stroke-width: 1; stroke-dasharray: none; stroke-linecap: butt; stroke-linejoin: miter; stroke-miterlimit: 10; fill: none; fill-rule: nonzero; opacity: 1" transform=" matrix(1 0 0 1 64 51) " stroke-linecap="round" /><path d="M 243.5 461.5 L 243.5 461.5 L 243.5 0.5" style="stroke:#000000;stroke-opacity:1; stroke-opacity: 0.07; stroke-width: 1; stroke-dasharray: none; stroke-linecap: butt; stroke-linejoin: miter; stroke-miterlimit: 10; fill: none; fill-rule: nonzero; opacity: 1" transform=" matrix(1 0 0 1 64 56) " stroke-linecap="round" /><path d="M 364.5 0.5 L 364.5 5.5" style="stroke:#000000;stroke-opacity:1; stroke-width: 1; stroke-dasharray: none; stroke-linecap: butt; stroke-linejoin: miter; stroke-miterlimit: 10; fill: none; fill-rule: nonzero; opacity: 1" transform=" matrix(1 0 0 1 64 51) " stroke-linecap="round" /><path d="M 364.5 461.5 L 364.5 461.5 L 364.5 0.5" style="stroke:#000000;stroke-opacity:1; stroke-opacity: 0.07; stroke-width: 1; stroke-dasharray: none; stroke-linecap: butt; stroke-linejoin: miter; stroke-miterlimit: 10; fill: none; fill-rule: nonzero; opacity: 1" transform=" matrix(1 0 0 1 64 56) " stroke-linecap="round" /><path d="M 486.5 0.5 L 486.5 5.5" style="stroke:#000000;stroke-opacity:1; stroke-width: 1; stroke-dasharray: none; stroke-linecap: butt; stroke-linejoin: miter; stroke-miterlimit: 10; fill: none; fill-rule: nonzero; opacity: 1" transform=" matrix(1 0 0 1 64 51) " stroke-linecap="round" /><path d="M 486.5 461.5 L 486.5 461.5 L 486.5 0.5" style="stroke:#000000;stroke-opacity:1; stroke-opacity: 0.07; stroke-width: 1; stroke-dasharray: none; stroke-linecap: butt; stroke-linejoin: miter; stroke-miterlimit: 10; fill: none; fill-rule: nonzero; opacity: 1" transform=" matrix(1 0 0 1 64 56) " stroke-linecap="round" /><path d="M 607.5 0.5 L 607.5 5.5" style="stroke:#000000;stroke-opacity:1; stroke-width: 1; stroke-dasharray: none; stroke-linecap: butt; stroke-linejoin: miter; stroke-miterlimit: 10; fill: none; fill-rule: nonzero; opacity: 1" transform=" matrix(1 0 0 1 64 51) " stroke-linecap="round" /><path d="M 607.5 461.5 L 607.5 461.5 L 607.5 0.5" style="stroke:#000000;stroke-opacity:1; stroke-opacity: 0.07; stroke-width: 1; stroke-dasharray: none; stroke-linecap: butt; stroke-linejoin: miter; stroke-miterlimit: 10; fill: none; fill-rule: nonzero; opacity: 1" transform=" matrix(1 0 0 1 64 56) " stroke-linecap="round" /><path d="M 728.5 0.5 L 728.5 5.5" style="stroke:#000000;stroke-opacity:1; stroke-width: 1; stroke-dasharray: none; stroke-linecap: butt; stroke-linejoin: miter; stroke-miterlimit: 10; fill: none; fill-rule: nonzero; opacity: 1" transform=" matrix(1 0 0 1 64 51) " stroke-linecap="round" /><path d="M 728.5 461.5 L 728.5 461.5 L 728.5 0.5" style="stroke:#000000;stroke-opacity:1; stroke-opacity: 0.07; stroke-width: 1; stroke-dasharray: none; stroke-linecap: butt; stroke-linejoin: miter; stroke-miterlimit: 10; fill: none; fill-rule: nonzero; opacity: 1" transform=" matrix(1 0 0 1 64 56) " stroke-linecap="round" /><path d="M 850.5 0.5 L 850.5 5.5" style="stroke:#000000;stroke-opacity:1; stroke-width: 1; stroke-dasharray: none; stroke-linecap: butt; stroke-linejoin: miter; stroke-miterlimit: 10; fill: none; fill-rule: nonzero; opacity: 1" transform=" matrix(1 0 0 1 64 51) " stroke-linecap="round" /><path d="M 850.5 461.5 L 850.5 461.5 L 850.5 0.5" style="stroke:#000000;stroke-opacity:1; stroke-opacity: 0.07; stroke-width: 1; stroke-dasharray: none; stroke-linecap: butt; stroke-linejoin: miter; stroke-miterlimit: 10; fill: none; fill-rule: nonzero; opacity: 1" transform=" matrix(1 0 0 1 64 56) " stroke-linecap="round" /><path d="M 971.5 0.5 L 971.5 5.5" style="stroke:#000000;stroke-opacity:1; stroke-width: 1; stroke-dasharray: none; stroke-linecap: butt; stroke-linejoin: miter; stroke-miterlimit: 10; fill: none; fill-rule: nonzero; opacity: 1" transform=" matrix(1 0 0 1 64 51) " stroke-linecap="round" /><path d="M 971.5 461.5 L 971.5 461.5 L 971.5 0.5" style="stroke:#000000;stroke-opacity:1; stroke-opacity: 0.07; stroke-width: 1; stroke-dasharray: none; stroke-linecap: butt; stroke-linejoin: miter; stroke-miterlimit: 10; fill: none; fill-rule: nonzero; opacity: 1" transform=" matrix(1 0 0 1 64 56) " stroke-linecap="round" /><path d="M 0.5 0.5 L 0.5 34.5 L 583.5 34.5 L 583.5 0.5 L 0.5 0.5 Z" style="stroke:#000000;stroke-opacity:1; stroke-opacity: 0.4; stroke-width: 1; stroke-dasharray: none; stroke-linecap: butt; stroke-linejoin: miter; stroke-miterlimit: 10;fill:#1B87E3;fill-opacity:1; fill-opacity: 0.6; fill-rule: nonzero; opacity: 1" transform=" matrix(1 0 0 1 64 65) " stroke-linecap="round" /><path d="M 0.5 0.5 L 0.5 34.5 L 874.5 34.5 L 874.5 0.5 L 0.5 0.5 Z" style="stroke:#000000;stroke-opacity:1; stroke-opacity: 0.4; stroke-width: 1; stroke-dasharray: none; stroke-linecap: butt; stroke-linejoin: miter; stroke-miterlimit: 10;fill:#1B87E3;fill-opacity:1; fill-opacity: 0.6; fill-rule: nonzero; opacity: 1" transform=" matrix(1 0 0 1 64 157) " stroke-linecap="round" /><path d="M 0.5 0.5 L 0.5 34.5 L 558.5 34.5 L 558.5 0.5 L 0.5 0.5 Z" style="stroke:#000000;stroke-opacity:1; stroke-opacity: 0.4; stroke-width: 1; stroke-dasharray: none; stroke-linecap: butt; stroke-linejoin: miter; stroke-miterlimit: 10;fill:#1B87E3;fill-opacity:1; fill-opacity: 0.6; fill-rule: nonzero; opacity: 1" transform=" matrix(1 0 0 1 64 250) " stroke-linecap="round" /><path d="M 0.5 0.5 L 0.5 34.5 L 777.5 34.5 L 777.5 0.5 L 0.5 0.5 Z" style="stroke:#000000;stroke-opacity:1; stroke-opacity: 0.4; stroke-width: 1; stroke-dasharray: none; stroke-linecap: butt; stroke-linejoin: miter; stroke-miterlimit: 10;fill:#1B87E3;fill-opacity:1; fill-opacity: 0.6; fill-rule: nonzero; opacity: 1" transform=" matrix(1 0 0 1 64 342) " stroke-linecap="round" /><path d="M 0.5 0.5 L 0.5 34.5 L 825.5 34.5 L 825.5 0.5 L 0.5 0.5 Z" style="stroke:#000000;stroke-opacity:1; stroke-opacity: 0.4; stroke-width: 1; stroke-dasharray: none; stroke-linecap: butt; stroke-linejoin: miter; stroke-miterlimit: 10;fill:#1B87E3;fill-opacity:1; fill-opacity: 0.6; fill-rule: nonzero; opacity: 1" transform=" matrix(1 0 0 1 64 434) " stroke-linecap="round" /><path d="M 0.5 0.5 L 0.5 34.5 L 24.5 34.5 L 24.5 0.5 L 0.5 0.5 Z" style="stroke:#000000;stroke-opacity:1; stroke-opacity: 0.4; stroke-width: 1; stroke-dasharray: none; stroke-linecap: butt; stroke-linejoin: miter; stroke-miterlimit: 10;fill:#44C597;fill-opacity:1; fill-opacity: 0.6; fill-rule: nonzero; opacity: 1" transform=" matrix(1 0 0 1 64 104) " stroke-linecap="round" /><path d="M 0.5 0.5 L 0.5 34.5 L 243.5 34.5 L 243.5 0.5 L 0.5 0.5 Z" style="stroke:#000000;stroke-opacity:1; stroke-opacity: 0.4; stroke-width: 1; stroke-dasharray: none; stroke-linecap: butt; stroke-linejoin: miter; stroke-miterlimit: 10;fill:#44C597;fill-opacity:1; fill-opacity: 0.6; fill-rule: nonzero; opacity: 1" transform=" matrix(1 0 0 1 64 196) " stroke-linecap="round" /><path d="M 0.5 0.5 L 0.5 34.5 L 49.5 34.5 L 49.5 0.5 L 0.5 0.5 Z" style="stroke:#000000;stroke-opacity:1; stroke-opacity: 0.4; stroke-width: 1; stroke-dasharray: none; stroke-linecap: butt; stroke-linejoin: miter; stroke-miterlimit: 10;fill:#44C597;fill-opacity:1; fill-opacity: 0.6; fill-rule: nonzero; opacity: 1" transform=" matrix(1 0 0 1 64 289) " stroke-linecap="round" /><path d="M 0.5 0.5 L 0.5 34.5 L 170.5 34.5 L 170.5 0.5 L 0.5 0.5 Z" style="stroke:#000000;stroke-opacity:1; stroke-opacity: 0.4; stroke-width: 1; stroke-dasharray: none; stroke-linecap: butt; stroke-linejoin: miter; stroke-miterlimit: 10;fill:#44C597;fill-opacity:1; fill-opacity: 0.6; fill-rule: nonzero; opacity: 1" transform=" matrix(1 0 0 1 64 381) " stroke-linecap="round" /><path d="M 0.5 0.5 L 0.5 34.5 L 146.5 34.5 L 146.5 0.5 L 0.5 0.5 Z" style="stroke:#000000;stroke-opacity:1; stroke-opacity: 0.4; stroke-width: 1; stroke-dasharray: none; stroke-linecap: butt; stroke-linejoin: miter; stroke-miterlimit: 10;fill:#44C597;fill-opacity:1; fill-opacity: 0.6; fill-rule: nonzero; opacity: 1" transform=" matrix(1 0 0 1 64 473) " stroke-linecap="round" /><path d="M 0.5 0.5 L 0.5 461.5" style="stroke:#DADADA;stroke-opacity:1; stroke-width: 1; stroke-dasharray: none; stroke-linecap: butt; stroke-linejoin: miter; stroke-miterlimit: 10; fill: none; fill-rule: nonzero; opacity: 1" transform=" matrix(1 0 0 1 64 56) " stroke-linecap="round" /><path d="M 0.5 0.5 L 971.5 0.5" style="stroke:#000000;stroke-opacity:1; stroke-width: 1; stroke-dasharray: none; stroke-linecap: butt; stroke-linejoin: miter; stroke-miterlimit: 10; fill: none; fill-rule: nonzero; opacity: 1" transform=" matrix(1 0 0 1 64 56) " stroke-linecap="round" /><path d="M 0.5 0.5 L 0.5 0.5 L 0.5 461.5" style="stroke:#CC0000;stroke-opacity:1; stroke-opacity: 0; stroke-width: 1; stroke-dasharray: none; stroke-linecap: butt; stroke-linejoin: miter; stroke-miterlimit: 10; fill: none; fill-rule: nonzero; opacity: 0" transform=" matrix(1 0 0 1 665 56) " stroke-linecap="round"  clip-path="url(#AmChartsEl-664)" /><path d="M 0.5 0.5 L 971.5 0.5 L 971.5 0.5" style="stroke:#CC0000;stroke-opacity:1; stroke-opacity: 0; stroke-width: 1; stroke-dasharray: none; stroke-linecap: butt; stroke-linejoin: miter; stroke-miterlimit: 10; fill: none; fill-rule: nonzero; opacity: 0" transform=" matrix(1 0 0 1 64 102) " stroke-linecap="round" /><rect x="0" y="0" rx="0" ry="0" width="971" height="461" style="stroke: none; stroke-width: 0; stroke-dasharray: none; stroke-linecap: butt; stroke-linejoin: miter; stroke-miterlimit: 10; fill: none; fill-rule: nonzero; opacity: 1" transform=""/><g transform=" matrix(1 0 0 1 52 54.6875) "><text font-family="Verdana" font-size="11" font-weight="normal" style="stroke: none; stroke-width: 1; stroke-dasharray: none; stroke-linecap: butt; stroke-linejoin: miter; stroke-miterlimit: 10;fill:#000000;fill-opacity:1; fill-rule: nonzero; opacity: 1" ><tspan x="-37.09" y="5.49" fill="rgba(0,0,0,1)">Oct 13</tspan></text></g><g transform=" matrix(1 0 0 1 52 146.6875) "><text font-family="Verdana" font-size="11" font-weight="normal" style="stroke: none; stroke-width: 1; stroke-dasharray: none; stroke-linecap: butt; stroke-linejoin: miter; stroke-miterlimit: 10;fill:#000000;fill-opacity:1; fill-rule: nonzero; opacity: 1" ><tspan x="-37.09" y="5.49" fill="rgba(0,0,0,1)">Oct 14</tspan></text></g><g transform=" matrix(1 0 0 1 52 238.6875) "><text font-family="Verdana" font-size="11" font-weight="normal" style="stroke: none; stroke-width: 1; stroke-dasharray: none; stroke-linecap: butt; stroke-linejoin: miter; stroke-miterlimit: 10;fill:#000000;fill-opacity:1; fill-rule: nonzero; opacity: 1" ><tspan x="-37.09" y="5.49" fill="rgba(0,0,0,1)">Oct 15</tspan></text></g><g transform=" matrix(1 0 0 1 52 331.6875) "><text font-family="Verdana" font-size="11" font-weight="normal" style="stroke: none; stroke-width: 1; stroke-dasharray: none; stroke-linecap: butt; stroke-linejoin: miter; stroke-miterlimit: 10;fill:#000000;fill-opacity:1; fill-rule: nonzero; opacity: 1" ><tspan x="-37.09" y="5.49" fill="rgba(0,0,0,1)">Oct 16</tspan></text></g><g transform=" matrix(1 0 0 1 52 423.6875) "><text font-family="Verdana" font-size="11" font-weight="normal" style="stroke: none; stroke-width: 1; stroke-dasharray: none; stroke-linecap: butt; stroke-linejoin: miter; stroke-miterlimit: 10;fill:#000000;fill-opacity:1; fill-rule: nonzero; opacity: 1" ><tspan x="-37.09" y="5.49" fill="rgba(0,0,0,1)">Oct 17</tspan></text></g><g transform=" matrix(1 0 0 1 52 515.6875) "><text font-family="Verdana" font-size="11" font-weight="normal" style="stroke: none; stroke-width: 1; stroke-dasharray: none; stroke-linecap: butt; stroke-linejoin: miter; stroke-miterlimit: 10;fill:#000000;fill-opacity:1; fill-rule: nonzero; opacity: 1" ><tspan x="-37.09" y="5.49" fill="rgba(0,0,0,1)">Oct 18</tspan></text></g><g transform=" matrix(1 0 0 1 64 38.5) "><text font-family="Verdana" font-size="11" font-weight="normal" style="stroke: none; stroke-width: 1; stroke-dasharray: none; stroke-linecap: butt; stroke-linejoin: miter; stroke-miterlimit: 10;fill:#000000;fill-opacity:1; fill-rule: nonzero; opacity: 1" ><tspan x="-3.51" y="5.49" fill="rgba(0,0,0,1)">5</tspan></text></g><g transform=" matrix(1 0 0 1 185 38.5) "><text font-family="Verdana" font-size="11" font-weight="normal" style="stroke: none; stroke-width: 1; stroke-dasharray: none; stroke-linecap: butt; stroke-linejoin: miter; stroke-miterlimit: 10;fill:#000000;fill-opacity:1; fill-rule: nonzero; opacity: 1" ><tspan x="-7.01" y="5.49" fill="rgba(0,0,0,1)">10</tspan></text></g><g transform=" matrix(1 0 0 1 307 38.5) "><text font-family="Verdana" font-size="11" font-weight="normal" style="stroke: none; stroke-width: 1; stroke-dasharray: none; stroke-linecap: butt; stroke-linejoin: miter; stroke-miterlimit: 10;fill:#000000;fill-opacity:1; fill-rule: nonzero; opacity: 1" ><tspan x="-7.01" y="5.49" fill="rgba(0,0,0,1)">15</tspan></text></g><g transform=" matrix(1 0 0 1 428 38.5) "><text font-family="Verdana" font-size="11" font-weight="normal" style="stroke: none; stroke-width: 1; stroke-dasharray: none; stroke-linecap: butt; stroke-linejoin: miter; stroke-miterlimit: 10;fill:#000000;fill-opacity:1; fill-rule: nonzero; opacity: 1" ><tspan x="-7.01" y="5.49" fill="rgba(0,0,0,1)">20</tspan></text></g><g transform=" matrix(1 0 0 1 550 38.5) "><text font-family="Verdana" font-size="11" font-weight="normal" style="stroke: none; stroke-width: 1; stroke-dasharray: none; stroke-linecap: butt; stroke-linejoin: miter; stroke-miterlimit: 10;fill:#000000;fill-opacity:1; fill-rule: nonzero; opacity: 1" ><tspan x="-7.01" y="5.49" fill="rgba(0,0,0,1)">25</tspan></text></g><g transform=" matrix(1 0 0 1 671 38.5) "><text font-family="Verdana" font-size="11" font-weight="normal" style="stroke: none; stroke-width: 1; stroke-dasharray: none; stroke-linecap: butt; stroke-linejoin: miter; stroke-miterlimit: 10;fill:#000000;fill-opacity:1; fill-rule: nonzero; opacity: 1" ><tspan x="-7.01" y="5.49" fill="rgba(0,0,0,1)">30</tspan></text></g><g transform=" matrix(1 0 0 1 792 38.5) "><text font-family="Verdana" font-size="11" font-weight="normal" style="stroke: none; stroke-width: 1; stroke-dasharray: none; stroke-linecap: butt; stroke-linejoin: miter; stroke-miterlimit: 10;fill:#000000;fill-opacity:1; fill-rule: nonzero; opacity: 1" ><tspan x="-7.01" y="5.49" fill="rgba(0,0,0,1)">35</tspan></text></g><g transform=" matrix(1 0 0 1 914 38.5) "><text font-family="Verdana" font-size="11" font-weight="normal" style="stroke: none; stroke-width: 1; stroke-dasharray: none; stroke-linecap: butt; stroke-linejoin: miter; stroke-miterlimit: 10;fill:#000000;fill-opacity:1; fill-rule: nonzero; opacity: 1" ><tspan x="-7.01" y="5.49" fill="rgba(0,0,0,1)">40</tspan></text></g><g transform=" matrix(1 0 0 1 1035 38.5) "><text font-family="Verdana" font-size="11" font-weight="normal" style="stroke: none; stroke-width: 1; stroke-dasharray: none; stroke-linecap: butt; stroke-linejoin: miter; stroke-miterlimit: 10;fill:#000000;fill-opacity:1; fill-rule: nonzero; opacity: 1" ><tspan x="-7.01" y="5.49" fill="rgba(0,0,0,1)">45</tspan></text></g><g transform=" matrix(1 0 0 1 550 16) "><text font-family="Verdana" font-size="12" font-weight="bold" style="stroke: none; stroke-width: 1; stroke-dasharray: none; stroke-linecap: butt; stroke-linejoin: miter; stroke-miterlimit: 10;fill:#000000;fill-opacity:1; fill-rule: nonzero; opacity: 1" ><tspan x="-54.45" y="5.49" fill="rgba(0,0,0,1)">Traffic incidents</tspan></text></g><rect x="-1" y="-1" rx="0" ry="0" width="973" height="463" style="stroke: none; stroke-width: 0; stroke-dasharray: none; stroke-linecap: butt; stroke-linejoin: miter; stroke-miterlimit: 10; fill: none; fill-rule: nonzero; opacity: 1" transform=""/></g><clipPath xmlns="http://www.w3.org/2000/svg" id="AmChartsEl-664"><rect x="0" y="0" width="971" height="461" rx="0" ry="0" stroke-width="0" fill="none" fill-opacity="0" svgUid="0"/></clipPath></svg>