<?xml version="1.0" encoding="UTF-8" standalone="no" ?><!DOCTYPE svg PUBLIC "-//W3C//DTD SVG 1.1//EN" "http://www.w3.org/Graphics/SVG/1.1/DTD/svg11.dtd"><svg xmlns="http://www.w3.org/2000/svg" xmlns:xlink="http://www.w3.org/1999/xlink" version="1.1" width="841" height="376" style="background-color: #FFFFFF" viewBox="0 0 841 376" xml:space="preserve"><desc>Created with Fabric.js 1.6.2</desc><defs></defs><g style="stroke: none; stroke-width: 1; stroke-dasharray: none; stroke-linecap: butt; stroke-linejoin: miter; stroke-miterlimit: 10; fill: none; fill-rule: nonzero; opacity: 1" transform="translate(0.5 0.5)" ><path d="M 0.5 0.5 L 840.5 0.5 L 840.5 375.5 L 0.5 375.5 Z" style="stroke:#000000;stroke-opacity:1; stroke-opacity: 0; stroke-width: 1; stroke-dasharray: none; stroke-linecap: butt; stroke-linejoin: miter; stroke-miterlimit: 10;fill:#FFFFFF;fill-opacity:1; fill-opacity: 0; fill-rule: nonzero; opacity: 1" transform="" stroke-linecap="round" /><path d="M 0.5 0.5 L 760.5 0.5 L 760.5 315.5 L 0.5 315.5 L 0.5 0.5 Z" style="stroke:#000000;stroke-opacity:1; stroke-opacity: 0; stroke-width: 1; stroke-dasharray: none; stroke-linecap: butt; stroke-linejoin: miter; stroke-miterlimit: 10;fill:#FFFFFF;fill-opacity:1; fill-opacity: 0; fill-rule: nonzero; opacity: 1" transform=" matrix(1 0 0 1 40 20) " stroke-linecap="round" /><path d="M 0.5 0.5 L 0.5 5.5" style="stroke:#000000;stroke-opacity:1; stroke-opacity: 0.3; stroke-width: 1; stroke-dasharray: none; stroke-linecap: butt; stroke-linejoin: miter; stroke-miterlimit: 10; fill: none; fill-rule: nonzero; opacity: 1" transform=" matrix(1 0 0 1 40 335) " stroke-linecap="round" /><path d="M 0.5 315.5 L 0.5 315.5 L 0.5 0.5" style="stroke:#000000;stroke-opacity:1; stroke-opacity: 0.1; stroke-width: 1; stroke-dasharray: 1 1; stroke-linecap: butt; stroke-linejoin: miter; stroke-miterlimit: 10; fill: none; fill-rule: nonzero; opacity: 1" transform=" matrix(1 0 0 1 40 20) " stroke-linecap="round" /><path d="M 76.5 0.5 L 76.5 5.5" style="stroke:#000000;stroke-opacity:1; stroke-opacity: 0.3; stroke-width: 1; stroke-dasharray: none; stroke-linecap: butt; stroke-linejoin: miter; stroke-miterlimit: 10; fill: none; fill-rule: nonzero; opacity: 1" transform=" matrix(1 0 0 1 40 335) " stroke-linecap="round" /><path d="M 76.5 315.5 L 76.5 315.5 L 76.5 0.5" style="stroke:#000000;stroke-opacity:1; stroke-opacity: 0.1; stroke-width: 1; stroke-dasharray: 1 1; stroke-linecap: butt; stroke-linejoin: miter; stroke-miterlimit: 10; fill: none; fill-rule: nonzero; opacity: 1" transform=" matrix(1 0 0 1 40 20) " stroke-linecap="round" /><path d="M 152.5 0.5 L 152.5 5.5" style="stroke:#000000;stroke-opacity:1; stroke-opacity: 0.3; stroke-width: 1; stroke-dasharray: none; stroke-linecap: butt; stroke-linejoin: miter; stroke-miterlimit: 10; fill: none; fill-rule: nonzero; opacity: 1" transform=" matrix(1 0 0 1 40 335) " stroke-linecap="round" /><path d="M 152.5 315.5 L 152.5 315.5 L 152.5 0.5" style="stroke:#000000;stroke-opacity:1; stroke-opacity: 0.1; stroke-width: 1; stroke-dasharray: 1 1; stroke-linecap: butt; stroke-linejoin: miter; stroke-miterlimit: 10; fill: none; fill-rule: nonzero; opacity: 1" transform=" matrix(1 0 0 1 40 20) " stroke-linecap="round" /><path d="M 228.5 0.5 L 228.5 5.5" style="stroke:#000000;stroke-opacity:1; stroke-opacity: 0.3; stroke-width: 1; stroke-dasharray: none; stroke-linecap: butt; stroke-linejoin: miter; stroke-miterlimit: 10; fill: none; fill-rule: nonzero; opacity: 1" transform=" matrix(1 0 0 1 40 335) " stroke-linecap="round" /><path d="M 228.5 315.5 L 228.5 315.5 L 228.5 0.5" style="stroke:#000000;stroke-opacity:1; stroke-opacity: 0.1; stroke-width: 1; stroke-dasharray: 1 1; stroke-linecap: butt; stroke-linejoin: miter; stroke-miterlimit: 10; fill: none; fill-rule: nonzero; opacity: 1" transform=" matrix(1 0 0 1 40 20) " stroke-linecap="round" /><path d="M 304.5 0.5 L 304.5 5.5" style="stroke:#000000;stroke-opacity:1; stroke-opacity: 0.3; stroke-width: 1; stroke-dasharray: none; stroke-linecap: butt; stroke-linejoin: miter; stroke-miterlimit: 10; fill: none; fill-rule: nonzero; opacity: 1" transform=" matrix(1 0 0 1 40 335) " stroke-linecap="round" /><path d="M 304.5 315.5 L 304.5 315.5 L 304.5 0.5" style="stroke:#000000;stroke-opacity:1; stroke-opacity: 0.1; stroke-width: 1; stroke-dasharray: 1 1; stroke-linecap: butt; stroke-linejoin: miter; stroke-miterlimit: 10; fill: none; fill-rule: nonzero; opacity: 1" transform=" matrix(1 0 0 1 40 20) " stroke-linecap="round" /><path d="M 380.5 0.5 L 380.5 5.5" style="stroke:#000000;stroke-opacity:1; stroke-opacity: 0.3; stroke-width: 1; stroke-dasharray: none; stroke-linecap: butt; stroke-linejoin: miter; stroke-miterlimit: 10; fill: none; fill-rule: nonzero; opacity: 1" transform=" matrix(1 0 0 1 40 335) " stroke-linecap="round" /><path d="M 380.5 315.5 L 380.5 315.5 L 380.5 0.5" style="stroke:#000000;stroke-opacity:1; stroke-opacity: 0.1; stroke-width: 1; stroke-dasharray: 1 1; stroke-linecap: butt; stroke-linejoin: miter; stroke-miterlimit: 10; fill: none; fill-rule: nonzero; opacity: 1" transform=" matrix(1 0 0 1 40 20) " stroke-linecap="round" /><path d="M 456.5 0.5 L 456.5 5.5" style="stroke:#000000;stroke-opacity:1; stroke-opacity: 0.3; stroke-width: 1; stroke-dasharray: none; stroke-linecap: butt; stroke-linejoin: miter; stroke-miterlimit: 10; fill: none; fill-rule: nonzero; opacity: 1" transform=" matrix(1 0 0 1 40 335) " stroke-linecap="round" /><path d="M 456.5 315.5 L 456.5 315.5 L 456.5 0.5" style="stroke:#000000;stroke-opacity:1; stroke-opacity: 0.1; stroke-width: 1; stroke-dasharray: 1 1; stroke-linecap: butt; stroke-linejoin: miter; stroke-miterlimit: 10; fill: none; fill-rule: nonzero; opacity: 1" transform=" matrix(1 0 0 1 40 20) " stroke-linecap="round" /><path d="M 532.5 0.5 L 532.5 5.5" style="stroke:#000000;stroke-opacity:1; stroke-opacity: 0.3; stroke-width: 1; stroke-dasharray: none; stroke-linecap: butt; stroke-linejoin: miter; stroke-miterlimit: 10; fill: none; fill-rule: nonzero; opacity: 1" transform=" matrix(1 0 0 1 40 335) " stroke-linecap="round" /><path d="M 532.5 315.5 L 532.5 315.5 L 532.5 0.5" style="stroke:#000000;stroke-opacity:1; stroke-opacity: 0.1; stroke-width: 1; stroke-dasharray: 1 1; stroke-linecap: butt; stroke-linejoin: miter; stroke-miterlimit: 10; fill: none; fill-rule: nonzero; opacity: 1" transform=" matrix(1 0 0 1 40 20) " stroke-linecap="round" /><path d="M 608.5 0.5 L 608.5 5.5" style="stroke:#000000;stroke-opacity:1; stroke-opacity: 0.3; stroke-width: 1; stroke-dasharray: none; stroke-linecap: butt; stroke-linejoin: miter; stroke-miterlimit: 10; fill: none; fill-rule: nonzero; opacity: 1" transform=" matrix(1 0 0 1 40 335) " stroke-linecap="round" /><path d="M 608.5 315.5 L 608.5 315.5 L 608.5 0.5" style="stroke:#000000;stroke-opacity:1; stroke-opacity: 0.1; stroke-width: 1; stroke-dasharray: 1 1; stroke-linecap: butt; stroke-linejoin: miter; stroke-miterlimit: 10; fill: none; fill-rule: nonzero; opacity: 1" transform=" matrix(1 0 0 1 40 20) " stroke-linecap="round" /><path d="M 684.5 0.5 L 684.5 5.5" style="stroke:#000000;stroke-opacity:1; stroke-opacity: 0.3; stroke-width: 1; stroke-dasharray: none; stroke-linecap: butt; stroke-linejoin: miter; stroke-miterlimit: 10; fill: none; fill-rule: nonzero; opacity: 1" transform=" matrix(1 0 0 1 40 335) " stroke-linecap="round" /><path d="M 684.5 315.5 L 684.5 315.5 L 684.5 0.5" style="stroke:#000000;stroke-opacity:1; stroke-opacity: 0.1; stroke-width: 1; stroke-dasharray: 1 1; stroke-linecap: butt; stroke-linejoin: miter; stroke-miterlimit: 10; fill: none; fill-rule: nonzero; opacity: 1" transform=" matrix(1 0 0 1 40 20) " stroke-linecap="round" /><path d="M 760.5 0.5 L 760.5 5.5" style="stroke:#000000;stroke-opacity:1; stroke-opacity: 0.3; stroke-width: 1; stroke-dasharray: none; stroke-linecap: butt; stroke-linejoin: miter; stroke-miterlimit: 10; fill: none; fill-rule: nonzero; opacity: 1" transform=" matrix(1 0 0 1 40 335) " stroke-linecap="round" /><path d="M 760.5 315.5 L 760.5 315.5 L 760.5 0.5" style="stroke:#000000;stroke-opacity:1; stroke-opacity: 0.1; stroke-width: 1; stroke-dasharray: 1 1; stroke-linecap: butt; stroke-linejoin: miter; stroke-miterlimit: 10; fill: none; fill-rule: nonzero; opacity: 1" transform=" matrix(1 0 0 1 40 20) " stroke-linecap="round" /><path d="M 0.5 315.5 L 0.5 315.5 L 760.5 315.5" style="stroke:#000000;stroke-opacity:1; stroke-opacity: 0.1; stroke-width: 1; stroke-dasharray: none; stroke-linecap: butt; stroke-linejoin: miter; stroke-miterlimit: 10; fill: none; fill-rule: nonzero; opacity: 1" transform=" matrix(1 0 0 1 40 20) " stroke-linecap="round" /><path d="M 0.5 270.5 L 0.5 270.5 L 760.5 270.5" style="stroke:#000000;stroke-opacity:1; stroke-opacity: 0.1; stroke-width: 1; stroke-dasharray: none; stroke-linecap: butt; stroke-linejoin: miter; stroke-miterlimit: 10; fill: none; fill-rule: nonzero; opacity: 1" transform=" matrix(1 0 0 1 40 20) " stroke-linecap="round" /><path d="M 0.5 225.5 L 0.5 225.5 L 760.5 225.5" style="stroke:#000000;stroke-opacity:1; stroke-opacity: 0.1; stroke-width: 1; stroke-dasharray: none; stroke-linecap: butt; stroke-linejoin: miter; stroke-miterlimit: 10; fill: none; fill-rule: nonzero; opacity: 1" transform=" matrix(1 0 0 1 40 20) " stroke-linecap="round" /><path d="M 0.5 180.5 L 0.5 180.5 L 760.5 180.5" style="stroke:#000000;stroke-opacity:1; stroke-opacity: 0.1; stroke-width: 1; stroke-dasharray: none; stroke-linecap: butt; stroke-linejoin: miter; stroke-miterlimit: 10; fill: none; fill-rule: nonzero; opacity: 1" transform=" matrix(1 0 0 1 40 20) " stroke-linecap="round" /><path d="M 0.5 135.5 L 0.5 135.5 L 760.5 135.5" style="stroke:#000000;stroke-opacity:1; stroke-opacity: 0.1; stroke-width: 1; stroke-dasharray: none; stroke-linecap: butt; stroke-linejoin: miter; stroke-miterlimit: 10; fill: none; fill-rule: nonzero; opacity: 1" transform=" matrix(1 0 0 1 40 20) " stroke-linecap="round" /><path d="M 0.5 90.5 L 0.5 90.5 L 760.5 90.5" style="stroke:#000000;stroke-opacity:1; stroke-opacity: 0.1; stroke-width: 1; stroke-dasharray: none; stroke-linecap: butt; stroke-linejoin: miter; stroke-miterlimit: 10; fill: none; fill-rule: nonzero; opacity: 1" transform=" matrix(1 0 0 1 40 20) " stroke-linecap="round" /><path d="M 0.5 45.5 L 0.5 45.5 L 760.5 45.5" style="stroke:#000000;stroke-opacity:1; stroke-opacity: 0.1; stroke-width: 1; stroke-dasharray: none; stroke-linecap: butt; stroke-linejoin: miter; stroke-miterlimit: 10; fill: none; fill-rule: nonzero; opacity: 1" transform=" matrix(1 0 0 1 40 20) " stroke-linecap="round" /><path d="M 0.5 0.5 L 0.5 0.5 L 760.5 0.5" style="stroke:#000000;stroke-opacity:1; stroke-opacity: 0.1; stroke-width: 1; stroke-dasharray: none; stroke-linecap: butt; stroke-linejoin: miter; stroke-miterlimit: 10; fill: none; fill-rule: nonzero; opacity: 1" transform=" matrix(1 0 0 1 40 20) " stroke-linecap="round" /><path d="M 38.5 248 L 114.5 293 M 0 0 L 0 0" style="stroke:#9ACD32;stroke-opacity:1; stroke-opacity: 0.9; stroke-width: 2; stroke-dasharray: none; stroke-linecap: butt; stroke-linejoin: round; stroke-miterlimit: 10; fill: none; fill-rule: nonzero; opacity: 1" transform=" matrix(1 0 0 1 40 20) " stroke-linecap="round"  clip-path="url(#AmChartsEl-16099)" /><rect x="0" y="0" rx="0" ry="0" width="760" height="315" style="stroke: none; stroke-width: 0; stroke-dasharray: none; stroke-linecap: butt; stroke-linejoin: miter; stroke-miterlimit: 10; fill: none; fill-rule: nonzero; opacity: 1" transform=""/><path d="M 114.5 293 L 190.5 203 L 266.5 180.5 L 342.5 135.5 M 0 0 L 0 0" style="stroke:#67B7DC;stroke-opacity:1; stroke-opacity: 0.9; stroke-width: 2; stroke-dasharray: none; stroke-linecap: butt; stroke-linejoin: round; stroke-miterlimit: 10; fill: none; fill-rule: nonzero; opacity: 1" transform=" matrix(1 0 0 1 40 20) " stroke-linecap="round"  clip-path="url(#AmChartsEl-16100)" /><rect x="0" y="0" rx="0" ry="0" width="760" height="315" style="stroke: none; stroke-width: 0; stroke-dasharray: none; stroke-linecap: butt; stroke-linejoin: miter; stroke-miterlimit: 10; fill: none; fill-rule: nonzero; opacity: 1" transform=""/><path d="M 342.5 135.5 L 418.5 248 M 0 0 L 0 0" style="stroke:#9ACD32;stroke-opacity:1; stroke-opacity: 0.9; stroke-width: 2; stroke-dasharray: none; stroke-linecap: butt; stroke-linejoin: round; stroke-miterlimit: 10; fill: none; fill-rule: nonzero; opacity: 1" transform=" matrix(1 0 0 1 40 20) " stroke-linecap="round"  clip-path="url(#AmChartsEl-16101)" /><rect x="0" y="0" rx="0" ry="0" width="760" height="315" style="stroke: none; stroke-width: 0; stroke-dasharray: none; stroke-linecap: butt; stroke-linejoin: miter; stroke-miterlimit: 10; fill: none; fill-rule: nonzero; opacity: 1" transform=""/><path d="M 418.5 248 L 494.5 45.5 L 570.5 23 M 0 0 L 0 0" style="stroke:#67B7DC;stroke-opacity:1; stroke-opacity: 0.9; stroke-width: 2; stroke-dasharray: none; stroke-linecap: butt; stroke-linejoin: round; stroke-miterlimit: 10; fill: none; fill-rule: nonzero; opacity: 1" transform=" matrix(1 0 0 1 40 20) " stroke-linecap="round"  clip-path="url(#AmChartsEl-16102)" /><rect x="0" y="0" rx="0" ry="0" width="760" height="315" style="stroke: none; stroke-width: 0; stroke-dasharray: none; stroke-linecap: butt; stroke-linejoin: miter; stroke-miterlimit: 10; fill: none; fill-rule: nonzero; opacity: 1" transform=""/><path d="M 570.5 23 L 646.5 90.5 L 722.5 158 M 0 0 L 0 0" style="stroke:#9ACD32;stroke-opacity:1; stroke-opacity: 0.9; stroke-width: 2; stroke-dasharray: none; stroke-linecap: butt; stroke-linejoin: round; stroke-miterlimit: 10; fill: none; fill-rule: nonzero; opacity: 1" transform=" matrix(1 0 0 1 40 20) " stroke-linecap="round"  clip-path="url(#AmChartsEl-16103)" /><rect x="0" y="0" rx="0" ry="0" width="760" height="315" style="stroke: none; stroke-width: 0; stroke-dasharray: none; stroke-linecap: butt; stroke-linejoin: miter; stroke-miterlimit: 10; fill: none; fill-rule: nonzero; opacity: 1" transform=""/><path d="M 0.5 0.5 L 760.5 0.5" style="stroke:#000000;stroke-opacity:1; stroke-opacity: 0.3; stroke-width: 1; stroke-dasharray: none; stroke-linecap: butt; stroke-linejoin: miter; stroke-miterlimit: 10; fill: none; fill-rule: nonzero; opacity: 1" transform=" matrix(1 0 0 1 40 335) " stroke-linecap="round" /><path d="M 0.5 0.5 L 0.5 315.5" style="stroke:#000000;stroke-opacity:1; stroke-opacity: 0; stroke-width: 1; stroke-dasharray: none; stroke-linecap: butt; stroke-linejoin: miter; stroke-miterlimit: 10; fill: none; fill-rule: nonzero; opacity: 1" transform=" matrix(1 0 0 1 40 20) " stroke-linecap="round" /><path d="M 0.5 0.5 L 0.5 0.5 L 0.5 315.5" style="stroke:#258CBB;stroke-opacity:1; stroke-opacity: 0; stroke-width: 1; stroke-dasharray: none; stroke-linecap: butt; stroke-linejoin: miter; stroke-miterlimit: 10; fill: none; fill-rule: nonzero; opacity: 0" transform=" matrix(1 0 0 1 762 178) " stroke-linecap="round"  clip-path="url(#AmChartsEl-16098)" /><path d="M 0.5 0.5 L 760.5 0.5 L 760.5 0.5" style="stroke:#258CBB;stroke-opacity:1; stroke-opacity: 0; stroke-width: 1; stroke-dasharray: none; stroke-linecap: butt; stroke-linejoin: miter; stroke-miterlimit: 10; fill: none; fill-rule: nonzero; opacity: 0" transform=" matrix(1 0 0 1 40 32) " stroke-linecap="round" /><rect x="0" y="0" rx="0" ry="0" width="760" height="315" style="stroke: none; stroke-width: 0; stroke-dasharray: none; stroke-linecap: butt; stroke-linejoin: miter; stroke-miterlimit: 10; fill: none; fill-rule: nonzero; opacity: 1" transform=""/><circle cx="0" cy="0" r="4" style="stroke:#FFFFFF;stroke-opacity:1; stroke-width: 2; stroke-dasharray: none; stroke-linecap: butt; stroke-linejoin: miter; stroke-miterlimit: 10;fill:#67B7DC;fill-opacity:1; fill-rule: nonzero; opacity: 1" transform="  matrix(1 0 0 1 78 268) "/><circle cx="0" cy="0" r="4" style="stroke:#FFFFFF;stroke-opacity:1; stroke-width: 2; stroke-dasharray: none; stroke-linecap: butt; stroke-linejoin: miter; stroke-miterlimit: 10;fill:#9ACD32;fill-opacity:1; fill-rule: nonzero; opacity: 1" transform="  matrix(1 0 0 1 154 313) "/><circle cx="0" cy="0" r="4" style="stroke:#FFFFFF;stroke-opacity:1; stroke-width: 2; stroke-dasharray: none; stroke-linecap: butt; stroke-linejoin: miter; stroke-miterlimit: 10;fill:#67B7DC;fill-opacity:1; fill-rule: nonzero; opacity: 1" transform="  matrix(1 0 0 1 230 223) "/><circle cx="0" cy="0" r="4" style="stroke:#FFFFFF;stroke-opacity:1; stroke-width: 2; stroke-dasharray: none; stroke-linecap: butt; stroke-linejoin: miter; stroke-miterlimit: 10;fill:#67B7DC;fill-opacity:1; fill-rule: nonzero; opacity: 1" transform="  matrix(1 0 0 1 306 200) "/><circle cx="0" cy="0" r="4" style="stroke:#FFFFFF;stroke-opacity:1; stroke-width: 2; stroke-dasharray: none; stroke-linecap: butt; stroke-linejoin: miter; stroke-miterlimit: 10;fill:#67B7DC;fill-opacity:1; fill-rule: nonzero; opacity: 1" transform="  matrix(1 0 0 1 382 155) "/><circle cx="0" cy="0" r="4" style="stroke:#FFFFFF;stroke-opacity:1; stroke-width: 2; stroke-dasharray: none; stroke-linecap: butt; stroke-linejoin: miter; stroke-miterlimit: 10;fill:#9ACD32;fill-opacity:1; fill-rule: nonzero; opacity: 1" transform="  matrix(1 0 0 1 458 268) "/><circle cx="0" cy="0" r="4" style="stroke:#FFFFFF;stroke-opacity:1; stroke-width: 2; stroke-dasharray: none; stroke-linecap: butt; stroke-linejoin: miter; stroke-miterlimit: 10;fill:#67B7DC;fill-opacity:1; fill-rule: nonzero; opacity: 1" transform="  matrix(1 0 0 1 534 65) "/><circle cx="0" cy="0" r="4" style="stroke:#FFFFFF;stroke-opacity:1; stroke-width: 2; stroke-dasharray: none; stroke-linecap: butt; stroke-linejoin: miter; stroke-miterlimit: 10;fill:#67B7DC;fill-opacity:1; fill-rule: nonzero; opacity: 1" transform="  matrix(1 0 0 1 610 43) "/><circle cx="0" cy="0" r="4" style="stroke:#FFFFFF;stroke-opacity:1; stroke-width: 2; stroke-dasharray: none; stroke-linecap: butt; stroke-linejoin: miter; stroke-miterlimit: 10;fill:#9ACD32;fill-opacity:1; fill-rule: nonzero; opacity: 1" transform="  matrix(1 0 0 1 686 110) "/><circle cx="0" cy="0" r="4" style="stroke:#FFFFFF;stroke-opacity:1; stroke-width: 2; stroke-dasharray: none; stroke-linecap: butt; stroke-linejoin: miter; stroke-miterlimit: 10;fill:#9ACD32;fill-opacity:1; fill-rule: nonzero; opacity: 1" transform="  matrix(1 0 0 1 762 178) "/><g transform=" matrix(1 0 0 1 78.00000004398149 347.5) "><text font-family="Verdana" font-size="11" font-weight="normal" style="stroke: none; stroke-width: 1; stroke-dasharray: none; stroke-linecap: butt; stroke-linejoin: miter; stroke-miterlimit: 10;fill:#000000;fill-opacity:1; fill-rule: nonzero; opacity: 1" ><tspan x="-21.08" y="5.49" fill="rgba(0,0,0,1)">Июл 27</tspan></text></g><g transform=" matrix(1 0 0 1 154.0000000439815 347.5) "><text font-family="Verdana" font-size="11" font-weight="normal" style="stroke: none; stroke-width: 1; stroke-dasharray: none; stroke-linecap: butt; stroke-linejoin: miter; stroke-miterlimit: 10;fill:#000000;fill-opacity:1; fill-rule: nonzero; opacity: 1" ><tspan x="-21.08" y="5.49" fill="rgba(0,0,0,1)">Июл 28</tspan></text></g><g transform=" matrix(1 0 0 1 230.0000000439815 347.5) "><text font-family="Verdana" font-size="11" font-weight="normal" style="stroke: none; stroke-width: 1; stroke-dasharray: none; stroke-linecap: butt; stroke-linejoin: miter; stroke-miterlimit: 10;fill:#000000;fill-opacity:1; fill-rule: nonzero; opacity: 1" ><tspan x="-21.08" y="5.49" fill="rgba(0,0,0,1)">Июл 29</tspan></text></g><g transform=" matrix(1 0 0 1 306.00000004398146 347.5) "><text font-family="Verdana" font-size="11" font-weight="normal" style="stroke: none; stroke-width: 1; stroke-dasharray: none; stroke-linecap: butt; stroke-linejoin: miter; stroke-miterlimit: 10;fill:#000000;fill-opacity:1; fill-rule: nonzero; opacity: 1" ><tspan x="-21.08" y="5.49" fill="rgba(0,0,0,1)">Июл 30</tspan></text></g><g transform=" matrix(1 0 0 1 382.00000004398146 347.5) "><text font-family="Verdana" font-size="11" font-weight="normal" style="stroke: none; stroke-width: 1; stroke-dasharray: none; stroke-linecap: butt; stroke-linejoin: miter; stroke-miterlimit: 10;fill:#000000;fill-opacity:1; fill-rule: nonzero; opacity: 1" ><tspan x="-21.08" y="5.49" fill="rgba(0,0,0,1)">Июл 31</tspan></text></g><g transform=" matrix(1 0 0 1 458.00000004398146 347.5) "><text font-family="Verdana" font-size="11" font-weight="bold" style="stroke: none; stroke-width: 1; stroke-dasharray: none; stroke-linecap: butt; stroke-linejoin: miter; stroke-miterlimit: 10;fill:#000000;fill-opacity:1; fill-rule: nonzero; opacity: 1" ><tspan x="-10.92" y="5.49" fill="rgba(0,0,0,1)">Авг</tspan></text></g><g transform=" matrix(1 0 0 1 534.0000000439815 347.5) "><text font-family="Verdana" font-size="11" font-weight="normal" style="stroke: none; stroke-width: 1; stroke-dasharray: none; stroke-linecap: butt; stroke-linejoin: miter; stroke-miterlimit: 10;fill:#000000;fill-opacity:1; fill-rule: nonzero; opacity: 1" ><tspan x="-18.55" y="5.49" fill="rgba(0,0,0,1)">Авг 02</tspan></text></g><g transform=" matrix(1 0 0 1 610.0000000439815 347.5) "><text font-family="Verdana" font-size="11" font-weight="normal" style="stroke: none; stroke-width: 1; stroke-dasharray: none; stroke-linecap: butt; stroke-linejoin: miter; stroke-miterlimit: 10;fill:#000000;fill-opacity:1; fill-rule: nonzero; opacity: 1" ><tspan x="-18.55" y="5.49" fill="rgba(0,0,0,1)">Авг 03</tspan></text></g><g transform=" matrix(1 0 0 1 686.0000000439815 347.5) "><text font-family="Verdana" font-size="11" font-weight="normal" style="stroke: none; stroke-width: 1; stroke-dasharray: none; stroke-linecap: butt; stroke-linejoin: miter; stroke-miterlimit: 10;fill:#000000;fill-opacity:1; fill-rule: nonzero; opacity: 1" ><tspan x="-18.55" y="5.49" fill="rgba(0,0,0,1)">Авг 04</tspan></text></g><g transform=" matrix(1 0 0 1 762.0000000439815 347.5) "><text font-family="Verdana" font-size="11" font-weight="normal" style="stroke: none; stroke-width: 1; stroke-dasharray: none; stroke-linecap: butt; stroke-linejoin: miter; stroke-miterlimit: 10;fill:#000000;fill-opacity:1; fill-rule: nonzero; opacity: 1" ><tspan x="-18.55" y="5.49" fill="rgba(0,0,0,1)">Авг 05</tspan></text></g><g transform=" matrix(1 0 0 1 28 333.703125) "><text font-family="Verdana" font-size="11" font-weight="normal" style="stroke: none; stroke-width: 1; stroke-dasharray: none; stroke-linecap: butt; stroke-linejoin: miter; stroke-miterlimit: 10;fill:#000000;fill-opacity:1; fill-rule: nonzero; opacity: 1" ><tspan x="-14.49" y="5.49" fill="rgba(0,0,0,1)">10</tspan></text></g><g transform=" matrix(1 0 0 1 28 288.703125) "><text font-family="Verdana" font-size="11" font-weight="normal" style="stroke: none; stroke-width: 1; stroke-dasharray: none; stroke-linecap: butt; stroke-linejoin: miter; stroke-miterlimit: 10;fill:#000000;fill-opacity:1; fill-rule: nonzero; opacity: 1" ><tspan x="-14.49" y="5.49" fill="rgba(0,0,0,1)">12</tspan></text></g><g transform=" matrix(1 0 0 1 28 243.703125) "><text font-family="Verdana" font-size="11" font-weight="normal" style="stroke: none; stroke-width: 1; stroke-dasharray: none; stroke-linecap: butt; stroke-linejoin: miter; stroke-miterlimit: 10;fill:#000000;fill-opacity:1; fill-rule: nonzero; opacity: 1" ><tspan x="-14.49" y="5.49" fill="rgba(0,0,0,1)">14</tspan></text></g><g transform=" matrix(1 0 0 1 28 198.703125) "><text font-family="Verdana" font-size="11" font-weight="normal" style="stroke: none; stroke-width: 1; stroke-dasharray: none; stroke-linecap: butt; stroke-linejoin: miter; stroke-miterlimit: 10;fill:#000000;fill-opacity:1; fill-rule: nonzero; opacity: 1" ><tspan x="-14.49" y="5.49" fill="rgba(0,0,0,1)">16</tspan></text></g><g transform=" matrix(1 0 0 1 28 153.703125) "><text font-family="Verdana" font-size="11" font-weight="normal" style="stroke: none; stroke-width: 1; stroke-dasharray: none; stroke-linecap: butt; stroke-linejoin: miter; stroke-miterlimit: 10;fill:#000000;fill-opacity:1; fill-rule: nonzero; opacity: 1" ><tspan x="-14.49" y="5.49" fill="rgba(0,0,0,1)">18</tspan></text></g><g transform=" matrix(1 0 0 1 28 108.703125) "><text font-family="Verdana" font-size="11" font-weight="normal" style="stroke: none; stroke-width: 1; stroke-dasharray: none; stroke-linecap: butt; stroke-linejoin: miter; stroke-miterlimit: 10;fill:#000000;fill-opacity:1; fill-rule: nonzero; opacity: 1" ><tspan x="-14.49" y="5.49" fill="rgba(0,0,0,1)">20</tspan></text></g><g transform=" matrix(1 0 0 1 28 63.703125) "><text font-family="Verdana" font-size="11" font-weight="normal" style="stroke: none; stroke-width: 1; stroke-dasharray: none; stroke-linecap: butt; stroke-linejoin: miter; stroke-miterlimit: 10;fill:#000000;fill-opacity:1; fill-rule: nonzero; opacity: 1" ><tspan x="-14.49" y="5.49" fill="rgba(0,0,0,1)">22</tspan></text></g><g transform=" matrix(1 0 0 1 28 18.703125) "><text font-family="Verdana" font-size="11" font-weight="normal" style="stroke: none; stroke-width: 1; stroke-dasharray: none; stroke-linecap: butt; stroke-linejoin: miter; stroke-miterlimit: 10;fill:#000000;fill-opacity:1; fill-rule: nonzero; opacity: 1" ><tspan x="-14.49" y="5.49" fill="rgba(0,0,0,1)">24</tspan></text></g><rect x="-1" y="-1" rx="0" ry="0" width="762" height="317" style="stroke: none; stroke-width: 0; stroke-dasharray: none; stroke-linecap: butt; stroke-linejoin: miter; stroke-miterlimit: 10; fill: none; fill-rule: nonzero; opacity: 1" transform=""/></g><clipPath xmlns="http://www.w3.org/2000/svg" id="AmChartsEl-16099"><rect x="0" y="0" width="760" height="315" rx="0" ry="0" stroke-width="0" fill="none" fill-opacity="0" svgUid="1"/></clipPath><clipPath xmlns="http://www.w3.org/2000/svg" id="AmChartsEl-16100"><rect x="0" y="0" width="760" height="315" rx="0" ry="0" stroke-width="0" fill="none" fill-opacity="0" svgUid="1"/></clipPath><clipPath xmlns="http://www.w3.org/2000/svg" id="AmChartsEl-16101"><rect x="0" y="0" width="760" height="315" rx="0" ry="0" stroke-width="0" fill="none" fill-opacity="0" svgUid="1"/></clipPath><clipPath xmlns="http://www.w3.org/2000/svg" id="AmChartsEl-16102"><rect x="0" y="0" width="760" height="315" rx="0" ry="0" stroke-width="0" fill="none" fill-opacity="0" svgUid="1"/></clipPath><clipPath xmlns="http://www.w3.org/2000/svg" id="AmChartsEl-16103"><rect x="0" y="0" width="760" height="315" rx="0" ry="0" stroke-width="0" fill="none" fill-opacity="0" svgUid="1"/></clipPath><clipPath xmlns="http://www.w3.org/2000/svg" id="AmChartsEl-16098"><rect x="0" y="0" width="760" height="315" rx="0" ry="0" stroke-width="0" fill="none" fill-opacity="0" svgUid="1"/></clipPath></svg>