<?xml version="1.0" encoding="UTF-8" standalone="no" ?><!DOCTYPE svg PUBLIC "-//W3C//DTD SVG 1.1//EN" "http://www.w3.org/Graphics/SVG/1.1/DTD/svg11.dtd"><svg xmlns="http://www.w3.org/2000/svg" xmlns:xlink="http://www.w3.org/1999/xlink" version="1.1" width="1007" height="481" viewBox="0 0 1007 481" xml:space="preserve"><desc>Created with Fabric.js 1.7.19</desc><defs></defs><rect x="0" y="0" width="1007" height="481" fill="#FFFFFF"></rect><g style="stroke: none; stroke-width: 1; stroke-dasharray: none; stroke-linecap: butt; stroke-linejoin: miter; stroke-miterlimit: 10; fill: none; fill-rule: nonzero; opacity: 1" transform="translate(0 0)" ><path d="M 0.5 0.5 L 1006.5 0.5 L 1006.5 480.5 L 0.5 480.5 Z" style="stroke:#000000;stroke-opacity:1; stroke-opacity: 0; stroke-width: 1; stroke-dasharray: none; stroke-linecap: butt; stroke-linejoin: miter; stroke-miterlimit: 10;fill:#FFFFFF;fill-opacity:1; fill-opacity: 0; fill-rule: nonzero; opacity: 1" transform="" stroke-linecap="round" /><path d="M 0.5 0.5 L 880.5 0.5 L 880.5 420.5 L 0.5 420.5 L 0.5 0.5 Z" style="stroke:#000000;stroke-opacity:1; stroke-opacity: 0; stroke-width: 1; stroke-dasharray: none; stroke-linecap: butt; stroke-linejoin: miter; stroke-miterlimit: 10;fill:#FFFFFF;fill-opacity:1; fill-opacity: 0; fill-rule: nonzero; opacity: 1" transform=" matrix(1 0 0 1 56 20) " stroke-linecap="round" /><path d="M 0.5 0.5 L 0.5 5.5" style="stroke:#000000;stroke-opacity:1; stroke-width: 1; stroke-dasharray: none; stroke-linecap: butt; stroke-linejoin: miter; stroke-miterlimit: 10; fill: none; fill-rule: nonzero; opacity: 1" transform=" matrix(1 0 0 1 56 440) " stroke-linecap="round" /><path d="M 0.5 420.5 L 0.5 420.5 L 0.5 0.5" style="stroke:#000000;stroke-opacity:1; stroke-opacity: 0.15; stroke-width: 1; stroke-dasharray: none; stroke-linecap: butt; stroke-linejoin: miter; stroke-miterlimit: 10; fill: none; fill-rule: nonzero; opacity: 1" transform=" matrix(1 0 0 1 56 20) " stroke-linecap="round" /><path d="M 59.5 420.5 L 59.5 420.5 L 59.5 0.5" style="stroke:#000000;stroke-opacity:1; stroke-opacity: 0.07; stroke-width: 1; stroke-dasharray: none; stroke-linecap: butt; stroke-linejoin: miter; stroke-miterlimit: 10; fill: none; fill-rule: nonzero; opacity: 1" transform=" matrix(1 0 0 1 56 20) " stroke-linecap="round" /><path d="M 117.5 0.5 L 117.5 5.5" style="stroke:#000000;stroke-opacity:1; stroke-width: 1; stroke-dasharray: none; stroke-linecap: butt; stroke-linejoin: miter; stroke-miterlimit: 10; fill: none; fill-rule: nonzero; opacity: 1" transform=" matrix(1 0 0 1 56 440) " stroke-linecap="round" /><path d="M 117.5 420.5 L 117.5 420.5 L 117.5 0.5" style="stroke:#000000;stroke-opacity:1; stroke-opacity: 0.15; stroke-width: 1; stroke-dasharray: none; stroke-linecap: butt; stroke-linejoin: miter; stroke-miterlimit: 10; fill: none; fill-rule: nonzero; opacity: 1" transform=" matrix(1 0 0 1 56 20) " stroke-linecap="round" /><path d="M 176.5 420.5 L 176.5 420.5 L 176.5 0.5" style="stroke:#000000;stroke-opacity:1; stroke-opacity: 0.07; stroke-width: 1; stroke-dasharray: none; stroke-linecap: butt; stroke-linejoin: miter; stroke-miterlimit: 10; fill: none; fill-rule: nonzero; opacity: 1" transform=" matrix(1 0 0 1 56 20) " stroke-linecap="round" /><path d="M 235.5 0.5 L 235.5 5.5" style="stroke:#000000;stroke-opacity:1; stroke-width: 1; stroke-dasharray: none; stroke-linecap: butt; stroke-linejoin: miter; stroke-miterlimit: 10; fill: none; fill-rule: nonzero; opacity: 1" transform=" matrix(1 0 0 1 56 440) " stroke-linecap="round" /><path d="M 235.5 420.5 L 235.5 420.5 L 235.5 0.5" style="stroke:#000000;stroke-opacity:1; stroke-opacity: 0.15; stroke-width: 1; stroke-dasharray: none; stroke-linecap: butt; stroke-linejoin: miter; stroke-miterlimit: 10; fill: none; fill-rule: nonzero; opacity: 1" transform=" matrix(1 0 0 1 56 20) " stroke-linecap="round" /><path d="M 293.5 420.5 L 293.5 420.5 L 293.5 0.5" style="stroke:#000000;stroke-opacity:1; stroke-opacity: 0.07; stroke-width: 1; stroke-dasharray: none; stroke-linecap: butt; stroke-linejoin: miter; stroke-miterlimit: 10; fill: none; fill-rule: nonzero; opacity: 1" transform=" matrix(1 0 0 1 56 20) " stroke-linecap="round" /><path d="M 352.5 0.5 L 352.5 5.5" style="stroke:#000000;stroke-opacity:1; stroke-width: 1; stroke-dasharray: none; stroke-linecap: butt; stroke-linejoin: miter; stroke-miterlimit: 10; fill: none; fill-rule: nonzero; opacity: 1" transform=" matrix(1 0 0 1 56 440) " stroke-linecap="round" /><path d="M 352.5 420.5 L 352.5 420.5 L 352.5 0.5" style="stroke:#000000;stroke-opacity:1; stroke-opacity: 0.15; stroke-width: 1; stroke-dasharray: none; stroke-linecap: butt; stroke-linejoin: miter; stroke-miterlimit: 10; fill: none; fill-rule: nonzero; opacity: 1" transform=" matrix(1 0 0 1 56 20) " stroke-linecap="round" /><path d="M 411.5 420.5 L 411.5 420.5 L 411.5 0.5" style="stroke:#000000;stroke-opacity:1; stroke-opacity: 0.07; stroke-width: 1; stroke-dasharray: none; stroke-linecap: butt; stroke-linejoin: miter; stroke-miterlimit: 10; fill: none; fill-rule: nonzero; opacity: 1" transform=" matrix(1 0 0 1 56 20) " stroke-linecap="round" /><path d="M 469.5 0.5 L 469.5 5.5" style="stroke:#000000;stroke-opacity:1; stroke-width: 1; stroke-dasharray: none; stroke-linecap: butt; stroke-linejoin: miter; stroke-miterlimit: 10; fill: none; fill-rule: nonzero; opacity: 1" transform=" matrix(1 0 0 1 56 440) " stroke-linecap="round" /><path d="M 469.5 420.5 L 469.5 420.5 L 469.5 0.5" style="stroke:#000000;stroke-opacity:1; stroke-opacity: 0.15; stroke-width: 1; stroke-dasharray: none; stroke-linecap: butt; stroke-linejoin: miter; stroke-miterlimit: 10; fill: none; fill-rule: nonzero; opacity: 1" transform=" matrix(1 0 0 1 56 20) " stroke-linecap="round" /><path d="M 528.5 420.5 L 528.5 420.5 L 528.5 0.5" style="stroke:#000000;stroke-opacity:1; stroke-opacity: 0.07; stroke-width: 1; stroke-dasharray: none; stroke-linecap: butt; stroke-linejoin: miter; stroke-miterlimit: 10; fill: none; fill-rule: nonzero; opacity: 1" transform=" matrix(1 0 0 1 56 20) " stroke-linecap="round" /><path d="M 587.5 0.5 L 587.5 5.5" style="stroke:#000000;stroke-opacity:1; stroke-width: 1; stroke-dasharray: none; stroke-linecap: butt; stroke-linejoin: miter; stroke-miterlimit: 10; fill: none; fill-rule: nonzero; opacity: 1" transform=" matrix(1 0 0 1 56 440) " stroke-linecap="round" /><path d="M 587.5 420.5 L 587.5 420.5 L 587.5 0.5" style="stroke:#000000;stroke-opacity:1; stroke-opacity: 0.15; stroke-width: 1; stroke-dasharray: none; stroke-linecap: butt; stroke-linejoin: miter; stroke-miterlimit: 10; fill: none; fill-rule: nonzero; opacity: 1" transform=" matrix(1 0 0 1 56 20) " stroke-linecap="round" /><path d="M 645.5 420.5 L 645.5 420.5 L 645.5 0.5" style="stroke:#000000;stroke-opacity:1; stroke-opacity: 0.07; stroke-width: 1; stroke-dasharray: none; stroke-linecap: butt; stroke-linejoin: miter; stroke-miterlimit: 10; fill: none; fill-rule: nonzero; opacity: 1" transform=" matrix(1 0 0 1 56 20) " stroke-linecap="round" /><path d="M 704.5 0.5 L 704.5 5.5" style="stroke:#000000;stroke-opacity:1; stroke-width: 1; stroke-dasharray: none; stroke-linecap: butt; stroke-linejoin: miter; stroke-miterlimit: 10; fill: none; fill-rule: nonzero; opacity: 1" transform=" matrix(1 0 0 1 56 440) " stroke-linecap="round" /><path d="M 704.5 420.5 L 704.5 420.5 L 704.5 0.5" style="stroke:#000000;stroke-opacity:1; stroke-opacity: 0.15; stroke-width: 1; stroke-dasharray: none; stroke-linecap: butt; stroke-linejoin: miter; stroke-miterlimit: 10; fill: none; fill-rule: nonzero; opacity: 1" transform=" matrix(1 0 0 1 56 20) " stroke-linecap="round" /><path d="M 763.5 420.5 L 763.5 420.5 L 763.5 0.5" style="stroke:#000000;stroke-opacity:1; stroke-opacity: 0.07; stroke-width: 1; stroke-dasharray: none; stroke-linecap: butt; stroke-linejoin: miter; stroke-miterlimit: 10; fill: none; fill-rule: nonzero; opacity: 1" transform=" matrix(1 0 0 1 56 20) " stroke-linecap="round" /><path d="M 821.5 0.5 L 821.5 5.5" style="stroke:#000000;stroke-opacity:1; stroke-width: 1; stroke-dasharray: none; stroke-linecap: butt; stroke-linejoin: miter; stroke-miterlimit: 10; fill: none; fill-rule: nonzero; opacity: 1" transform=" matrix(1 0 0 1 56 440) " stroke-linecap="round" /><path d="M 821.5 420.5 L 821.5 420.5 L 821.5 0.5" style="stroke:#000000;stroke-opacity:1; stroke-opacity: 0.15; stroke-width: 1; stroke-dasharray: none; stroke-linecap: butt; stroke-linejoin: miter; stroke-miterlimit: 10; fill: none; fill-rule: nonzero; opacity: 1" transform=" matrix(1 0 0 1 56 20) " stroke-linecap="round" /><path d="M 880.5 420.5 L 880.5 420.5 L 880.5 0.5" style="stroke:#000000;stroke-opacity:1; stroke-opacity: 0.07; stroke-width: 1; stroke-dasharray: none; stroke-linecap: butt; stroke-linejoin: miter; stroke-miterlimit: 10; fill: none; fill-rule: nonzero; opacity: 1" transform=" matrix(1 0 0 1 56 20) " stroke-linecap="round" /><path d="M 0.5 420.5 L 0.5 420.5 L 880.5 420.5" style="stroke:#000000;stroke-opacity:1; stroke-opacity: 0.15; stroke-width: 1; stroke-dasharray: none; stroke-linecap: butt; stroke-linejoin: miter; stroke-miterlimit: 10; fill: none; fill-rule: nonzero; opacity: 1" transform=" matrix(1 0 0 1 56 20) " stroke-linecap="round" /><path d="M 0.5 368.5 L 0.5 368.5 L 880.5 368.5" style="stroke:#000000;stroke-opacity:1; stroke-opacity: 0.15; stroke-width: 1; stroke-dasharray: none; stroke-linecap: butt; stroke-linejoin: miter; stroke-miterlimit: 10; fill: none; fill-rule: nonzero; opacity: 1" transform=" matrix(1 0 0 1 56 20) " stroke-linecap="round" /><path d="M 0.5 315.5 L 0.5 315.5 L 880.5 315.5" style="stroke:#000000;stroke-opacity:1; stroke-opacity: 0.15; stroke-width: 1; stroke-dasharray: none; stroke-linecap: butt; stroke-linejoin: miter; stroke-miterlimit: 10; fill: none; fill-rule: nonzero; opacity: 1" transform=" matrix(1 0 0 1 56 20) " stroke-linecap="round" /><path d="M 0.5 263.5 L 0.5 263.5 L 880.5 263.5" style="stroke:#000000;stroke-opacity:1; stroke-opacity: 0.15; stroke-width: 1; stroke-dasharray: none; stroke-linecap: butt; stroke-linejoin: miter; stroke-miterlimit: 10; fill: none; fill-rule: nonzero; opacity: 1" transform=" matrix(1 0 0 1 56 20) " stroke-linecap="round" /><path d="M 0.5 210.5 L 0.5 210.5 L 880.5 210.5" style="stroke:#000000;stroke-opacity:1; stroke-opacity: 0.15; stroke-width: 1; stroke-dasharray: none; stroke-linecap: butt; stroke-linejoin: miter; stroke-miterlimit: 10; fill: none; fill-rule: nonzero; opacity: 1" transform=" matrix(1 0 0 1 56 20) " stroke-linecap="round" /><path d="M 0.5 158.5 L 0.5 158.5 L 880.5 158.5" style="stroke:#000000;stroke-opacity:1; stroke-opacity: 0.15; stroke-width: 1; stroke-dasharray: none; stroke-linecap: butt; stroke-linejoin: miter; stroke-miterlimit: 10; fill: none; fill-rule: nonzero; opacity: 1" transform=" matrix(1 0 0 1 56 20) " stroke-linecap="round" /><path d="M 0.5 105.5 L 0.5 105.5 L 880.5 105.5" style="stroke:#000000;stroke-opacity:1; stroke-opacity: 0.15; stroke-width: 1; stroke-dasharray: none; stroke-linecap: butt; stroke-linejoin: miter; stroke-miterlimit: 10; fill: none; fill-rule: nonzero; opacity: 1" transform=" matrix(1 0 0 1 56 20) " stroke-linecap="round" /><path d="M 0.5 53.5 L 0.5 53.5 L 880.5 53.5" style="stroke:#000000;stroke-opacity:1; stroke-opacity: 0.15; stroke-width: 1; stroke-dasharray: none; stroke-linecap: butt; stroke-linejoin: miter; stroke-miterlimit: 10; fill: none; fill-rule: nonzero; opacity: 1" transform=" matrix(1 0 0 1 56 20) " stroke-linecap="round" /><path d="M 0.5 0.5 L 0.5 0.5 L 880.5 0.5" style="stroke:#000000;stroke-opacity:1; stroke-opacity: 0.15; stroke-width: 1; stroke-dasharray: none; stroke-linecap: butt; stroke-linejoin: miter; stroke-miterlimit: 10; fill: none; fill-rule: nonzero; opacity: 1" transform=" matrix(1 0 0 1 56 20) " stroke-linecap="round" /><g  clip-path="url(#AmChartsEl-579)" ><rect x="0.5" y="0.5" rx="0" ry="0" width="59" height="420" style="stroke:#000000;stroke-opacity:1; stroke-opacity: 0; stroke-width: 0.1; stroke-dasharray: none; stroke-linecap: butt; stroke-linejoin: miter; stroke-miterlimit: 10;fill:#000000;fill-opacity:1; fill-opacity: 0; fill-rule: nonzero; opacity: 0" transform=" matrix(1 0 0 1 819 20) "/></g><path d="M 29.5 368 L 88.5 357.5 L 147.5 252.5 L 205.5 410 L 264.5 263 L 323.5 210.5 L 381.5 294.5" style="stroke:#487DAC;stroke-opacity:1; stroke-width: 2; stroke-dasharray: none; stroke-linecap: butt; stroke-linejoin: round; stroke-miterlimit: 10; fill: none; fill-rule: nonzero; opacity: 1" transform=" matrix(1 0 0 1 56 20) " stroke-linecap="round"  clip-path="url(#AmChartsEl-582)" /><path d="M 29.5 368 L 88.5 357.5 L 147.5 252.5 L 205.5 410 L 264.5 263 L 323.5 210.5 L 381.5 294.5" style="stroke:#B6D278;stroke-opacity:1; stroke-width: 2; stroke-dasharray: none; stroke-linecap: butt; stroke-linejoin: round; stroke-miterlimit: 10; fill: none; fill-rule: nonzero; opacity: 1" transform=" matrix(1 0 0 1 56 20) " stroke-linecap="round"  clip-path="url(#AmChartsEl-581)" /><path d="M 557.5 326 L 616.5 263 L 675.5 294.5 L 733.5 11 L 792.5 42.5 L 851.5 273.5" style="stroke:#487DAC;stroke-opacity:1; stroke-width: 2; stroke-dasharray: none; stroke-linecap: butt; stroke-linejoin: round; stroke-miterlimit: 10; fill: none; fill-rule: nonzero; opacity: 1" transform=" matrix(1 0 0 1 56 20) " stroke-linecap="round"  clip-path="url(#AmChartsEl-584)" /><path d="M 557.5 326 L 616.5 263 L 675.5 294.5 L 733.5 11 L 792.5 42.5 L 851.5 273.5" style="stroke:#B6D278;stroke-opacity:1; stroke-width: 2; stroke-dasharray: none; stroke-linecap: butt; stroke-linejoin: round; stroke-miterlimit: 10; fill: none; fill-rule: nonzero; opacity: 1" transform=" matrix(1 0 0 1 56 20) " stroke-linecap="round"  clip-path="url(#AmChartsEl-583)" /><path d="M 0.5 263.5 L 880.5 263.5 L 880.5 263.5" style="stroke:#000000;stroke-opacity:1; stroke-opacity: 0.3; stroke-width: 1; stroke-dasharray: none; stroke-linecap: butt; stroke-linejoin: miter; stroke-miterlimit: 10; fill: none; fill-rule: nonzero; opacity: 1" transform=" matrix(1 0 0 1 56 20) " stroke-linecap="round" /><path d="M 0.5 0.5 L 880.5 0.5" style="stroke:#000000;stroke-opacity:1; stroke-width: 1; stroke-dasharray: none; stroke-linecap: butt; stroke-linejoin: miter; stroke-miterlimit: 10; fill: none; fill-rule: nonzero; opacity: 1" transform=" matrix(1 0 0 1 56 440) " stroke-linecap="round" /><path d="M 0.5 0.5 L 0.5 420.5" style="stroke:#000000;stroke-opacity:1; stroke-opacity: 0; stroke-width: 1; stroke-dasharray: none; stroke-linecap: butt; stroke-linejoin: miter; stroke-miterlimit: 10; fill: none; fill-rule: nonzero; opacity: 1" transform=" matrix(1 0 0 1 56 20) " stroke-linecap="round" /><g  clip-path="url(#AmChartsEl-580)" ><path d="M 0.5 0.5 L 880.5 0.5 L 880.5 0.5" style="stroke:#000000;stroke-opacity:1; stroke-opacity: 0; stroke-width: 1; stroke-dasharray: none; stroke-linecap: butt; stroke-linejoin: miter; stroke-miterlimit: 10; fill: none; fill-rule: nonzero; opacity: 0" transform=" matrix(1 0 0 1 56 229) " stroke-linecap="round" /></g><circle cx="0" cy="0" r="3" style="stroke:#487DAC;stroke-opacity:1; stroke-opacity: 0; stroke-width: 2; stroke-dasharray: none; stroke-linecap: butt; stroke-linejoin: miter; stroke-miterlimit: 10;fill:#487DAC;fill-opacity:1; fill-rule: nonzero; opacity: 1" transform="  matrix(1 0 0 1 85 388) "/><circle cx="0" cy="0" r="3" style="stroke:#487DAC;stroke-opacity:1; stroke-opacity: 0; stroke-width: 2; stroke-dasharray: none; stroke-linecap: butt; stroke-linejoin: miter; stroke-miterlimit: 10;fill:#487DAC;fill-opacity:1; fill-rule: nonzero; opacity: 1" transform="  matrix(1 0 0 1 144 377) "/><circle cx="0" cy="0" r="3" style="stroke:#B6D278;stroke-opacity:1; stroke-opacity: 0; stroke-width: 2; stroke-dasharray: none; stroke-linecap: butt; stroke-linejoin: miter; stroke-miterlimit: 10;fill:#B6D278;fill-opacity:1; fill-rule: nonzero; opacity: 1" transform="  matrix(1 0 0 1 203 272) "/><circle cx="0" cy="0" r="3" style="stroke:#487DAC;stroke-opacity:1; stroke-opacity: 0; stroke-width: 2; stroke-dasharray: none; stroke-linecap: butt; stroke-linejoin: miter; stroke-miterlimit: 10;fill:#487DAC;fill-opacity:1; fill-rule: nonzero; opacity: 1" transform="  matrix(1 0 0 1 261 430) "/><circle cx="0" cy="0" r="3" style="stroke:#B6D278;stroke-opacity:1; stroke-opacity: 0; stroke-width: 2; stroke-dasharray: none; stroke-linecap: butt; stroke-linejoin: miter; stroke-miterlimit: 10;fill:#B6D278;fill-opacity:1; fill-rule: nonzero; opacity: 1" transform="  matrix(1 0 0 1 320 283) "/><circle cx="0" cy="0" r="3" style="stroke:#B6D278;stroke-opacity:1; stroke-opacity: 0; stroke-width: 2; stroke-dasharray: none; stroke-linecap: butt; stroke-linejoin: miter; stroke-miterlimit: 10;fill:#B6D278;fill-opacity:1; fill-rule: nonzero; opacity: 1" transform="  matrix(1 0 0 1 379 230) "/><circle cx="0" cy="0" r="3" style="stroke:#487DAC;stroke-opacity:1; stroke-opacity: 0; stroke-width: 2; stroke-dasharray: none; stroke-linecap: butt; stroke-linejoin: miter; stroke-miterlimit: 10;fill:#487DAC;fill-opacity:1; fill-rule: nonzero; opacity: 1" transform="  matrix(1 0 0 1 437 314) "/><circle cx="0" cy="0" r="3" style="stroke:#487DAC;stroke-opacity:1; stroke-opacity: 0; stroke-width: 2; stroke-dasharray: none; stroke-linecap: butt; stroke-linejoin: miter; stroke-miterlimit: 10;fill:#487DAC;fill-opacity:1; fill-rule: nonzero; opacity: 1" transform="  matrix(1 0 0 1 613 346) "/><circle cx="0" cy="0" r="3" style="stroke:#B6D278;stroke-opacity:1; stroke-opacity: 0; stroke-width: 2; stroke-dasharray: none; stroke-linecap: butt; stroke-linejoin: miter; stroke-miterlimit: 10;fill:#B6D278;fill-opacity:1; fill-rule: nonzero; opacity: 1" transform="  matrix(1 0 0 1 672 283) "/><circle cx="0" cy="0" r="3" style="stroke:#487DAC;stroke-opacity:1; stroke-opacity: 0; stroke-width: 2; stroke-dasharray: none; stroke-linecap: butt; stroke-linejoin: miter; stroke-miterlimit: 10;fill:#487DAC;fill-opacity:1; fill-rule: nonzero; opacity: 1" transform="  matrix(1 0 0 1 731 314) "/><circle cx="0" cy="0" r="3" style="stroke:#B6D278;stroke-opacity:1; stroke-opacity: 0; stroke-width: 2; stroke-dasharray: none; stroke-linecap: butt; stroke-linejoin: miter; stroke-miterlimit: 10;fill:#B6D278;fill-opacity:1; fill-rule: nonzero; opacity: 1" transform="  matrix(1 0 0 1 789 31) "/><circle cx="0" cy="0" r="3" style="stroke:#B6D278;stroke-opacity:1; stroke-opacity: 0; stroke-width: 2; stroke-dasharray: none; stroke-linecap: butt; stroke-linejoin: miter; stroke-miterlimit: 10;fill:#B6D278;fill-opacity:1; fill-rule: nonzero; opacity: 1" transform="  matrix(1 0 0 1 848 62) "/><circle cx="0" cy="0" r="3" style="stroke:#487DAC;stroke-opacity:1; stroke-opacity: 0; stroke-width: 2; stroke-dasharray: none; stroke-linecap: butt; stroke-linejoin: miter; stroke-miterlimit: 10;fill:#487DAC;fill-opacity:1; fill-rule: nonzero; opacity: 1" transform="  matrix(1 0 0 1 907 293) "/><g transform=" matrix(1 0 0 1 59 452.5) "><text xml:space="preserve" font-family="Verdana" font-size="11" font-weight="bold" style="stroke: none; stroke-width: 1; stroke-dasharray: none; stroke-linecap: butt; stroke-linejoin: miter; stroke-miterlimit: 10;fill:#000000;fill-opacity:1; fill-rule: nonzero; opacity: 1; white-space: pre" ><tspan x="0.5" y="7.48" fill="rgba(0,0,0,1)">Jun</tspan></text></g><g transform=" matrix(1 0 0 1 176 452.5) "><text xml:space="preserve" font-family="Verdana" font-size="11" font-weight="normal" style="stroke: none; stroke-width: 1; stroke-dasharray: none; stroke-linecap: butt; stroke-linejoin: miter; stroke-miterlimit: 10;fill:#000000;fill-opacity:1; fill-rule: nonzero; opacity: 1; white-space: pre" ><tspan x="0.5" y="7.48" fill="rgba(0,0,0,1)">Jun 04</tspan></text></g><g transform=" matrix(1 0 0 1 294 452.5) "><text xml:space="preserve" font-family="Verdana" font-size="11" font-weight="normal" style="stroke: none; stroke-width: 1; stroke-dasharray: none; stroke-linecap: butt; stroke-linejoin: miter; stroke-miterlimit: 10;fill:#000000;fill-opacity:1; fill-rule: nonzero; opacity: 1; white-space: pre" ><tspan x="0.5" y="7.48" fill="rgba(0,0,0,1)">Jun 06</tspan></text></g><g transform=" matrix(1 0 0 1 411 452.5) "><text xml:space="preserve" font-family="Verdana" font-size="11" font-weight="normal" style="stroke: none; stroke-width: 1; stroke-dasharray: none; stroke-linecap: butt; stroke-linejoin: miter; stroke-miterlimit: 10;fill:#000000;fill-opacity:1; fill-rule: nonzero; opacity: 1; white-space: pre" ><tspan x="0.5" y="7.48" fill="rgba(0,0,0,1)">Jun 08</tspan></text></g><g transform=" matrix(1 0 0 1 528 452.5) "><text xml:space="preserve" font-family="Verdana" font-size="11" font-weight="normal" style="stroke: none; stroke-width: 1; stroke-dasharray: none; stroke-linecap: butt; stroke-linejoin: miter; stroke-miterlimit: 10;fill:#000000;fill-opacity:1; fill-rule: nonzero; opacity: 1; white-space: pre" ><tspan x="0.5" y="7.48" fill="rgba(0,0,0,1)">Jun 10</tspan></text></g><g transform=" matrix(1 0 0 1 646 452.5) "><text xml:space="preserve" font-family="Verdana" font-size="11" font-weight="normal" style="stroke: none; stroke-width: 1; stroke-dasharray: none; stroke-linecap: butt; stroke-linejoin: miter; stroke-miterlimit: 10;fill:#000000;fill-opacity:1; fill-rule: nonzero; opacity: 1; white-space: pre" ><tspan x="0.5" y="7.48" fill="rgba(0,0,0,1)">Jun 12</tspan></text></g><g transform=" matrix(1 0 0 1 763 452.5) "><text xml:space="preserve" font-family="Verdana" font-size="11" font-weight="normal" style="stroke: none; stroke-width: 1; stroke-dasharray: none; stroke-linecap: butt; stroke-linejoin: miter; stroke-miterlimit: 10;fill:#000000;fill-opacity:1; fill-rule: nonzero; opacity: 1; white-space: pre" ><tspan x="0.5" y="7.48" fill="rgba(0,0,0,1)">Jun 14</tspan></text></g><g transform=" matrix(1 0 0 1 880 452.5) "><text xml:space="preserve" font-family="Verdana" font-size="11" font-weight="normal" style="stroke: none; stroke-width: 1; stroke-dasharray: none; stroke-linecap: butt; stroke-linejoin: miter; stroke-miterlimit: 10;fill:#000000;fill-opacity:1; fill-rule: nonzero; opacity: 1; white-space: pre" ><tspan x="0.5" y="7.48" fill="rgba(0,0,0,1)">Jun 16</tspan></text></g><g transform=" matrix(1 0 0 1 44 439) "><text xml:space="preserve" font-family="Verdana" font-size="11" font-weight="normal" style="stroke: none; stroke-width: 1; stroke-dasharray: none; stroke-linecap: butt; stroke-linejoin: miter; stroke-miterlimit: 10;fill:#000000;fill-opacity:1; fill-rule: nonzero; opacity: 1; white-space: pre" ><tspan x="-19.48" y="7.48" fill="rgba(0,0,0,1)">-15</tspan></text></g><g transform=" matrix(1 0 0 1 44 387) "><text xml:space="preserve" font-family="Verdana" font-size="11" font-weight="normal" style="stroke: none; stroke-width: 1; stroke-dasharray: none; stroke-linecap: butt; stroke-linejoin: miter; stroke-miterlimit: 10;fill:#000000;fill-opacity:1; fill-rule: nonzero; opacity: 1; white-space: pre" ><tspan x="-19.48" y="7.48" fill="rgba(0,0,0,1)">-10</tspan></text></g><g transform=" matrix(1 0 0 1 44 334) "><text xml:space="preserve" font-family="Verdana" font-size="11" font-weight="normal" style="stroke: none; stroke-width: 1; stroke-dasharray: none; stroke-linecap: butt; stroke-linejoin: miter; stroke-miterlimit: 10;fill:#000000;fill-opacity:1; fill-rule: nonzero; opacity: 1; white-space: pre" ><tspan x="-12.49" y="7.48" fill="rgba(0,0,0,1)">-5</tspan></text></g><g transform=" matrix(1 0 0 1 44 282) "><text xml:space="preserve" font-family="Verdana" font-size="11" font-weight="normal" style="stroke: none; stroke-width: 1; stroke-dasharray: none; stroke-linecap: butt; stroke-linejoin: miter; stroke-miterlimit: 10;fill:#000000;fill-opacity:1; fill-rule: nonzero; opacity: 1; white-space: pre" ><tspan x="-7.49" y="7.48" fill="rgba(0,0,0,1)">0</tspan></text></g><g transform=" matrix(1 0 0 1 44 229) "><text xml:space="preserve" font-family="Verdana" font-size="11" font-weight="normal" style="stroke: none; stroke-width: 1; stroke-dasharray: none; stroke-linecap: butt; stroke-linejoin: miter; stroke-miterlimit: 10;fill:#000000;fill-opacity:1; fill-rule: nonzero; opacity: 1; white-space: pre" ><tspan x="-7.49" y="7.48" fill="rgba(0,0,0,1)">5</tspan></text></g><g transform=" matrix(1 0 0 1 44 177) "><text xml:space="preserve" font-family="Verdana" font-size="11" font-weight="normal" style="stroke: none; stroke-width: 1; stroke-dasharray: none; stroke-linecap: butt; stroke-linejoin: miter; stroke-miterlimit: 10;fill:#000000;fill-opacity:1; fill-rule: nonzero; opacity: 1; white-space: pre" ><tspan x="-14.49" y="7.48" fill="rgba(0,0,0,1)">10</tspan></text></g><g transform=" matrix(1 0 0 1 44 124) "><text xml:space="preserve" font-family="Verdana" font-size="11" font-weight="normal" style="stroke: none; stroke-width: 1; stroke-dasharray: none; stroke-linecap: butt; stroke-linejoin: miter; stroke-miterlimit: 10;fill:#000000;fill-opacity:1; fill-rule: nonzero; opacity: 1; white-space: pre" ><tspan x="-14.49" y="7.48" fill="rgba(0,0,0,1)">15</tspan></text></g><g transform=" matrix(1 0 0 1 44 72) "><text xml:space="preserve" font-family="Verdana" font-size="11" font-weight="normal" style="stroke: none; stroke-width: 1; stroke-dasharray: none; stroke-linecap: butt; stroke-linejoin: miter; stroke-miterlimit: 10;fill:#000000;fill-opacity:1; fill-rule: nonzero; opacity: 1; white-space: pre" ><tspan x="-14.49" y="7.48" fill="rgba(0,0,0,1)">20</tspan></text></g><g transform=" matrix(1 0 0 1 44 19) "><text xml:space="preserve" font-family="Verdana" font-size="11" font-weight="normal" style="stroke: none; stroke-width: 1; stroke-dasharray: none; stroke-linecap: butt; stroke-linejoin: miter; stroke-miterlimit: 10;fill:#000000;fill-opacity:1; fill-rule: nonzero; opacity: 1; white-space: pre" ><tspan x="-14.49" y="7.48" fill="rgba(0,0,0,1)">25</tspan></text></g></g><clipPath xmlns="http://www.w3.org/2000/svg" id="AmChartsEl-579"><rect x="-1" y="-1" width="882" height="422" rx="0" ry="0" stroke-width="0" fill="none" fill-opacity="0"/></clipPath><clipPath xmlns="http://www.w3.org/2000/svg" id="AmChartsEl-582"><rect x="0" y="264" width="880" height="157" rx="0" ry="0" stroke-width="0" fill="none" fill-opacity="0"/></clipPath><clipPath xmlns="http://www.w3.org/2000/svg" id="AmChartsEl-581"><rect x="0" y="0" width="880" height="264" rx="0" ry="0" stroke-width="0" fill="none" fill-opacity="0"/></clipPath><clipPath xmlns="http://www.w3.org/2000/svg" id="AmChartsEl-584"><rect x="0" y="264" width="880" height="157" rx="0" ry="0" stroke-width="0" fill="none" fill-opacity="0"/></clipPath><clipPath xmlns="http://www.w3.org/2000/svg" id="AmChartsEl-583"><rect x="0" y="0" width="880" height="264" rx="0" ry="0" stroke-width="0" fill="none" fill-opacity="0"/></clipPath><clipPath xmlns="http://www.w3.org/2000/svg" id="AmChartsEl-580"><rect x="0" y="0" width="880" height="420" rx="0" ry="0" stroke-width="0" fill="none" fill-opacity="0"/></clipPath></svg>