<?xml version="1.0" encoding="UTF-8" standalone="no" ?><!DOCTYPE svg PUBLIC "-//W3C//DTD SVG 1.1//EN" "http://www.w3.org/Graphics/SVG/1.1/DTD/svg11.dtd"><svg xmlns="http://www.w3.org/2000/svg" xmlns:xlink="http://www.w3.org/1999/xlink" version="1.1" width="1421" height="566" style="background-color: #FFFFFF" viewBox="0 0 1421 566" xml:space="preserve"><desc>Created with Fabric.js 1.6.2</desc><defs></defs><g style="stroke: none; stroke-width: 1; stroke-dasharray: none; stroke-linecap: butt; stroke-linejoin: miter; stroke-miterlimit: 10; fill: none; fill-rule: nonzero; opacity: 1" transform="translate(0.5 0.5)" ><path d="M 0.5 0.5 L 1420.5 0.5 L 1420.5 565.5 L 0.5 565.5 Z" style="stroke:#000000;stroke-opacity:1; stroke-opacity: 0; stroke-width: 1; stroke-dasharray: none; stroke-linecap: butt; stroke-linejoin: miter; stroke-miterlimit: 10;fill:#FFFFFF;fill-opacity:1; fill-opacity: 0; fill-rule: nonzero; opacity: 1" transform="" stroke-linecap="round" /><path d="M 0.5 0.5 L 683.5 0.5 L 683.5 395.5 L 0.5 395.5 L 0.5 0.5 Z" style="stroke:#000000;stroke-opacity:1; stroke-opacity: 0; stroke-width: 1; stroke-dasharray: none; stroke-linecap: butt; stroke-linejoin: miter; stroke-miterlimit: 10;fill:#FFFFFF;fill-opacity:1; fill-opacity: 0; fill-rule: nonzero; opacity: 1" transform=" matrix(1 0 0 1 437 20) " stroke-linecap="round" /><path d="M 0.5 0.5 L 87.5 -49.5 L 770.5 -49.5 L 683.5 0.5 L 0.5 0.5 Z" style="stroke:#000000;stroke-opacity:1; stroke-opacity: 0; stroke-width: 1; stroke-dasharray: none; stroke-linecap: butt; stroke-linejoin: miter; stroke-miterlimit: 10;fill:#D9D9D9;fill-opacity:1; fill-opacity: 0; fill-rule: nonzero; opacity: 1" transform=" matrix(1 0 0 1 350 465) " stroke-linecap="round" /><path d="M 0.5 0.5 L 0.5 395.5 L 87.5 345.5 L 87.5 -49.5 L 0.5 0.5 Z" style="stroke:#000000;stroke-opacity:1; stroke-opacity: 0; stroke-width: 1; stroke-dasharray: none; stroke-linecap: butt; stroke-linejoin: miter; stroke-miterlimit: 10;fill:#D9D9D9;fill-opacity:1; fill-opacity: 0; fill-rule: nonzero; opacity: 1" transform=" matrix(1 0 0 1 350 70) " stroke-linecap="round" /><path d="M 0.5 395.5 L 6.5 395.5" style="stroke:#000000;stroke-opacity:1; stroke-width: 1; stroke-dasharray: none; stroke-linecap: butt; stroke-linejoin: miter; stroke-miterlimit: 10; fill: none; fill-rule: nonzero; opacity: 1" transform=" matrix(1 0 0 1 344 70) " stroke-linecap="round" /><path d="M 0.5 356.5 L 6.5 356.5" style="stroke:#000000;stroke-opacity:1; stroke-width: 1; stroke-dasharray: none; stroke-linecap: butt; stroke-linejoin: miter; stroke-miterlimit: 10; fill: none; fill-rule: nonzero; opacity: 1" transform=" matrix(1 0 0 1 344 70) " stroke-linecap="round" /><path d="M 0.5 316.5 L 6.5 316.5" style="stroke:#000000;stroke-opacity:1; stroke-width: 1; stroke-dasharray: none; stroke-linecap: butt; stroke-linejoin: miter; stroke-miterlimit: 10; fill: none; fill-rule: nonzero; opacity: 1" transform=" matrix(1 0 0 1 344 70) " stroke-linecap="round" /><path d="M 0.5 277.5 L 6.5 277.5" style="stroke:#000000;stroke-opacity:1; stroke-width: 1; stroke-dasharray: none; stroke-linecap: butt; stroke-linejoin: miter; stroke-miterlimit: 10; fill: none; fill-rule: nonzero; opacity: 1" transform=" matrix(1 0 0 1 344 70) " stroke-linecap="round" /><path d="M 0.5 237.5 L 6.5 237.5" style="stroke:#000000;stroke-opacity:1; stroke-width: 1; stroke-dasharray: none; stroke-linecap: butt; stroke-linejoin: miter; stroke-miterlimit: 10; fill: none; fill-rule: nonzero; opacity: 1" transform=" matrix(1 0 0 1 344 70) " stroke-linecap="round" /><path d="M 0.5 198.5 L 6.5 198.5" style="stroke:#000000;stroke-opacity:1; stroke-width: 1; stroke-dasharray: none; stroke-linecap: butt; stroke-linejoin: miter; stroke-miterlimit: 10; fill: none; fill-rule: nonzero; opacity: 1" transform=" matrix(1 0 0 1 344 70) " stroke-linecap="round" /><path d="M 0.5 158.5 L 6.5 158.5" style="stroke:#000000;stroke-opacity:1; stroke-width: 1; stroke-dasharray: none; stroke-linecap: butt; stroke-linejoin: miter; stroke-miterlimit: 10; fill: none; fill-rule: nonzero; opacity: 1" transform=" matrix(1 0 0 1 344 70) " stroke-linecap="round" /><path d="M 0.5 119.5 L 6.5 119.5" style="stroke:#000000;stroke-opacity:1; stroke-width: 1; stroke-dasharray: none; stroke-linecap: butt; stroke-linejoin: miter; stroke-miterlimit: 10; fill: none; fill-rule: nonzero; opacity: 1" transform=" matrix(1 0 0 1 344 70) " stroke-linecap="round" /><path d="M 0.5 79.5 L 6.5 79.5" style="stroke:#000000;stroke-opacity:1; stroke-width: 1; stroke-dasharray: none; stroke-linecap: butt; stroke-linejoin: miter; stroke-miterlimit: 10; fill: none; fill-rule: nonzero; opacity: 1" transform=" matrix(1 0 0 1 344 70) " stroke-linecap="round" /><path d="M 0.5 40.5 L 6.5 40.5" style="stroke:#000000;stroke-opacity:1; stroke-width: 1; stroke-dasharray: none; stroke-linecap: butt; stroke-linejoin: miter; stroke-miterlimit: 10; fill: none; fill-rule: nonzero; opacity: 1" transform=" matrix(1 0 0 1 344 70) " stroke-linecap="round" /><path d="M 0.5 0.5 L 6.5 0.5" style="stroke:#000000;stroke-opacity:1; stroke-width: 1; stroke-dasharray: none; stroke-linecap: butt; stroke-linejoin: miter; stroke-miterlimit: 10; fill: none; fill-rule: nonzero; opacity: 1" transform=" matrix(1 0 0 1 344 70) " stroke-linecap="round" /><ellipse cx="0" cy="0" rx="341.5" ry="25" style="stroke:#FFFFFF;stroke-opacity:1; stroke-opacity: 0.5; stroke-width: 2; stroke-dasharray: none; stroke-linecap: butt; stroke-linejoin: miter; stroke-miterlimit: 10;fill:#E0853A;fill-opacity:1; fill-opacity: 0.8; fill-rule: nonzero; opacity: 1" transform=" matrix(1 0 0 1 693 465) "/><linearGradient id="SVGID_1" gradientUnits="userSpaceOnUse" x1="683" y1="0" x2="0" y2="0"><stop offset="0%" style="stop-color:rgb(224,133,58);stop-opacity: 1"/><stop offset="33.333333333333336%" style="stop-color:rgb(157,93,41);stop-opacity: 1"/><stop offset="66.66666666666667%" style="stop-color:rgb(157,93,41);stop-opacity: 1"/><stop offset="100%" style="stop-color:rgb(224,133,58);stop-opacity: 1"/></linearGradient><path d="M 0 0 L 0 -138 A 341.5 25 0 0 0 683 -138 L 683 0 A 341.5 25 0 0 1 0 0" style="stroke: rgb(255,255,255); stroke-opacity: 0.5; stroke-width: 2; stroke-dasharray: none; stroke-linecap: butt; stroke-linejoin: miter; stroke-miterlimit: 10; fill: url(#SVGID_1); fill-rule: nonzero; opacity: 1;" transform=" matrix(1 0 0 1 351 465) " stroke-linecap="round" /><ellipse cx="0" cy="0" rx="341.5" ry="25" style="stroke:#FFFFFF;stroke-opacity:1; stroke-opacity: 0.5; stroke-width: 2; stroke-dasharray: none; stroke-linecap: butt; stroke-linejoin: miter; stroke-miterlimit: 10;fill:#FFC857;fill-opacity:1; fill-opacity: 0.8; fill-rule: nonzero; opacity: 1" transform=" matrix(1 0 0 1 693 328) "/><ellipse cx="0" cy="0" rx="273" ry="25" style="stroke:#CDCDCD;stroke-opacity:1; stroke-opacity: 0.5; stroke-width: 2; stroke-dasharray: none; stroke-linecap: butt; stroke-linejoin: miter; stroke-miterlimit: 10;fill:#00B012;fill-opacity:1; fill-opacity: 0.5; fill-rule: nonzero; opacity: 1" transform=" matrix(1 0 0 1 692 327) "/><linearGradient id="SVGID_2" gradientUnits="userSpaceOnUse" x1="546" y1="0" x2="0" y2="0"><stop offset="0%" style="stop-color:rgb(0,176,18);stop-opacity: 1"/><stop offset="33.333333333333336%" style="stop-color:rgb(0,123,13);stop-opacity: 1"/><stop offset="66.66666666666667%" style="stop-color:rgb(0,123,13);stop-opacity: 1"/><stop offset="100%" style="stop-color:rgb(0,176,18);stop-opacity: 1"/></linearGradient><path d="M 0 0 L 0 -138 A 273 25 0 0 0 546 -138 L 546 0 A 273 25 0 0 1 0 0" style="stroke: rgb(205,205,205); stroke-opacity: 0.5; stroke-width: 2; stroke-dasharray: none; stroke-linecap: butt; stroke-linejoin: miter; stroke-miterlimit: 10; fill: url(#SVGID_2); fill-rule: nonzero; opacity: 1;" transform=" matrix(1 0 0 1 419 327) " stroke-linecap="round" /><ellipse cx="0" cy="0" rx="273" ry="25" style="stroke:#CDCDCD;stroke-opacity:1; stroke-opacity: 0.5; stroke-width: 2; stroke-dasharray: none; stroke-linecap: butt; stroke-linejoin: miter; stroke-miterlimit: 10;fill:#00FF1B;fill-opacity:1; fill-opacity: 0.5; fill-rule: nonzero; opacity: 1" transform=" matrix(1 0 0 1 692 190) "/><ellipse cx="0" cy="0" rx="205" ry="25" style="stroke:#FFFFFF;stroke-opacity:1; stroke-opacity: 0.8; stroke-width: 2; stroke-dasharray: none; stroke-linecap: butt; stroke-linejoin: miter; stroke-miterlimit: 10;fill:#0074C7;fill-opacity:1; fill-opacity: 0.8; fill-rule: nonzero; opacity: 1" transform=" matrix(1 0 0 1 692 189) "/><linearGradient id="SVGID_3" gradientUnits="userSpaceOnUse" x1="409.99999999999994" y1="0" x2="0" y2="0"><stop offset="0%" style="stop-color:rgb(0,116,199);stop-opacity: 1"/><stop offset="33.333333333333336%" style="stop-color:rgb(0,81,139);stop-opacity: 1"/><stop offset="66.66666666666667%" style="stop-color:rgb(0,81,139);stop-opacity: 1"/><stop offset="100%" style="stop-color:rgb(0,116,199);stop-opacity: 1"/></linearGradient><path d="M 0 0 L 0 -118 A 205 25 0 0 0 410 -118 L 410 0 A 205 25 0 0 1 0 0" style="stroke: rgb(255,255,255); stroke-opacity: 0.8; stroke-width: 2; stroke-dasharray: none; stroke-linecap: butt; stroke-linejoin: miter; stroke-miterlimit: 10; fill: url(#SVGID_3); fill-rule: nonzero; opacity: 1;" transform=" matrix(1 0 0 1 487 189) " stroke-linecap="round" /><ellipse cx="0" cy="0" rx="205" ry="25" style="stroke:#FFFFFF;stroke-opacity:1; stroke-opacity: 0.8; stroke-width: 2; stroke-dasharray: none; stroke-linecap: butt; stroke-linejoin: miter; stroke-miterlimit: 10;fill:#00AEFF;fill-opacity:1; fill-opacity: 0.8; fill-rule: nonzero; opacity: 1" transform=" matrix(1 0 0 1 692 72) "/><path d="M 0.5 395.5 L 683.5 395.5 L 770.5 345.5" style="stroke:#000000;stroke-opacity:1; stroke-opacity: 0; stroke-width: 1; stroke-dasharray: none; stroke-linecap: butt; stroke-linejoin: miter; stroke-miterlimit: 10; fill: none; fill-rule: nonzero; opacity: 1" transform=" matrix(1 0 0 1 350 70) " stroke-linecap="round" /><path d="M 0.5 0.5 L 683.5 0.5" style="stroke:#000000;stroke-opacity:1; stroke-opacity: 0; stroke-width: 1; stroke-dasharray: none; stroke-linecap: butt; stroke-linejoin: miter; stroke-miterlimit: 10; fill: none; fill-rule: nonzero; opacity: 1" transform=" matrix(1 0 0 1 350 465) " stroke-linecap="round" /><path d="M 0.5 0.5 L 0.5 395.5" style="stroke:#000000;stroke-opacity:1; stroke-width: 1; stroke-dasharray: none; stroke-linecap: butt; stroke-linejoin: miter; stroke-miterlimit: 10; fill: none; fill-rule: nonzero; opacity: 1" transform=" matrix(1 0 0 1 350 70) " stroke-linecap="round" /><g transform=" matrix(1 0 0 1 338 464) "><text font-family="Verdana" font-size="11" font-weight="normal" style="stroke: none; stroke-width: 1; stroke-dasharray: none; stroke-linecap: butt; stroke-linejoin: miter; stroke-miterlimit: 10;fill:#000000;fill-opacity:1; fill-rule: nonzero; opacity: 1" ><tspan x="-7.49" y="5.49" fill="rgba(0,0,0,1)">0</tspan></text></g><g transform=" matrix(1 0 0 1 338 425) "><text font-family="Verdana" font-size="11" font-weight="normal" style="stroke: none; stroke-width: 1; stroke-dasharray: none; stroke-linecap: butt; stroke-linejoin: miter; stroke-miterlimit: 10;fill:#000000;fill-opacity:1; fill-rule: nonzero; opacity: 1" ><tspan x="-14.49" y="5.49" fill="rgba(0,0,0,1)">10</tspan></text></g><g transform=" matrix(1 0 0 1 338 385) "><text font-family="Verdana" font-size="11" font-weight="normal" style="stroke: none; stroke-width: 1; stroke-dasharray: none; stroke-linecap: butt; stroke-linejoin: miter; stroke-miterlimit: 10;fill:#000000;fill-opacity:1; fill-rule: nonzero; opacity: 1" ><tspan x="-14.49" y="5.49" fill="rgba(0,0,0,1)">20</tspan></text></g><g transform=" matrix(1 0 0 1 338 346) "><text font-family="Verdana" font-size="11" font-weight="normal" style="stroke: none; stroke-width: 1; stroke-dasharray: none; stroke-linecap: butt; stroke-linejoin: miter; stroke-miterlimit: 10;fill:#000000;fill-opacity:1; fill-rule: nonzero; opacity: 1" ><tspan x="-14.49" y="5.49" fill="rgba(0,0,0,1)">30</tspan></text></g><g transform=" matrix(1 0 0 1 338 306) "><text font-family="Verdana" font-size="11" font-weight="normal" style="stroke: none; stroke-width: 1; stroke-dasharray: none; stroke-linecap: butt; stroke-linejoin: miter; stroke-miterlimit: 10;fill:#000000;fill-opacity:1; fill-rule: nonzero; opacity: 1" ><tspan x="-14.49" y="5.49" fill="rgba(0,0,0,1)">40</tspan></text></g><g transform=" matrix(1 0 0 1 338 267) "><text font-family="Verdana" font-size="11" font-weight="normal" style="stroke: none; stroke-width: 1; stroke-dasharray: none; stroke-linecap: butt; stroke-linejoin: miter; stroke-miterlimit: 10;fill:#000000;fill-opacity:1; fill-rule: nonzero; opacity: 1" ><tspan x="-14.49" y="5.49" fill="rgba(0,0,0,1)">50</tspan></text></g><g transform=" matrix(1 0 0 1 338 227) "><text font-family="Verdana" font-size="11" font-weight="normal" style="stroke: none; stroke-width: 1; stroke-dasharray: none; stroke-linecap: butt; stroke-linejoin: miter; stroke-miterlimit: 10;fill:#000000;fill-opacity:1; fill-rule: nonzero; opacity: 1" ><tspan x="-14.49" y="5.49" fill="rgba(0,0,0,1)">60</tspan></text></g><g transform=" matrix(1 0 0 1 338 188) "><text font-family="Verdana" font-size="11" font-weight="normal" style="stroke: none; stroke-width: 1; stroke-dasharray: none; stroke-linecap: butt; stroke-linejoin: miter; stroke-miterlimit: 10;fill:#000000;fill-opacity:1; fill-rule: nonzero; opacity: 1" ><tspan x="-14.49" y="5.49" fill="rgba(0,0,0,1)">70</tspan></text></g><g transform=" matrix(1 0 0 1 338 148) "><text font-family="Verdana" font-size="11" font-weight="normal" style="stroke: none; stroke-width: 1; stroke-dasharray: none; stroke-linecap: butt; stroke-linejoin: miter; stroke-miterlimit: 10;fill:#000000;fill-opacity:1; fill-rule: nonzero; opacity: 1" ><tspan x="-14.49" y="5.49" fill="rgba(0,0,0,1)">80</tspan></text></g><g transform=" matrix(1 0 0 1 338 109) "><text font-family="Verdana" font-size="11" font-weight="normal" style="stroke: none; stroke-width: 1; stroke-dasharray: none; stroke-linecap: butt; stroke-linejoin: miter; stroke-miterlimit: 10;fill:#000000;fill-opacity:1; fill-rule: nonzero; opacity: 1" ><tspan x="-14.49" y="5.49" fill="rgba(0,0,0,1)">90</tspan></text></g><g transform=" matrix(1 0 0 1 338 69) "><text font-family="Verdana" font-size="11" font-weight="normal" style="stroke: none; stroke-width: 1; stroke-dasharray: none; stroke-linecap: butt; stroke-linejoin: miter; stroke-miterlimit: 10;fill:#000000;fill-opacity:1; fill-rule: nonzero; opacity: 1" ><tspan x="-21.48" y="5.49" fill="rgba(0,0,0,1)">100</tspan></text></g></g></svg>