<?xml version="1.0" encoding="UTF-8" standalone="no" ?><!DOCTYPE svg PUBLIC "-//W3C//DTD SVG 1.1//EN" "http://www.w3.org/Graphics/SVG/1.1/DTD/svg11.dtd"><svg xmlns="http://www.w3.org/2000/svg" xmlns:xlink="http://www.w3.org/1999/xlink" version="1.1" width="860" height="415" style="background-color: #FFFFFF" viewBox="0 0 860 415" xml:space="preserve"><desc>Created with Fabric.js 1.6.2</desc><defs></defs><g style="stroke: none; stroke-width: 1; stroke-dasharray: none; stroke-linecap: butt; stroke-linejoin: miter; stroke-miterlimit: 10; fill: none; fill-rule: nonzero; opacity: 1" transform="translate(0.5 0.5)" ><path d="M 0.5 0.5 L 859.5 0.5 L 859.5 414.5 L 0.5 414.5 Z" style="stroke:#000000;stroke-opacity:1; stroke-opacity: 0; stroke-width: 1; stroke-dasharray: none; stroke-linecap: butt; stroke-linejoin: miter; stroke-miterlimit: 10;fill:#FFFFFF;fill-opacity:1; fill-opacity: 0; fill-rule: nonzero; opacity: 1" transform="" stroke-linecap="round" /><path d="M 430 102.5 L 430 33.5 A 174 174 0 0 1 583.039106757195 290.2951194392511 L 522.3511851121004 257.46257207541015 A 105 105 0 0 0 430 102.5 Z" style="stroke:#FFFFFF;stroke-opacity:1; stroke-opacity: 0; stroke-width: 1; stroke-dasharray: none; stroke-linecap: butt; stroke-linejoin: miter; stroke-miterlimit: 10;fill:#FF0F00;fill-opacity:1; fill-rule: nonzero; opacity: 1" transform="" stroke-linecap="round" /><path d="M 580.5 118.5 L 584.5 116.5 L 592.5 116.5" style="stroke:#000000;stroke-opacity:1; stroke-opacity: 0.2; stroke-width: 1; stroke-dasharray: none; stroke-linecap: butt; stroke-linejoin: miter; stroke-miterlimit: 10; fill: none; fill-rule: nonzero; opacity: 1" transform="" stroke-linecap="round" /><path d="M 522.3511851121004 257.46257207541015 L 583.039106757195 290.2951194392511 A 174 174 0 1 1 429.99999999999994 33.5 L 430 102.5 A 105 105 0 1 0 522.3511851121004 257.46257207541015 Z" style="stroke:#FFFFFF;stroke-opacity:1; stroke-opacity: 0; stroke-width: 1; stroke-dasharray: none; stroke-linecap: butt; stroke-linejoin: miter; stroke-miterlimit: 10;fill:#FF6600;fill-opacity:1; fill-rule: nonzero; opacity: 1" transform="" stroke-linecap="round" /><path d="M 280.5 297.5 L 276.5 299.5 L 268.5 299.5" style="stroke:#000000;stroke-opacity:1; stroke-opacity: 0.2; stroke-width: 1; stroke-dasharray: none; stroke-linecap: butt; stroke-linejoin: miter; stroke-miterlimit: 10; fill: none; fill-rule: nonzero; opacity: 1" transform="" stroke-linecap="round" /><g transform=" matrix(1 0 0 1 596 116) "><text font-family="Verdana" font-size="11" font-weight="normal" style="stroke: none; stroke-width: 1; stroke-dasharray: none; stroke-linecap: butt; stroke-linejoin: miter; stroke-miterlimit: 10;fill:#000000;fill-opacity:1; fill-rule: nonzero; opacity: 1" ><tspan x="0.5" y="5.49" fill="rgba(0,0,0,1)">New</tspan></text></g><g transform=" matrix(1 0 0 1 264 299) "><text font-family="Verdana" font-size="11" font-weight="normal" style="stroke: none; stroke-width: 1; stroke-dasharray: none; stroke-linecap: butt; stroke-linejoin: miter; stroke-miterlimit: 10;fill:#000000;fill-opacity:1; fill-rule: nonzero; opacity: 1" ><tspan x="-54.22" y="5.49" fill="rgba(0,0,0,1)">Returning</tspan></text></g></g></svg>