<?xml version="1.0" encoding="UTF-8" standalone="no" ?><!DOCTYPE svg PUBLIC "-//W3C//DTD SVG 1.1//EN" "http://www.w3.org/Graphics/SVG/1.1/DTD/svg11.dtd"><svg xmlns="http://www.w3.org/2000/svg" xmlns:xlink="http://www.w3.org/1999/xlink" version="1.1" width="936" height="485" viewBox="0 0 936 485" xml:space="preserve"><desc>Created with Fabric.js 1.7.19</desc><defs></defs><rect x="0" y="0" width="936" height="485" fill="#FFFFFF"></rect><g style="stroke: none; stroke-width: 1; stroke-dasharray: none; stroke-linecap: butt; stroke-linejoin: miter; stroke-miterlimit: 10; fill: none; fill-rule: nonzero; opacity: 1" transform="translate(0 0)" ><path d="M 0.5 0.5 L 935.5 0.5 L 935.5 484.5 L 0.5 484.5 Z" style="stroke:#000000;stroke-opacity:1; stroke-opacity: 0; stroke-width: 1; stroke-dasharray: none; stroke-linecap: butt; stroke-linejoin: miter; stroke-miterlimit: 10;fill:#FFFFFF;fill-opacity:1; fill-opacity: 0; fill-rule: nonzero; opacity: 1" transform="" stroke-linecap="round" /><path d="M 0.5 0.5 L 833.5 0.5 L 833.5 429.5 L 0.5 429.5 L 0.5 0.5 Z" style="stroke:#000000;stroke-opacity:1; stroke-opacity: 0; stroke-width: 1; stroke-dasharray: none; stroke-linecap: butt; stroke-linejoin: miter; stroke-miterlimit: 10;fill:#FFFFFF;fill-opacity:1; fill-opacity: 0; fill-rule: nonzero; opacity: 1" transform=" matrix(1 0 0 1 82 20) " stroke-linecap="round" /><path d="M 0.5 0.5 L 0.5 5.5" style="stroke:#000000;stroke-opacity:1; stroke-opacity: 0.3; stroke-width: 1; stroke-dasharray: none; stroke-linecap: butt; stroke-linejoin: miter; stroke-miterlimit: 10; fill: none; fill-rule: nonzero; opacity: 1" transform=" matrix(1 0 0 1 82 449) " stroke-linecap="round" /><path d="M 0.5 429.5 L 0.5 429.5 L 0.5 0.5" style="stroke:#000000;stroke-opacity:1; stroke-opacity: 0.1; stroke-width: 1; stroke-dasharray: none; stroke-linecap: butt; stroke-linejoin: miter; stroke-miterlimit: 10; fill: none; fill-rule: nonzero; opacity: 1" transform=" matrix(1 0 0 1 82 20) " stroke-linecap="round" /><path d="M 46.5 0.5 L 46.5 5.5" style="stroke:#000000;stroke-opacity:1; stroke-opacity: 0.3; stroke-width: 1; stroke-dasharray: none; stroke-linecap: butt; stroke-linejoin: miter; stroke-miterlimit: 10; fill: none; fill-rule: nonzero; opacity: 1" transform=" matrix(1 0 0 1 82 449) " stroke-linecap="round" /><path d="M 46.5 429.5 L 46.5 429.5 L 46.5 0.5" style="stroke:#000000;stroke-opacity:1; stroke-opacity: 0.1; stroke-width: 1; stroke-dasharray: none; stroke-linecap: butt; stroke-linejoin: miter; stroke-miterlimit: 10; fill: none; fill-rule: nonzero; opacity: 1" transform=" matrix(1 0 0 1 82 20) " stroke-linecap="round" /><path d="M 93.5 0.5 L 93.5 5.5" style="stroke:#000000;stroke-opacity:1; stroke-opacity: 0.3; stroke-width: 1; stroke-dasharray: none; stroke-linecap: butt; stroke-linejoin: miter; stroke-miterlimit: 10; fill: none; fill-rule: nonzero; opacity: 1" transform=" matrix(1 0 0 1 82 449) " stroke-linecap="round" /><path d="M 93.5 429.5 L 93.5 429.5 L 93.5 0.5" style="stroke:#000000;stroke-opacity:1; stroke-opacity: 0.1; stroke-width: 1; stroke-dasharray: none; stroke-linecap: butt; stroke-linejoin: miter; stroke-miterlimit: 10; fill: none; fill-rule: nonzero; opacity: 1" transform=" matrix(1 0 0 1 82 20) " stroke-linecap="round" /><path d="M 139.5 0.5 L 139.5 5.5" style="stroke:#000000;stroke-opacity:1; stroke-opacity: 0.3; stroke-width: 1; stroke-dasharray: none; stroke-linecap: butt; stroke-linejoin: miter; stroke-miterlimit: 10; fill: none; fill-rule: nonzero; opacity: 1" transform=" matrix(1 0 0 1 82 449) " stroke-linecap="round" /><path d="M 139.5 429.5 L 139.5 429.5 L 139.5 0.5" style="stroke:#000000;stroke-opacity:1; stroke-opacity: 0.1; stroke-width: 1; stroke-dasharray: none; stroke-linecap: butt; stroke-linejoin: miter; stroke-miterlimit: 10; fill: none; fill-rule: nonzero; opacity: 1" transform=" matrix(1 0 0 1 82 20) " stroke-linecap="round" /><path d="M 185.5 0.5 L 185.5 5.5" style="stroke:#000000;stroke-opacity:1; stroke-opacity: 0.3; stroke-width: 1; stroke-dasharray: none; stroke-linecap: butt; stroke-linejoin: miter; stroke-miterlimit: 10; fill: none; fill-rule: nonzero; opacity: 1" transform=" matrix(1 0 0 1 82 449) " stroke-linecap="round" /><path d="M 185.5 429.5 L 185.5 429.5 L 185.5 0.5" style="stroke:#000000;stroke-opacity:1; stroke-opacity: 0.1; stroke-width: 1; stroke-dasharray: none; stroke-linecap: butt; stroke-linejoin: miter; stroke-miterlimit: 10; fill: none; fill-rule: nonzero; opacity: 1" transform=" matrix(1 0 0 1 82 20) " stroke-linecap="round" /><path d="M 231.5 0.5 L 231.5 5.5" style="stroke:#000000;stroke-opacity:1; stroke-opacity: 0.3; stroke-width: 1; stroke-dasharray: none; stroke-linecap: butt; stroke-linejoin: miter; stroke-miterlimit: 10; fill: none; fill-rule: nonzero; opacity: 1" transform=" matrix(1 0 0 1 82 449) " stroke-linecap="round" /><path d="M 231.5 429.5 L 231.5 429.5 L 231.5 0.5" style="stroke:#000000;stroke-opacity:1; stroke-opacity: 0.1; stroke-width: 1; stroke-dasharray: none; stroke-linecap: butt; stroke-linejoin: miter; stroke-miterlimit: 10; fill: none; fill-rule: nonzero; opacity: 1" transform=" matrix(1 0 0 1 82 20) " stroke-linecap="round" /><path d="M 278.5 0.5 L 278.5 5.5" style="stroke:#000000;stroke-opacity:1; stroke-opacity: 0.3; stroke-width: 1; stroke-dasharray: none; stroke-linecap: butt; stroke-linejoin: miter; stroke-miterlimit: 10; fill: none; fill-rule: nonzero; opacity: 1" transform=" matrix(1 0 0 1 82 449) " stroke-linecap="round" /><path d="M 278.5 429.5 L 278.5 429.5 L 278.5 0.5" style="stroke:#000000;stroke-opacity:1; stroke-opacity: 0.1; stroke-width: 1; stroke-dasharray: none; stroke-linecap: butt; stroke-linejoin: miter; stroke-miterlimit: 10; fill: none; fill-rule: nonzero; opacity: 1" transform=" matrix(1 0 0 1 82 20) " stroke-linecap="round" /><path d="M 324.5 0.5 L 324.5 5.5" style="stroke:#000000;stroke-opacity:1; stroke-opacity: 0.3; stroke-width: 1; stroke-dasharray: none; stroke-linecap: butt; stroke-linejoin: miter; stroke-miterlimit: 10; fill: none; fill-rule: nonzero; opacity: 1" transform=" matrix(1 0 0 1 82 449) " stroke-linecap="round" /><path d="M 324.5 429.5 L 324.5 429.5 L 324.5 0.5" style="stroke:#000000;stroke-opacity:1; stroke-opacity: 0.1; stroke-width: 1; stroke-dasharray: none; stroke-linecap: butt; stroke-linejoin: miter; stroke-miterlimit: 10; fill: none; fill-rule: nonzero; opacity: 1" transform=" matrix(1 0 0 1 82 20) " stroke-linecap="round" /><path d="M 370.5 0.5 L 370.5 5.5" style="stroke:#000000;stroke-opacity:1; stroke-opacity: 0.3; stroke-width: 1; stroke-dasharray: none; stroke-linecap: butt; stroke-linejoin: miter; stroke-miterlimit: 10; fill: none; fill-rule: nonzero; opacity: 1" transform=" matrix(1 0 0 1 82 449) " stroke-linecap="round" /><path d="M 370.5 429.5 L 370.5 429.5 L 370.5 0.5" style="stroke:#000000;stroke-opacity:1; stroke-opacity: 0.1; stroke-width: 1; stroke-dasharray: none; stroke-linecap: butt; stroke-linejoin: miter; stroke-miterlimit: 10; fill: none; fill-rule: nonzero; opacity: 1" transform=" matrix(1 0 0 1 82 20) " stroke-linecap="round" /><path d="M 417.5 0.5 L 417.5 5.5" style="stroke:#000000;stroke-opacity:1; stroke-opacity: 0.3; stroke-width: 1; stroke-dasharray: none; stroke-linecap: butt; stroke-linejoin: miter; stroke-miterlimit: 10; fill: none; fill-rule: nonzero; opacity: 1" transform=" matrix(1 0 0 1 82 449) " stroke-linecap="round" /><path d="M 417.5 429.5 L 417.5 429.5 L 417.5 0.5" style="stroke:#000000;stroke-opacity:1; stroke-opacity: 0.1; stroke-width: 1; stroke-dasharray: none; stroke-linecap: butt; stroke-linejoin: miter; stroke-miterlimit: 10; fill: none; fill-rule: nonzero; opacity: 1" transform=" matrix(1 0 0 1 82 20) " stroke-linecap="round" /><path d="M 463.5 0.5 L 463.5 5.5" style="stroke:#000000;stroke-opacity:1; stroke-opacity: 0.3; stroke-width: 1; stroke-dasharray: none; stroke-linecap: butt; stroke-linejoin: miter; stroke-miterlimit: 10; fill: none; fill-rule: nonzero; opacity: 1" transform=" matrix(1 0 0 1 82 449) " stroke-linecap="round" /><path d="M 463.5 429.5 L 463.5 429.5 L 463.5 0.5" style="stroke:#000000;stroke-opacity:1; stroke-opacity: 0.1; stroke-width: 1; stroke-dasharray: none; stroke-linecap: butt; stroke-linejoin: miter; stroke-miterlimit: 10; fill: none; fill-rule: nonzero; opacity: 1" transform=" matrix(1 0 0 1 82 20) " stroke-linecap="round" /><path d="M 509.5 0.5 L 509.5 5.5" style="stroke:#000000;stroke-opacity:1; stroke-opacity: 0.3; stroke-width: 1; stroke-dasharray: none; stroke-linecap: butt; stroke-linejoin: miter; stroke-miterlimit: 10; fill: none; fill-rule: nonzero; opacity: 1" transform=" matrix(1 0 0 1 82 449) " stroke-linecap="round" /><path d="M 509.5 429.5 L 509.5 429.5 L 509.5 0.5" style="stroke:#000000;stroke-opacity:1; stroke-opacity: 0.1; stroke-width: 1; stroke-dasharray: none; stroke-linecap: butt; stroke-linejoin: miter; stroke-miterlimit: 10; fill: none; fill-rule: nonzero; opacity: 1" transform=" matrix(1 0 0 1 82 20) " stroke-linecap="round" /><path d="M 555.5 0.5 L 555.5 5.5" style="stroke:#000000;stroke-opacity:1; stroke-opacity: 0.3; stroke-width: 1; stroke-dasharray: none; stroke-linecap: butt; stroke-linejoin: miter; stroke-miterlimit: 10; fill: none; fill-rule: nonzero; opacity: 1" transform=" matrix(1 0 0 1 82 449) " stroke-linecap="round" /><path d="M 555.5 429.5 L 555.5 429.5 L 555.5 0.5" style="stroke:#000000;stroke-opacity:1; stroke-opacity: 0.1; stroke-width: 1; stroke-dasharray: none; stroke-linecap: butt; stroke-linejoin: miter; stroke-miterlimit: 10; fill: none; fill-rule: nonzero; opacity: 1" transform=" matrix(1 0 0 1 82 20) " stroke-linecap="round" /><path d="M 602.5 0.5 L 602.5 5.5" style="stroke:#000000;stroke-opacity:1; stroke-opacity: 0.3; stroke-width: 1; stroke-dasharray: none; stroke-linecap: butt; stroke-linejoin: miter; stroke-miterlimit: 10; fill: none; fill-rule: nonzero; opacity: 1" transform=" matrix(1 0 0 1 82 449) " stroke-linecap="round" /><path d="M 602.5 429.5 L 602.5 429.5 L 602.5 0.5" style="stroke:#000000;stroke-opacity:1; stroke-opacity: 0.1; stroke-width: 1; stroke-dasharray: none; stroke-linecap: butt; stroke-linejoin: miter; stroke-miterlimit: 10; fill: none; fill-rule: nonzero; opacity: 1" transform=" matrix(1 0 0 1 82 20) " stroke-linecap="round" /><path d="M 648.5 0.5 L 648.5 5.5" style="stroke:#000000;stroke-opacity:1; stroke-opacity: 0.3; stroke-width: 1; stroke-dasharray: none; stroke-linecap: butt; stroke-linejoin: miter; stroke-miterlimit: 10; fill: none; fill-rule: nonzero; opacity: 1" transform=" matrix(1 0 0 1 82 449) " stroke-linecap="round" /><path d="M 648.5 429.5 L 648.5 429.5 L 648.5 0.5" style="stroke:#000000;stroke-opacity:1; stroke-opacity: 0.1; stroke-width: 1; stroke-dasharray: none; stroke-linecap: butt; stroke-linejoin: miter; stroke-miterlimit: 10; fill: none; fill-rule: nonzero; opacity: 1" transform=" matrix(1 0 0 1 82 20) " stroke-linecap="round" /><path d="M 694.5 0.5 L 694.5 5.5" style="stroke:#000000;stroke-opacity:1; stroke-opacity: 0.3; stroke-width: 1; stroke-dasharray: none; stroke-linecap: butt; stroke-linejoin: miter; stroke-miterlimit: 10; fill: none; fill-rule: nonzero; opacity: 1" transform=" matrix(1 0 0 1 82 449) " stroke-linecap="round" /><path d="M 694.5 429.5 L 694.5 429.5 L 694.5 0.5" style="stroke:#000000;stroke-opacity:1; stroke-opacity: 0.1; stroke-width: 1; stroke-dasharray: none; stroke-linecap: butt; stroke-linejoin: miter; stroke-miterlimit: 10; fill: none; fill-rule: nonzero; opacity: 1" transform=" matrix(1 0 0 1 82 20) " stroke-linecap="round" /><path d="M 740.5 0.5 L 740.5 5.5" style="stroke:#000000;stroke-opacity:1; stroke-opacity: 0.3; stroke-width: 1; stroke-dasharray: none; stroke-linecap: butt; stroke-linejoin: miter; stroke-miterlimit: 10; fill: none; fill-rule: nonzero; opacity: 1" transform=" matrix(1 0 0 1 82 449) " stroke-linecap="round" /><path d="M 740.5 429.5 L 740.5 429.5 L 740.5 0.5" style="stroke:#000000;stroke-opacity:1; stroke-opacity: 0.1; stroke-width: 1; stroke-dasharray: none; stroke-linecap: butt; stroke-linejoin: miter; stroke-miterlimit: 10; fill: none; fill-rule: nonzero; opacity: 1" transform=" matrix(1 0 0 1 82 20) " stroke-linecap="round" /><path d="M 787.5 0.5 L 787.5 5.5" style="stroke:#000000;stroke-opacity:1; stroke-opacity: 0.3; stroke-width: 1; stroke-dasharray: none; stroke-linecap: butt; stroke-linejoin: miter; stroke-miterlimit: 10; fill: none; fill-rule: nonzero; opacity: 1" transform=" matrix(1 0 0 1 82 449) " stroke-linecap="round" /><path d="M 787.5 429.5 L 787.5 429.5 L 787.5 0.5" style="stroke:#000000;stroke-opacity:1; stroke-opacity: 0.1; stroke-width: 1; stroke-dasharray: none; stroke-linecap: butt; stroke-linejoin: miter; stroke-miterlimit: 10; fill: none; fill-rule: nonzero; opacity: 1" transform=" matrix(1 0 0 1 82 20) " stroke-linecap="round" /><path d="M 833.5 0.5 L 833.5 5.5" style="stroke:#000000;stroke-opacity:1; stroke-opacity: 0.3; stroke-width: 1; stroke-dasharray: none; stroke-linecap: butt; stroke-linejoin: miter; stroke-miterlimit: 10; fill: none; fill-rule: nonzero; opacity: 1" transform=" matrix(1 0 0 1 82 449) " stroke-linecap="round" /><path d="M 833.5 429.5 L 833.5 429.5 L 833.5 0.5" style="stroke:#000000;stroke-opacity:1; stroke-opacity: 0.1; stroke-width: 1; stroke-dasharray: none; stroke-linecap: butt; stroke-linejoin: miter; stroke-miterlimit: 10; fill: none; fill-rule: nonzero; opacity: 1" transform=" matrix(1 0 0 1 82 20) " stroke-linecap="round" /><path d="M 0.5 429.5 L 6.5 429.5" style="stroke:#000000;stroke-opacity:1; stroke-opacity: 0.3; stroke-width: 1; stroke-dasharray: none; stroke-linecap: butt; stroke-linejoin: miter; stroke-miterlimit: 10; fill: none; fill-rule: nonzero; opacity: 1" transform=" matrix(1 0 0 1 76 20) " stroke-linecap="round" /><path d="M 0.5 429.5 L 0.5 429.5 L 833.5 429.5" style="stroke:#000000;stroke-opacity:1; stroke-opacity: 0.1; stroke-width: 1; stroke-dasharray: none; stroke-linecap: butt; stroke-linejoin: miter; stroke-miterlimit: 10; fill: none; fill-rule: nonzero; opacity: 1" transform=" matrix(1 0 0 1 82 20) " stroke-linecap="round" /><path d="M 0.5 358.5 L 6.5 358.5" style="stroke:#000000;stroke-opacity:1; stroke-opacity: 0.3; stroke-width: 1; stroke-dasharray: none; stroke-linecap: butt; stroke-linejoin: miter; stroke-miterlimit: 10; fill: none; fill-rule: nonzero; opacity: 1" transform=" matrix(1 0 0 1 76 20) " stroke-linecap="round" /><path d="M 0.5 358.5 L 0.5 358.5 L 833.5 358.5" style="stroke:#000000;stroke-opacity:1; stroke-opacity: 0.1; stroke-width: 1; stroke-dasharray: none; stroke-linecap: butt; stroke-linejoin: miter; stroke-miterlimit: 10; fill: none; fill-rule: nonzero; opacity: 1" transform=" matrix(1 0 0 1 82 20) " stroke-linecap="round" /><path d="M 0.5 286.5 L 6.5 286.5" style="stroke:#000000;stroke-opacity:1; stroke-opacity: 0.3; stroke-width: 1; stroke-dasharray: none; stroke-linecap: butt; stroke-linejoin: miter; stroke-miterlimit: 10; fill: none; fill-rule: nonzero; opacity: 1" transform=" matrix(1 0 0 1 76 20) " stroke-linecap="round" /><path d="M 0.5 286.5 L 0.5 286.5 L 833.5 286.5" style="stroke:#000000;stroke-opacity:1; stroke-opacity: 0.1; stroke-width: 1; stroke-dasharray: none; stroke-linecap: butt; stroke-linejoin: miter; stroke-miterlimit: 10; fill: none; fill-rule: nonzero; opacity: 1" transform=" matrix(1 0 0 1 82 20) " stroke-linecap="round" /><path d="M 0.5 215.5 L 6.5 215.5" style="stroke:#000000;stroke-opacity:1; stroke-opacity: 0.3; stroke-width: 1; stroke-dasharray: none; stroke-linecap: butt; stroke-linejoin: miter; stroke-miterlimit: 10; fill: none; fill-rule: nonzero; opacity: 1" transform=" matrix(1 0 0 1 76 20) " stroke-linecap="round" /><path d="M 0.5 215.5 L 0.5 215.5 L 833.5 215.5" style="stroke:#000000;stroke-opacity:1; stroke-opacity: 0.1; stroke-width: 1; stroke-dasharray: none; stroke-linecap: butt; stroke-linejoin: miter; stroke-miterlimit: 10; fill: none; fill-rule: nonzero; opacity: 1" transform=" matrix(1 0 0 1 82 20) " stroke-linecap="round" /><path d="M 0.5 143.5 L 6.5 143.5" style="stroke:#000000;stroke-opacity:1; stroke-opacity: 0.3; stroke-width: 1; stroke-dasharray: none; stroke-linecap: butt; stroke-linejoin: miter; stroke-miterlimit: 10; fill: none; fill-rule: nonzero; opacity: 1" transform=" matrix(1 0 0 1 76 20) " stroke-linecap="round" /><path d="M 0.5 143.5 L 0.5 143.5 L 833.5 143.5" style="stroke:#000000;stroke-opacity:1; stroke-opacity: 0.1; stroke-width: 1; stroke-dasharray: none; stroke-linecap: butt; stroke-linejoin: miter; stroke-miterlimit: 10; fill: none; fill-rule: nonzero; opacity: 1" transform=" matrix(1 0 0 1 82 20) " stroke-linecap="round" /><path d="M 0.5 72.5 L 6.5 72.5" style="stroke:#000000;stroke-opacity:1; stroke-opacity: 0.3; stroke-width: 1; stroke-dasharray: none; stroke-linecap: butt; stroke-linejoin: miter; stroke-miterlimit: 10; fill: none; fill-rule: nonzero; opacity: 1" transform=" matrix(1 0 0 1 76 20) " stroke-linecap="round" /><path d="M 0.5 72.5 L 0.5 72.5 L 833.5 72.5" style="stroke:#000000;stroke-opacity:1; stroke-opacity: 0.1; stroke-width: 1; stroke-dasharray: none; stroke-linecap: butt; stroke-linejoin: miter; stroke-miterlimit: 10; fill: none; fill-rule: nonzero; opacity: 1" transform=" matrix(1 0 0 1 82 20) " stroke-linecap="round" /><path d="M 0.5 0.5 L 6.5 0.5" style="stroke:#000000;stroke-opacity:1; stroke-opacity: 0.3; stroke-width: 1; stroke-dasharray: none; stroke-linecap: butt; stroke-linejoin: miter; stroke-miterlimit: 10; fill: none; fill-rule: nonzero; opacity: 1" transform=" matrix(1 0 0 1 76 20) " stroke-linecap="round" /><path d="M 0.5 0.5 L 0.5 0.5 L 833.5 0.5" style="stroke:#000000;stroke-opacity:1; stroke-opacity: 0.1; stroke-width: 1; stroke-dasharray: none; stroke-linecap: butt; stroke-linejoin: miter; stroke-miterlimit: 10; fill: none; fill-rule: nonzero; opacity: 1" transform=" matrix(1 0 0 1 82 20) " stroke-linecap="round" /><path d="M 0.5 202.559 L 46.5 205.419 L 93.5 198.269 L 139.5 196.41 L 185.5 192.12 L 231.5 188.831 L 278.5 187.687 L 324.5 243.886 L 370.5 247.175 L 417.5 251.322 L 463.5 241.026 L 509.5 256.041 L 555.5 258.043 L 602.5 270.77 L 648.5 262.905 L 694.5 265.765 L 740.5 263.191 L 787.5 260.76 L 833.5 263.763" style="stroke:#67B7DC;stroke-opacity:1; stroke-opacity: 0.9; stroke-width: 3; stroke-dasharray: none; stroke-linecap: butt; stroke-linejoin: round; stroke-miterlimit: 10; fill: none; fill-rule: nonzero; opacity: 1" transform=" matrix(1 0 0 1 82 20) " stroke-linecap="round"  clip-path="url(#AmChartsEl-362)" /><path d="M 0.5 202.559 L 46.5 205.419 L 93.5 198.269 L 139.5 196.41 L 185.5 192.12 L 231.5 188.831 L 278.5 187.687 L 324.5 243.886 L 370.5 247.175 L 417.5 251.322 L 463.5 241.026 L 509.5 256.041 L 555.5 258.043 L 602.5 270.77 L 648.5 262.905 L 694.5 265.765 L 740.5 263.191 L 787.5 260.76 L 833.5 263.763 L 833.5 429.5 L 787.5 429.5 L 740.5 429.5 L 694.5 429.5 L 648.5 429.5 L 602.5 429.5 L 555.5 429.5 L 509.5 429.5 L 463.5 429.5 L 417.5 429.5 L 370.5 429.5 L 324.5 429.5 L 278.5 429.5 L 231.5 429.5 L 185.5 429.5 L 139.5 429.5 L 93.5 429.5 L 46.5 429.5 L 0.5 429.5 Z" style="stroke:#000000;stroke-opacity:1; stroke-opacity: 0; stroke-width: 1; stroke-dasharray: none; stroke-linecap: butt; stroke-linejoin: miter; stroke-miterlimit: 10;fill:#67B7DC;fill-opacity:1; fill-opacity: 0.5; fill-rule: nonzero; opacity: 1" transform=" matrix(1 0 0 1 82 20) " stroke-linecap="round"  clip-path="url(#AmChartsEl-362)" /><path d="M 0.5 109.609 L 46.5 107.75 L 93.5 99.456 L 139.5 104.604 L 185.5 92.163 L 231.5 85.728 L 278.5 82.296 L 324.5 146.646 L 370.5 152.223 L 417.5 158.658 L 463.5 141.355 L 509.5 165.522 L 555.5 169.24 L 602.5 240.74 L 648.5 229.729 L 694.5 234.448 L 740.5 234.448 L 787.5 220.005 L 833.5 224.152" style="stroke:#FDD400;stroke-opacity:1; stroke-opacity: 0.9; stroke-width: 3; stroke-dasharray: none; stroke-linecap: butt; stroke-linejoin: round; stroke-miterlimit: 10; fill: none; fill-rule: nonzero; opacity: 1" transform=" matrix(1 0 0 1 82 20) " stroke-linecap="round"  clip-path="url(#AmChartsEl-363)" /><path d="M 0.5 109.609 L 46.5 107.75 L 93.5 99.456 L 139.5 104.604 L 185.5 92.163 L 231.5 85.728 L 278.5 82.296 L 324.5 146.646 L 370.5 152.223 L 417.5 158.658 L 463.5 141.355 L 509.5 165.522 L 555.5 169.24 L 602.5 240.74 L 648.5 229.729 L 694.5 234.448 L 740.5 234.448 L 787.5 220.005 L 833.5 224.152 L 833.5 263.763 L 787.5 260.76 L 740.5 263.191 L 694.5 265.765 L 648.5 262.905 L 602.5 270.77 L 555.5 258.043 L 509.5 256.041 L 463.5 241.026 L 417.5 251.322 L 370.5 247.175 L 324.5 243.886 L 278.5 187.687 L 231.5 188.831 L 185.5 192.12 L 139.5 196.41 L 93.5 198.269 L 46.5 205.419 L 0.5 202.559 Z" style="stroke:#000000;stroke-opacity:1; stroke-opacity: 0; stroke-width: 1; stroke-dasharray: none; stroke-linecap: butt; stroke-linejoin: miter; stroke-miterlimit: 10;fill:#FDD400;fill-opacity:1; fill-opacity: 0.5; fill-rule: nonzero; opacity: 1" transform=" matrix(1 0 0 1 82 20) " stroke-linecap="round"  clip-path="url(#AmChartsEl-363)" /><path d="M 0.5 92.306 L 46.5 86.872 L 93.5 79.722 L 139.5 86.443 L 185.5 77.148 L 231.5 70.141 L 278.5 66.28 L 324.5 132.203 L 370.5 138.352 L 417.5 145.359 L 463.5 125.482 L 509.5 153.081 L 555.5 157.943 L 602.5 229.157 L 648.5 219.004 L 694.5 221.864 L 740.5 222.722 L 787.5 207.564 L 833.5 213.999" style="stroke:#84B761;stroke-opacity:1; stroke-opacity: 0.9; stroke-width: 3; stroke-dasharray: none; stroke-linecap: butt; stroke-linejoin: round; stroke-miterlimit: 10; fill: none; fill-rule: nonzero; opacity: 1" transform=" matrix(1 0 0 1 82 20) " stroke-linecap="round"  clip-path="url(#AmChartsEl-364)" /><path d="M 0.5 92.306 L 46.5 86.872 L 93.5 79.722 L 139.5 86.443 L 185.5 77.148 L 231.5 70.141 L 278.5 66.28 L 324.5 132.203 L 370.5 138.352 L 417.5 145.359 L 463.5 125.482 L 509.5 153.081 L 555.5 157.943 L 602.5 229.157 L 648.5 219.004 L 694.5 221.864 L 740.5 222.722 L 787.5 207.564 L 833.5 213.999 L 833.5 224.152 L 787.5 220.005 L 740.5 234.448 L 694.5 234.448 L 648.5 229.729 L 602.5 240.74 L 555.5 169.24 L 509.5 165.522 L 463.5 141.355 L 417.5 158.658 L 370.5 152.223 L 324.5 146.646 L 278.5 82.296 L 231.5 85.728 L 185.5 92.163 L 139.5 104.604 L 93.5 99.456 L 46.5 107.75 L 0.5 109.609 Z" style="stroke:#000000;stroke-opacity:1; stroke-opacity: 0; stroke-width: 1; stroke-dasharray: none; stroke-linecap: butt; stroke-linejoin: miter; stroke-miterlimit: 10;fill:#84B761;fill-opacity:1; fill-opacity: 0.5; fill-rule: nonzero; opacity: 1" transform=" matrix(1 0 0 1 82 20) " stroke-linecap="round"  clip-path="url(#AmChartsEl-364)" /><path d="M 0.5 429.5 L 833.5 429.5 L 833.5 429.5" style="stroke:#000000;stroke-opacity:1; stroke-opacity: 0.2; stroke-width: 1; stroke-dasharray: none; stroke-linecap: butt; stroke-linejoin: miter; stroke-miterlimit: 10; fill: none; fill-rule: nonzero; opacity: 1" transform=" matrix(1 0 0 1 82 20) " stroke-linecap="round" /><path d="M 0.5 0.5 L 833.5 0.5" style="stroke:#000000;stroke-opacity:1; stroke-opacity: 0.3; stroke-width: 1; stroke-dasharray: none; stroke-linecap: butt; stroke-linejoin: miter; stroke-miterlimit: 10; fill: none; fill-rule: nonzero; opacity: 1" transform=" matrix(1 0 0 1 82 449) " stroke-linecap="round" /><path d="M 0.5 0.5 L 0.5 429.5" style="stroke:#000000;stroke-opacity:1; stroke-opacity: 0.3; stroke-width: 1; stroke-dasharray: none; stroke-linecap: butt; stroke-linejoin: miter; stroke-miterlimit: 10; fill: none; fill-rule: nonzero; opacity: 1" transform=" matrix(1 0 0 1 82 20) " stroke-linecap="round" /><g  clip-path="url(#AmChartsEl-361)" ><path d="M 0.5 0.5 L 0.5 0.5 L 0.5 429.5" style="stroke:#000000;stroke-opacity:1; stroke-opacity: 0; stroke-width: 1; stroke-dasharray: none; stroke-linecap: butt; stroke-linejoin: miter; stroke-miterlimit: 10; fill: none; fill-rule: nonzero; opacity: 0" transform=" matrix(1 0 0 1 869 20) " stroke-linecap="round" /></g><g  clip-path="url(#AmChartsEl-361)" ><path d="M 0.5 0.5 L 833.5 0.5 L 833.5 0.5" style="stroke:#000000;stroke-opacity:1; stroke-opacity: 0; stroke-width: 1; stroke-dasharray: none; stroke-linecap: butt; stroke-linejoin: miter; stroke-miterlimit: 10; fill: none; fill-rule: nonzero; opacity: 0" transform=" matrix(1 0 0 1 82 38) " stroke-linecap="round" /></g><g transform=" matrix(1 0 0 1 82 466.5) "><text xml:space="preserve" font-family="Verdana" font-size="11" font-weight="normal" style="stroke: none; stroke-width: 1; stroke-dasharray: none; stroke-linecap: butt; stroke-linejoin: miter; stroke-miterlimit: 10;fill:#000000;fill-opacity:1; fill-rule: nonzero; opacity: 1; white-space: pre" ><tspan x="-13.99" y="7.48" fill="rgba(0,0,0,1)">1994</tspan></text></g><g transform=" matrix(1 0 0 1 128 466.5) "><text xml:space="preserve" font-family="Verdana" font-size="11" font-weight="normal" style="stroke: none; stroke-width: 1; stroke-dasharray: none; stroke-linecap: butt; stroke-linejoin: miter; stroke-miterlimit: 10;fill:#000000;fill-opacity:1; fill-rule: nonzero; opacity: 1; white-space: pre" ><tspan x="-13.99" y="7.48" fill="rgba(0,0,0,1)">1995</tspan></text></g><g transform=" matrix(1 0 0 1 175 466.5) "><text xml:space="preserve" font-family="Verdana" font-size="11" font-weight="normal" style="stroke: none; stroke-width: 1; stroke-dasharray: none; stroke-linecap: butt; stroke-linejoin: miter; stroke-miterlimit: 10;fill:#000000;fill-opacity:1; fill-rule: nonzero; opacity: 1; white-space: pre" ><tspan x="-13.99" y="7.48" fill="rgba(0,0,0,1)">1996</tspan></text></g><g transform=" matrix(1 0 0 1 221 466.5) "><text xml:space="preserve" font-family="Verdana" font-size="11" font-weight="normal" style="stroke: none; stroke-width: 1; stroke-dasharray: none; stroke-linecap: butt; stroke-linejoin: miter; stroke-miterlimit: 10;fill:#000000;fill-opacity:1; fill-rule: nonzero; opacity: 1; white-space: pre" ><tspan x="-13.99" y="7.48" fill="rgba(0,0,0,1)">1997</tspan></text></g><g transform=" matrix(1 0 0 1 267 466.5) "><text xml:space="preserve" font-family="Verdana" font-size="11" font-weight="normal" style="stroke: none; stroke-width: 1; stroke-dasharray: none; stroke-linecap: butt; stroke-linejoin: miter; stroke-miterlimit: 10;fill:#000000;fill-opacity:1; fill-rule: nonzero; opacity: 1; white-space: pre" ><tspan x="-13.99" y="7.48" fill="rgba(0,0,0,1)">1998</tspan></text></g><g transform=" matrix(1 0 0 1 313 466.5) "><text xml:space="preserve" font-family="Verdana" font-size="11" font-weight="normal" style="stroke: none; stroke-width: 1; stroke-dasharray: none; stroke-linecap: butt; stroke-linejoin: miter; stroke-miterlimit: 10;fill:#000000;fill-opacity:1; fill-rule: nonzero; opacity: 1; white-space: pre" ><tspan x="-13.99" y="7.48" fill="rgba(0,0,0,1)">1999</tspan></text></g><g transform=" matrix(1 0 0 1 360 466.5) "><text xml:space="preserve" font-family="Verdana" font-size="11" font-weight="normal" style="stroke: none; stroke-width: 1; stroke-dasharray: none; stroke-linecap: butt; stroke-linejoin: miter; stroke-miterlimit: 10;fill:#000000;fill-opacity:1; fill-rule: nonzero; opacity: 1; white-space: pre" ><tspan x="-13.99" y="7.48" fill="rgba(0,0,0,1)">2000</tspan></text></g><g transform=" matrix(1 0 0 1 406 466.5) "><text xml:space="preserve" font-family="Verdana" font-size="11" font-weight="normal" style="stroke: none; stroke-width: 1; stroke-dasharray: none; stroke-linecap: butt; stroke-linejoin: miter; stroke-miterlimit: 10;fill:#000000;fill-opacity:1; fill-rule: nonzero; opacity: 1; white-space: pre" ><tspan x="-13.99" y="7.48" fill="rgba(0,0,0,1)">2001</tspan></text></g><g transform=" matrix(1 0 0 1 452 466.5) "><text xml:space="preserve" font-family="Verdana" font-size="11" font-weight="normal" style="stroke: none; stroke-width: 1; stroke-dasharray: none; stroke-linecap: butt; stroke-linejoin: miter; stroke-miterlimit: 10;fill:#000000;fill-opacity:1; fill-rule: nonzero; opacity: 1; white-space: pre" ><tspan x="-13.99" y="7.48" fill="rgba(0,0,0,1)">2002</tspan></text></g><g transform=" matrix(1 0 0 1 499 466.5) "><text xml:space="preserve" font-family="Verdana" font-size="11" font-weight="normal" style="stroke: none; stroke-width: 1; stroke-dasharray: none; stroke-linecap: butt; stroke-linejoin: miter; stroke-miterlimit: 10;fill:#000000;fill-opacity:1; fill-rule: nonzero; opacity: 1; white-space: pre" ><tspan x="-13.99" y="7.48" fill="rgba(0,0,0,1)">2003</tspan></text></g><g transform=" matrix(1 0 0 1 545 466.5) "><text xml:space="preserve" font-family="Verdana" font-size="11" font-weight="normal" style="stroke: none; stroke-width: 1; stroke-dasharray: none; stroke-linecap: butt; stroke-linejoin: miter; stroke-miterlimit: 10;fill:#000000;fill-opacity:1; fill-rule: nonzero; opacity: 1; white-space: pre" ><tspan x="-13.99" y="7.48" fill="rgba(0,0,0,1)">2004</tspan></text></g><g transform=" matrix(1 0 0 1 591 466.5) "><text xml:space="preserve" font-family="Verdana" font-size="11" font-weight="normal" style="stroke: none; stroke-width: 1; stroke-dasharray: none; stroke-linecap: butt; stroke-linejoin: miter; stroke-miterlimit: 10;fill:#000000;fill-opacity:1; fill-rule: nonzero; opacity: 1; white-space: pre" ><tspan x="-13.99" y="7.48" fill="rgba(0,0,0,1)">2005</tspan></text></g><g transform=" matrix(1 0 0 1 637 466.5) "><text xml:space="preserve" font-family="Verdana" font-size="11" font-weight="normal" style="stroke: none; stroke-width: 1; stroke-dasharray: none; stroke-linecap: butt; stroke-linejoin: miter; stroke-miterlimit: 10;fill:#000000;fill-opacity:1; fill-rule: nonzero; opacity: 1; white-space: pre" ><tspan x="-13.99" y="7.48" fill="rgba(0,0,0,1)">2006</tspan></text></g><g transform=" matrix(1 0 0 1 684 466.5) "><text xml:space="preserve" font-family="Verdana" font-size="11" font-weight="normal" style="stroke: none; stroke-width: 1; stroke-dasharray: none; stroke-linecap: butt; stroke-linejoin: miter; stroke-miterlimit: 10;fill:#000000;fill-opacity:1; fill-rule: nonzero; opacity: 1; white-space: pre" ><tspan x="-13.99" y="7.48" fill="rgba(0,0,0,1)">2007</tspan></text></g><g transform=" matrix(1 0 0 1 730 466.5) "><text xml:space="preserve" font-family="Verdana" font-size="11" font-weight="normal" style="stroke: none; stroke-width: 1; stroke-dasharray: none; stroke-linecap: butt; stroke-linejoin: miter; stroke-miterlimit: 10;fill:#000000;fill-opacity:1; fill-rule: nonzero; opacity: 1; white-space: pre" ><tspan x="-13.99" y="7.48" fill="rgba(0,0,0,1)">2008</tspan></text></g><g transform=" matrix(1 0 0 1 776 466.5) "><text xml:space="preserve" font-family="Verdana" font-size="11" font-weight="normal" style="stroke: none; stroke-width: 1; stroke-dasharray: none; stroke-linecap: butt; stroke-linejoin: miter; stroke-miterlimit: 10;fill:#000000;fill-opacity:1; fill-rule: nonzero; opacity: 1; white-space: pre" ><tspan x="-13.99" y="7.48" fill="rgba(0,0,0,1)">2009</tspan></text></g><g transform=" matrix(1 0 0 1 822 466.5) "><text xml:space="preserve" font-family="Verdana" font-size="11" font-weight="normal" style="stroke: none; stroke-width: 1; stroke-dasharray: none; stroke-linecap: butt; stroke-linejoin: miter; stroke-miterlimit: 10;fill:#000000;fill-opacity:1; fill-rule: nonzero; opacity: 1; white-space: pre" ><tspan x="-13.99" y="7.48" fill="rgba(0,0,0,1)">2010</tspan></text></g><g transform=" matrix(1 0 0 1 869 466.5) "><text xml:space="preserve" font-family="Verdana" font-size="11" font-weight="normal" style="stroke: none; stroke-width: 1; stroke-dasharray: none; stroke-linecap: butt; stroke-linejoin: miter; stroke-miterlimit: 10;fill:#000000;fill-opacity:1; fill-rule: nonzero; opacity: 1; white-space: pre" ><tspan x="-13.99" y="7.48" fill="rgba(0,0,0,1)">2011</tspan></text></g><g transform=" matrix(1 0 0 1 915 466.5) "><text xml:space="preserve" font-family="Verdana" font-size="11" font-weight="normal" style="stroke: none; stroke-width: 1; stroke-dasharray: none; stroke-linecap: butt; stroke-linejoin: miter; stroke-miterlimit: 10;fill:#000000;fill-opacity:1; fill-rule: nonzero; opacity: 1; white-space: pre" ><tspan x="-13.99" y="7.48" fill="rgba(0,0,0,1)">2012</tspan></text></g><g transform=" matrix(1 0 0 1 70 448) "><text xml:space="preserve" font-family="Verdana" font-size="11" font-weight="normal" style="stroke: none; stroke-width: 1; stroke-dasharray: none; stroke-linecap: butt; stroke-linejoin: miter; stroke-miterlimit: 10;fill:#000000;fill-opacity:1; fill-rule: nonzero; opacity: 1; white-space: pre" ><tspan x="-7.49" y="7.48" fill="rgba(0,0,0,1)">0</tspan></text></g><g transform=" matrix(1 0 0 1 70 377) "><text xml:space="preserve" font-family="Verdana" font-size="11" font-weight="normal" style="stroke: none; stroke-width: 1; stroke-dasharray: none; stroke-linecap: butt; stroke-linejoin: miter; stroke-miterlimit: 10;fill:#000000;fill-opacity:1; fill-rule: nonzero; opacity: 1; white-space: pre" ><tspan x="-21.48" y="7.48" fill="rgba(0,0,0,1)">500</tspan></text></g><g transform=" matrix(1 0 0 1 70 305) "><text xml:space="preserve" font-family="Verdana" font-size="11" font-weight="normal" style="stroke: none; stroke-width: 1; stroke-dasharray: none; stroke-linecap: butt; stroke-linejoin: miter; stroke-miterlimit: 10;fill:#000000;fill-opacity:1; fill-rule: nonzero; opacity: 1; white-space: pre" ><tspan x="-32.47" y="7.48" fill="rgba(0,0,0,1)">1,000</tspan></text></g><g transform=" matrix(1 0 0 1 70 234) "><text xml:space="preserve" font-family="Verdana" font-size="11" font-weight="normal" style="stroke: none; stroke-width: 1; stroke-dasharray: none; stroke-linecap: butt; stroke-linejoin: miter; stroke-miterlimit: 10;fill:#000000;fill-opacity:1; fill-rule: nonzero; opacity: 1; white-space: pre" ><tspan x="-32.47" y="7.48" fill="rgba(0,0,0,1)">1,500</tspan></text></g><g transform=" matrix(1 0 0 1 70 162) "><text xml:space="preserve" font-family="Verdana" font-size="11" font-weight="normal" style="stroke: none; stroke-width: 1; stroke-dasharray: none; stroke-linecap: butt; stroke-linejoin: miter; stroke-miterlimit: 10;fill:#000000;fill-opacity:1; fill-rule: nonzero; opacity: 1; white-space: pre" ><tspan x="-32.47" y="7.48" fill="rgba(0,0,0,1)">2,000</tspan></text></g><g transform=" matrix(1 0 0 1 70 91) "><text xml:space="preserve" font-family="Verdana" font-size="11" font-weight="normal" style="stroke: none; stroke-width: 1; stroke-dasharray: none; stroke-linecap: butt; stroke-linejoin: miter; stroke-miterlimit: 10;fill:#000000;fill-opacity:1; fill-rule: nonzero; opacity: 1; white-space: pre" ><tspan x="-32.47" y="7.48" fill="rgba(0,0,0,1)">2,500</tspan></text></g><g transform=" matrix(1 0 0 1 70 19) "><text xml:space="preserve" font-family="Verdana" font-size="11" font-weight="normal" style="stroke: none; stroke-width: 1; stroke-dasharray: none; stroke-linecap: butt; stroke-linejoin: miter; stroke-miterlimit: 10;fill:#000000;fill-opacity:1; fill-rule: nonzero; opacity: 1; white-space: pre" ><tspan x="-32.47" y="7.48" fill="rgba(0,0,0,1)">3,000</tspan></text></g><g transform=" matrix(6.123233995736766e-17 -1 1 6.123233995736766e-17 21 235) "><text xml:space="preserve" font-family="Verdana" font-size="12" font-weight="bold" style="stroke: none; stroke-width: 1; stroke-dasharray: none; stroke-linecap: butt; stroke-linejoin: miter; stroke-miterlimit: 10;fill:#000000;fill-opacity:1; fill-rule: nonzero; opacity: 1; white-space: pre" ><tspan x="-54.43" y="7.66" fill="rgba(0,0,0,1)">Traffic incidents</tspan></text></g></g><clipPath xmlns="http://www.w3.org/2000/svg" id="AmChartsEl-362"><rect x="0" y="0" width="833" height="429" rx="0" ry="0" stroke-width="0" fill="none" fill-opacity="0"/></clipPath><clipPath xmlns="http://www.w3.org/2000/svg" id="AmChartsEl-363"><rect x="0" y="0" width="833" height="429" rx="0" ry="0" stroke-width="0" fill="none" fill-opacity="0"/></clipPath><clipPath xmlns="http://www.w3.org/2000/svg" id="AmChartsEl-364"><rect x="0" y="0" width="833" height="429" rx="0" ry="0" stroke-width="0" fill="none" fill-opacity="0"/></clipPath><clipPath xmlns="http://www.w3.org/2000/svg" id="AmChartsEl-361"><rect x="0" y="0" width="833" height="429" rx="0" ry="0" stroke-width="0" fill="none" fill-opacity="0"/></clipPath></svg>