<?xml version="1.0" encoding="UTF-8" standalone="no" ?><!DOCTYPE svg PUBLIC "-//W3C//DTD SVG 1.1//EN" "http://www.w3.org/Graphics/SVG/1.1/DTD/svg11.dtd"><svg xmlns="http://www.w3.org/2000/svg" xmlns:xlink="http://www.w3.org/1999/xlink" version="1.1" width="860" height="415" style="background-color: #FFFFFF" viewBox="0 0 860 415" xml:space="preserve"><desc>Created with Fabric.js 1.6.2</desc><defs></defs><g style="stroke: none; stroke-width: 1; stroke-dasharray: none; stroke-linecap: butt; stroke-linejoin: miter; stroke-miterlimit: 10; fill: none; fill-rule: nonzero; opacity: 1" transform="translate(0.5 0.5)" ><path d="M 0.5 0.5 L 859.5 0.5 L 859.5 414.5 L 0.5 414.5 Z" style="stroke:#000000;stroke-opacity:1; stroke-opacity: 0; stroke-width: 1; stroke-dasharray: none; stroke-linecap: butt; stroke-linejoin: miter; stroke-miterlimit: 10;fill:#FFFFFF;fill-opacity:1; fill-opacity: 0; fill-rule: nonzero; opacity: 1" transform="" stroke-linecap="round" /><path d="M 339.5 400.5 L 630.5 397.5 L 630.5 397.5" style="stroke:#000000;stroke-opacity:1; stroke-opacity: 0.2; stroke-width: 1; stroke-dasharray: none; stroke-linecap: butt; stroke-linejoin: miter; stroke-miterlimit: 10; fill: none; fill-rule: nonzero; opacity: 1" transform="" stroke-linecap="round" /><linearGradient id="SVGID_18" gradientUnits="userSpaceOnUse" x1="15" y1="0" x2="0" y2="0"><stop offset="0%" style="stop-color:rgb(4,210,21);stop-opacity: 1"/><stop offset="33.333333333333336%" style="stop-color:rgb(3,147,15);stop-opacity: 1"/><stop offset="66.66666666666667%" style="stop-color:rgb(3,147,15);stop-opacity: 1"/><stop offset="100%" style="stop-color:rgb(4,210,21);stop-opacity: 1"/></linearGradient><path d="M 0 0 L 7.500000000000016 10 A -1.5683361042599612e-14 -1.795055332446569e-15 0 0 0 7.499999999999985 10 L 15 0 A 7.5 0.8584202682563322 0 0 1 0 0" style="stroke: rgba(255,255,255,1); stroke-width: 2; stroke-dasharray: none; stroke-linecap: butt; stroke-linejoin: miter; stroke-miterlimit: 10; fill: url(#SVGID_18); fill-rule: nonzero; opacity: 1;" transform=" matrix(1 0 0 1 327 395) " stroke-linecap="round" /><ellipse cx="0" cy="0" rx="7.5" ry="0.8584202682563322" style="stroke:#FFFFFF;stroke-opacity:1; stroke-width: 2; stroke-dasharray: none; stroke-linecap: butt; stroke-linejoin: miter; stroke-miterlimit: 10;fill:#04D215;fill-opacity:1; fill-rule: nonzero; opacity: 1" transform=" matrix(1 0 0 1 335 395) "/><g transform=" matrix(1 0 0 1 630 397) "><text font-family="Verdana" font-size="11" font-weight="normal" style="stroke: none; stroke-width: 1; stroke-dasharray: none; stroke-linecap: butt; stroke-linejoin: miter; stroke-miterlimit: 10;fill:#000000;fill-opacity:1; fill-rule: nonzero; opacity: 1" ><tspan x="0.5" y="5.49" fill="rgba(0,0,0,1)">Purchased more: 18</tspan></text></g><rect x="0.5" y="0.5" rx="0" ry="0" width="117" height="18" style="stroke:#FFFFFF;stroke-opacity:1; stroke-opacity: 0.005; stroke-width: 0; stroke-dasharray: none; stroke-linecap: butt; stroke-linejoin: miter; stroke-miterlimit: 10;fill:#FFFFFF;fill-opacity:1; fill-opacity: 0.005; fill-rule: nonzero; opacity: 1" transform=" matrix(1 0 0 1 630 392) "/><path d="M 348.5 389.5 L 630.5 379.5 L 630.5 379.5" style="stroke:#000000;stroke-opacity:1; stroke-opacity: 0.2; stroke-width: 1; stroke-dasharray: none; stroke-linecap: butt; stroke-linejoin: miter; stroke-miterlimit: 10; fill: none; fill-rule: nonzero; opacity: 1" transform="" stroke-linecap="round" /><ellipse cx="0" cy="0" rx="7.7441860465116195" ry="0.8584202682563322" style="stroke:#FFFFFF;stroke-opacity:1; stroke-width: 2; stroke-dasharray: none; stroke-linecap: butt; stroke-linejoin: miter; stroke-miterlimit: 10;fill:#FFFF0E;fill-opacity:1; fill-rule: nonzero; opacity: 1" transform=" matrix(1 0 0 1 336 397) "/><linearGradient id="SVGID_19" gradientUnits="userSpaceOnUse" x1="37" y1="0" x2="0" y2="0"><stop offset="0%" style="stop-color:rgb(176,222,9);stop-opacity: 1"/><stop offset="33.333333333333336%" style="stop-color:rgb(123,155,6);stop-opacity: 1"/><stop offset="66.66666666666667%" style="stop-color:rgb(123,155,6);stop-opacity: 1"/><stop offset="100%" style="stop-color:rgb(176,222,9);stop-opacity: 1"/></linearGradient><path d="M 0 0 L 10.755813953488381 14 A 7.7441860465116195 0.8584202682563322 0 0 0 26.24418604651162 14 L 37 0 A 18.5 2.0506706408345736 0 0 1 0 0" style="stroke: rgba(255,255,255,1); stroke-width: 2; stroke-dasharray: none; stroke-linecap: butt; stroke-linejoin: miter; stroke-miterlimit: 10; fill: url(#SVGID_19); fill-rule: nonzero; opacity: 1;" transform=" matrix(1 0 0 1 317 382) " stroke-linecap="round" /><ellipse cx="0" cy="0" rx="18.5" ry="2.0506706408345736" style="stroke:#FFFFFF;stroke-opacity:1; stroke-width: 2; stroke-dasharray: none; stroke-linecap: butt; stroke-linejoin: miter; stroke-miterlimit: 10;fill:#B0DE09;fill-opacity:1; fill-rule: nonzero; opacity: 1" transform=" matrix(1 0 0 1 336 382) "/><g transform=" matrix(1 0 0 1 630 379) "><text font-family="Verdana" font-size="11" font-weight="normal" style="stroke: none; stroke-width: 1; stroke-dasharray: none; stroke-linecap: butt; stroke-linejoin: miter; stroke-miterlimit: 10;fill:#000000;fill-opacity:1; fill-rule: nonzero; opacity: 1" ><tspan x="0.5" y="5.49" fill="rgba(0,0,0,1)">Asked for support: 25</tspan></text></g><rect x="0.5" y="0.5" rx="0" ry="0" width="127" height="18" style="stroke:#FFFFFF;stroke-opacity:1; stroke-opacity: 0.005; stroke-width: 0; stroke-dasharray: none; stroke-linecap: butt; stroke-linejoin: miter; stroke-miterlimit: 10;fill:#FFFFFF;fill-opacity:1; fill-opacity: 0.005; fill-rule: nonzero; opacity: 1" transform=" matrix(1 0 0 1 629 374) "/><path d="M 361.5 372.5 L 630.5 361.5 L 630.5 361.5" style="stroke:#000000;stroke-opacity:1; stroke-opacity: 0.2; stroke-width: 1; stroke-dasharray: none; stroke-linecap: butt; stroke-linejoin: miter; stroke-miterlimit: 10; fill: none; fill-rule: nonzero; opacity: 1" transform="" stroke-linecap="round" /><ellipse cx="0" cy="0" rx="18.192307692307686" ry="2.0506706408345736" style="stroke:#FFFFFF;stroke-opacity:1; stroke-width: 2; stroke-dasharray: none; stroke-linecap: butt; stroke-linejoin: miter; stroke-miterlimit: 10;fill:#FFFF02;fill-opacity:1; fill-rule: nonzero; opacity: 1" transform=" matrix(1 0 0 1 335 383) "/><linearGradient id="SVGID_20" gradientUnits="userSpaceOnUse" x1="66" y1="0" x2="0" y2="0"><stop offset="0%" style="stop-color:rgb(248,255,1);stop-opacity: 1"/><stop offset="33.333333333333336%" style="stop-color:rgb(174,179,1);stop-opacity: 1"/><stop offset="66.66666666666667%" style="stop-color:rgb(174,179,1);stop-opacity: 1"/><stop offset="100%" style="stop-color:rgb(248,255,1);stop-opacity: 1"/></linearGradient><path d="M 0 0 L 14.807692307692314 19 A 18.192307692307686 2.0506706408345736 0 0 0 51.192307692307686 19 L 66 0 A 33 3.7198211624441115 0 0 1 0 0" style="stroke: rgba(255,255,255,1); stroke-width: 2; stroke-dasharray: none; stroke-linecap: butt; stroke-linejoin: miter; stroke-miterlimit: 10; fill: url(#SVGID_20); fill-rule: nonzero; opacity: 1;" transform=" matrix(1 0 0 1 302 363) " stroke-linecap="round" /><ellipse cx="0" cy="0" rx="33" ry="3.7198211624441115" style="stroke:#FFFFFF;stroke-opacity:1; stroke-width: 2; stroke-dasharray: none; stroke-linecap: butt; stroke-linejoin: miter; stroke-miterlimit: 10;fill:#F8FF01;fill-opacity:1; fill-rule: nonzero; opacity: 1" transform=" matrix(1 0 0 1 335 363) "/><g transform=" matrix(1 0 0 1 630 361) "><text font-family="Verdana" font-size="11" font-weight="normal" style="stroke: none; stroke-width: 1; stroke-dasharray: none; stroke-linecap: butt; stroke-linejoin: miter; stroke-miterlimit: 10;fill:#000000;fill-opacity:1; fill-rule: nonzero; opacity: 1" ><tspan x="0.5" y="5.49" fill="rgba(0,0,0,1)">Purchased: 35</tspan></text></g><rect x="0.5" y="0.5" rx="0" ry="0" width="85" height="18" style="stroke:#FFFFFF;stroke-opacity:1; stroke-opacity: 0.005; stroke-width: 0; stroke-dasharray: none; stroke-linecap: butt; stroke-linejoin: miter; stroke-miterlimit: 10;fill:#FFFFFF;fill-opacity:1; fill-opacity: 0.005; fill-rule: nonzero; opacity: 1" transform=" matrix(1 0 0 1 630 356) "/><path d="M 383.5 343.5 L 630.5 343.5 L 630.5 343.5" style="stroke:#000000;stroke-opacity:1; stroke-opacity: 0.2; stroke-width: 1; stroke-dasharray: none; stroke-linecap: butt; stroke-linejoin: miter; stroke-miterlimit: 10; fill: none; fill-rule: nonzero; opacity: 1" transform="" stroke-linecap="round" /><ellipse cx="0" cy="0" rx="33.019999999999996" ry="3.7198211624441115" style="stroke:#FFFFFF;stroke-opacity:1; stroke-width: 2; stroke-dasharray: none; stroke-linecap: butt; stroke-linejoin: miter; stroke-miterlimit: 10;fill:#FFFF03;fill-opacity:1; fill-rule: nonzero; opacity: 1" transform=" matrix(1 0 0 1 335 364) "/><linearGradient id="SVGID_21" gradientUnits="userSpaceOnUse" x1="127" y1="0" x2="0" y2="0"><stop offset="0%" style="stop-color:rgb(252,210,2);stop-opacity: 1"/><stop offset="33.333333333333336%" style="stop-color:rgb(176,147,1);stop-opacity: 1"/><stop offset="66.66666666666667%" style="stop-color:rgb(176,147,1);stop-opacity: 1"/><stop offset="100%" style="stop-color:rgb(252,210,2);stop-opacity: 1"/></linearGradient><path d="M 0 0 L 30.480000000000004 39 A 33.019999999999996 3.7198211624441115 0 0 0 96.52 39 L 127 0 A 63.5 7.153502235469446 0 0 1 0 0" style="stroke: rgba(255,255,255,1); stroke-width: 2; stroke-dasharray: none; stroke-linecap: butt; stroke-linejoin: miter; stroke-miterlimit: 10; fill: url(#SVGID_21); fill-rule: nonzero; opacity: 1;" transform=" matrix(1 0 0 1 271 324) " stroke-linecap="round" /><ellipse cx="0" cy="0" rx="63.5" ry="7.153502235469446" style="stroke:#FFFFFF;stroke-opacity:1; stroke-width: 2; stroke-dasharray: none; stroke-linecap: butt; stroke-linejoin: miter; stroke-miterlimit: 10;fill:#FCD202;fill-opacity:1; fill-rule: nonzero; opacity: 1" transform=" matrix(1 0 0 1 335 324) "/><g transform=" matrix(1 0 0 1 630 343) "><text font-family="Verdana" font-size="11" font-weight="normal" style="stroke: none; stroke-width: 1; stroke-dasharray: none; stroke-linecap: butt; stroke-linejoin: miter; stroke-miterlimit: 10;fill:#000000;fill-opacity:1; fill-rule: nonzero; opacity: 1" ><tspan x="0.5" y="5.49" fill="rgba(0,0,0,1)">Contaced: 72</tspan></text></g><rect x="0.5" y="0.5" rx="0" ry="0" width="79" height="18" style="stroke:#FFFFFF;stroke-opacity:1; stroke-opacity: 0.005; stroke-width: 0; stroke-dasharray: none; stroke-linecap: butt; stroke-linejoin: miter; stroke-miterlimit: 10;fill:#FFFFFF;fill-opacity:1; fill-opacity: 0.005; fill-rule: nonzero; opacity: 1" transform=" matrix(1 0 0 1 630 338) "/><path d="M 420.5 297.5 L 630.5 297.5 L 630.5 297.5" style="stroke:#000000;stroke-opacity:1; stroke-opacity: 0.2; stroke-width: 1; stroke-dasharray: none; stroke-linecap: butt; stroke-linejoin: miter; stroke-miterlimit: 10; fill: none; fill-rule: nonzero; opacity: 1" transform="" stroke-linecap="round" /><ellipse cx="0" cy="0" rx="63.81048387096773" ry="7.153502235469446" style="stroke:#FFFFFF;stroke-opacity:1; stroke-width: 2; stroke-dasharray: none; stroke-linecap: butt; stroke-linejoin: miter; stroke-miterlimit: 10;fill:#FFED02;fill-opacity:1; fill-rule: nonzero; opacity: 1" transform=" matrix(1 0 0 1 336 325) "/><linearGradient id="SVGID_22" gradientUnits="userSpaceOnUse" x1="211" y1="0" x2="0" y2="0"><stop offset="0%" style="stop-color:rgb(255,158,1);stop-opacity: 1"/><stop offset="33.333333333333336%" style="stop-color:rgb(179,111,1);stop-opacity: 1"/><stop offset="66.66666666666667%" style="stop-color:rgb(179,111,1);stop-opacity: 1"/><stop offset="100%" style="stop-color:rgb(255,158,1);stop-opacity: 1"/></linearGradient><path d="M 0 0 L 41.68951612903227 53 A 63.81048387096773 7.153502235469446 0 0 0 169.31048387096774 53 L 211 0 A 105.5 11.827123695976153 0 0 1 0 0" style="stroke: rgba(255,255,255,1); stroke-width: 2; stroke-dasharray: none; stroke-linecap: butt; stroke-linejoin: miter; stroke-miterlimit: 10; fill: url(#SVGID_22); fill-rule: nonzero; opacity: 1;" transform=" matrix(1 0 0 1 230 271) " stroke-linecap="round" /><ellipse cx="0" cy="0" rx="105.5" ry="11.827123695976153" style="stroke:#FFFFFF;stroke-opacity:1; stroke-width: 2; stroke-dasharray: none; stroke-linecap: butt; stroke-linejoin: miter; stroke-miterlimit: 10;fill:#FF9E01;fill-opacity:1; fill-rule: nonzero; opacity: 1" transform=" matrix(1 0 0 1 336 271) "/><g transform=" matrix(1 0 0 1 630 297) "><text font-family="Verdana" font-size="11" font-weight="normal" style="stroke: none; stroke-width: 1; stroke-dasharray: none; stroke-linecap: butt; stroke-linejoin: miter; stroke-miterlimit: 10;fill:#000000;fill-opacity:1; fill-rule: nonzero; opacity: 1" ><tspan x="0.5" y="5.49" fill="rgba(0,0,0,1)">Requested prices: 98</tspan></text></g><rect x="0.5" y="0.5" rx="0" ry="0" width="122" height="18" style="stroke:#FFFFFF;stroke-opacity:1; stroke-opacity: 0.005; stroke-width: 0; stroke-dasharray: none; stroke-linecap: butt; stroke-linejoin: miter; stroke-miterlimit: 10;fill:#FFFFFF;fill-opacity:1; fill-opacity: 0.005; fill-rule: nonzero; opacity: 1" transform=" matrix(1 0 0 1 630 292) "/><path d="M 466.5 238.5 L 630.5 238.5 L 630.5 238.5" style="stroke:#000000;stroke-opacity:1; stroke-opacity: 0.2; stroke-width: 1; stroke-dasharray: none; stroke-linecap: butt; stroke-linejoin: miter; stroke-miterlimit: 10; fill: none; fill-rule: nonzero; opacity: 1" transform="" stroke-linecap="round" /><ellipse cx="0" cy="0" rx="105.28301886792451" ry="11.827123695976153" style="stroke:#FFFFFF;stroke-opacity:1; stroke-width: 2; stroke-dasharray: none; stroke-linecap: butt; stroke-linejoin: miter; stroke-miterlimit: 10;fill:#FF9900;fill-opacity:1; fill-rule: nonzero; opacity: 1" transform=" matrix(1 0 0 1 335 272) "/><linearGradient id="SVGID_23" gradientUnits="userSpaceOnUse" x1="315" y1="0" x2="0" y2="0"><stop offset="0%" style="stop-color:rgb(255,102,0);stop-opacity: 1"/><stop offset="33.333333333333336%" style="stop-color:rgb(179,71,0);stop-opacity: 1"/><stop offset="66.66666666666667%" style="stop-color:rgb(179,71,0);stop-opacity: 1"/><stop offset="100%" style="stop-color:rgb(255,102,0);stop-opacity: 1"/></linearGradient><path d="M 0 0 L 52.21698113207549 67 A 105.28301886792451 11.827123695976153 0 0 0 262.7830188679245 67 L 315 0 A 157.5 17.692995529061104 0 0 1 0 0" style="stroke: rgba(255,255,255,1); stroke-width: 2; stroke-dasharray: none; stroke-linecap: butt; stroke-linejoin: miter; stroke-miterlimit: 10; fill: url(#SVGID_23); fill-rule: nonzero; opacity: 1;" transform=" matrix(1 0 0 1 177 204) " stroke-linecap="round" /><ellipse cx="0" cy="0" rx="157.5" ry="17.692995529061104" style="stroke:#FFFFFF;stroke-opacity:1; stroke-width: 2; stroke-dasharray: none; stroke-linecap: butt; stroke-linejoin: miter; stroke-miterlimit: 10;fill:#FF6600;fill-opacity:1; fill-rule: nonzero; opacity: 1" transform=" matrix(1 0 0 1 335 204) "/><g transform=" matrix(1 0 0 1 630 238) "><text font-family="Verdana" font-size="11" font-weight="normal" style="stroke: none; stroke-width: 1; stroke-dasharray: none; stroke-linecap: butt; stroke-linejoin: miter; stroke-miterlimit: 10;fill:#000000;fill-opacity:1; fill-rule: nonzero; opacity: 1" ><tspan x="0.5" y="5.49" fill="rgba(0,0,0,1)">Downloads: 123</tspan></text></g><rect x="0.5" y="0.5" rx="0" ry="0" width="95" height="18" style="stroke:#FFFFFF;stroke-opacity:1; stroke-opacity: 0.005; stroke-width: 0; stroke-dasharray: none; stroke-linecap: butt; stroke-linejoin: miter; stroke-miterlimit: 10;fill:#FFFFFF;fill-opacity:1; fill-opacity: 0.005; fill-rule: nonzero; opacity: 1" transform=" matrix(1 0 0 1 630 233) "/><path d="M 556.5 123.5 L 630.5 123.5 L 630.5 123.5" style="stroke:#000000;stroke-opacity:1; stroke-opacity: 0.2; stroke-width: 1; stroke-dasharray: none; stroke-linecap: butt; stroke-linejoin: miter; stroke-miterlimit: 10; fill: none; fill-rule: nonzero; opacity: 1" transform="" stroke-linecap="round" /><ellipse cx="0" cy="0" rx="157.57824143070044" ry="17.692995529061104" style="stroke:#FFFFFF;stroke-opacity:1; stroke-width: 2; stroke-dasharray: none; stroke-linecap: butt; stroke-linejoin: miter; stroke-miterlimit: 10;fill:#FF1700;fill-opacity:1; fill-rule: nonzero; opacity: 1" transform=" matrix(1 0 0 1 335 205) "/><linearGradient id="SVGID_24" gradientUnits="userSpaceOnUse" x1="570" y1="0" x2="0" y2="0"><stop offset="0%" style="stop-color:rgb(255,15,0);stop-opacity: 1"/><stop offset="33.333333333333336%" style="stop-color:rgb(179,11,0);stop-opacity: 1"/><stop offset="66.66666666666667%" style="stop-color:rgb(179,11,0);stop-opacity: 1"/><stop offset="100%" style="stop-color:rgb(255,15,0);stop-opacity: 1"/></linearGradient><path d="M 0 0 L 127.42175856929956 162 A 157.57824143070044 17.692995529061104 0 0 0 442.5782414307005 162 L 570 0 A 285 32 0 0 1 0 0" style="stroke: rgba(255,255,255,1); stroke-width: 2; stroke-dasharray: none; stroke-linecap: butt; stroke-linejoin: miter; stroke-miterlimit: 10; fill: url(#SVGID_24); fill-rule: nonzero; opacity: 1;" transform=" matrix(1 0 0 1 50 42) " stroke-linecap="round" /><ellipse cx="0" cy="0" rx="285" ry="32" style="stroke:#FFFFFF;stroke-opacity:1; stroke-width: 2; stroke-dasharray: none; stroke-linecap: butt; stroke-linejoin: miter; stroke-miterlimit: 10;fill:#FF0F00;fill-opacity:1; fill-rule: nonzero; opacity: 1" transform=" matrix(1 0 0 1 335 42) "/><g transform=" matrix(1 0 0 1 630 123) "><text font-family="Verdana" font-size="11" font-weight="normal" style="stroke: none; stroke-width: 1; stroke-dasharray: none; stroke-linecap: butt; stroke-linejoin: miter; stroke-miterlimit: 10;fill:#000000;fill-opacity:1; fill-rule: nonzero; opacity: 1" ><tspan x="0.5" y="5.49" fill="rgba(0,0,0,1)">Website visits: 300</tspan></text></g><rect x="0.5" y="0.5" rx="0" ry="0" width="110" height="18" style="stroke:#FFFFFF;stroke-opacity:1; stroke-opacity: 0.005; stroke-width: 0; stroke-dasharray: none; stroke-linecap: butt; stroke-linejoin: miter; stroke-miterlimit: 10;fill:#FFFFFF;fill-opacity:1; fill-opacity: 0.005; fill-rule: nonzero; opacity: 1" transform=" matrix(1 0 0 1 630 118) "/></g></svg>