<?xml version="1.0" encoding="UTF-8" standalone="no" ?><!DOCTYPE svg PUBLIC "-//W3C//DTD SVG 1.1//EN" "http://www.w3.org/Graphics/SVG/1.1/DTD/svg11.dtd"><svg xmlns="http://www.w3.org/2000/svg" xmlns:xlink="http://www.w3.org/1999/xlink" version="1.1" width="860" height="415" style="background-color: #FFFFFF" viewBox="0 0 860 415" xml:space="preserve"><desc>Created with Fabric.js 1.6.2</desc><defs></defs><g style="stroke: none; stroke-width: 1; stroke-dasharray: none; stroke-linecap: butt; stroke-linejoin: miter; stroke-miterlimit: 10; fill: none; fill-rule: nonzero; opacity: 1" transform="translate(0.5 0.5)" ><path d="M 0.5 0.5 L 859.5 0.5 L 859.5 414.5 L 0.5 414.5 Z" style="stroke:#000000;stroke-opacity:1; stroke-opacity: 0; stroke-width: 1; stroke-dasharray: none; stroke-linecap: butt; stroke-linejoin: miter; stroke-miterlimit: 10;fill:#FFFFFF;fill-opacity:1; fill-opacity: 0; fill-rule: nonzero; opacity: 1" transform="" stroke-linecap="round" /><path d="M 0.5 0.5 L 703.5 0.5 L 703.5 344.5 L 0.5 344.5 L 0.5 0.5 Z" style="stroke:#000000;stroke-opacity:1; stroke-opacity: 0; stroke-width: 1; stroke-dasharray: none; stroke-linecap: butt; stroke-linejoin: miter; stroke-miterlimit: 10;fill:#FFFFFF;fill-opacity:1; fill-opacity: 0; fill-rule: nonzero; opacity: 1" transform=" matrix(1 0 0 1 86 40) " stroke-linecap="round" /><path d="M 0.5 34.5 L 6.5 34.5" style="stroke:#000000;stroke-opacity:1; stroke-opacity: 0.3; stroke-width: 1; stroke-dasharray: none; stroke-linecap: butt; stroke-linejoin: miter; stroke-miterlimit: 10; fill: none; fill-rule: nonzero; opacity: 1" transform=" matrix(1 0 0 1 80 40) " stroke-linecap="round" /><path d="M 0.5 0.5 L 0.5 0.5 L 703.5 0.5" style="stroke:#000000;stroke-opacity:1; stroke-opacity: 0.1; stroke-width: 1; stroke-dasharray: none; stroke-linecap: butt; stroke-linejoin: miter; stroke-miterlimit: 10; fill: none; fill-rule: nonzero; opacity: 1" transform=" matrix(1 0 0 1 86 40) " stroke-linecap="round" /><path d="M 0.5 103.5 L 6.5 103.5" style="stroke:#000000;stroke-opacity:1; stroke-opacity: 0.3; stroke-width: 1; stroke-dasharray: none; stroke-linecap: butt; stroke-linejoin: miter; stroke-miterlimit: 10; fill: none; fill-rule: nonzero; opacity: 1" transform=" matrix(1 0 0 1 80 40) " stroke-linecap="round" /><path d="M 0.5 69.5 L 0.5 69.5 L 703.5 69.5" style="stroke:#000000;stroke-opacity:1; stroke-opacity: 0.1; stroke-width: 1; stroke-dasharray: none; stroke-linecap: butt; stroke-linejoin: miter; stroke-miterlimit: 10; fill: none; fill-rule: nonzero; opacity: 1" transform=" matrix(1 0 0 1 86 40) " stroke-linecap="round" /><path d="M 0.5 172.5 L 6.5 172.5" style="stroke:#000000;stroke-opacity:1; stroke-opacity: 0.3; stroke-width: 1; stroke-dasharray: none; stroke-linecap: butt; stroke-linejoin: miter; stroke-miterlimit: 10; fill: none; fill-rule: nonzero; opacity: 1" transform=" matrix(1 0 0 1 80 40) " stroke-linecap="round" /><path d="M 0.5 138.5 L 0.5 138.5 L 703.5 138.5" style="stroke:#000000;stroke-opacity:1; stroke-opacity: 0.1; stroke-width: 1; stroke-dasharray: none; stroke-linecap: butt; stroke-linejoin: miter; stroke-miterlimit: 10; fill: none; fill-rule: nonzero; opacity: 1" transform=" matrix(1 0 0 1 86 40) " stroke-linecap="round" /><path d="M 0.5 241.5 L 6.5 241.5" style="stroke:#000000;stroke-opacity:1; stroke-opacity: 0.3; stroke-width: 1; stroke-dasharray: none; stroke-linecap: butt; stroke-linejoin: miter; stroke-miterlimit: 10; fill: none; fill-rule: nonzero; opacity: 1" transform=" matrix(1 0 0 1 80 40) " stroke-linecap="round" /><path d="M 0.5 207.5 L 0.5 207.5 L 703.5 207.5" style="stroke:#000000;stroke-opacity:1; stroke-opacity: 0.1; stroke-width: 1; stroke-dasharray: none; stroke-linecap: butt; stroke-linejoin: miter; stroke-miterlimit: 10; fill: none; fill-rule: nonzero; opacity: 1" transform=" matrix(1 0 0 1 86 40) " stroke-linecap="round" /><path d="M 0.5 310.5 L 6.5 310.5" style="stroke:#000000;stroke-opacity:1; stroke-opacity: 0.3; stroke-width: 1; stroke-dasharray: none; stroke-linecap: butt; stroke-linejoin: miter; stroke-miterlimit: 10; fill: none; fill-rule: nonzero; opacity: 1" transform=" matrix(1 0 0 1 80 40) " stroke-linecap="round" /><path d="M 0.5 276.5 L 0.5 276.5 L 703.5 276.5" style="stroke:#000000;stroke-opacity:1; stroke-opacity: 0.1; stroke-width: 1; stroke-dasharray: none; stroke-linecap: butt; stroke-linejoin: miter; stroke-miterlimit: 10; fill: none; fill-rule: nonzero; opacity: 1" transform=" matrix(1 0 0 1 86 40) " stroke-linecap="round" /><path d="M 0.5 344.5 L 0.5 344.5 L 703.5 344.5" style="stroke:#000000;stroke-opacity:1; stroke-opacity: 0.1; stroke-width: 1; stroke-dasharray: none; stroke-linecap: butt; stroke-linejoin: miter; stroke-miterlimit: 10; fill: none; fill-rule: nonzero; opacity: 1" transform=" matrix(1 0 0 1 86 40) " stroke-linecap="round" /><path d="M 0.5 0.5 L 0.5 5.5" style="stroke:#000000;stroke-opacity:1; stroke-opacity: 0.3; stroke-width: 1; stroke-dasharray: none; stroke-linecap: butt; stroke-linejoin: miter; stroke-miterlimit: 10; fill: none; fill-rule: nonzero; opacity: 1" transform=" matrix(1 0 0 1 86 384) " stroke-linecap="round" /><path d="M 0.5 344.5 L 0.5 344.5 L 0.5 0.5" style="stroke:#000000;stroke-opacity:1; stroke-opacity: 0.1; stroke-width: 1; stroke-dasharray: none; stroke-linecap: butt; stroke-linejoin: miter; stroke-miterlimit: 10; fill: none; fill-rule: nonzero; opacity: 1" transform=" matrix(1 0 0 1 86 40) " stroke-linecap="round" /><path d="M 161.5 0.5 L 161.5 5.5" style="stroke:#000000;stroke-opacity:1; stroke-opacity: 0.3; stroke-width: 1; stroke-dasharray: none; stroke-linecap: butt; stroke-linejoin: miter; stroke-miterlimit: 10; fill: none; fill-rule: nonzero; opacity: 1" transform=" matrix(1 0 0 1 86 384) " stroke-linecap="round" /><path d="M 161.5 344.5 L 161.5 344.5 L 161.5 0.5" style="stroke:#000000;stroke-opacity:1; stroke-opacity: 0.1; stroke-width: 1; stroke-dasharray: none; stroke-linecap: butt; stroke-linejoin: miter; stroke-miterlimit: 10; fill: none; fill-rule: nonzero; opacity: 1" transform=" matrix(1 0 0 1 86 40) " stroke-linecap="round" /><path d="M 312.5 0.5 L 312.5 5.5" style="stroke:#000000;stroke-opacity:1; stroke-opacity: 0.3; stroke-width: 1; stroke-dasharray: none; stroke-linecap: butt; stroke-linejoin: miter; stroke-miterlimit: 10; fill: none; fill-rule: nonzero; opacity: 1" transform=" matrix(1 0 0 1 86 384) " stroke-linecap="round" /><path d="M 312.5 344.5 L 312.5 344.5 L 312.5 0.5" style="stroke:#000000;stroke-opacity:1; stroke-opacity: 0.1; stroke-width: 1; stroke-dasharray: none; stroke-linecap: butt; stroke-linejoin: miter; stroke-miterlimit: 10; fill: none; fill-rule: nonzero; opacity: 1" transform=" matrix(1 0 0 1 86 40) " stroke-linecap="round" /><path d="M 474.5 0.5 L 474.5 5.5" style="stroke:#000000;stroke-opacity:1; stroke-opacity: 0.3; stroke-width: 1; stroke-dasharray: none; stroke-linecap: butt; stroke-linejoin: miter; stroke-miterlimit: 10; fill: none; fill-rule: nonzero; opacity: 1" transform=" matrix(1 0 0 1 86 384) " stroke-linecap="round" /><path d="M 474.5 344.5 L 474.5 344.5 L 474.5 0.5" style="stroke:#000000;stroke-opacity:1; stroke-opacity: 0.1; stroke-width: 1; stroke-dasharray: none; stroke-linecap: butt; stroke-linejoin: miter; stroke-miterlimit: 10; fill: none; fill-rule: nonzero; opacity: 1" transform=" matrix(1 0 0 1 86 40) " stroke-linecap="round" /><path d="M 630.5 0.5 L 630.5 5.5" style="stroke:#000000;stroke-opacity:1; stroke-opacity: 0.3; stroke-width: 1; stroke-dasharray: none; stroke-linecap: butt; stroke-linejoin: miter; stroke-miterlimit: 10; fill: none; fill-rule: nonzero; opacity: 1" transform=" matrix(1 0 0 1 86 384) " stroke-linecap="round" /><path d="M 630.5 344.5 L 630.5 344.5 L 630.5 0.5" style="stroke:#000000;stroke-opacity:1; stroke-opacity: 0.1; stroke-width: 1; stroke-dasharray: none; stroke-linecap: butt; stroke-linejoin: miter; stroke-miterlimit: 10; fill: none; fill-rule: nonzero; opacity: 1" transform=" matrix(1 0 0 1 86 40) " stroke-linecap="round" /><rect x="0.5" y="0.5" rx="0" ry="0" width="703" height="69" style="stroke:#55BB76;stroke-opacity:1; stroke-opacity: 0; stroke-width: 0; stroke-dasharray: none; stroke-linecap: butt; stroke-linejoin: miter; stroke-miterlimit: 10;fill:#55BB76;fill-opacity:1; fill-opacity: 0; fill-rule: nonzero; opacity: 0" transform=" matrix(1 0 0 1 86 40) " clip-path="url(#AmChartsEl-231)" /><path d="M 0.5 0.5 L 0.5 34.5 L 68.5 34.5 L 68.5 0.5 L 0.5 0.5 Z" style="stroke:#FFFFFF;stroke-opacity:1; stroke-width: 1; stroke-dasharray: none; stroke-linecap: butt; stroke-linejoin: miter; stroke-miterlimit: 10;fill:#B9783F;fill-opacity:1; fill-rule: nonzero; opacity: 1" transform=" matrix(1 0 0 1 86 56) " stroke-linecap="round" /><path d="M 0.5 0.5 L 0.5 34.5 L 57.5 34.5 L 57.5 0.5 L 0.5 0.5 Z" style="stroke:#FFFFFF;stroke-opacity:1; stroke-width: 1; stroke-dasharray: none; stroke-linecap: butt; stroke-linejoin: miter; stroke-miterlimit: 10;fill:#C68043;fill-opacity:1; fill-rule: nonzero; opacity: 1" transform=" matrix(1 0 0 1 164 56) " stroke-linecap="round" /><path d="M 0.5 0.5 L 0.5 34.5 L 380.5 34.5 L 380.5 0.5 L 0.5 0.5 Z" style="stroke:#FFFFFF;stroke-opacity:1; stroke-width: 1; stroke-dasharray: none; stroke-linecap: butt; stroke-linejoin: miter; stroke-miterlimit: 10;fill:#E2924C;fill-opacity:1; fill-rule: nonzero; opacity: 1" transform=" matrix(1 0 0 1 268 56) " stroke-linecap="round" /><path d="M 0.5 0.5 L 0.5 34.5 L 62.5 34.5 L 62.5 0.5 L 0.5 0.5 Z" style="stroke:#FFFFFF;stroke-opacity:1; stroke-width: 1; stroke-dasharray: none; stroke-linecap: butt; stroke-linejoin: miter; stroke-miterlimit: 10;fill:#FFB15C;fill-opacity:1; fill-rule: nonzero; opacity: 1" transform=" matrix(1 0 0 1 648 56) " stroke-linecap="round" /><path d="M 0.5 0.5 L 0.5 34.5 L 10.5 34.5 L 10.5 0.5 L 0.5 0.5 Z" style="stroke:#FFFFFF;stroke-opacity:1; stroke-width: 1; stroke-dasharray: none; stroke-linecap: butt; stroke-linejoin: miter; stroke-miterlimit: 10;fill:#CC4748;fill-opacity:1; fill-rule: nonzero; opacity: 1" transform=" matrix(1 0 0 1 122 125) " stroke-linecap="round" /><path d="M 0.5 0.5 L 0.5 34.5 L 16.5 34.5 L 16.5 0.5 L 0.5 0.5 Z" style="stroke:#FFFFFF;stroke-opacity:1; stroke-width: 1; stroke-dasharray: none; stroke-linecap: butt; stroke-linejoin: miter; stroke-miterlimit: 10;fill:#DA4C4D;fill-opacity:1; fill-rule: nonzero; opacity: 1" transform=" matrix(1 0 0 1 143 125) " stroke-linecap="round" /><path d="M 0.5 0.5 L 0.5 34.5 L 104.5 34.5 L 104.5 0.5 L 0.5 0.5 Z" style="stroke:#FFFFFF;stroke-opacity:1; stroke-width: 1; stroke-dasharray: none; stroke-linecap: butt; stroke-linejoin: miter; stroke-miterlimit: 10;fill:#F95758;fill-opacity:1; fill-rule: nonzero; opacity: 1" transform=" matrix(1 0 0 1 164 125) " stroke-linecap="round" /><path d="M 0.5 0.5 L 0.5 34.5 L 42.5 34.5 L 42.5 0.5 L 0.5 0.5 Z" style="stroke:#FFFFFF;stroke-opacity:1; stroke-width: 1; stroke-dasharray: none; stroke-linecap: butt; stroke-linejoin: miter; stroke-miterlimit: 10;fill:#FF696A;fill-opacity:1; fill-rule: nonzero; opacity: 1" transform=" matrix(1 0 0 1 294 125) " stroke-linecap="round" /><path d="M 0.5 0.5 L 0.5 34.5 L 31.5 34.5 L 31.5 0.5 L 0.5 0.5 Z" style="stroke:#FFFFFF;stroke-opacity:1; stroke-width: 1; stroke-dasharray: none; stroke-linecap: butt; stroke-linejoin: miter; stroke-miterlimit: 10;fill:#CD82AD;fill-opacity:1; fill-rule: nonzero; opacity: 1" transform=" matrix(1 0 0 1 91 194) " stroke-linecap="round" /><path d="M 0.5 0.5 L 0.5 34.5 L 42.5 34.5 L 42.5 0.5 L 0.5 0.5 Z" style="stroke:#FFFFFF;stroke-opacity:1; stroke-width: 1; stroke-dasharray: none; stroke-linecap: butt; stroke-linejoin: miter; stroke-miterlimit: 10;fill:#DB8BB9;fill-opacity:1; fill-rule: nonzero; opacity: 1" transform=" matrix(1 0 0 1 122 194) " stroke-linecap="round" /><path d="M 0.5 0.5 L 0.5 34.5 L 219.5 34.5 L 219.5 0.5 L 0.5 0.5 Z" style="stroke:#FFFFFF;stroke-opacity:1; stroke-width: 1; stroke-dasharray: none; stroke-linecap: butt; stroke-linejoin: miter; stroke-miterlimit: 10;fill:#FA9ED3;fill-opacity:1; fill-rule: nonzero; opacity: 1" transform=" matrix(1 0 0 1 180 194) " stroke-linecap="round" /><path d="M 0.5 0.5 L 0.5 34.5 L 125.5 34.5 L 125.5 0.5 L 0.5 0.5 Z" style="stroke:#FFFFFF;stroke-opacity:1; stroke-width: 1; stroke-dasharray: none; stroke-linecap: butt; stroke-linejoin: miter; stroke-miterlimit: 10;fill:#FFBFFF;fill-opacity:1; fill-rule: nonzero; opacity: 1" transform=" matrix(1 0 0 1 456 194) " stroke-linecap="round" /><path d="M 0.5 0.5 L 0.5 34.5 L 94.5 34.5 L 94.5 0.5 L 0.5 0.5 Z" style="stroke:#FFFFFF;stroke-opacity:1; stroke-width: 1; stroke-dasharray: none; stroke-linecap: butt; stroke-linejoin: miter; stroke-miterlimit: 10;fill:#2F4074;fill-opacity:1; fill-rule: nonzero; opacity: 1" transform=" matrix(1 0 0 1 86 263) " stroke-linecap="round" /><path d="M 0.5 0.5 L 0.5 34.5 L 78.5 34.5 L 78.5 0.5 L 0.5 0.5 Z" style="stroke:#FFFFFF;stroke-opacity:1; stroke-width: 1; stroke-dasharray: none; stroke-linecap: butt; stroke-linejoin: miter; stroke-miterlimit: 10;fill:#32447C;fill-opacity:1; fill-rule: nonzero; opacity: 1" transform=" matrix(1 0 0 1 180 263) " stroke-linecap="round" /><path d="M 0.5 0.5 L 0.5 34.5 L 187.5 34.5 L 187.5 0.5 L 0.5 0.5 Z" style="stroke:#FFFFFF;stroke-opacity:1; stroke-width: 1; stroke-dasharray: none; stroke-linecap: butt; stroke-linejoin: miter; stroke-miterlimit: 10;fill:#394E8D;fill-opacity:1; fill-rule: nonzero; opacity: 1" transform=" matrix(1 0 0 1 497 263) " stroke-linecap="round" /><path d="M 0.5 0.5 L 0.5 34.5 L 94.5 34.5 L 94.5 0.5 L 0.5 0.5 Z" style="stroke:#FFFFFF;stroke-opacity:1; stroke-width: 1; stroke-dasharray: none; stroke-linecap: butt; stroke-linejoin: miter; stroke-miterlimit: 10;fill:#455EAB;fill-opacity:1; fill-rule: nonzero; opacity: 1" transform=" matrix(1 0 0 1 695 263) " stroke-linecap="round" /><path d="M 0.5 0.5 L 0.5 34.5 L 57.5 34.5 L 57.5 0.5 L 0.5 0.5 Z" style="stroke:#FFFFFF;stroke-opacity:1; stroke-width: 1; stroke-dasharray: none; stroke-linecap: butt; stroke-linejoin: miter; stroke-miterlimit: 10;fill:#448E4D;fill-opacity:1; fill-rule: nonzero; opacity: 1" transform=" matrix(1 0 0 1 86 332) " stroke-linecap="round" /><path d="M 0.5 0.5 L 0.5 34.5 L 36.5 34.5 L 36.5 0.5 L 0.5 0.5 Z" style="stroke:#FFFFFF;stroke-opacity:1; stroke-width: 1; stroke-dasharray: none; stroke-linecap: butt; stroke-linejoin: miter; stroke-miterlimit: 10;fill:#499852;fill-opacity:1; fill-rule: nonzero; opacity: 1" transform=" matrix(1 0 0 1 143 332) " stroke-linecap="round" /><path d="M 0.5 0.5 L 0.5 34.5 L 219.5 34.5 L 219.5 0.5 L 0.5 0.5 Z" style="stroke:#FFFFFF;stroke-opacity:1; stroke-width: 1; stroke-dasharray: none; stroke-linecap: butt; stroke-linejoin: miter; stroke-miterlimit: 10;fill:#53AD5D;fill-opacity:1; fill-rule: nonzero; opacity: 1" transform=" matrix(1 0 0 1 180 332) " stroke-linecap="round" /><path d="M 0.5 0.5 L 0.5 34.5 L 115.5 34.5 L 115.5 0.5 L 0.5 0.5 Z" style="stroke:#FFFFFF;stroke-opacity:1; stroke-width: 1; stroke-dasharray: none; stroke-linecap: butt; stroke-linejoin: miter; stroke-miterlimit: 10;fill:#64D171;fill-opacity:1; fill-rule: nonzero; opacity: 1" transform=" matrix(1 0 0 1 435 332) " stroke-linecap="round" /><path d="M 0.5 0.5 L 703.5 0.5" style="stroke:#000000;stroke-opacity:1; stroke-opacity: 0; stroke-width: 1; stroke-dasharray: none; stroke-linecap: butt; stroke-linejoin: miter; stroke-miterlimit: 10; fill: none; fill-rule: nonzero; opacity: 1" transform=" matrix(1 0 0 1 0 20) " stroke-linecap="round" /><path d="M 0.5 0.5 L 0.5 344.5" style="stroke:#000000;stroke-opacity:1; stroke-opacity: 0.3; stroke-width: 1; stroke-dasharray: none; stroke-linecap: butt; stroke-linejoin: miter; stroke-miterlimit: 10; fill: none; fill-rule: nonzero; opacity: 1" transform=" matrix(1 0 0 1 86 40) " stroke-linecap="round" /><path d="M 0.5 0.5 L 703.5 0.5" style="stroke:#000000;stroke-opacity:1; stroke-opacity: 0.3; stroke-width: 1; stroke-dasharray: none; stroke-linecap: butt; stroke-linejoin: miter; stroke-miterlimit: 10; fill: none; fill-rule: nonzero; opacity: 1" transform=" matrix(1 0 0 1 86 384) " stroke-linecap="round" /><path d="M 0.5 0.5 L 0.5 0.5 L 0.5 344.5" style="stroke:#55BB76;stroke-opacity:1; stroke-opacity: 0; stroke-width: 1; stroke-dasharray: none; stroke-linecap: butt; stroke-linejoin: miter; stroke-miterlimit: 10; fill: none; fill-rule: nonzero; opacity: 0" transform=" matrix(1 0 0 1 455 40) " stroke-linecap="round"  clip-path="url(#AmChartsEl-232)" /><rect x="0" y="0" rx="0" ry="0" width="703" height="344" style="stroke: none; stroke-width: 0; stroke-dasharray: none; stroke-linecap: butt; stroke-linejoin: miter; stroke-miterlimit: 10; fill: none; fill-rule: nonzero; opacity: 1" transform=""/><rect x="0.5" y="0.5" rx="0" ry="0" width="704" height="20" style="stroke:#000000;stroke-opacity:1; stroke-opacity: 0.12; stroke-width: 1; stroke-dasharray: none; stroke-linecap: butt; stroke-linejoin: miter; stroke-miterlimit: 10;fill:#000000;fill-opacity:1; fill-opacity: 0.12; fill-rule: nonzero; opacity: 1" transform=" matrix(1 0 0 1 86 20) "/><rect x="0.5" y="0.5" rx="0" ry="0" width="704" height="21" style="stroke:#FFFFFF;stroke-opacity:1; stroke-opacity: 0.4; stroke-width: 0; stroke-dasharray: none; stroke-linecap: butt; stroke-linejoin: miter; stroke-miterlimit: 10;fill:#FFFFFF;fill-opacity:1; fill-opacity: 0.4; fill-rule: nonzero; opacity: 1" transform=" matrix(1 0 0 1 86 20) "/><path d="M 0.5 20.5 L 0.5 20.5 L 0.5 0.5" style="stroke:#FFFFFF;stroke-opacity:1; stroke-opacity: 0.15; stroke-width: 1; stroke-dasharray: none; stroke-linecap: butt; stroke-linejoin: miter; stroke-miterlimit: 10; fill: none; fill-rule: nonzero; opacity: 1" transform=" matrix(1 0 0 1 86 20) " stroke-linecap="round" /><path d="M 161.5 20.5 L 161.5 20.5 L 161.5 0.5" style="stroke:#FFFFFF;stroke-opacity:1; stroke-opacity: 0.15; stroke-width: 1; stroke-dasharray: none; stroke-linecap: butt; stroke-linejoin: miter; stroke-miterlimit: 10; fill: none; fill-rule: nonzero; opacity: 1" transform=" matrix(1 0 0 1 86 20) " stroke-linecap="round" /><path d="M 312.5 20.5 L 312.5 20.5 L 312.5 0.5" style="stroke:#FFFFFF;stroke-opacity:1; stroke-opacity: 0.15; stroke-width: 1; stroke-dasharray: none; stroke-linecap: butt; stroke-linejoin: miter; stroke-miterlimit: 10; fill: none; fill-rule: nonzero; opacity: 1" transform=" matrix(1 0 0 1 86 20) " stroke-linecap="round" /><path d="M 474.5 20.5 L 474.5 20.5 L 474.5 0.5" style="stroke:#FFFFFF;stroke-opacity:1; stroke-opacity: 0.15; stroke-width: 1; stroke-dasharray: none; stroke-linecap: butt; stroke-linejoin: miter; stroke-miterlimit: 10; fill: none; fill-rule: nonzero; opacity: 1" transform=" matrix(1 0 0 1 86 20) " stroke-linecap="round" /><path d="M 630.5 20.5 L 630.5 20.5 L 630.5 0.5" style="stroke:#FFFFFF;stroke-opacity:1; stroke-opacity: 0.15; stroke-width: 1; stroke-dasharray: none; stroke-linecap: butt; stroke-linejoin: miter; stroke-miterlimit: 10; fill: none; fill-rule: nonzero; opacity: 1" transform=" matrix(1 0 0 1 86 20) " stroke-linecap="round" /><g transform=" matrix(1 0 0 1 166.71481481481482 28.5) "><text font-family="Verdana" font-size="11" font-weight="bold" style="stroke: none; stroke-width: 1; stroke-dasharray: none; stroke-linecap: butt; stroke-linejoin: miter; stroke-miterlimit: 10;fill:#000000;fill-opacity:1; fill-rule: nonzero; opacity: 1" ><tspan x="-15.64" y="5.49" fill="rgba(0,0,0,1)">2016</tspan></text></g><g transform=" matrix(1 0 0 1 327.7148148148148 28.5) "><text font-family="Verdana" font-size="11" font-weight="normal" style="stroke: none; stroke-width: 1; stroke-dasharray: none; stroke-linecap: butt; stroke-linejoin: miter; stroke-miterlimit: 10;fill:#000000;fill-opacity:1; fill-rule: nonzero; opacity: 1" ><tspan x="-11.05" y="5.49" fill="rgba(0,0,0,1)">Фев</tspan></text></g><g transform=" matrix(1 0 0 1 478.7148148148148 28.5) "><text font-family="Verdana" font-size="11" font-weight="normal" style="stroke: none; stroke-width: 1; stroke-dasharray: none; stroke-linecap: butt; stroke-linejoin: miter; stroke-miterlimit: 10;fill:#000000;fill-opacity:1; fill-rule: nonzero; opacity: 1" ><tspan x="-11.37" y="5.49" fill="rgba(0,0,0,1)">Мар</tspan></text></g><g transform=" matrix(1 0 0 1 640.7148148148149 28.5) "><text font-family="Verdana" font-size="11" font-weight="normal" style="stroke: none; stroke-width: 1; stroke-dasharray: none; stroke-linecap: butt; stroke-linejoin: miter; stroke-miterlimit: 10;fill:#000000;fill-opacity:1; fill-rule: nonzero; opacity: 1" ><tspan x="-10.69" y="5.49" fill="rgba(0,0,0,1)">Апр</tspan></text></g><rect x="0.5" y="0.5" rx="0" ry="0" width="704" height="20" style="stroke:#000000;stroke-opacity:1; stroke-opacity: 0.005; stroke-width: 0; stroke-dasharray: none; stroke-linecap: butt; stroke-linejoin: miter; stroke-miterlimit: 10;fill:#000000;fill-opacity:1; fill-opacity: 0.005; fill-rule: nonzero; opacity: 1" transform=" matrix(1 0 0 1 86 20) "/><rect x="0" y="0.5" rx="0" ry="0" width="704" height="20" style="stroke:#000000;stroke-opacity:1; stroke-opacity: 0.005; stroke-width: 0; stroke-dasharray: none; stroke-linecap: butt; stroke-linejoin: miter; stroke-miterlimit: 10;fill:#000000;fill-opacity:1; fill-opacity: 0.005; fill-rule: nonzero; opacity: 1" transform=" matrix(1 0 0 1 86 20) "/><g transform=" matrix(1 0 0 1 69 13) "><image xlink:href="http://localhost:8080/sampler/VAADIN/resources/amcharts/images/dragIconRoundBig.svg" x="0" y="0" style="stroke: none; stroke-width: 0; stroke-dasharray: none; stroke-linecap: butt; stroke-linejoin: miter; stroke-miterlimit: 10;fill:#000000;fill-opacity:1; fill-rule: nonzero; opacity: 1" width="35" height="35" preserveAspectRatio="none"></image></g><rect x="0.5" y="0.5" rx="0" ry="0" width="25" height="20" style="stroke:#000000;stroke-opacity:1; stroke-opacity: 0.005; stroke-width: 0; stroke-dasharray: none; stroke-linecap: butt; stroke-linejoin: miter; stroke-miterlimit: 10;fill:#000000;fill-opacity:1; fill-opacity: 0.005; fill-rule: nonzero; opacity: 1" transform=" matrix(1 0 0 1 74 21) "/><g transform=" matrix(1 0 0 1 773 13) "><image xlink:href="http://localhost:8080/sampler/VAADIN/resources/amcharts/images/dragIconRoundBig.svg" x="0" y="0" style="stroke: none; stroke-width: 0; stroke-dasharray: none; stroke-linecap: butt; stroke-linejoin: miter; stroke-miterlimit: 10;fill:#000000;fill-opacity:1; fill-rule: nonzero; opacity: 1" width="35" height="35" preserveAspectRatio="none"></image></g><rect x="0.5" y="0.5" rx="0" ry="0" width="25" height="20" style="stroke:#000000;stroke-opacity:1; stroke-opacity: 0.005; stroke-width: 0; stroke-dasharray: none; stroke-linecap: butt; stroke-linejoin: miter; stroke-miterlimit: 10;fill:#000000;fill-opacity:1; fill-opacity: 0.005; fill-rule: nonzero; opacity: 1" transform=" matrix(1 0 0 1 778 21) "/><g transform=" matrix(1 0 0 1 74 73.4) "><text font-family="Verdana" font-size="11" font-weight="normal" style="stroke: none; stroke-width: 1; stroke-dasharray: none; stroke-linecap: butt; stroke-linejoin: miter; stroke-miterlimit: 10;fill:#000000;fill-opacity:1; fill-rule: nonzero; opacity: 1" ><tspan x="-59.69" y="5.49" fill="rgba(0,0,0,1)">Module #1</tspan></text></g><g transform=" matrix(1 0 0 1 74 142.4) "><text font-family="Verdana" font-size="11" font-weight="normal" style="stroke: none; stroke-width: 1; stroke-dasharray: none; stroke-linecap: butt; stroke-linejoin: miter; stroke-miterlimit: 10;fill:#000000;fill-opacity:1; fill-rule: nonzero; opacity: 1" ><tspan x="-59.69" y="5.49" fill="rgba(0,0,0,1)">Module #2</tspan></text></g><g transform=" matrix(1 0 0 1 74 211.4) "><text font-family="Verdana" font-size="11" font-weight="normal" style="stroke: none; stroke-width: 1; stroke-dasharray: none; stroke-linecap: butt; stroke-linejoin: miter; stroke-miterlimit: 10;fill:#000000;fill-opacity:1; fill-rule: nonzero; opacity: 1" ><tspan x="-59.69" y="5.49" fill="rgba(0,0,0,1)">Module #3</tspan></text></g><g transform=" matrix(1 0 0 1 74 280.4) "><text font-family="Verdana" font-size="11" font-weight="normal" style="stroke: none; stroke-width: 1; stroke-dasharray: none; stroke-linecap: butt; stroke-linejoin: miter; stroke-miterlimit: 10;fill:#000000;fill-opacity:1; fill-rule: nonzero; opacity: 1" ><tspan x="-59.69" y="5.49" fill="rgba(0,0,0,1)">Module #4</tspan></text></g><g transform=" matrix(1 0 0 1 74 349.4) "><text font-family="Verdana" font-size="11" font-weight="normal" style="stroke: none; stroke-width: 1; stroke-dasharray: none; stroke-linecap: butt; stroke-linejoin: miter; stroke-miterlimit: 10;fill:#000000;fill-opacity:1; fill-rule: nonzero; opacity: 1" ><tspan x="-59.69" y="5.49" fill="rgba(0,0,0,1)">Module #5</tspan></text></g><g transform=" matrix(1 0 0 1 166.71481481481482 396.5) "><text font-family="Verdana" font-size="11" font-weight="bold" style="stroke: none; stroke-width: 1; stroke-dasharray: none; stroke-linecap: butt; stroke-linejoin: miter; stroke-miterlimit: 10;fill:#000000;fill-opacity:1; fill-rule: nonzero; opacity: 1" ><tspan x="-15.64" y="5.49" fill="rgba(0,0,0,1)">2016</tspan></text></g><g transform=" matrix(1 0 0 1 327.7148148148148 396.5) "><text font-family="Verdana" font-size="11" font-weight="normal" style="stroke: none; stroke-width: 1; stroke-dasharray: none; stroke-linecap: butt; stroke-linejoin: miter; stroke-miterlimit: 10;fill:#000000;fill-opacity:1; fill-rule: nonzero; opacity: 1" ><tspan x="-11.05" y="5.49" fill="rgba(0,0,0,1)">Фев</tspan></text></g><g transform=" matrix(1 0 0 1 478.7148148148148 396.5) "><text font-family="Verdana" font-size="11" font-weight="normal" style="stroke: none; stroke-width: 1; stroke-dasharray: none; stroke-linecap: butt; stroke-linejoin: miter; stroke-miterlimit: 10;fill:#000000;fill-opacity:1; fill-rule: nonzero; opacity: 1" ><tspan x="-11.37" y="5.49" fill="rgba(0,0,0,1)">Мар</tspan></text></g><g transform=" matrix(1 0 0 1 640.7148148148149 396.5) "><text font-family="Verdana" font-size="11" font-weight="normal" style="stroke: none; stroke-width: 1; stroke-dasharray: none; stroke-linecap: butt; stroke-linejoin: miter; stroke-miterlimit: 10;fill:#000000;fill-opacity:1; fill-rule: nonzero; opacity: 1" ><tspan x="-10.69" y="5.49" fill="rgba(0,0,0,1)">Апр</tspan></text></g><rect x="-1" y="-1" rx="0" ry="0" width="705" height="346" style="stroke: none; stroke-width: 0; stroke-dasharray: none; stroke-linecap: butt; stroke-linejoin: miter; stroke-miterlimit: 10; fill: none; fill-rule: nonzero; opacity: 1" transform=""/></g><clipPath xmlns="http://www.w3.org/2000/svg" id="AmChartsEl-231"><rect x="-1" y="-1" width="705" height="346" rx="0" ry="0" stroke-width="0" fill="none" fill-opacity="0" svgUid="14"/></clipPath><clipPath xmlns="http://www.w3.org/2000/svg" id="AmChartsEl-232"><rect x="0" y="0" width="703" height="344" rx="0" ry="0" stroke-width="0" fill="none" fill-opacity="0" svgUid="14"/></clipPath></svg>