<?xml version="1.0" encoding="UTF-8" standalone="no" ?><!DOCTYPE svg PUBLIC "-//W3C//DTD SVG 1.1//EN" "http://www.w3.org/Graphics/SVG/1.1/DTD/svg11.dtd"><svg xmlns="http://www.w3.org/2000/svg" xmlns:xlink="http://www.w3.org/1999/xlink" version="1.1" width="1030" height="481" viewBox="0 0 1030 481" xml:space="preserve"><desc>Created with Fabric.js 1.7.19</desc><defs></defs><rect x="0" y="0" width="1030" height="481" fill="#FFFFFF"></rect><g style="stroke: none; stroke-width: 1; stroke-dasharray: none; stroke-linecap: butt; stroke-linejoin: miter; stroke-miterlimit: 10; fill: none; fill-rule: nonzero; opacity: 1" transform="translate(0 0)" ><path d="M 0.5 0.5 L 1029.5 0.5 L 1029.5 480.5 L 0.5 480.5 Z" style="stroke:#000000;stroke-opacity:1; stroke-opacity: 0; stroke-width: 1; stroke-dasharray: none; stroke-linecap: butt; stroke-linejoin: miter; stroke-miterlimit: 10;fill:#FFFFFF;fill-opacity:1; fill-opacity: 0; fill-rule: nonzero; opacity: 1" transform="" stroke-linecap="round" /><path d="M 0.5 0.5 L 903.5 0.5 L 903.5 400.5 L 0.5 400.5 L 0.5 0.5 Z" style="stroke:#000000;stroke-opacity:1; stroke-opacity: 0; stroke-width: 1; stroke-dasharray: none; stroke-linecap: butt; stroke-linejoin: miter; stroke-miterlimit: 10;fill:#FFFFFF;fill-opacity:1; fill-opacity: 0; fill-rule: nonzero; opacity: 1" transform=" matrix(1 0 0 1 56 40) " stroke-linecap="round" /><path d="M 0.5 0.5 L 0.5 5.5" style="stroke:#000000;stroke-opacity:1; stroke-width: 1; stroke-dasharray: none; stroke-linecap: butt; stroke-linejoin: miter; stroke-miterlimit: 10; fill: none; fill-rule: nonzero; opacity: 1" transform=" matrix(1 0 0 1 56 440) " stroke-linecap="round" /><path d="M 0.5 400.5 L 0.5 400.5 L 0.5 0.5" style="stroke:#000000;stroke-opacity:1; stroke-opacity: 0.15; stroke-width: 1; stroke-dasharray: none; stroke-linecap: butt; stroke-linejoin: miter; stroke-miterlimit: 10; fill: none; fill-rule: nonzero; opacity: 1" transform=" matrix(1 0 0 1 56 40) " stroke-linecap="round" /><path d="M 90.5 0.5 L 90.5 5.5" style="stroke:#000000;stroke-opacity:1; stroke-width: 1; stroke-dasharray: none; stroke-linecap: butt; stroke-linejoin: miter; stroke-miterlimit: 10; fill: none; fill-rule: nonzero; opacity: 1" transform=" matrix(1 0 0 1 56 440) " stroke-linecap="round" /><path d="M 90.5 400.5 L 90.5 400.5 L 90.5 0.5" style="stroke:#000000;stroke-opacity:1; stroke-opacity: 0.15; stroke-width: 1; stroke-dasharray: none; stroke-linecap: butt; stroke-linejoin: miter; stroke-miterlimit: 10; fill: none; fill-rule: nonzero; opacity: 1" transform=" matrix(1 0 0 1 56 40) " stroke-linecap="round" /><path d="M 181.5 0.5 L 181.5 5.5" style="stroke:#000000;stroke-opacity:1; stroke-width: 1; stroke-dasharray: none; stroke-linecap: butt; stroke-linejoin: miter; stroke-miterlimit: 10; fill: none; fill-rule: nonzero; opacity: 1" transform=" matrix(1 0 0 1 56 440) " stroke-linecap="round" /><path d="M 181.5 400.5 L 181.5 400.5 L 181.5 0.5" style="stroke:#000000;stroke-opacity:1; stroke-opacity: 0.15; stroke-width: 1; stroke-dasharray: none; stroke-linecap: butt; stroke-linejoin: miter; stroke-miterlimit: 10; fill: none; fill-rule: nonzero; opacity: 1" transform=" matrix(1 0 0 1 56 40) " stroke-linecap="round" /><path d="M 271.5 0.5 L 271.5 5.5" style="stroke:#000000;stroke-opacity:1; stroke-width: 1; stroke-dasharray: none; stroke-linecap: butt; stroke-linejoin: miter; stroke-miterlimit: 10; fill: none; fill-rule: nonzero; opacity: 1" transform=" matrix(1 0 0 1 56 440) " stroke-linecap="round" /><path d="M 271.5 400.5 L 271.5 400.5 L 271.5 0.5" style="stroke:#000000;stroke-opacity:1; stroke-opacity: 0.15; stroke-width: 1; stroke-dasharray: none; stroke-linecap: butt; stroke-linejoin: miter; stroke-miterlimit: 10; fill: none; fill-rule: nonzero; opacity: 1" transform=" matrix(1 0 0 1 56 40) " stroke-linecap="round" /><path d="M 361.5 0.5 L 361.5 5.5" style="stroke:#000000;stroke-opacity:1; stroke-width: 1; stroke-dasharray: none; stroke-linecap: butt; stroke-linejoin: miter; stroke-miterlimit: 10; fill: none; fill-rule: nonzero; opacity: 1" transform=" matrix(1 0 0 1 56 440) " stroke-linecap="round" /><path d="M 361.5 400.5 L 361.5 400.5 L 361.5 0.5" style="stroke:#000000;stroke-opacity:1; stroke-opacity: 0.15; stroke-width: 1; stroke-dasharray: none; stroke-linecap: butt; stroke-linejoin: miter; stroke-miterlimit: 10; fill: none; fill-rule: nonzero; opacity: 1" transform=" matrix(1 0 0 1 56 40) " stroke-linecap="round" /><path d="M 452.5 0.5 L 452.5 5.5" style="stroke:#000000;stroke-opacity:1; stroke-width: 1; stroke-dasharray: none; stroke-linecap: butt; stroke-linejoin: miter; stroke-miterlimit: 10; fill: none; fill-rule: nonzero; opacity: 1" transform=" matrix(1 0 0 1 56 440) " stroke-linecap="round" /><path d="M 452.5 400.5 L 452.5 400.5 L 452.5 0.5" style="stroke:#000000;stroke-opacity:1; stroke-opacity: 0.15; stroke-width: 1; stroke-dasharray: none; stroke-linecap: butt; stroke-linejoin: miter; stroke-miterlimit: 10; fill: none; fill-rule: nonzero; opacity: 1" transform=" matrix(1 0 0 1 56 40) " stroke-linecap="round" /><path d="M 542.5 0.5 L 542.5 5.5" style="stroke:#000000;stroke-opacity:1; stroke-width: 1; stroke-dasharray: none; stroke-linecap: butt; stroke-linejoin: miter; stroke-miterlimit: 10; fill: none; fill-rule: nonzero; opacity: 1" transform=" matrix(1 0 0 1 56 440) " stroke-linecap="round" /><path d="M 542.5 400.5 L 542.5 400.5 L 542.5 0.5" style="stroke:#000000;stroke-opacity:1; stroke-opacity: 0.15; stroke-width: 1; stroke-dasharray: none; stroke-linecap: butt; stroke-linejoin: miter; stroke-miterlimit: 10; fill: none; fill-rule: nonzero; opacity: 1" transform=" matrix(1 0 0 1 56 40) " stroke-linecap="round" /><path d="M 632.5 0.5 L 632.5 5.5" style="stroke:#000000;stroke-opacity:1; stroke-width: 1; stroke-dasharray: none; stroke-linecap: butt; stroke-linejoin: miter; stroke-miterlimit: 10; fill: none; fill-rule: nonzero; opacity: 1" transform=" matrix(1 0 0 1 56 440) " stroke-linecap="round" /><path d="M 632.5 400.5 L 632.5 400.5 L 632.5 0.5" style="stroke:#000000;stroke-opacity:1; stroke-opacity: 0.15; stroke-width: 1; stroke-dasharray: none; stroke-linecap: butt; stroke-linejoin: miter; stroke-miterlimit: 10; fill: none; fill-rule: nonzero; opacity: 1" transform=" matrix(1 0 0 1 56 40) " stroke-linecap="round" /><path d="M 722.5 0.5 L 722.5 5.5" style="stroke:#000000;stroke-opacity:1; stroke-width: 1; stroke-dasharray: none; stroke-linecap: butt; stroke-linejoin: miter; stroke-miterlimit: 10; fill: none; fill-rule: nonzero; opacity: 1" transform=" matrix(1 0 0 1 56 440) " stroke-linecap="round" /><path d="M 722.5 400.5 L 722.5 400.5 L 722.5 0.5" style="stroke:#000000;stroke-opacity:1; stroke-opacity: 0.15; stroke-width: 1; stroke-dasharray: none; stroke-linecap: butt; stroke-linejoin: miter; stroke-miterlimit: 10; fill: none; fill-rule: nonzero; opacity: 1" transform=" matrix(1 0 0 1 56 40) " stroke-linecap="round" /><path d="M 813.5 0.5 L 813.5 5.5" style="stroke:#000000;stroke-opacity:1; stroke-width: 1; stroke-dasharray: none; stroke-linecap: butt; stroke-linejoin: miter; stroke-miterlimit: 10; fill: none; fill-rule: nonzero; opacity: 1" transform=" matrix(1 0 0 1 56 440) " stroke-linecap="round" /><path d="M 813.5 400.5 L 813.5 400.5 L 813.5 0.5" style="stroke:#000000;stroke-opacity:1; stroke-opacity: 0.15; stroke-width: 1; stroke-dasharray: none; stroke-linecap: butt; stroke-linejoin: miter; stroke-miterlimit: 10; fill: none; fill-rule: nonzero; opacity: 1" transform=" matrix(1 0 0 1 56 40) " stroke-linecap="round" /><path d="M 903.5 0.5 L 903.5 5.5" style="stroke:#000000;stroke-opacity:1; stroke-width: 1; stroke-dasharray: none; stroke-linecap: butt; stroke-linejoin: miter; stroke-miterlimit: 10; fill: none; fill-rule: nonzero; opacity: 1" transform=" matrix(1 0 0 1 56 440) " stroke-linecap="round" /><path d="M 903.5 400.5 L 903.5 400.5 L 903.5 0.5" style="stroke:#000000;stroke-opacity:1; stroke-opacity: 0.15; stroke-width: 1; stroke-dasharray: none; stroke-linecap: butt; stroke-linejoin: miter; stroke-miterlimit: 10; fill: none; fill-rule: nonzero; opacity: 1" transform=" matrix(1 0 0 1 56 40) " stroke-linecap="round" /><path d="M 0.5 400.5 L 0.5 400.5 L 903.5 400.5" style="stroke:#000000;stroke-opacity:1; stroke-opacity: 0.15; stroke-width: 1; stroke-dasharray: none; stroke-linecap: butt; stroke-linejoin: miter; stroke-miterlimit: 10; fill: none; fill-rule: nonzero; opacity: 1" transform=" matrix(1 0 0 1 56 40) " stroke-linecap="round" /><path d="M 0.5 343.5 L 0.5 343.5 L 903.5 343.5" style="stroke:#000000;stroke-opacity:1; stroke-opacity: 0.15; stroke-width: 1; stroke-dasharray: none; stroke-linecap: butt; stroke-linejoin: miter; stroke-miterlimit: 10; fill: none; fill-rule: nonzero; opacity: 1" transform=" matrix(1 0 0 1 56 40) " stroke-linecap="round" /><path d="M 0.5 286.5 L 0.5 286.5 L 903.5 286.5" style="stroke:#000000;stroke-opacity:1; stroke-opacity: 0.15; stroke-width: 1; stroke-dasharray: none; stroke-linecap: butt; stroke-linejoin: miter; stroke-miterlimit: 10; fill: none; fill-rule: nonzero; opacity: 1" transform=" matrix(1 0 0 1 56 40) " stroke-linecap="round" /><path d="M 0.5 229.5 L 0.5 229.5 L 903.5 229.5" style="stroke:#000000;stroke-opacity:1; stroke-opacity: 0.15; stroke-width: 1; stroke-dasharray: none; stroke-linecap: butt; stroke-linejoin: miter; stroke-miterlimit: 10; fill: none; fill-rule: nonzero; opacity: 1" transform=" matrix(1 0 0 1 56 40) " stroke-linecap="round" /><path d="M 0.5 171.5 L 0.5 171.5 L 903.5 171.5" style="stroke:#000000;stroke-opacity:1; stroke-opacity: 0.15; stroke-width: 1; stroke-dasharray: none; stroke-linecap: butt; stroke-linejoin: miter; stroke-miterlimit: 10; fill: none; fill-rule: nonzero; opacity: 1" transform=" matrix(1 0 0 1 56 40) " stroke-linecap="round" /><path d="M 0.5 114.5 L 0.5 114.5 L 903.5 114.5" style="stroke:#000000;stroke-opacity:1; stroke-opacity: 0.15; stroke-width: 1; stroke-dasharray: none; stroke-linecap: butt; stroke-linejoin: miter; stroke-miterlimit: 10; fill: none; fill-rule: nonzero; opacity: 1" transform=" matrix(1 0 0 1 56 40) " stroke-linecap="round" /><path d="M 0.5 57.5 L 0.5 57.5 L 903.5 57.5" style="stroke:#000000;stroke-opacity:1; stroke-opacity: 0.15; stroke-width: 1; stroke-dasharray: none; stroke-linecap: butt; stroke-linejoin: miter; stroke-miterlimit: 10; fill: none; fill-rule: nonzero; opacity: 1" transform=" matrix(1 0 0 1 56 40) " stroke-linecap="round" /><path d="M 0.5 0.5 L 0.5 0.5 L 903.5 0.5" style="stroke:#000000;stroke-opacity:1; stroke-opacity: 0.15; stroke-width: 1; stroke-dasharray: none; stroke-linecap: butt; stroke-linejoin: miter; stroke-miterlimit: 10; fill: none; fill-rule: nonzero; opacity: 1" transform=" matrix(1 0 0 1 56 40) " stroke-linecap="round" /><g  clip-path="url(#AmChartsEl-187)" ><rect x="0.5" y="0.5" rx="0" ry="0" width="90" height="400" style="stroke:#000000;stroke-opacity:1; stroke-opacity: 0; stroke-width: 0.1; stroke-dasharray: none; stroke-linecap: butt; stroke-linejoin: miter; stroke-miterlimit: 10;fill:#000000;fill-opacity:1; fill-opacity: 0; fill-rule: nonzero; opacity: 0" transform=" matrix(1 0 0 1 688 40) "/></g><path d="M 45.5 309.07143 L 135.5 331.92857 L 226.5 366.21429 L 316.5 126.21429 L 406.5 103.35714" style="stroke:#FFAA00;stroke-opacity:1; stroke-width: 2; stroke-dasharray: none; stroke-linecap: butt; stroke-linejoin: round; stroke-miterlimit: 10; fill: none; fill-rule: nonzero; opacity: 1" transform=" matrix(1 0 0 1 56 40) " stroke-linecap="round"  clip-path="url(#AmChartsEl-190)" /><path d="M 45.5 309.07143 L 135.5 331.92857 L 226.5 366.21429 L 316.5 126.21429 L 406.5 103.35714" style="stroke:#009999;stroke-opacity:1; stroke-width: 2; stroke-dasharray: none; stroke-linecap: butt; stroke-linejoin: round; stroke-miterlimit: 10; fill: none; fill-rule: nonzero; opacity: 1" transform=" matrix(1 0 0 1 56 40) " stroke-linecap="round"  clip-path="url(#AmChartsEl-189)" /><path d="M 497.5 240.5 L 587.5 320.5 L 677.5 46.21429 L 768.5 11.92857 L 858.5 229.07143" style="stroke:#FFAA00;stroke-opacity:1; stroke-width: 2; stroke-dasharray: none; stroke-linecap: butt; stroke-linejoin: round; stroke-miterlimit: 10; fill: none; fill-rule: nonzero; opacity: 1" transform=" matrix(1 0 0 1 56 40) " stroke-linecap="round"  clip-path="url(#AmChartsEl-192)" /><path d="M 497.5 240.5 L 587.5 320.5 L 677.5 46.21429 L 768.5 11.92857 L 858.5 229.07143" style="stroke:#009999;stroke-opacity:1; stroke-width: 2; stroke-dasharray: none; stroke-linecap: butt; stroke-linejoin: round; stroke-miterlimit: 10; fill: none; fill-rule: nonzero; opacity: 1" transform=" matrix(1 0 0 1 56 40) " stroke-linecap="round"  clip-path="url(#AmChartsEl-191)" /><path d="M 0.5 171.5 L 903.5 171.5 L 903.5 171.5" style="stroke:#000000;stroke-opacity:1; stroke-opacity: 0.3; stroke-width: 1; stroke-dasharray: none; stroke-linecap: butt; stroke-linejoin: miter; stroke-miterlimit: 10; fill: none; fill-rule: nonzero; opacity: 1" transform=" matrix(1 0 0 1 56 40) " stroke-linecap="round" /><path d="M 0.5 0.5 L 903.5 0.5" style="stroke:#000000;stroke-opacity:1; stroke-opacity: 0; stroke-width: 1; stroke-dasharray: none; stroke-linecap: butt; stroke-linejoin: miter; stroke-miterlimit: 10; fill: none; fill-rule: nonzero; opacity: 1" transform=" matrix(1 0 0 1 0 20) " stroke-linecap="round" /><path d="M 0.5 0.5 L 903.5 0.5" style="stroke:#000000;stroke-opacity:1; stroke-width: 1; stroke-dasharray: none; stroke-linecap: butt; stroke-linejoin: miter; stroke-miterlimit: 10; fill: none; fill-rule: nonzero; opacity: 1" transform=" matrix(1 0 0 1 56 440) " stroke-linecap="round" /><path d="M 0.5 0.5 L 0.5 400.5" style="stroke:#000000;stroke-opacity:1; stroke-opacity: 0; stroke-width: 1; stroke-dasharray: none; stroke-linecap: butt; stroke-linejoin: miter; stroke-miterlimit: 10; fill: none; fill-rule: nonzero; opacity: 1" transform=" matrix(1 0 0 1 56 40) " stroke-linecap="round" /><g  clip-path="url(#AmChartsEl-188)" ><path d="M 0.5 0.5 L 903.5 0.5 L 903.5 0.5" style="stroke:#000000;stroke-opacity:1; stroke-opacity: 0; stroke-width: 1; stroke-dasharray: none; stroke-linecap: butt; stroke-linejoin: miter; stroke-miterlimit: 10; fill: none; fill-rule: nonzero; opacity: 0" transform=" matrix(1 0 0 1 56 47) " stroke-linecap="round" /></g><rect x="0.5" y="0.5" rx="0" ry="0" width="904" height="20" style="stroke:#D4D4D4;stroke-opacity:1; stroke-width: 1; stroke-dasharray: none; stroke-linecap: butt; stroke-linejoin: miter; stroke-miterlimit: 10;fill:#D4D4D4;fill-opacity:1; fill-rule: nonzero; opacity: 1" transform=" matrix(1 0 0 1 56 20) "/><rect x="0.5" y="0.5" rx="0" ry="0" width="903" height="21" style="stroke:#EFEFEF;stroke-opacity:1; stroke-width: 0; stroke-dasharray: none; stroke-linecap: butt; stroke-linejoin: miter; stroke-miterlimit: 10;fill:#EFEFEF;fill-opacity:1; fill-rule: nonzero; opacity: 1" transform=" matrix(1 0 0 1 56 20) "/><rect x="0.5" y="0.5" rx="0" ry="0" width="904" height="20" style="stroke:#000000;stroke-opacity:1; stroke-opacity: 0.005; stroke-width: 0; stroke-dasharray: none; stroke-linecap: butt; stroke-linejoin: miter; stroke-miterlimit: 10;fill:#000000;fill-opacity:1; fill-opacity: 0.005; fill-rule: nonzero; opacity: 1" transform=" matrix(1 0 0 1 56 20) "/><rect x="0" y="0.5" rx="0" ry="0" width="903" height="20" style="stroke:#000000;stroke-opacity:1; stroke-opacity: 0.005; stroke-width: 0; stroke-dasharray: none; stroke-linecap: butt; stroke-linejoin: miter; stroke-miterlimit: 10;fill:#000000;fill-opacity:1; fill-opacity: 0.005; fill-rule: nonzero; opacity: 1" transform=" matrix(1 0 0 1 56 20) "/><g transform=" matrix(1 0 0 1 39 13) "><image xlink:href="http://localhost:8080/sampler/VAADIN/webjars/amcharts/3.21.12.cuba.1/images/dragIconRoundBig.svg" x="0" y="0" style="stroke: none; stroke-width: 0; stroke-dasharray: none; stroke-linecap: butt; stroke-linejoin: miter; stroke-miterlimit: 10;fill:#000000;fill-opacity:1; fill-rule: nonzero; opacity: 1" width="35" height="35" preserveAspectRatio="none"></image></g><rect x="0.5" y="0.5" rx="0" ry="0" width="25" height="20" style="stroke:#000000;stroke-opacity:1; stroke-opacity: 0.005; stroke-width: 0; stroke-dasharray: none; stroke-linecap: butt; stroke-linejoin: miter; stroke-miterlimit: 10;fill:#000000;fill-opacity:1; fill-opacity: 0.005; fill-rule: nonzero; opacity: 1" transform=" matrix(1 0 0 1 44 21) "/><g transform=" matrix(1 0 0 1 942 13) "><image xlink:href="http://localhost:8080/sampler/VAADIN/webjars/amcharts/3.21.12.cuba.1/images/dragIconRoundBig.svg" x="0" y="0" style="stroke: none; stroke-width: 0; stroke-dasharray: none; stroke-linecap: butt; stroke-linejoin: miter; stroke-miterlimit: 10;fill:#000000;fill-opacity:1; fill-rule: nonzero; opacity: 1" width="35" height="35" preserveAspectRatio="none"></image></g><rect x="0.5" y="0.5" rx="0" ry="0" width="25" height="20" style="stroke:#000000;stroke-opacity:1; stroke-opacity: 0.005; stroke-width: 0; stroke-dasharray: none; stroke-linecap: butt; stroke-linejoin: miter; stroke-miterlimit: 10;fill:#000000;fill-opacity:1; fill-opacity: 0.005; fill-rule: nonzero; opacity: 1" transform=" matrix(1 0 0 1 947 21) "/><circle cx="0" cy="0" r="3" style="stroke:#FFAA00;stroke-opacity:1; stroke-opacity: 0; stroke-width: 2; stroke-dasharray: none; stroke-linecap: butt; stroke-linejoin: miter; stroke-miterlimit: 10;fill:#FFAA00;fill-opacity:1; fill-rule: nonzero; opacity: 1" transform="  matrix(1 0 0 1 101 349) "/><circle cx="0" cy="0" r="3" style="stroke:#FFAA00;stroke-opacity:1; stroke-opacity: 0; stroke-width: 2; stroke-dasharray: none; stroke-linecap: butt; stroke-linejoin: miter; stroke-miterlimit: 10;fill:#FFAA00;fill-opacity:1; fill-rule: nonzero; opacity: 1" transform="  matrix(1 0 0 1 191 371) "/><circle cx="0" cy="0" r="3" style="stroke:#FFAA00;stroke-opacity:1; stroke-opacity: 0; stroke-width: 2; stroke-dasharray: none; stroke-linecap: butt; stroke-linejoin: miter; stroke-miterlimit: 10;fill:#FFAA00;fill-opacity:1; fill-rule: nonzero; opacity: 1" transform="  matrix(1 0 0 1 282 406) "/><circle cx="0" cy="0" r="3" style="stroke:#009999;stroke-opacity:1; stroke-opacity: 0; stroke-width: 2; stroke-dasharray: none; stroke-linecap: butt; stroke-linejoin: miter; stroke-miterlimit: 10;fill:#009999;fill-opacity:1; fill-rule: nonzero; opacity: 1" transform="  matrix(1 0 0 1 372 166) "/><circle cx="0" cy="0" r="3" style="stroke:#009999;stroke-opacity:1; stroke-opacity: 0; stroke-width: 2; stroke-dasharray: none; stroke-linecap: butt; stroke-linejoin: miter; stroke-miterlimit: 10;fill:#009999;fill-opacity:1; fill-rule: nonzero; opacity: 1" transform="  matrix(1 0 0 1 462 143) "/><circle cx="0" cy="0" r="3" style="stroke:#FFAA00;stroke-opacity:1; stroke-opacity: 0; stroke-width: 2; stroke-dasharray: none; stroke-linecap: butt; stroke-linejoin: miter; stroke-miterlimit: 10;fill:#FFAA00;fill-opacity:1; fill-rule: nonzero; opacity: 1" transform="  matrix(1 0 0 1 553 280) "/><circle cx="0" cy="0" r="3" style="stroke:#FFAA00;stroke-opacity:1; stroke-opacity: 0; stroke-width: 2; stroke-dasharray: none; stroke-linecap: butt; stroke-linejoin: miter; stroke-miterlimit: 10;fill:#FFAA00;fill-opacity:1; fill-rule: nonzero; opacity: 1" transform="  matrix(1 0 0 1 643 360) "/><circle cx="0" cy="0" r="3" style="stroke:#009999;stroke-opacity:1; stroke-opacity: 0; stroke-width: 2; stroke-dasharray: none; stroke-linecap: butt; stroke-linejoin: miter; stroke-miterlimit: 10;fill:#009999;fill-opacity:1; fill-rule: nonzero; opacity: 1" transform="  matrix(1 0 0 1 733 86) "/><circle cx="0" cy="0" r="3" style="stroke:#009999;stroke-opacity:1; stroke-opacity: 0; stroke-width: 2; stroke-dasharray: none; stroke-linecap: butt; stroke-linejoin: miter; stroke-miterlimit: 10;fill:#009999;fill-opacity:1; fill-rule: nonzero; opacity: 1" transform="  matrix(1 0 0 1 824 51) "/><circle cx="0" cy="0" r="3" style="stroke:#FFAA00;stroke-opacity:1; stroke-opacity: 0; stroke-width: 2; stroke-dasharray: none; stroke-linecap: butt; stroke-linejoin: miter; stroke-miterlimit: 10;fill:#FFAA00;fill-opacity:1; fill-rule: nonzero; opacity: 1" transform="  matrix(1 0 0 1 914 269) "/><g transform=" matrix(1 0 0 1 101.15000005225696 452.5) "><text xml:space="preserve" font-family="Verdana" font-size="11" font-weight="normal" style="stroke: none; stroke-width: 1; stroke-dasharray: none; stroke-linecap: butt; stroke-linejoin: miter; stroke-miterlimit: 10;fill:#000000;fill-opacity:1; fill-rule: nonzero; opacity: 1; white-space: pre" ><tspan x="-18.39" y="7.48" fill="rgba(0,0,0,1)">Jun 07</tspan></text></g><g transform=" matrix(1 0 0 1 191.15000005225696 452.5) "><text xml:space="preserve" font-family="Verdana" font-size="11" font-weight="normal" style="stroke: none; stroke-width: 1; stroke-dasharray: none; stroke-linecap: butt; stroke-linejoin: miter; stroke-miterlimit: 10;fill:#000000;fill-opacity:1; fill-rule: nonzero; opacity: 1; white-space: pre" ><tspan x="-18.39" y="7.48" fill="rgba(0,0,0,1)">Jun 08</tspan></text></g><g transform=" matrix(1 0 0 1 282.1500000522569 452.5) "><text xml:space="preserve" font-family="Verdana" font-size="11" font-weight="normal" style="stroke: none; stroke-width: 1; stroke-dasharray: none; stroke-linecap: butt; stroke-linejoin: miter; stroke-miterlimit: 10;fill:#000000;fill-opacity:1; fill-rule: nonzero; opacity: 1; white-space: pre" ><tspan x="-18.39" y="7.48" fill="rgba(0,0,0,1)">Jun 09</tspan></text></g><g transform=" matrix(1 0 0 1 372.1500000522569 452.5) "><text xml:space="preserve" font-family="Verdana" font-size="11" font-weight="normal" style="stroke: none; stroke-width: 1; stroke-dasharray: none; stroke-linecap: butt; stroke-linejoin: miter; stroke-miterlimit: 10;fill:#000000;fill-opacity:1; fill-rule: nonzero; opacity: 1; white-space: pre" ><tspan x="-18.39" y="7.48" fill="rgba(0,0,0,1)">Jun 10</tspan></text></g><g transform=" matrix(1 0 0 1 462.1500000522569 452.5) "><text xml:space="preserve" font-family="Verdana" font-size="11" font-weight="normal" style="stroke: none; stroke-width: 1; stroke-dasharray: none; stroke-linecap: butt; stroke-linejoin: miter; stroke-miterlimit: 10;fill:#000000;fill-opacity:1; fill-rule: nonzero; opacity: 1; white-space: pre" ><tspan x="-18.39" y="7.48" fill="rgba(0,0,0,1)">Jun 11</tspan></text></g><g transform=" matrix(1 0 0 1 553.1500000522569 452.5) "><text xml:space="preserve" font-family="Verdana" font-size="11" font-weight="normal" style="stroke: none; stroke-width: 1; stroke-dasharray: none; stroke-linecap: butt; stroke-linejoin: miter; stroke-miterlimit: 10;fill:#000000;fill-opacity:1; fill-rule: nonzero; opacity: 1; white-space: pre" ><tspan x="-18.39" y="7.48" fill="rgba(0,0,0,1)">Jun 12</tspan></text></g><g transform=" matrix(1 0 0 1 643.1500000522569 452.5) "><text xml:space="preserve" font-family="Verdana" font-size="11" font-weight="normal" style="stroke: none; stroke-width: 1; stroke-dasharray: none; stroke-linecap: butt; stroke-linejoin: miter; stroke-miterlimit: 10;fill:#000000;fill-opacity:1; fill-rule: nonzero; opacity: 1; white-space: pre" ><tspan x="-18.39" y="7.48" fill="rgba(0,0,0,1)">Jun 13</tspan></text></g><g transform=" matrix(1 0 0 1 733.1500000522569 452.5) "><text xml:space="preserve" font-family="Verdana" font-size="11" font-weight="normal" style="stroke: none; stroke-width: 1; stroke-dasharray: none; stroke-linecap: butt; stroke-linejoin: miter; stroke-miterlimit: 10;fill:#000000;fill-opacity:1; fill-rule: nonzero; opacity: 1; white-space: pre" ><tspan x="-18.39" y="7.48" fill="rgba(0,0,0,1)">Jun 14</tspan></text></g><g transform=" matrix(1 0 0 1 823.1500000522569 452.5) "><text xml:space="preserve" font-family="Verdana" font-size="11" font-weight="normal" style="stroke: none; stroke-width: 1; stroke-dasharray: none; stroke-linecap: butt; stroke-linejoin: miter; stroke-miterlimit: 10;fill:#000000;fill-opacity:1; fill-rule: nonzero; opacity: 1; white-space: pre" ><tspan x="-18.39" y="7.48" fill="rgba(0,0,0,1)">Jun 15</tspan></text></g><g transform=" matrix(1 0 0 1 914.1500000522569 452.5) "><text xml:space="preserve" font-family="Verdana" font-size="11" font-weight="normal" style="stroke: none; stroke-width: 1; stroke-dasharray: none; stroke-linecap: butt; stroke-linejoin: miter; stroke-miterlimit: 10;fill:#000000;fill-opacity:1; fill-rule: nonzero; opacity: 1; white-space: pre" ><tspan x="-18.39" y="7.48" fill="rgba(0,0,0,1)">Jun 16</tspan></text></g><g transform=" matrix(1 0 0 1 44 439) "><text xml:space="preserve" font-family="Verdana" font-size="11" font-weight="normal" style="stroke: none; stroke-width: 1; stroke-dasharray: none; stroke-linecap: butt; stroke-linejoin: miter; stroke-miterlimit: 10;fill:#000000;fill-opacity:1; fill-rule: nonzero; opacity: 1; white-space: pre" ><tspan x="-19.48" y="7.48" fill="rgba(0,0,0,1)">-20</tspan></text></g><g transform=" matrix(1 0 0 1 44 382) "><text xml:space="preserve" font-family="Verdana" font-size="11" font-weight="normal" style="stroke: none; stroke-width: 1; stroke-dasharray: none; stroke-linecap: butt; stroke-linejoin: miter; stroke-miterlimit: 10;fill:#000000;fill-opacity:1; fill-rule: nonzero; opacity: 1; white-space: pre" ><tspan x="-19.48" y="7.48" fill="rgba(0,0,0,1)">-15</tspan></text></g><g transform=" matrix(1 0 0 1 44 325) "><text xml:space="preserve" font-family="Verdana" font-size="11" font-weight="normal" style="stroke: none; stroke-width: 1; stroke-dasharray: none; stroke-linecap: butt; stroke-linejoin: miter; stroke-miterlimit: 10;fill:#000000;fill-opacity:1; fill-rule: nonzero; opacity: 1; white-space: pre" ><tspan x="-19.48" y="7.48" fill="rgba(0,0,0,1)">-10</tspan></text></g><g transform=" matrix(1 0 0 1 44 268) "><text xml:space="preserve" font-family="Verdana" font-size="11" font-weight="normal" style="stroke: none; stroke-width: 1; stroke-dasharray: none; stroke-linecap: butt; stroke-linejoin: miter; stroke-miterlimit: 10;fill:#000000;fill-opacity:1; fill-rule: nonzero; opacity: 1; white-space: pre" ><tspan x="-12.49" y="7.48" fill="rgba(0,0,0,1)">-5</tspan></text></g><g transform=" matrix(1 0 0 1 44 210) "><text xml:space="preserve" font-family="Verdana" font-size="11" font-weight="normal" style="stroke: none; stroke-width: 1; stroke-dasharray: none; stroke-linecap: butt; stroke-linejoin: miter; stroke-miterlimit: 10;fill:#000000;fill-opacity:1; fill-rule: nonzero; opacity: 1; white-space: pre" ><tspan x="-7.49" y="7.48" fill="rgba(0,0,0,1)">0</tspan></text></g><g transform=" matrix(1 0 0 1 44 153) "><text xml:space="preserve" font-family="Verdana" font-size="11" font-weight="normal" style="stroke: none; stroke-width: 1; stroke-dasharray: none; stroke-linecap: butt; stroke-linejoin: miter; stroke-miterlimit: 10;fill:#000000;fill-opacity:1; fill-rule: nonzero; opacity: 1; white-space: pre" ><tspan x="-7.49" y="7.48" fill="rgba(0,0,0,1)">5</tspan></text></g><g transform=" matrix(1 0 0 1 44 96) "><text xml:space="preserve" font-family="Verdana" font-size="11" font-weight="normal" style="stroke: none; stroke-width: 1; stroke-dasharray: none; stroke-linecap: butt; stroke-linejoin: miter; stroke-miterlimit: 10;fill:#000000;fill-opacity:1; fill-rule: nonzero; opacity: 1; white-space: pre" ><tspan x="-14.49" y="7.48" fill="rgba(0,0,0,1)">10</tspan></text></g><g transform=" matrix(1 0 0 1 44 39) "><text xml:space="preserve" font-family="Verdana" font-size="11" font-weight="normal" style="stroke: none; stroke-width: 1; stroke-dasharray: none; stroke-linecap: butt; stroke-linejoin: miter; stroke-miterlimit: 10;fill:#000000;fill-opacity:1; fill-rule: nonzero; opacity: 1; white-space: pre" ><tspan x="-14.49" y="7.48" fill="rgba(0,0,0,1)">15</tspan></text></g></g><clipPath xmlns="http://www.w3.org/2000/svg" id="AmChartsEl-187"><rect x="-1" y="-1" width="905" height="402" rx="0" ry="0" stroke-width="0" fill="none" fill-opacity="0"/></clipPath><clipPath xmlns="http://www.w3.org/2000/svg" id="AmChartsEl-190"><rect x="0" y="172" width="903" height="229" rx="0" ry="0" stroke-width="0" fill="none" fill-opacity="0"/></clipPath><clipPath xmlns="http://www.w3.org/2000/svg" id="AmChartsEl-189"><rect x="0" y="0" width="903" height="172" rx="0" ry="0" stroke-width="0" fill="none" fill-opacity="0"/></clipPath><clipPath xmlns="http://www.w3.org/2000/svg" id="AmChartsEl-192"><rect x="0" y="172" width="903" height="229" rx="0" ry="0" stroke-width="0" fill="none" fill-opacity="0"/></clipPath><clipPath xmlns="http://www.w3.org/2000/svg" id="AmChartsEl-191"><rect x="0" y="0" width="903" height="172" rx="0" ry="0" stroke-width="0" fill="none" fill-opacity="0"/></clipPath><clipPath xmlns="http://www.w3.org/2000/svg" id="AmChartsEl-188"><rect x="0" y="0" width="903" height="400" rx="0" ry="0" stroke-width="0" fill="none" fill-opacity="0"/></clipPath></svg>