<?xml version="1.0" encoding="UTF-8" standalone="no" ?><!DOCTYPE svg PUBLIC "-//W3C//DTD SVG 1.1//EN" "http://www.w3.org/Graphics/SVG/1.1/DTD/svg11.dtd"><svg xmlns="http://www.w3.org/2000/svg" xmlns:xlink="http://www.w3.org/1999/xlink" version="1.1" width="861" height="414" style="background-color: #FFFFFF" viewBox="0 0 861 414" xml:space="preserve"><desc>Created with Fabric.js 1.6.2</desc><defs></defs><g style="stroke: none; stroke-width: 1; stroke-dasharray: none; stroke-linecap: butt; stroke-linejoin: miter; stroke-miterlimit: 10; fill: none; fill-rule: nonzero; opacity: 1" transform="translate(0.5 0.5)" ><path d="M 0.5 0.5 L 860.5 0.5 L 860.5 413.5 L 0.5 413.5 Z" style="stroke:#000000;stroke-opacity:1; stroke-opacity: 0; stroke-width: 1; stroke-dasharray: none; stroke-linecap: butt; stroke-linejoin: miter; stroke-miterlimit: 10;fill:#FFFFFF;fill-opacity:1; fill-opacity: 0; fill-rule: nonzero; opacity: 1" transform="" stroke-linecap="round" /><path d="M 0.5 0.5 L 720.5 0.5 L 720.5 263.5 L 0.5 263.5 L 0.5 0.5 Z" style="stroke:#000000;stroke-opacity:1; stroke-opacity: 0; stroke-width: 1; stroke-dasharray: none; stroke-linecap: butt; stroke-linejoin: miter; stroke-miterlimit: 10;fill:#FFFFFF;fill-opacity:1; fill-opacity: 0; fill-rule: nonzero; opacity: 1" transform=" matrix(1 0 0 1 100 20) " stroke-linecap="round" /><path d="M 19.5 0.5 L 19.5 5.5" style="stroke:#000000;stroke-opacity:1; stroke-opacity: 0.3; stroke-width: 1; stroke-dasharray: none; stroke-linecap: butt; stroke-linejoin: miter; stroke-miterlimit: 10; fill: none; fill-rule: nonzero; opacity: 1" transform=" matrix(1 0 0 1 100 283) " stroke-linecap="round" /><path d="M 19.5 263.5 L 19.5 263.5 L 19.5 0.5" style="stroke:#000000;stroke-opacity:1; stroke-opacity: 0.1; stroke-width: 1; stroke-dasharray: 1 1; stroke-linecap: butt; stroke-linejoin: miter; stroke-miterlimit: 10; fill: none; fill-rule: nonzero; opacity: 1" transform=" matrix(1 0 0 1 100 20) " stroke-linecap="round" /><path d="M 138.5 0.5 L 138.5 5.5" style="stroke:#000000;stroke-opacity:1; stroke-opacity: 0.3; stroke-width: 1; stroke-dasharray: none; stroke-linecap: butt; stroke-linejoin: miter; stroke-miterlimit: 10; fill: none; fill-rule: nonzero; opacity: 1" transform=" matrix(1 0 0 1 100 283) " stroke-linecap="round" /><path d="M 138.5 263.5 L 138.5 263.5 L 138.5 0.5" style="stroke:#000000;stroke-opacity:1; stroke-opacity: 0.1; stroke-width: 1; stroke-dasharray: 1 1; stroke-linecap: butt; stroke-linejoin: miter; stroke-miterlimit: 10; fill: none; fill-rule: nonzero; opacity: 1" transform=" matrix(1 0 0 1 100 20) " stroke-linecap="round" /><path d="M 253.5 0.5 L 253.5 5.5" style="stroke:#000000;stroke-opacity:1; stroke-opacity: 0.3; stroke-width: 1; stroke-dasharray: none; stroke-linecap: butt; stroke-linejoin: miter; stroke-miterlimit: 10; fill: none; fill-rule: nonzero; opacity: 1" transform=" matrix(1 0 0 1 100 283) " stroke-linecap="round" /><path d="M 253.5 263.5 L 253.5 263.5 L 253.5 0.5" style="stroke:#000000;stroke-opacity:1; stroke-opacity: 0.1; stroke-width: 1; stroke-dasharray: 1 1; stroke-linecap: butt; stroke-linejoin: miter; stroke-miterlimit: 10; fill: none; fill-rule: nonzero; opacity: 1" transform=" matrix(1 0 0 1 100 20) " stroke-linecap="round" /><path d="M 371.5 0.5 L 371.5 5.5" style="stroke:#000000;stroke-opacity:1; stroke-opacity: 0.3; stroke-width: 1; stroke-dasharray: none; stroke-linecap: butt; stroke-linejoin: miter; stroke-miterlimit: 10; fill: none; fill-rule: nonzero; opacity: 1" transform=" matrix(1 0 0 1 100 283) " stroke-linecap="round" /><path d="M 371.5 263.5 L 371.5 263.5 L 371.5 0.5" style="stroke:#000000;stroke-opacity:1; stroke-opacity: 0.1; stroke-width: 1; stroke-dasharray: 1 1; stroke-linecap: butt; stroke-linejoin: miter; stroke-miterlimit: 10; fill: none; fill-rule: nonzero; opacity: 1" transform=" matrix(1 0 0 1 100 20) " stroke-linecap="round" /><path d="M 486.5 0.5 L 486.5 5.5" style="stroke:#000000;stroke-opacity:1; stroke-opacity: 0.3; stroke-width: 1; stroke-dasharray: none; stroke-linecap: butt; stroke-linejoin: miter; stroke-miterlimit: 10; fill: none; fill-rule: nonzero; opacity: 1" transform=" matrix(1 0 0 1 100 283) " stroke-linecap="round" /><path d="M 486.5 263.5 L 486.5 263.5 L 486.5 0.5" style="stroke:#000000;stroke-opacity:1; stroke-opacity: 0.1; stroke-width: 1; stroke-dasharray: 1 1; stroke-linecap: butt; stroke-linejoin: miter; stroke-miterlimit: 10; fill: none; fill-rule: nonzero; opacity: 1" transform=" matrix(1 0 0 1 100 20) " stroke-linecap="round" /><path d="M 605.5 0.5 L 605.5 5.5" style="stroke:#000000;stroke-opacity:1; stroke-opacity: 0.3; stroke-width: 1; stroke-dasharray: none; stroke-linecap: butt; stroke-linejoin: miter; stroke-miterlimit: 10; fill: none; fill-rule: nonzero; opacity: 1" transform=" matrix(1 0 0 1 100 283) " stroke-linecap="round" /><path d="M 605.5 263.5 L 605.5 263.5 L 605.5 0.5" style="stroke:#000000;stroke-opacity:1; stroke-opacity: 0.1; stroke-width: 1; stroke-dasharray: 1 1; stroke-linecap: butt; stroke-linejoin: miter; stroke-miterlimit: 10; fill: none; fill-rule: nonzero; opacity: 1" transform=" matrix(1 0 0 1 100 20) " stroke-linecap="round" /><path d="M 0.5 263.5 L 0.5 263.5 L 720.5 263.5" style="stroke:#000000;stroke-opacity:1; stroke-opacity: 0.1; stroke-width: 1; stroke-dasharray: none; stroke-linecap: butt; stroke-linejoin: miter; stroke-miterlimit: 10; fill: none; fill-rule: nonzero; opacity: 1" transform=" matrix(1 0 0 1 100 20) " stroke-linecap="round" /><path d="M 0.5 210.5 L 0.5 210.5 L 720.5 210.5" style="stroke:#000000;stroke-opacity:1; stroke-opacity: 0.1; stroke-width: 1; stroke-dasharray: none; stroke-linecap: butt; stroke-linejoin: miter; stroke-miterlimit: 10; fill: none; fill-rule: nonzero; opacity: 1" transform=" matrix(1 0 0 1 100 20) " stroke-linecap="round" /><path d="M 0.5 158.5 L 0.5 158.5 L 720.5 158.5" style="stroke:#000000;stroke-opacity:1; stroke-opacity: 0.1; stroke-width: 1; stroke-dasharray: none; stroke-linecap: butt; stroke-linejoin: miter; stroke-miterlimit: 10; fill: none; fill-rule: nonzero; opacity: 1" transform=" matrix(1 0 0 1 100 20) " stroke-linecap="round" /><path d="M 0.5 105.5 L 0.5 105.5 L 720.5 105.5" style="stroke:#000000;stroke-opacity:1; stroke-opacity: 0.1; stroke-width: 1; stroke-dasharray: none; stroke-linecap: butt; stroke-linejoin: miter; stroke-miterlimit: 10; fill: none; fill-rule: nonzero; opacity: 1" transform=" matrix(1 0 0 1 100 20) " stroke-linecap="round" /><path d="M 0.5 53.5 L 0.5 53.5 L 720.5 53.5" style="stroke:#000000;stroke-opacity:1; stroke-opacity: 0.1; stroke-width: 1; stroke-dasharray: none; stroke-linecap: butt; stroke-linejoin: miter; stroke-miterlimit: 10; fill: none; fill-rule: nonzero; opacity: 1" transform=" matrix(1 0 0 1 100 20) " stroke-linecap="round" /><path d="M 0.5 0.5 L 0.5 0.5 L 720.5 0.5" style="stroke:#000000;stroke-opacity:1; stroke-opacity: 0.1; stroke-width: 1; stroke-dasharray: none; stroke-linecap: butt; stroke-linejoin: miter; stroke-miterlimit: 10; fill: none; fill-rule: nonzero; opacity: 1" transform=" matrix(1 0 0 1 100 20) " stroke-linecap="round" /><path d="M 2.5 229.31 L 6.5 234.57 L 10.5 224.05 L 13.5 221.42 L 17.5 216.16 L 21.5 229.31 L 25.5 205.64 L 29.5 203.01 L 33.5 210.9 L 36.5 218.79 L 40.5 221.42 L 44.5 216.16 L 48.5 208.27 L 52.5 195.12 L 56.5 200.38 L 59.5 187.23 L 63.5 179.34 L 67.5 216.16 L 71.5 200.38 L 75.5 205.64 L 79.5 216.16 L 82.5 213.53 L 86.5 226.68 L 90.5 224.05 L 94.5 231.94 L 98.5 242.46 L 101.5 239.83 L 105.5 242.46 L 109.5 245.09 L 113.5 250.35 L 117.5 234.57 L 121.5 229.31 L 124.5 216.16 L 128.5 210.9 L 132.5 187.23 L 136.5 176.71 L 140.5 153.04 L 144.5 171.45 L 147.5 181.97 L 151.5 139.89 L 155.5 126.74 L 159.5 142.52 L 163.5 155.67 L 167.5 150.41 L 170.5 158.3 L 174.5 160.93 L 178.5 174.08 L 182.5 187.23 L 186.5 174.08 L 190.5 166.19 L 193.5 153.04 L 197.5 134.63 L 201.5 142.52 L 205.5 139.89 L 209.5 118.85 L 213.5 108.33 L 216.5 110.96 L 220.5 113.59 L 224.5 103.07 L 228.5 108.33 L 232.5 87.29 L 236.5 92.55 L 239.5 103.07 L 243.5 89.92 L 247.5 82.03 L 251.5 76.77 L 255.5 87.29 L 259.5 97.81 L 262.5 142.52 L 266.5 179.34 L 270.5 208.27 L 274.5 216.16 L 278.5 208.27 L 281.5 189.86 L 285.5 192.49 L 289.5 168.82 L 293.5 176.71 L 297.5 181.97 L 301.5 184.6 L 304.5 174.08 L 308.5 163.56 L 312.5 166.19 L 316.5 147.78 L 320.5 134.63 L 324.5 124.11 L 327.5 113.59 L 331.5 105.7 L 335.5 103.07 L 339.5 82.03 L 343.5 87.29 L 347.5 74.14 L 350.5 60.99 L 354.5 66.25 L 358.5 79.4 L 362.5 74.14 L 366.5 79.4 L 370.5 74.14 L 373.5 71.51 L 377.5 87.29 L 381.5 84.66 L 385.5 92.55 L 389.5 76.77 L 393.5 66.25 L 396.5 68.88 L 400.5 76.77 L 404.5 63.62 L 408.5 60.99 L 412.5 50.47 L 416.5 45.21 L 419.5 53.1 L 423.5 50.47 L 427.5 34.69 L 431.5 47.84 L 435.5 37.32 L 439.5 53.1 L 442.5 34.69 L 446.5 45.21 L 450.5 39.95 L 454.5 42.58 L 458.5 47.84 L 461.5 71.51 L 465.5 76.77 L 469.5 66.25 L 473.5 55.73 L 477.5 79.4 L 481.5 71.51 L 484.5 103.07 L 488.5 100.44 L 492.5 89.92 L 496.5 92.55 L 500.5 71.51 L 504.5 55.73 L 507.5 58.36 L 511.5 58.36 L 515.5 58.36 L 519.5 68.88 L 523.5 71.51 L 527.5 66.25 L 530.5 79.4 L 534.5 60.99 L 538.5 87.29 L 542.5 100.44 L 546.5 95.18 L 550.5 103.07 L 553.5 108.33 L 557.5 124.11 L 561.5 121.48 L 565.5 116.22 L 569.5 108.33 L 573.5 110.96 L 576.5 118.85 L 580.5 126.74 L 584.5 121.48 L 588.5 132 L 592.5 132 L 596.5 129.37 L 599.5 126.74 L 603.5 110.96 L 607.5 105.7 L 611.5 87.29 L 615.5 95.18 L 619.5 89.92 L 622.5 105.7 L 626.5 97.81 L 630.5 103.07 L 634.5 105.7 L 638.5 92.55 L 641.5 66.25 L 645.5 60.99 L 649.5 58.36 L 653.5 79.4 L 657.5 79.4 L 661.5 71.51 L 664.5 76.77 L 668.5 68.88 L 672.5 58.36 L 676.5 39.95 L 680.5 47.84 L 684.5 45.21 L 687.5 32.06 L 691.5 39.95 L 695.5 39.95 L 699.5 53.1 L 703.5 34.69 L 707.5 42.58 L 710.5 45.21 L 714.5 42.58 L 718.5 50.47 M 0 0 L 0 0" style="stroke:#67B7DC;stroke-opacity:1; stroke-opacity: 0.9; stroke-width: 2; stroke-dasharray: none; stroke-linecap: butt; stroke-linejoin: round; stroke-miterlimit: 10; fill: none; fill-rule: nonzero; opacity: 1" transform=" matrix(1 0 0 1 100 20) " stroke-linecap="round"  clip-path="url(#AmChartsEl-653)" /><rect x="0" y="0" rx="0" ry="0" width="720" height="263" style="stroke: none; stroke-width: 0; stroke-dasharray: none; stroke-linecap: butt; stroke-linejoin: miter; stroke-miterlimit: 10; fill: none; fill-rule: nonzero; opacity: 1" transform=""/><path d="M 0.5 263.5 L 720.5 263.5 L 720.5 263.5" style="stroke:#000000;stroke-opacity:1; stroke-opacity: 0.2; stroke-width: 1; stroke-dasharray: none; stroke-linecap: butt; stroke-linejoin: miter; stroke-miterlimit: 10; fill: none; fill-rule: nonzero; opacity: 1" transform=" matrix(1 0 0 1 100 20) " stroke-linecap="round" /><path d="M 0.5 80.5 L 721.5 80.5 L 721.5 80.5" style="stroke:#000000;stroke-opacity:1; stroke-opacity: 0; stroke-width: 1; stroke-dasharray: none; stroke-linecap: butt; stroke-linejoin: miter; stroke-miterlimit: 10; fill: none; fill-rule: nonzero; opacity: 1" transform=" matrix(1 0 0 1 100 0) " stroke-linecap="round" /><path d="M 0.5 0.5 L 720.5 0.5" style="stroke:#000000;stroke-opacity:1; stroke-opacity: 0; stroke-width: 1; stroke-dasharray: none; stroke-linecap: butt; stroke-linejoin: miter; stroke-miterlimit: 10; fill: none; fill-rule: nonzero; opacity: 1" transform=" matrix(1 0 0 1 0 80) " stroke-linecap="round" /><path d="M 0.5 0.5 L 0.5 80.5" style="stroke:#000000;stroke-opacity:1; stroke-opacity: 0; stroke-width: 1; stroke-dasharray: none; stroke-linecap: butt; stroke-linejoin: miter; stroke-miterlimit: 10; fill: none; fill-rule: nonzero; opacity: 0" transform=" matrix(1 0 0 1 100 0) " stroke-linecap="round" /><path d="M 0.5 0.5 L 0.5 264.5" style="stroke:#000000;stroke-opacity:1; stroke-opacity: 0; stroke-width: 1; stroke-dasharray: none; stroke-linecap: butt; stroke-linejoin: miter; stroke-miterlimit: 10; fill: none; fill-rule: nonzero; opacity: 1" transform=" matrix(1 0 0 1 0 0) " stroke-linecap="round" /><path d="M 0.5 0.5 L 720.5 0.5" style="stroke:#000000;stroke-opacity:1; stroke-opacity: 0.3; stroke-width: 1; stroke-dasharray: none; stroke-linecap: butt; stroke-linejoin: miter; stroke-miterlimit: 10; fill: none; fill-rule: nonzero; opacity: 1" transform=" matrix(1 0 0 1 100 283) " stroke-linecap="round" /><path d="M 0.5 0.5 L 0.5 263.5" style="stroke:#000000;stroke-opacity:1; stroke-opacity: 0; stroke-width: 1; stroke-dasharray: none; stroke-linecap: butt; stroke-linejoin: miter; stroke-miterlimit: 10; fill: none; fill-rule: nonzero; opacity: 1" transform=" matrix(1 0 0 1 100 20) " stroke-linecap="round" /><path d="M 0.5 0.5 L 0.5 0.5 L 0.5 263.5" style="stroke:#258CBB;stroke-opacity:1; stroke-opacity: 0; stroke-width: 1; stroke-dasharray: none; stroke-linecap: butt; stroke-linejoin: miter; stroke-miterlimit: 10; fill: none; fill-rule: nonzero; opacity: 0" transform=" matrix(1 0 0 1 772 78) " stroke-linecap="round"  clip-path="url(#AmChartsEl-651)" /><path d="M 0.5 0.5 L 720.5 0.5 L 720.5 0.5" style="stroke:#258CBB;stroke-opacity:1; stroke-opacity: 0; stroke-width: 1; stroke-dasharray: none; stroke-linecap: butt; stroke-linejoin: miter; stroke-miterlimit: 10; fill: none; fill-rule: nonzero; opacity: 0" transform=" matrix(1 0 0 1 100 167) " stroke-linecap="round" /><rect x="0" y="0" rx="0" ry="0" width="720" height="263" style="stroke: none; stroke-width: 0; stroke-dasharray: none; stroke-linecap: butt; stroke-linejoin: miter; stroke-miterlimit: 10; fill: none; fill-rule: nonzero; opacity: 1" transform=""/><rect x="0.5" y="0.5" rx="0" ry="0" width="721" height="80" style="stroke:#000000;stroke-opacity:1; stroke-opacity: 0; stroke-width: 1; stroke-dasharray: none; stroke-linecap: butt; stroke-linejoin: miter; stroke-miterlimit: 10;fill:#000000;fill-opacity:1; fill-opacity: 0; fill-rule: nonzero; opacity: 1" transform=" matrix(1 0 0 1 100 314) "/><rect x="0.5" y="0.5" rx="0" ry="0" width="720" height="81" style="stroke:#888888;stroke-opacity:1; stroke-opacity: 0.1; stroke-width: 0; stroke-dasharray: none; stroke-linecap: butt; stroke-linejoin: miter; stroke-miterlimit: 10;fill:#888888;fill-opacity:1; fill-opacity: 0.1; fill-rule: nonzero; opacity: 1" transform=" matrix(1 0 0 1 100 314) "/><path d="M 2.5 70.1 L 6.5 71.7 L 10.5 68.5 L 13.5 67.7 L 17.5 66.1 L 21.5 70.1 L 25.5 62.9 L 29.5 62.1 L 33.5 64.5 L 36.5 66.9 L 40.5 67.7 L 44.5 66.1 L 48.5 63.7 L 52.5 59.7 L 56.5 61.3 L 59.5 57.3 L 63.5 54.9 L 67.5 66.1 L 71.5 61.3 L 75.5 62.9 L 79.5 66.1 L 82.5 65.3 L 86.5 69.3 L 90.5 68.5 L 94.5 70.9 L 98.5 74.1 L 101.5 73.3 L 105.5 74.1 L 109.5 74.9 L 113.5 76.5 L 117.5 71.7 L 121.5 70.1 L 124.5 66.1 L 128.5 64.5 L 132.5 57.3 L 136.5 54.1 L 140.5 46.9 L 144.5 52.5 L 147.5 55.7 L 151.5 42.9 L 155.5 38.9 L 159.5 43.7 L 163.5 47.7 L 167.5 46.1 L 170.5 48.5 L 174.5 49.3 L 178.5 53.3 L 182.5 57.3 L 186.5 53.3 L 190.5 50.9 L 193.5 46.9 L 197.5 41.3 L 201.5 43.7 L 205.5 42.9 L 209.5 36.5 L 213.5 33.3 L 216.5 34.1 L 220.5 34.9 L 224.5 31.7 L 228.5 33.3 L 232.5 26.9 L 236.5 28.5 L 239.5 31.7 L 243.5 27.7 L 247.5 25.3 L 251.5 23.7 L 255.5 26.9 L 259.5 30.1 L 262.5 43.7 L 266.5 54.9 L 270.5 63.7 L 274.5 66.1 L 278.5 63.7 L 281.5 58.1 L 285.5 58.9 L 289.5 51.7 L 293.5 54.1 L 297.5 55.7 L 301.5 56.5 L 304.5 53.3 L 308.5 50.1 L 312.5 50.9 L 316.5 45.3 L 320.5 41.3 L 324.5 38.1 L 327.5 34.9 L 331.5 32.5 L 335.5 31.7 L 339.5 25.3 L 343.5 26.9 L 347.5 22.9 L 350.5 18.9 L 354.5 20.5 L 358.5 24.5 L 362.5 22.9 L 366.5 24.5 L 370.5 22.9 L 373.5 22.1 L 377.5 26.9 L 381.5 26.1 L 385.5 28.5 L 389.5 23.7 L 393.5 20.5 L 396.5 21.3 L 400.5 23.7 L 404.5 19.7 L 408.5 18.9 L 412.5 15.7 L 416.5 14.1 L 419.5 16.5 L 423.5 15.7 L 427.5 10.9 L 431.5 14.9 L 435.5 11.7 L 439.5 16.5 L 442.5 10.9 L 446.5 14.1 L 450.5 12.5 L 454.5 13.3 L 458.5 14.9 L 461.5 22.1 L 465.5 23.7 L 469.5 20.5 L 473.5 17.3 L 477.5 24.5 L 481.5 22.1 L 484.5 31.7 L 488.5 30.9 L 492.5 27.7 L 496.5 28.5 L 500.5 22.1 L 504.5 17.3 L 507.5 18.1 L 511.5 18.1 L 515.5 18.1 L 519.5 21.3 L 523.5 22.1 L 527.5 20.5 L 530.5 24.5 L 534.5 18.9 L 538.5 26.9 L 542.5 30.9 L 546.5 29.3 L 550.5 31.7 L 553.5 33.3 L 557.5 38.1 L 561.5 37.3 L 565.5 35.7 L 569.5 33.3 L 573.5 34.1 L 576.5 36.5 L 580.5 38.9 L 584.5 37.3 L 588.5 40.5 L 592.5 40.5 L 596.5 39.7 L 599.5 38.9 L 603.5 34.1 L 607.5 32.5 L 611.5 26.9 L 615.5 29.3 L 619.5 27.7 L 622.5 32.5 L 626.5 30.1 L 630.5 31.7 L 634.5 32.5 L 638.5 28.5 L 641.5 20.5 L 645.5 18.9 L 649.5 18.1 L 653.5 24.5 L 657.5 24.5 L 661.5 22.1 L 664.5 23.7 L 668.5 21.3 L 672.5 18.1 L 676.5 12.5 L 680.5 14.9 L 684.5 14.1 L 687.5 10.1 L 691.5 12.5 L 695.5 12.5 L 699.5 16.5 L 703.5 10.9 L 707.5 13.3 L 710.5 14.1 L 714.5 13.3 L 718.5 15.7 M 0 0 L 0 0" style="stroke:#BBBBBB;stroke-opacity:1; stroke-opacity: 0.5; stroke-width: 1; stroke-dasharray: none; stroke-linecap: butt; stroke-linejoin: round; stroke-miterlimit: 10; fill: none; fill-rule: nonzero; opacity: 1" transform=" matrix(1 0 0 1 100 314) " stroke-linecap="round" /><path d="M 2.5 70.1 L 6.5 71.7 L 10.5 68.5 L 13.5 67.7 L 17.5 66.1 L 21.5 70.1 L 25.5 62.9 L 29.5 62.1 L 33.5 64.5 L 36.5 66.9 L 40.5 67.7 L 44.5 66.1 L 48.5 63.7 L 52.5 59.7 L 56.5 61.3 L 59.5 57.3 L 63.5 54.9 L 67.5 66.1 L 71.5 61.3 L 75.5 62.9 L 79.5 66.1 L 82.5 65.3 L 86.5 69.3 L 90.5 68.5 L 94.5 70.9 L 98.5 74.1 L 101.5 73.3 L 105.5 74.1 L 109.5 74.9 L 113.5 76.5 L 117.5 71.7 L 121.5 70.1 L 124.5 66.1 L 128.5 64.5 L 132.5 57.3 L 136.5 54.1 L 140.5 46.9 L 144.5 52.5 L 147.5 55.7 L 151.5 42.9 L 155.5 38.9 L 159.5 43.7 L 163.5 47.7 L 167.5 46.1 L 170.5 48.5 L 174.5 49.3 L 178.5 53.3 L 182.5 57.3 L 186.5 53.3 L 190.5 50.9 L 193.5 46.9 L 197.5 41.3 L 201.5 43.7 L 205.5 42.9 L 209.5 36.5 L 213.5 33.3 L 216.5 34.1 L 220.5 34.9 L 224.5 31.7 L 228.5 33.3 L 232.5 26.9 L 236.5 28.5 L 239.5 31.7 L 243.5 27.7 L 247.5 25.3 L 251.5 23.7 L 255.5 26.9 L 259.5 30.1 L 262.5 43.7 L 266.5 54.9 L 270.5 63.7 L 274.5 66.1 L 278.5 63.7 L 281.5 58.1 L 285.5 58.9 L 289.5 51.7 L 293.5 54.1 L 297.5 55.7 L 301.5 56.5 L 304.5 53.3 L 308.5 50.1 L 312.5 50.9 L 316.5 45.3 L 320.5 41.3 L 324.5 38.1 L 327.5 34.9 L 331.5 32.5 L 335.5 31.7 L 339.5 25.3 L 343.5 26.9 L 347.5 22.9 L 350.5 18.9 L 354.5 20.5 L 358.5 24.5 L 362.5 22.9 L 366.5 24.5 L 370.5 22.9 L 373.5 22.1 L 377.5 26.9 L 381.5 26.1 L 385.5 28.5 L 389.5 23.7 L 393.5 20.5 L 396.5 21.3 L 400.5 23.7 L 404.5 19.7 L 408.5 18.9 L 412.5 15.7 L 416.5 14.1 L 419.5 16.5 L 423.5 15.7 L 427.5 10.9 L 431.5 14.9 L 435.5 11.7 L 439.5 16.5 L 442.5 10.9 L 446.5 14.1 L 450.5 12.5 L 454.5 13.3 L 458.5 14.9 L 461.5 22.1 L 465.5 23.7 L 469.5 20.5 L 473.5 17.3 L 477.5 24.5 L 481.5 22.1 L 484.5 31.7 L 488.5 30.9 L 492.5 27.7 L 496.5 28.5 L 500.5 22.1 L 504.5 17.3 L 507.5 18.1 L 511.5 18.1 L 515.5 18.1 L 519.5 21.3 L 523.5 22.1 L 527.5 20.5 L 530.5 24.5 L 534.5 18.9 L 538.5 26.9 L 542.5 30.9 L 546.5 29.3 L 550.5 31.7 L 553.5 33.3 L 557.5 38.1 L 561.5 37.3 L 565.5 35.7 L 569.5 33.3 L 573.5 34.1 L 576.5 36.5 L 580.5 38.9 L 584.5 37.3 L 588.5 40.5 L 592.5 40.5 L 596.5 39.7 L 599.5 38.9 L 603.5 34.1 L 607.5 32.5 L 611.5 26.9 L 615.5 29.3 L 619.5 27.7 L 622.5 32.5 L 626.5 30.1 L 630.5 31.7 L 634.5 32.5 L 638.5 28.5 L 641.5 20.5 L 645.5 18.9 L 649.5 18.1 L 653.5 24.5 L 657.5 24.5 L 661.5 22.1 L 664.5 23.7 L 668.5 21.3 L 672.5 18.1 L 676.5 12.5 L 680.5 14.9 L 684.5 14.1 L 687.5 10.1 L 691.5 12.5 L 695.5 12.5 L 699.5 16.5 L 703.5 10.9 L 707.5 13.3 L 710.5 14.1 L 714.5 13.3 L 718.5 15.7 M 0 0 L 0 0" style="stroke:#888888;stroke-opacity:1; stroke-width: 1; stroke-dasharray: none; stroke-linecap: butt; stroke-linejoin: round; stroke-miterlimit: 10; fill: none; fill-rule: nonzero; opacity: 1" transform=" matrix(1 0 0 1 100 314) " stroke-linecap="round"  clip-path="url(#AmChartsEl-654)" /><path d="M 19.5 80.5 L 19.5 80.5 L 19.5 0.5" style="stroke:#FFFFFF;stroke-opacity:1; stroke-opacity: 0.15; stroke-width: 1; stroke-dasharray: none; stroke-linecap: butt; stroke-linejoin: miter; stroke-miterlimit: 10; fill: none; fill-rule: nonzero; opacity: 1" transform=" matrix(1 0 0 1 100 314) " stroke-linecap="round" /><path d="M 138.5 80.5 L 138.5 80.5 L 138.5 0.5" style="stroke:#FFFFFF;stroke-opacity:1; stroke-opacity: 0.15; stroke-width: 1; stroke-dasharray: none; stroke-linecap: butt; stroke-linejoin: miter; stroke-miterlimit: 10; fill: none; fill-rule: nonzero; opacity: 1" transform=" matrix(1 0 0 1 100 314) " stroke-linecap="round" /><path d="M 253.5 80.5 L 253.5 80.5 L 253.5 0.5" style="stroke:#FFFFFF;stroke-opacity:1; stroke-opacity: 0.15; stroke-width: 1; stroke-dasharray: none; stroke-linecap: butt; stroke-linejoin: miter; stroke-miterlimit: 10; fill: none; fill-rule: nonzero; opacity: 1" transform=" matrix(1 0 0 1 100 314) " stroke-linecap="round" /><path d="M 371.5 80.5 L 371.5 80.5 L 371.5 0.5" style="stroke:#FFFFFF;stroke-opacity:1; stroke-opacity: 0.15; stroke-width: 1; stroke-dasharray: none; stroke-linecap: butt; stroke-linejoin: miter; stroke-miterlimit: 10; fill: none; fill-rule: nonzero; opacity: 1" transform=" matrix(1 0 0 1 100 314) " stroke-linecap="round" /><path d="M 486.5 80.5 L 486.5 80.5 L 486.5 0.5" style="stroke:#FFFFFF;stroke-opacity:1; stroke-opacity: 0.15; stroke-width: 1; stroke-dasharray: none; stroke-linecap: butt; stroke-linejoin: miter; stroke-miterlimit: 10; fill: none; fill-rule: nonzero; opacity: 1" transform=" matrix(1 0 0 1 100 314) " stroke-linecap="round" /><path d="M 605.5 80.5 L 605.5 80.5 L 605.5 0.5" style="stroke:#FFFFFF;stroke-opacity:1; stroke-opacity: 0.15; stroke-width: 1; stroke-dasharray: none; stroke-linecap: butt; stroke-linejoin: miter; stroke-miterlimit: 10; fill: none; fill-rule: nonzero; opacity: 1" transform=" matrix(1 0 0 1 100 314) " stroke-linecap="round" /><g transform=" matrix(1 0 0 1 178.36170213131413 382.5) "><text font-family="Verdana" font-size="11" font-weight="normal" style="stroke: none; stroke-width: 1; stroke-dasharray: none; stroke-linecap: butt; stroke-linejoin: miter; stroke-miterlimit: 10;fill:#AAAAAA;fill-opacity:1; fill-rule: nonzero; opacity: 1" ><tspan x="-9.62" y="5.49" fill="rgba(170,170,170,1)">Авг</tspan></text></g><g transform=" matrix(1 0 0 1 297.36170213131413 382.5) "><text font-family="Verdana" font-size="11" font-weight="normal" style="stroke: none; stroke-width: 1; stroke-dasharray: none; stroke-linecap: butt; stroke-linejoin: miter; stroke-miterlimit: 10;fill:#AAAAAA;fill-opacity:1; fill-rule: nonzero; opacity: 1" ><tspan x="-10.62" y="5.49" fill="rgba(170,170,170,1)">Сен</tspan></text></g><g transform=" matrix(1 0 0 1 412.36170213131413 382.5) "><text font-family="Verdana" font-size="11" font-weight="normal" style="stroke: none; stroke-width: 1; stroke-dasharray: none; stroke-linecap: butt; stroke-linejoin: miter; stroke-miterlimit: 10;fill:#AAAAAA;fill-opacity:1; fill-rule: nonzero; opacity: 1" ><tspan x="-10.31" y="5.49" fill="rgba(170,170,170,1)">Окт</tspan></text></g><g transform=" matrix(1 0 0 1 530.3617021313141 382.5) "><text font-family="Verdana" font-size="11" font-weight="normal" style="stroke: none; stroke-width: 1; stroke-dasharray: none; stroke-linecap: butt; stroke-linejoin: miter; stroke-miterlimit: 10;fill:#AAAAAA;fill-opacity:1; fill-rule: nonzero; opacity: 1" ><tspan x="-10.77" y="5.49" fill="rgba(170,170,170,1)">Ноя</tspan></text></g><g transform=" matrix(1 0 0 1 645.3617021313141 382.5) "><text font-family="Verdana" font-size="11" font-weight="normal" style="stroke: none; stroke-width: 1; stroke-dasharray: none; stroke-linecap: butt; stroke-linejoin: miter; stroke-miterlimit: 10;fill:#AAAAAA;fill-opacity:1; fill-rule: nonzero; opacity: 1" ><tspan x="-10.63" y="5.49" fill="rgba(170,170,170,1)">Дек</tspan></text></g><g transform=" matrix(1 0 0 1 764.3617021313141 382.5) "><text font-family="Verdana" font-size="11" font-weight="bold" style="stroke: none; stroke-width: 1; stroke-dasharray: none; stroke-linecap: butt; stroke-linejoin: miter; stroke-miterlimit: 10;fill:#AAAAAA;fill-opacity:1; fill-rule: nonzero; opacity: 1" ><tspan x="-15.64" y="5.49" fill="rgba(170,170,170,1)">2013</tspan></text></g><rect x="0.5" y="0.5" rx="0" ry="0" width="721" height="80" style="stroke:#000000;stroke-opacity:1; stroke-opacity: 0.005; stroke-width: 0; stroke-dasharray: none; stroke-linecap: butt; stroke-linejoin: miter; stroke-miterlimit: 10;fill:#000000;fill-opacity:1; fill-opacity: 0.005; fill-rule: nonzero; opacity: 1" transform=" matrix(1 0 0 1 100 314) "/><rect x="0" y="0.5" rx="0" ry="0" width="720" height="80" style="stroke:#000000;stroke-opacity:1; stroke-opacity: 0.005; stroke-width: 0; stroke-dasharray: none; stroke-linecap: butt; stroke-linejoin: miter; stroke-miterlimit: 10;fill:#000000;fill-opacity:1; fill-opacity: 0.005; fill-rule: nonzero; opacity: 1" transform=" matrix(1 0 0 1 100 314) "/><g transform=" matrix(1 0 0 1 83 337) "><image xlink:href="http://pinyazhin:8080/sampler/VAADIN/resources/amcharts/images/dragIconRoundBig.svg" x="0" y="0" style="stroke: none; stroke-width: 0; stroke-dasharray: none; stroke-linecap: butt; stroke-linejoin: miter; stroke-miterlimit: 10;fill:#000000;fill-opacity:1; fill-rule: nonzero; opacity: 1" width="35" height="35" preserveAspectRatio="none"></image></g><rect x="0.5" y="0.5" rx="0" ry="0" width="25" height="80" style="stroke:#000000;stroke-opacity:1; stroke-opacity: 0.005; stroke-width: 0; stroke-dasharray: none; stroke-linecap: butt; stroke-linejoin: miter; stroke-miterlimit: 10;fill:#000000;fill-opacity:1; fill-opacity: 0.005; fill-rule: nonzero; opacity: 1" transform=" matrix(1 0 0 1 88 315) "/><g transform=" matrix(1 0 0 1 803 337) "><image xlink:href="http://pinyazhin:8080/sampler/VAADIN/resources/amcharts/images/dragIconRoundBig.svg" x="0" y="0" style="stroke: none; stroke-width: 0; stroke-dasharray: none; stroke-linecap: butt; stroke-linejoin: miter; stroke-miterlimit: 10;fill:#000000;fill-opacity:1; fill-rule: nonzero; opacity: 1" width="35" height="35" preserveAspectRatio="none"></image></g><rect x="0.5" y="0.5" rx="0" ry="0" width="25" height="80" style="stroke:#000000;stroke-opacity:1; stroke-opacity: 0.005; stroke-width: 0; stroke-dasharray: none; stroke-linecap: butt; stroke-linejoin: miter; stroke-miterlimit: 10;fill:#000000;fill-opacity:1; fill-opacity: 0.005; fill-rule: nonzero; opacity: 1" transform=" matrix(1 0 0 1 808 315) "/><rect x="0" y="0" rx="0" ry="0" width="720" height="81" style="stroke: none; stroke-width: 0; stroke-dasharray: none; stroke-linecap: butt; stroke-linejoin: miter; stroke-miterlimit: 10; fill: none; fill-rule: nonzero; opacity: 1" transform=""/><rect x="0.5" y="0.5" rx="0" ry="0" width="10" height="264" style="stroke:#000000;stroke-opacity:1; stroke-opacity: 0.12; stroke-width: 1; stroke-dasharray: none; stroke-linecap: butt; stroke-linejoin: miter; stroke-miterlimit: 10;fill:#000000;fill-opacity:1; fill-opacity: 0.12; fill-rule: nonzero; opacity: 1" transform=" matrix(1 0 0 1 40 20) "/><rect x="0.5" y="0.5" rx="0" ry="0" width="11" height="264" style="stroke:#FFFFFF;stroke-opacity:1; stroke-opacity: 0.4; stroke-width: 0; stroke-dasharray: none; stroke-linecap: butt; stroke-linejoin: miter; stroke-miterlimit: 10;fill:#FFFFFF;fill-opacity:1; fill-opacity: 0.4; fill-rule: nonzero; opacity: 1" transform=" matrix(1 0 0 1 40 20) "/><rect x="0.5" y="0.5" rx="0" ry="0" width="10" height="264" style="stroke:#000000;stroke-opacity:1; stroke-opacity: 0.005; stroke-width: 0; stroke-dasharray: none; stroke-linecap: butt; stroke-linejoin: miter; stroke-miterlimit: 10;fill:#000000;fill-opacity:1; fill-opacity: 0.005; fill-rule: nonzero; opacity: 1" transform=" matrix(1 0 0 1 40 20) "/><rect x="0.5" y="0" rx="0" ry="0" width="10" height="264" style="stroke:#000000;stroke-opacity:1; stroke-opacity: 0.005; stroke-width: 0; stroke-dasharray: none; stroke-linecap: butt; stroke-linejoin: miter; stroke-miterlimit: 10;fill:#000000;fill-opacity:1; fill-opacity: 0.005; fill-rule: nonzero; opacity: 1" transform=" matrix(1 0 0 1 40 20) "/><g transform=" matrix(1 0 0 1 28 3) "><image xlink:href="http://pinyazhin:8080/sampler/VAADIN/resources/amcharts/images/dragIconRoundBigH.svg" x="0" y="0" style="stroke: none; stroke-width: 0; stroke-dasharray: none; stroke-linecap: butt; stroke-linejoin: miter; stroke-miterlimit: 10;fill:#000000;fill-opacity:1; fill-rule: nonzero; opacity: 1" width="35" height="35" preserveAspectRatio="none"></image></g><rect x="0.5" y="0.5" rx="0" ry="0" width="25" height="10" style="stroke:#000000;stroke-opacity:1; stroke-opacity: 0.005; stroke-width: 0; stroke-dasharray: none; stroke-linecap: butt; stroke-linejoin: miter; stroke-miterlimit: 10;fill:#000000;fill-opacity:1; fill-opacity: 0.005; fill-rule: nonzero; opacity: 1" transform=" matrix(1 0 0 1 33 16) "/><g transform=" matrix(1 0 0 1 28 267) "><image xlink:href="http://pinyazhin:8080/sampler/VAADIN/resources/amcharts/images/dragIconRoundBigH.svg" x="0" y="0" style="stroke: none; stroke-width: 0; stroke-dasharray: none; stroke-linecap: butt; stroke-linejoin: miter; stroke-miterlimit: 10;fill:#000000;fill-opacity:1; fill-rule: nonzero; opacity: 1" width="35" height="35" preserveAspectRatio="none"></image></g><rect x="0.5" y="0.5" rx="0" ry="0" width="25" height="10" style="stroke:#000000;stroke-opacity:1; stroke-opacity: 0.005; stroke-width: 0; stroke-dasharray: none; stroke-linecap: butt; stroke-linejoin: miter; stroke-miterlimit: 10;fill:#000000;fill-opacity:1; fill-opacity: 0.005; fill-rule: nonzero; opacity: 1" transform=" matrix(1 0 0 1 33 280) "/><g transform=" matrix(1 0 0 1 178.36170213131413 295.5) "><text font-family="Verdana" font-size="11" font-weight="normal" style="stroke: none; stroke-width: 1; stroke-dasharray: none; stroke-linecap: butt; stroke-linejoin: miter; stroke-miterlimit: 10;fill:#000000;fill-opacity:1; fill-rule: nonzero; opacity: 1" ><tspan x="-9.62" y="5.49" fill="rgba(0,0,0,1)">Авг</tspan></text></g><g transform=" matrix(1 0 0 1 297.36170213131413 295.5) "><text font-family="Verdana" font-size="11" font-weight="normal" style="stroke: none; stroke-width: 1; stroke-dasharray: none; stroke-linecap: butt; stroke-linejoin: miter; stroke-miterlimit: 10;fill:#000000;fill-opacity:1; fill-rule: nonzero; opacity: 1" ><tspan x="-10.62" y="5.49" fill="rgba(0,0,0,1)">Сен</tspan></text></g><g transform=" matrix(1 0 0 1 412.36170213131413 295.5) "><text font-family="Verdana" font-size="11" font-weight="normal" style="stroke: none; stroke-width: 1; stroke-dasharray: none; stroke-linecap: butt; stroke-linejoin: miter; stroke-miterlimit: 10;fill:#000000;fill-opacity:1; fill-rule: nonzero; opacity: 1" ><tspan x="-10.31" y="5.49" fill="rgba(0,0,0,1)">Окт</tspan></text></g><g transform=" matrix(1 0 0 1 530.3617021313141 295.5) "><text font-family="Verdana" font-size="11" font-weight="normal" style="stroke: none; stroke-width: 1; stroke-dasharray: none; stroke-linecap: butt; stroke-linejoin: miter; stroke-miterlimit: 10;fill:#000000;fill-opacity:1; fill-rule: nonzero; opacity: 1" ><tspan x="-10.77" y="5.49" fill="rgba(0,0,0,1)">Ноя</tspan></text></g><g transform=" matrix(1 0 0 1 645.3617021313141 295.5) "><text font-family="Verdana" font-size="11" font-weight="normal" style="stroke: none; stroke-width: 1; stroke-dasharray: none; stroke-linecap: butt; stroke-linejoin: miter; stroke-miterlimit: 10;fill:#000000;fill-opacity:1; fill-rule: nonzero; opacity: 1" ><tspan x="-10.63" y="5.49" fill="rgba(0,0,0,1)">Дек</tspan></text></g><g transform=" matrix(1 0 0 1 764.3617021313141 295.5) "><text font-family="Verdana" font-size="11" font-weight="bold" style="stroke: none; stroke-width: 1; stroke-dasharray: none; stroke-linecap: butt; stroke-linejoin: miter; stroke-miterlimit: 10;fill:#000000;fill-opacity:1; fill-rule: nonzero; opacity: 1" ><tspan x="-15.64" y="5.49" fill="rgba(0,0,0,1)">2013</tspan></text></g><g transform=" matrix(1 0 0 1 88 282) "><text font-family="Verdana" font-size="11" font-weight="normal" style="stroke: none; stroke-width: 1; stroke-dasharray: none; stroke-linecap: butt; stroke-linejoin: miter; stroke-miterlimit: 10;fill:#000000;fill-opacity:1; fill-rule: nonzero; opacity: 1" ><tspan x="-7.49" y="5.49" fill="rgba(0,0,0,1)">0</tspan></text></g><g transform=" matrix(1 0 0 1 88 229) "><text font-family="Verdana" font-size="11" font-weight="normal" style="stroke: none; stroke-width: 1; stroke-dasharray: none; stroke-linecap: butt; stroke-linejoin: miter; stroke-miterlimit: 10;fill:#000000;fill-opacity:1; fill-rule: nonzero; opacity: 1" ><tspan x="-14.49" y="5.49" fill="rgba(0,0,0,1)">20</tspan></text></g><g transform=" matrix(1 0 0 1 88 177) "><text font-family="Verdana" font-size="11" font-weight="normal" style="stroke: none; stroke-width: 1; stroke-dasharray: none; stroke-linecap: butt; stroke-linejoin: miter; stroke-miterlimit: 10;fill:#000000;fill-opacity:1; fill-rule: nonzero; opacity: 1" ><tspan x="-14.49" y="5.49" fill="rgba(0,0,0,1)">40</tspan></text></g><g transform=" matrix(1 0 0 1 88 124) "><text font-family="Verdana" font-size="11" font-weight="normal" style="stroke: none; stroke-width: 1; stroke-dasharray: none; stroke-linecap: butt; stroke-linejoin: miter; stroke-miterlimit: 10;fill:#000000;fill-opacity:1; fill-rule: nonzero; opacity: 1" ><tspan x="-14.49" y="5.49" fill="rgba(0,0,0,1)">60</tspan></text></g><g transform=" matrix(1 0 0 1 88 72) "><text font-family="Verdana" font-size="11" font-weight="normal" style="stroke: none; stroke-width: 1; stroke-dasharray: none; stroke-linecap: butt; stroke-linejoin: miter; stroke-miterlimit: 10;fill:#000000;fill-opacity:1; fill-rule: nonzero; opacity: 1" ><tspan x="-14.49" y="5.49" fill="rgba(0,0,0,1)">80</tspan></text></g><g transform=" matrix(1 0 0 1 88 19) "><text font-family="Verdana" font-size="11" font-weight="normal" style="stroke: none; stroke-width: 1; stroke-dasharray: none; stroke-linecap: butt; stroke-linejoin: miter; stroke-miterlimit: 10;fill:#000000;fill-opacity:1; fill-rule: nonzero; opacity: 1" ><tspan x="-21.48" y="5.49" fill="rgba(0,0,0,1)">100</tspan></text></g><rect x="-1" y="-1" rx="0" ry="0" width="722" height="265" style="stroke: none; stroke-width: 0; stroke-dasharray: none; stroke-linecap: butt; stroke-linejoin: miter; stroke-miterlimit: 10; fill: none; fill-rule: nonzero; opacity: 1" transform=""/></g><clipPath xmlns="http://www.w3.org/2000/svg" id="AmChartsEl-653"><rect x="0" y="0" width="720" height="263" rx="0" ry="0" stroke-width="0" fill="none" fill-opacity="0" svgUid="0"/></clipPath><clipPath xmlns="http://www.w3.org/2000/svg" id="AmChartsEl-651"><rect x="0" y="0" width="720" height="263" rx="0" ry="0" stroke-width="0" fill="none" fill-opacity="0" svgUid="0"/></clipPath><clipPath xmlns="http://www.w3.org/2000/svg" id="AmChartsEl-654"><rect x="0" y="0" width="720" height="81" rx="0" ry="0" stroke-width="0" fill="none" fill-opacity="0" svgUid="0"/></clipPath></svg>