<?xml version="1.0" encoding="UTF-8" standalone="no" ?><!DOCTYPE svg PUBLIC "-//W3C//DTD SVG 1.1//EN" "http://www.w3.org/Graphics/SVG/1.1/DTD/svg11.dtd"><svg xmlns="http://www.w3.org/2000/svg" xmlns:xlink="http://www.w3.org/1999/xlink" version="1.1" width="899" height="477" style="background-color: #FFFFFF" viewBox="0 0 899 477" xml:space="preserve"><desc>Created with Fabric.js 1.6.2</desc><defs></defs><g style="stroke: none; stroke-width: 1; stroke-dasharray: none; stroke-linecap: butt; stroke-linejoin: miter; stroke-miterlimit: 10; fill: none; fill-rule: nonzero; opacity: 1" transform="translate(0.5 0.5)" ><path d="M 0.5 0.5 L 898.5 0.5 L 898.5 476.5 L 0.5 476.5 Z" style="stroke:#000000;stroke-opacity:1; stroke-opacity: 0; stroke-width: 1; stroke-dasharray: none; stroke-linecap: butt; stroke-linejoin: miter; stroke-miterlimit: 10;fill:#FFFFFF;fill-opacity:1; fill-opacity: 0; fill-rule: nonzero; opacity: 1" transform="" stroke-linecap="round" /><path d="M 0.5 0.5 L 818.5 0.5 L 818.5 416.5 L 0.5 416.5 L 0.5 0.5 Z" style="stroke:#000000;stroke-opacity:1; stroke-opacity: 0; stroke-width: 1; stroke-dasharray: none; stroke-linecap: butt; stroke-linejoin: miter; stroke-miterlimit: 10;fill:#FFFFFF;fill-opacity:1; fill-opacity: 0; fill-rule: nonzero; opacity: 1" transform=" matrix(1 0 0 1 40 20) " stroke-linecap="round" /><path d="M 0.5 0.5 L 0.5 5.5" style="stroke:#000000;stroke-opacity:1; stroke-width: 1; stroke-dasharray: none; stroke-linecap: butt; stroke-linejoin: miter; stroke-miterlimit: 10; fill: none; fill-rule: nonzero; opacity: 1" transform=" matrix(1 0 0 1 40 436) " stroke-linecap="round" /><path d="M 0.5 416.5 L 0.5 416.5 L 0.5 0.5" style="stroke:#000000;stroke-opacity:1; stroke-opacity: 0.2; stroke-width: 1; stroke-dasharray: 1 1; stroke-linecap: butt; stroke-linejoin: miter; stroke-miterlimit: 10; fill: none; fill-rule: nonzero; opacity: 1" transform=" matrix(1 0 0 1 40 20) " stroke-linecap="round" /><path d="M 41.5 416.5 L 41.5 416.5 L 41.5 0.5" style="stroke:#000000;stroke-opacity:1; stroke-opacity: 0.07; stroke-width: 1; stroke-dasharray: 1 1; stroke-linecap: butt; stroke-linejoin: miter; stroke-miterlimit: 10; fill: none; fill-rule: nonzero; opacity: 1" transform=" matrix(1 0 0 1 40 20) " stroke-linecap="round" /><path d="M 82.5 0.5 L 82.5 5.5" style="stroke:#000000;stroke-opacity:1; stroke-width: 1; stroke-dasharray: none; stroke-linecap: butt; stroke-linejoin: miter; stroke-miterlimit: 10; fill: none; fill-rule: nonzero; opacity: 1" transform=" matrix(1 0 0 1 40 436) " stroke-linecap="round" /><path d="M 82.5 416.5 L 82.5 416.5 L 82.5 0.5" style="stroke:#000000;stroke-opacity:1; stroke-opacity: 0.2; stroke-width: 1; stroke-dasharray: 1 1; stroke-linecap: butt; stroke-linejoin: miter; stroke-miterlimit: 10; fill: none; fill-rule: nonzero; opacity: 1" transform=" matrix(1 0 0 1 40 20) " stroke-linecap="round" /><path d="M 123.5 416.5 L 123.5 416.5 L 123.5 0.5" style="stroke:#000000;stroke-opacity:1; stroke-opacity: 0.07; stroke-width: 1; stroke-dasharray: 1 1; stroke-linecap: butt; stroke-linejoin: miter; stroke-miterlimit: 10; fill: none; fill-rule: nonzero; opacity: 1" transform=" matrix(1 0 0 1 40 20) " stroke-linecap="round" /><path d="M 164.5 0.5 L 164.5 5.5" style="stroke:#000000;stroke-opacity:1; stroke-width: 1; stroke-dasharray: none; stroke-linecap: butt; stroke-linejoin: miter; stroke-miterlimit: 10; fill: none; fill-rule: nonzero; opacity: 1" transform=" matrix(1 0 0 1 40 436) " stroke-linecap="round" /><path d="M 164.5 416.5 L 164.5 416.5 L 164.5 0.5" style="stroke:#000000;stroke-opacity:1; stroke-opacity: 0.2; stroke-width: 1; stroke-dasharray: 1 1; stroke-linecap: butt; stroke-linejoin: miter; stroke-miterlimit: 10; fill: none; fill-rule: nonzero; opacity: 1" transform=" matrix(1 0 0 1 40 20) " stroke-linecap="round" /><path d="M 205.5 416.5 L 205.5 416.5 L 205.5 0.5" style="stroke:#000000;stroke-opacity:1; stroke-opacity: 0.07; stroke-width: 1; stroke-dasharray: 1 1; stroke-linecap: butt; stroke-linejoin: miter; stroke-miterlimit: 10; fill: none; fill-rule: nonzero; opacity: 1" transform=" matrix(1 0 0 1 40 20) " stroke-linecap="round" /><path d="M 245.5 0.5 L 245.5 5.5" style="stroke:#000000;stroke-opacity:1; stroke-width: 1; stroke-dasharray: none; stroke-linecap: butt; stroke-linejoin: miter; stroke-miterlimit: 10; fill: none; fill-rule: nonzero; opacity: 1" transform=" matrix(1 0 0 1 40 436) " stroke-linecap="round" /><path d="M 245.5 416.5 L 245.5 416.5 L 245.5 0.5" style="stroke:#000000;stroke-opacity:1; stroke-opacity: 0.2; stroke-width: 1; stroke-dasharray: 1 1; stroke-linecap: butt; stroke-linejoin: miter; stroke-miterlimit: 10; fill: none; fill-rule: nonzero; opacity: 1" transform=" matrix(1 0 0 1 40 20) " stroke-linecap="round" /><path d="M 286.5 416.5 L 286.5 416.5 L 286.5 0.5" style="stroke:#000000;stroke-opacity:1; stroke-opacity: 0.07; stroke-width: 1; stroke-dasharray: 1 1; stroke-linecap: butt; stroke-linejoin: miter; stroke-miterlimit: 10; fill: none; fill-rule: nonzero; opacity: 1" transform=" matrix(1 0 0 1 40 20) " stroke-linecap="round" /><path d="M 327.5 0.5 L 327.5 5.5" style="stroke:#000000;stroke-opacity:1; stroke-width: 1; stroke-dasharray: none; stroke-linecap: butt; stroke-linejoin: miter; stroke-miterlimit: 10; fill: none; fill-rule: nonzero; opacity: 1" transform=" matrix(1 0 0 1 40 436) " stroke-linecap="round" /><path d="M 327.5 416.5 L 327.5 416.5 L 327.5 0.5" style="stroke:#000000;stroke-opacity:1; stroke-opacity: 0.2; stroke-width: 1; stroke-dasharray: 1 1; stroke-linecap: butt; stroke-linejoin: miter; stroke-miterlimit: 10; fill: none; fill-rule: nonzero; opacity: 1" transform=" matrix(1 0 0 1 40 20) " stroke-linecap="round" /><path d="M 368.5 416.5 L 368.5 416.5 L 368.5 0.5" style="stroke:#000000;stroke-opacity:1; stroke-opacity: 0.07; stroke-width: 1; stroke-dasharray: 1 1; stroke-linecap: butt; stroke-linejoin: miter; stroke-miterlimit: 10; fill: none; fill-rule: nonzero; opacity: 1" transform=" matrix(1 0 0 1 40 20) " stroke-linecap="round" /><path d="M 409.5 0.5 L 409.5 5.5" style="stroke:#000000;stroke-opacity:1; stroke-width: 1; stroke-dasharray: none; stroke-linecap: butt; stroke-linejoin: miter; stroke-miterlimit: 10; fill: none; fill-rule: nonzero; opacity: 1" transform=" matrix(1 0 0 1 40 436) " stroke-linecap="round" /><path d="M 409.5 416.5 L 409.5 416.5 L 409.5 0.5" style="stroke:#000000;stroke-opacity:1; stroke-opacity: 0.2; stroke-width: 1; stroke-dasharray: 1 1; stroke-linecap: butt; stroke-linejoin: miter; stroke-miterlimit: 10; fill: none; fill-rule: nonzero; opacity: 1" transform=" matrix(1 0 0 1 40 20) " stroke-linecap="round" /><path d="M 450.5 416.5 L 450.5 416.5 L 450.5 0.5" style="stroke:#000000;stroke-opacity:1; stroke-opacity: 0.07; stroke-width: 1; stroke-dasharray: 1 1; stroke-linecap: butt; stroke-linejoin: miter; stroke-miterlimit: 10; fill: none; fill-rule: nonzero; opacity: 1" transform=" matrix(1 0 0 1 40 20) " stroke-linecap="round" /><path d="M 491.5 0.5 L 491.5 5.5" style="stroke:#000000;stroke-opacity:1; stroke-width: 1; stroke-dasharray: none; stroke-linecap: butt; stroke-linejoin: miter; stroke-miterlimit: 10; fill: none; fill-rule: nonzero; opacity: 1" transform=" matrix(1 0 0 1 40 436) " stroke-linecap="round" /><path d="M 491.5 416.5 L 491.5 416.5 L 491.5 0.5" style="stroke:#000000;stroke-opacity:1; stroke-opacity: 0.2; stroke-width: 1; stroke-dasharray: 1 1; stroke-linecap: butt; stroke-linejoin: miter; stroke-miterlimit: 10; fill: none; fill-rule: nonzero; opacity: 1" transform=" matrix(1 0 0 1 40 20) " stroke-linecap="round" /><path d="M 532.5 416.5 L 532.5 416.5 L 532.5 0.5" style="stroke:#000000;stroke-opacity:1; stroke-opacity: 0.07; stroke-width: 1; stroke-dasharray: 1 1; stroke-linecap: butt; stroke-linejoin: miter; stroke-miterlimit: 10; fill: none; fill-rule: nonzero; opacity: 1" transform=" matrix(1 0 0 1 40 20) " stroke-linecap="round" /><path d="M 573.5 0.5 L 573.5 5.5" style="stroke:#000000;stroke-opacity:1; stroke-width: 1; stroke-dasharray: none; stroke-linecap: butt; stroke-linejoin: miter; stroke-miterlimit: 10; fill: none; fill-rule: nonzero; opacity: 1" transform=" matrix(1 0 0 1 40 436) " stroke-linecap="round" /><path d="M 573.5 416.5 L 573.5 416.5 L 573.5 0.5" style="stroke:#000000;stroke-opacity:1; stroke-opacity: 0.2; stroke-width: 1; stroke-dasharray: 1 1; stroke-linecap: butt; stroke-linejoin: miter; stroke-miterlimit: 10; fill: none; fill-rule: nonzero; opacity: 1" transform=" matrix(1 0 0 1 40 20) " stroke-linecap="round" /><path d="M 614.5 416.5 L 614.5 416.5 L 614.5 0.5" style="stroke:#000000;stroke-opacity:1; stroke-opacity: 0.07; stroke-width: 1; stroke-dasharray: 1 1; stroke-linecap: butt; stroke-linejoin: miter; stroke-miterlimit: 10; fill: none; fill-rule: nonzero; opacity: 1" transform=" matrix(1 0 0 1 40 20) " stroke-linecap="round" /><path d="M 654.5 0.5 L 654.5 5.5" style="stroke:#000000;stroke-opacity:1; stroke-width: 1; stroke-dasharray: none; stroke-linecap: butt; stroke-linejoin: miter; stroke-miterlimit: 10; fill: none; fill-rule: nonzero; opacity: 1" transform=" matrix(1 0 0 1 40 436) " stroke-linecap="round" /><path d="M 654.5 416.5 L 654.5 416.5 L 654.5 0.5" style="stroke:#000000;stroke-opacity:1; stroke-opacity: 0.2; stroke-width: 1; stroke-dasharray: 1 1; stroke-linecap: butt; stroke-linejoin: miter; stroke-miterlimit: 10; fill: none; fill-rule: nonzero; opacity: 1" transform=" matrix(1 0 0 1 40 20) " stroke-linecap="round" /><path d="M 695.5 416.5 L 695.5 416.5 L 695.5 0.5" style="stroke:#000000;stroke-opacity:1; stroke-opacity: 0.07; stroke-width: 1; stroke-dasharray: 1 1; stroke-linecap: butt; stroke-linejoin: miter; stroke-miterlimit: 10; fill: none; fill-rule: nonzero; opacity: 1" transform=" matrix(1 0 0 1 40 20) " stroke-linecap="round" /><path d="M 736.5 0.5 L 736.5 5.5" style="stroke:#000000;stroke-opacity:1; stroke-width: 1; stroke-dasharray: none; stroke-linecap: butt; stroke-linejoin: miter; stroke-miterlimit: 10; fill: none; fill-rule: nonzero; opacity: 1" transform=" matrix(1 0 0 1 40 436) " stroke-linecap="round" /><path d="M 736.5 416.5 L 736.5 416.5 L 736.5 0.5" style="stroke:#000000;stroke-opacity:1; stroke-opacity: 0.2; stroke-width: 1; stroke-dasharray: 1 1; stroke-linecap: butt; stroke-linejoin: miter; stroke-miterlimit: 10; fill: none; fill-rule: nonzero; opacity: 1" transform=" matrix(1 0 0 1 40 20) " stroke-linecap="round" /><path d="M 777.5 416.5 L 777.5 416.5 L 777.5 0.5" style="stroke:#000000;stroke-opacity:1; stroke-opacity: 0.07; stroke-width: 1; stroke-dasharray: 1 1; stroke-linecap: butt; stroke-linejoin: miter; stroke-miterlimit: 10; fill: none; fill-rule: nonzero; opacity: 1" transform=" matrix(1 0 0 1 40 20) " stroke-linecap="round" /><path d="M 818.5 0.5 L 818.5 5.5" style="stroke:#000000;stroke-opacity:1; stroke-width: 1; stroke-dasharray: none; stroke-linecap: butt; stroke-linejoin: miter; stroke-miterlimit: 10; fill: none; fill-rule: nonzero; opacity: 1" transform=" matrix(1 0 0 1 40 436) " stroke-linecap="round" /><path d="M 818.5 416.5 L 818.5 416.5 L 818.5 0.5" style="stroke:#000000;stroke-opacity:1; stroke-opacity: 0.2; stroke-width: 1; stroke-dasharray: 1 1; stroke-linecap: butt; stroke-linejoin: miter; stroke-miterlimit: 10; fill: none; fill-rule: nonzero; opacity: 1" transform=" matrix(1 0 0 1 40 20) " stroke-linecap="round" /><path d="M 0.5 416.5 L 6.5 416.5" style="stroke:#000000;stroke-opacity:1; stroke-width: 1; stroke-dasharray: none; stroke-linecap: butt; stroke-linejoin: miter; stroke-miterlimit: 10; fill: none; fill-rule: nonzero; opacity: 1" transform=" matrix(1 0 0 1 34 20) " stroke-linecap="round" /><path d="M 0.5 416.5 L 0.5 416.5 L 818.5 416.5" style="stroke:#000000;stroke-opacity:1; stroke-opacity: 0.15; stroke-width: 1; stroke-dasharray: none; stroke-linecap: butt; stroke-linejoin: miter; stroke-miterlimit: 10; fill: none; fill-rule: nonzero; opacity: 1" transform=" matrix(1 0 0 1 40 20) " stroke-linecap="round" /><path d="M 0.5 381.5 L 6.5 381.5" style="stroke:#000000;stroke-opacity:1; stroke-width: 1; stroke-dasharray: none; stroke-linecap: butt; stroke-linejoin: miter; stroke-miterlimit: 10; fill: none; fill-rule: nonzero; opacity: 1" transform=" matrix(1 0 0 1 34 20) " stroke-linecap="round" /><path d="M 0.5 381.5 L 0.5 381.5 L 818.5 381.5" style="stroke:#000000;stroke-opacity:1; stroke-opacity: 0.15; stroke-width: 1; stroke-dasharray: none; stroke-linecap: butt; stroke-linejoin: miter; stroke-miterlimit: 10; fill: none; fill-rule: nonzero; opacity: 1" transform=" matrix(1 0 0 1 40 20) " stroke-linecap="round" /><path d="M 0.5 347.5 L 6.5 347.5" style="stroke:#000000;stroke-opacity:1; stroke-width: 1; stroke-dasharray: none; stroke-linecap: butt; stroke-linejoin: miter; stroke-miterlimit: 10; fill: none; fill-rule: nonzero; opacity: 1" transform=" matrix(1 0 0 1 34 20) " stroke-linecap="round" /><path d="M 0.5 347.5 L 0.5 347.5 L 818.5 347.5" style="stroke:#000000;stroke-opacity:1; stroke-opacity: 0.15; stroke-width: 1; stroke-dasharray: none; stroke-linecap: butt; stroke-linejoin: miter; stroke-miterlimit: 10; fill: none; fill-rule: nonzero; opacity: 1" transform=" matrix(1 0 0 1 40 20) " stroke-linecap="round" /><path d="M 0.5 312.5 L 6.5 312.5" style="stroke:#000000;stroke-opacity:1; stroke-width: 1; stroke-dasharray: none; stroke-linecap: butt; stroke-linejoin: miter; stroke-miterlimit: 10; fill: none; fill-rule: nonzero; opacity: 1" transform=" matrix(1 0 0 1 34 20) " stroke-linecap="round" /><path d="M 0.5 312.5 L 0.5 312.5 L 818.5 312.5" style="stroke:#000000;stroke-opacity:1; stroke-opacity: 0.15; stroke-width: 1; stroke-dasharray: none; stroke-linecap: butt; stroke-linejoin: miter; stroke-miterlimit: 10; fill: none; fill-rule: nonzero; opacity: 1" transform=" matrix(1 0 0 1 40 20) " stroke-linecap="round" /><path d="M 0.5 277.5 L 6.5 277.5" style="stroke:#000000;stroke-opacity:1; stroke-width: 1; stroke-dasharray: none; stroke-linecap: butt; stroke-linejoin: miter; stroke-miterlimit: 10; fill: none; fill-rule: nonzero; opacity: 1" transform=" matrix(1 0 0 1 34 20) " stroke-linecap="round" /><path d="M 0.5 277.5 L 0.5 277.5 L 818.5 277.5" style="stroke:#000000;stroke-opacity:1; stroke-opacity: 0.15; stroke-width: 1; stroke-dasharray: none; stroke-linecap: butt; stroke-linejoin: miter; stroke-miterlimit: 10; fill: none; fill-rule: nonzero; opacity: 1" transform=" matrix(1 0 0 1 40 20) " stroke-linecap="round" /><path d="M 0.5 243.5 L 6.5 243.5" style="stroke:#000000;stroke-opacity:1; stroke-width: 1; stroke-dasharray: none; stroke-linecap: butt; stroke-linejoin: miter; stroke-miterlimit: 10; fill: none; fill-rule: nonzero; opacity: 1" transform=" matrix(1 0 0 1 34 20) " stroke-linecap="round" /><path d="M 0.5 243.5 L 0.5 243.5 L 818.5 243.5" style="stroke:#000000;stroke-opacity:1; stroke-opacity: 0.15; stroke-width: 1; stroke-dasharray: none; stroke-linecap: butt; stroke-linejoin: miter; stroke-miterlimit: 10; fill: none; fill-rule: nonzero; opacity: 1" transform=" matrix(1 0 0 1 40 20) " stroke-linecap="round" /><path d="M 0.5 208.5 L 6.5 208.5" style="stroke:#000000;stroke-opacity:1; stroke-width: 1; stroke-dasharray: none; stroke-linecap: butt; stroke-linejoin: miter; stroke-miterlimit: 10; fill: none; fill-rule: nonzero; opacity: 1" transform=" matrix(1 0 0 1 34 20) " stroke-linecap="round" /><path d="M 0.5 208.5 L 0.5 208.5 L 818.5 208.5" style="stroke:#000000;stroke-opacity:1; stroke-opacity: 0.15; stroke-width: 1; stroke-dasharray: none; stroke-linecap: butt; stroke-linejoin: miter; stroke-miterlimit: 10; fill: none; fill-rule: nonzero; opacity: 1" transform=" matrix(1 0 0 1 40 20) " stroke-linecap="round" /><path d="M 0.5 173.5 L 6.5 173.5" style="stroke:#000000;stroke-opacity:1; stroke-width: 1; stroke-dasharray: none; stroke-linecap: butt; stroke-linejoin: miter; stroke-miterlimit: 10; fill: none; fill-rule: nonzero; opacity: 1" transform=" matrix(1 0 0 1 34 20) " stroke-linecap="round" /><path d="M 0.5 173.5 L 0.5 173.5 L 818.5 173.5" style="stroke:#000000;stroke-opacity:1; stroke-opacity: 0.15; stroke-width: 1; stroke-dasharray: none; stroke-linecap: butt; stroke-linejoin: miter; stroke-miterlimit: 10; fill: none; fill-rule: nonzero; opacity: 1" transform=" matrix(1 0 0 1 40 20) " stroke-linecap="round" /><path d="M 0.5 139.5 L 6.5 139.5" style="stroke:#000000;stroke-opacity:1; stroke-width: 1; stroke-dasharray: none; stroke-linecap: butt; stroke-linejoin: miter; stroke-miterlimit: 10; fill: none; fill-rule: nonzero; opacity: 1" transform=" matrix(1 0 0 1 34 20) " stroke-linecap="round" /><path d="M 0.5 139.5 L 0.5 139.5 L 818.5 139.5" style="stroke:#000000;stroke-opacity:1; stroke-opacity: 0.15; stroke-width: 1; stroke-dasharray: none; stroke-linecap: butt; stroke-linejoin: miter; stroke-miterlimit: 10; fill: none; fill-rule: nonzero; opacity: 1" transform=" matrix(1 0 0 1 40 20) " stroke-linecap="round" /><path d="M 0.5 104.5 L 6.5 104.5" style="stroke:#000000;stroke-opacity:1; stroke-width: 1; stroke-dasharray: none; stroke-linecap: butt; stroke-linejoin: miter; stroke-miterlimit: 10; fill: none; fill-rule: nonzero; opacity: 1" transform=" matrix(1 0 0 1 34 20) " stroke-linecap="round" /><path d="M 0.5 104.5 L 0.5 104.5 L 818.5 104.5" style="stroke:#000000;stroke-opacity:1; stroke-opacity: 0.15; stroke-width: 1; stroke-dasharray: none; stroke-linecap: butt; stroke-linejoin: miter; stroke-miterlimit: 10; fill: none; fill-rule: nonzero; opacity: 1" transform=" matrix(1 0 0 1 40 20) " stroke-linecap="round" /><path d="M 0.5 69.5 L 6.5 69.5" style="stroke:#000000;stroke-opacity:1; stroke-width: 1; stroke-dasharray: none; stroke-linecap: butt; stroke-linejoin: miter; stroke-miterlimit: 10; fill: none; fill-rule: nonzero; opacity: 1" transform=" matrix(1 0 0 1 34 20) " stroke-linecap="round" /><path d="M 0.5 69.5 L 0.5 69.5 L 818.5 69.5" style="stroke:#000000;stroke-opacity:1; stroke-opacity: 0.15; stroke-width: 1; stroke-dasharray: none; stroke-linecap: butt; stroke-linejoin: miter; stroke-miterlimit: 10; fill: none; fill-rule: nonzero; opacity: 1" transform=" matrix(1 0 0 1 40 20) " stroke-linecap="round" /><path d="M 0.5 35.5 L 6.5 35.5" style="stroke:#000000;stroke-opacity:1; stroke-width: 1; stroke-dasharray: none; stroke-linecap: butt; stroke-linejoin: miter; stroke-miterlimit: 10; fill: none; fill-rule: nonzero; opacity: 1" transform=" matrix(1 0 0 1 34 20) " stroke-linecap="round" /><path d="M 0.5 35.5 L 0.5 35.5 L 818.5 35.5" style="stroke:#000000;stroke-opacity:1; stroke-opacity: 0.15; stroke-width: 1; stroke-dasharray: none; stroke-linecap: butt; stroke-linejoin: miter; stroke-miterlimit: 10; fill: none; fill-rule: nonzero; opacity: 1" transform=" matrix(1 0 0 1 40 20) " stroke-linecap="round" /><path d="M 0.5 0.5 L 6.5 0.5" style="stroke:#000000;stroke-opacity:1; stroke-width: 1; stroke-dasharray: none; stroke-linecap: butt; stroke-linejoin: miter; stroke-miterlimit: 10; fill: none; fill-rule: nonzero; opacity: 1" transform=" matrix(1 0 0 1 34 20) " stroke-linecap="round" /><path d="M 0.5 0.5 L 0.5 0.5 L 818.5 0.5" style="stroke:#000000;stroke-opacity:1; stroke-opacity: 0.15; stroke-width: 1; stroke-dasharray: none; stroke-linecap: butt; stroke-linejoin: miter; stroke-miterlimit: 10; fill: none; fill-rule: nonzero; opacity: 1" transform=" matrix(1 0 0 1 40 20) " stroke-linecap="round" /><path d="M 20 364 Q 25 366 30 373 Q 35 379 41 386 Q 46 392 51 397 Q 56 401 61 399 Q 66 397 71 387 Q 76 378 82 367 Q 87 356 92 345 Q 97 335 102 329 Q 107 324 112 322 Q 117 320 123 319 Q 128 317 133 316 Q 138 315 143 312 Q 148 309 153 302 Q 158 295 164 288 Q 169 282 174 278 Q 179 274 184 277 Q 189 281 194 296 Q 199 312 205 328 Q 210 345 215 357 Q 220 368 225 364 Q 230 360 235 339 Q 240 318 246 293 Q 251 267 256 243 Q 261 219 266 208 Q 271 197 276 192 Q 281 187 287 186 Q 292 185 297 187 Q 302 189 307 191 Q 312 193 317 199 Q 322 205 328 212 Q 333 220 338 228 Q 343 236 348 243 Q 353 249 358 256 Q 363 264 369 271 Q 374 278 379 284 Q 384 290 389 295 Q 394 299 399 303 Q 404 306 409 309 Q 414 311 419 312 Q 424 313 429 312 Q 434 311 439 307 Q 444 304 449 299 Q 455 294 460 288 Q 465 283 470 277 Q 475 272 480 266 Q 485 261 491 255 Q 496 248 501 241 Q 506 234 511 225 Q 516 217 521 203 Q 526 190 532 177 Q 537 163 542 153 Q 547 142 552 139 Q 557 135 562 142 Q 567 148 573 156 Q 578 164 583 170 Q 588 177 593 173 Q 598 170 603 159 Q 608 149 614 135 Q 619 122 624 109 Q 629 95 634 87 Q 639 78 644 64 Q 649 51 655 40 Q 660 30 665 26 Q 670 23 675 35 Q 680 47 685 83 Q 690 119 696 159 Q 701 200 706 234 Q 711 269 716 277 Q 721 286 726 272 Q 731 259 737 238 Q 742 218 747 198 Q 752 178 757 173 Q 762 169 767 173 Q 772 177 778 184 Q 783 191 788 199 Q 793 206 798 208 M 0 0 L 0 0" style="stroke:#E63A3A;stroke-opacity:1; stroke-width: 2; stroke-dasharray: none; stroke-linecap: butt; stroke-linejoin: miter; stroke-miterlimit: 10; fill: none; fill-rule: nonzero; opacity: 1" transform=" matrix(1 0 0 1 40 20) " stroke-linecap="round"  clip-path="url(#AmChartsEl-196)" /><rect x="0" y="0" rx="0" ry="0" width="818" height="416" style="stroke: none; stroke-width: 0; stroke-dasharray: none; stroke-linecap: butt; stroke-linejoin: miter; stroke-miterlimit: 10; fill: none; fill-rule: nonzero; opacity: 1" transform=""/><path d="M 0.5 0.5 L 818.5 0.5" style="stroke:#000000;stroke-opacity:1; stroke-width: 1; stroke-dasharray: none; stroke-linecap: butt; stroke-linejoin: miter; stroke-miterlimit: 10; fill: none; fill-rule: nonzero; opacity: 1" transform=" matrix(1 0 0 1 40 436) " stroke-linecap="round" /><path d="M 0.5 0.5 L 0.5 416.5" style="stroke:#000000;stroke-opacity:1; stroke-width: 1; stroke-dasharray: none; stroke-linecap: butt; stroke-linejoin: miter; stroke-miterlimit: 10; fill: none; fill-rule: nonzero; opacity: 1" transform=" matrix(1 0 0 1 40 20) " stroke-linecap="round" /><path d="M 0.5 0.5 L 0.5 0.5 L 0.5 416.5" style="stroke:#E63A3A;stroke-opacity:1; stroke-opacity: 0; stroke-width: 1; stroke-dasharray: none; stroke-linecap: butt; stroke-linejoin: miter; stroke-miterlimit: 10; fill: none; fill-rule: nonzero; opacity: 0" transform=" matrix(1 0 0 1 838 228) " stroke-linecap="round"  clip-path="url(#AmChartsEl-191)" /><path d="M 0.5 0.5 L 818.5 0.5 L 818.5 0.5" style="stroke:#E63A3A;stroke-opacity:1; stroke-opacity: 0; stroke-width: 1; stroke-dasharray: none; stroke-linecap: butt; stroke-linejoin: miter; stroke-miterlimit: 10; fill: none; fill-rule: nonzero; opacity: 0" transform=" matrix(1 0 0 1 40 247) " stroke-linecap="round" /><rect x="0" y="0" rx="0" ry="0" width="818" height="416" style="stroke: none; stroke-width: 0; stroke-dasharray: none; stroke-linecap: butt; stroke-linejoin: miter; stroke-miterlimit: 10; fill: none; fill-rule: nonzero; opacity: 1" transform=""/><circle cx="0" cy="0" r="4" style="stroke:#E63A3A;stroke-opacity:1; stroke-width: 2; stroke-dasharray: none; stroke-linecap: butt; stroke-linejoin: miter; stroke-miterlimit: 10;fill:#E63A3A;fill-opacity:1; fill-rule: nonzero; opacity: 1" transform="  matrix(1 0 0 1 60 384) "/><circle cx="0" cy="0" r="4" style="stroke:#E63A3A;stroke-opacity:1; stroke-width: 2; stroke-dasharray: none; stroke-linecap: butt; stroke-linejoin: miter; stroke-miterlimit: 10;fill:#E63A3A;fill-opacity:1; fill-rule: nonzero; opacity: 1" transform="  matrix(1 0 0 1 101 419) "/><circle cx="0" cy="0" r="4" style="stroke:#E63A3A;stroke-opacity:1; stroke-width: 2; stroke-dasharray: none; stroke-linecap: butt; stroke-linejoin: miter; stroke-miterlimit: 10;fill:#E63A3A;fill-opacity:1; fill-rule: nonzero; opacity: 1" transform="  matrix(1 0 0 1 142 349) "/><circle cx="0" cy="0" r="4" style="stroke:#E63A3A;stroke-opacity:1; stroke-width: 2; stroke-dasharray: none; stroke-linecap: butt; stroke-linejoin: miter; stroke-miterlimit: 10;fill:#E63A3A;fill-opacity:1; fill-rule: nonzero; opacity: 1" transform="  matrix(1 0 0 1 183 332) "/><circle cx="0" cy="0" r="4" style="stroke:#E63A3A;stroke-opacity:1; stroke-width: 2; stroke-dasharray: none; stroke-linecap: butt; stroke-linejoin: miter; stroke-miterlimit: 10;fill:#E63A3A;fill-opacity:1; fill-rule: nonzero; opacity: 1" transform="  matrix(1 0 0 1 224 297) "/><circle cx="0" cy="0" r="4" style="stroke:#E63A3A;stroke-opacity:1; stroke-width: 2; stroke-dasharray: none; stroke-linecap: butt; stroke-linejoin: miter; stroke-miterlimit: 10;fill:#E63A3A;fill-opacity:1; fill-rule: nonzero; opacity: 1" transform="  matrix(1 0 0 1 265 384) "/><circle cx="0" cy="0" r="4" style="stroke:#E63A3A;stroke-opacity:1; stroke-width: 2; stroke-dasharray: none; stroke-linecap: butt; stroke-linejoin: miter; stroke-miterlimit: 10;fill:#E63A3A;fill-opacity:1; fill-rule: nonzero; opacity: 1" transform="  matrix(1 0 0 1 306 228) "/><circle cx="0" cy="0" r="4" style="stroke:#E63A3A;stroke-opacity:1; stroke-width: 2; stroke-dasharray: none; stroke-linecap: butt; stroke-linejoin: miter; stroke-miterlimit: 10;fill:#E63A3A;fill-opacity:1; fill-rule: nonzero; opacity: 1" transform="  matrix(1 0 0 1 347 211) "/><circle cx="0" cy="0" r="4" style="stroke:#E63A3A;stroke-opacity:1; stroke-width: 2; stroke-dasharray: none; stroke-linecap: butt; stroke-linejoin: miter; stroke-miterlimit: 10;fill:#E63A3A;fill-opacity:1; fill-rule: nonzero; opacity: 1" transform="  matrix(1 0 0 1 388 263) "/><circle cx="0" cy="0" r="4" style="stroke:#E63A3A;stroke-opacity:1; stroke-width: 2; stroke-dasharray: none; stroke-linecap: butt; stroke-linejoin: miter; stroke-miterlimit: 10;fill:#E63A3A;fill-opacity:1; fill-rule: nonzero; opacity: 1" transform="  matrix(1 0 0 1 429 315) "/><circle cx="0" cy="0" r="4" style="stroke:#E63A3A;stroke-opacity:1; stroke-width: 2; stroke-dasharray: none; stroke-linecap: butt; stroke-linejoin: miter; stroke-miterlimit: 10;fill:#E63A3A;fill-opacity:1; fill-rule: nonzero; opacity: 1" transform="  matrix(1 0 0 1 469 332) "/><circle cx="0" cy="0" r="4" style="stroke:#E63A3A;stroke-opacity:1; stroke-width: 2; stroke-dasharray: none; stroke-linecap: butt; stroke-linejoin: miter; stroke-miterlimit: 10;fill:#E63A3A;fill-opacity:1; fill-rule: nonzero; opacity: 1" transform="  matrix(1 0 0 1 510 297) "/><circle cx="0" cy="0" r="4" style="stroke:#E63A3A;stroke-opacity:1; stroke-width: 2; stroke-dasharray: none; stroke-linecap: butt; stroke-linejoin: miter; stroke-miterlimit: 10;fill:#E63A3A;fill-opacity:1; fill-rule: nonzero; opacity: 1" transform="  matrix(1 0 0 1 551 245) "/><circle cx="0" cy="0" r="4" style="stroke:#E63A3A;stroke-opacity:1; stroke-width: 2; stroke-dasharray: none; stroke-linecap: butt; stroke-linejoin: miter; stroke-miterlimit: 10;fill:#E63A3A;fill-opacity:1; fill-rule: nonzero; opacity: 1" transform="  matrix(1 0 0 1 592 159) "/><circle cx="0" cy="0" r="4" style="stroke:#E63A3A;stroke-opacity:1; stroke-width: 2; stroke-dasharray: none; stroke-linecap: butt; stroke-linejoin: miter; stroke-miterlimit: 10;fill:#E63A3A;fill-opacity:1; fill-rule: nonzero; opacity: 1" transform="  matrix(1 0 0 1 633 193) "/><circle cx="0" cy="0" r="4" style="stroke:#E63A3A;stroke-opacity:1; stroke-width: 2; stroke-dasharray: none; stroke-linecap: butt; stroke-linejoin: miter; stroke-miterlimit: 10;fill:#E63A3A;fill-opacity:1; fill-rule: nonzero; opacity: 1" transform="  matrix(1 0 0 1 674 107) "/><circle cx="0" cy="0" r="4" style="stroke:#E63A3A;stroke-opacity:1; stroke-width: 2; stroke-dasharray: none; stroke-linecap: butt; stroke-linejoin: miter; stroke-miterlimit: 10;fill:#E63A3A;fill-opacity:1; fill-rule: nonzero; opacity: 1" transform="  matrix(1 0 0 1 715 55) "/><circle cx="0" cy="0" r="4" style="stroke:#E63A3A;stroke-opacity:1; stroke-width: 2; stroke-dasharray: none; stroke-linecap: butt; stroke-linejoin: miter; stroke-miterlimit: 10;fill:#E63A3A;fill-opacity:1; fill-rule: nonzero; opacity: 1" transform="  matrix(1 0 0 1 756 297) "/><circle cx="0" cy="0" r="4" style="stroke:#E63A3A;stroke-opacity:1; stroke-width: 2; stroke-dasharray: none; stroke-linecap: butt; stroke-linejoin: miter; stroke-miterlimit: 10;fill:#E63A3A;fill-opacity:1; fill-rule: nonzero; opacity: 1" transform="  matrix(1 0 0 1 797 193) "/><circle cx="0" cy="0" r="4" style="stroke:#E63A3A;stroke-opacity:1; stroke-width: 2; stroke-dasharray: none; stroke-linecap: butt; stroke-linejoin: miter; stroke-miterlimit: 10;fill:#E63A3A;fill-opacity:1; fill-rule: nonzero; opacity: 1" transform="  matrix(1 0 0 1 838 228) "/><g transform=" matrix(1 0 0 1 43 448.5) "><text font-family="Verdana" font-size="11" font-weight="bold" style="stroke: none; stroke-width: 1; stroke-dasharray: none; stroke-linecap: butt; stroke-linejoin: miter; stroke-miterlimit: 10;fill:#000000;fill-opacity:1; fill-rule: nonzero; opacity: 1" ><tspan x="0.5" y="5.49" fill="rgba(0,0,0,1)">Jul 27</tspan></text></g><g transform=" matrix(1 0 0 1 125 448.5) "><text font-family="Verdana" font-size="11" font-weight="bold" style="stroke: none; stroke-width: 1; stroke-dasharray: none; stroke-linecap: butt; stroke-linejoin: miter; stroke-miterlimit: 10;fill:#000000;fill-opacity:1; fill-rule: nonzero; opacity: 1" ><tspan x="0.5" y="5.49" fill="rgba(0,0,0,1)">Jul 29</tspan></text></g><g transform=" matrix(1 0 0 1 207 448.5) "><text font-family="Verdana" font-size="11" font-weight="bold" style="stroke: none; stroke-width: 1; stroke-dasharray: none; stroke-linecap: butt; stroke-linejoin: miter; stroke-miterlimit: 10;fill:#000000;fill-opacity:1; fill-rule: nonzero; opacity: 1" ><tspan x="0.5" y="5.49" fill="rgba(0,0,0,1)">Jul 31</tspan></text></g><g transform=" matrix(1 0 0 1 288 448.5) "><text font-family="Verdana" font-size="11" font-weight="bold" style="stroke: none; stroke-width: 1; stroke-dasharray: none; stroke-linecap: butt; stroke-linejoin: miter; stroke-miterlimit: 10;fill:#000000;fill-opacity:1; fill-rule: nonzero; opacity: 1" ><tspan x="0.5" y="5.49" fill="rgba(0,0,0,1)">Aug</tspan></text></g><g transform=" matrix(1 0 0 1 370 448.5) "><text font-family="Verdana" font-size="11" font-weight="bold" style="stroke: none; stroke-width: 1; stroke-dasharray: none; stroke-linecap: butt; stroke-linejoin: miter; stroke-miterlimit: 10;fill:#000000;fill-opacity:1; fill-rule: nonzero; opacity: 1" ><tspan x="0.5" y="5.49" fill="rgba(0,0,0,1)">Aug 04</tspan></text></g><g transform=" matrix(1 0 0 1 452 448.5) "><text font-family="Verdana" font-size="11" font-weight="bold" style="stroke: none; stroke-width: 1; stroke-dasharray: none; stroke-linecap: butt; stroke-linejoin: miter; stroke-miterlimit: 10;fill:#000000;fill-opacity:1; fill-rule: nonzero; opacity: 1" ><tspan x="0.5" y="5.49" fill="rgba(0,0,0,1)">Aug 06</tspan></text></g><g transform=" matrix(1 0 0 1 534 448.5) "><text font-family="Verdana" font-size="11" font-weight="bold" style="stroke: none; stroke-width: 1; stroke-dasharray: none; stroke-linecap: butt; stroke-linejoin: miter; stroke-miterlimit: 10;fill:#000000;fill-opacity:1; fill-rule: nonzero; opacity: 1" ><tspan x="0.5" y="5.49" fill="rgba(0,0,0,1)">Aug 08</tspan></text></g><g transform=" matrix(1 0 0 1 616 448.5) "><text font-family="Verdana" font-size="11" font-weight="bold" style="stroke: none; stroke-width: 1; stroke-dasharray: none; stroke-linecap: butt; stroke-linejoin: miter; stroke-miterlimit: 10;fill:#000000;fill-opacity:1; fill-rule: nonzero; opacity: 1" ><tspan x="0.5" y="5.49" fill="rgba(0,0,0,1)">Aug 10</tspan></text></g><g transform=" matrix(1 0 0 1 697 448.5) "><text font-family="Verdana" font-size="11" font-weight="bold" style="stroke: none; stroke-width: 1; stroke-dasharray: none; stroke-linecap: butt; stroke-linejoin: miter; stroke-miterlimit: 10;fill:#000000;fill-opacity:1; fill-rule: nonzero; opacity: 1" ><tspan x="0.5" y="5.49" fill="rgba(0,0,0,1)">Aug 12</tspan></text></g><g transform=" matrix(1 0 0 1 779 448.5) "><text font-family="Verdana" font-size="11" font-weight="bold" style="stroke: none; stroke-width: 1; stroke-dasharray: none; stroke-linecap: butt; stroke-linejoin: miter; stroke-miterlimit: 10;fill:#000000;fill-opacity:1; fill-rule: nonzero; opacity: 1" ><tspan x="0.5" y="5.49" fill="rgba(0,0,0,1)">Aug 14</tspan></text></g><g transform=" matrix(1 0 0 1 28 435) "><text font-family="Verdana" font-size="11" font-weight="bold" style="stroke: none; stroke-width: 1; stroke-dasharray: none; stroke-linecap: butt; stroke-linejoin: miter; stroke-miterlimit: 10;fill:#000000;fill-opacity:1; fill-rule: nonzero; opacity: 1" ><tspan x="-16.14" y="5.49" fill="rgba(0,0,0,1)">10</tspan></text></g><g transform=" matrix(1 0 0 1 28 400) "><text font-family="Verdana" font-size="11" font-weight="bold" style="stroke: none; stroke-width: 1; stroke-dasharray: none; stroke-linecap: butt; stroke-linejoin: miter; stroke-miterlimit: 10;fill:#000000;fill-opacity:1; fill-rule: nonzero; opacity: 1" ><tspan x="-16.14" y="5.49" fill="rgba(0,0,0,1)">12</tspan></text></g><g transform=" matrix(1 0 0 1 28 366) "><text font-family="Verdana" font-size="11" font-weight="bold" style="stroke: none; stroke-width: 1; stroke-dasharray: none; stroke-linecap: butt; stroke-linejoin: miter; stroke-miterlimit: 10;fill:#000000;fill-opacity:1; fill-rule: nonzero; opacity: 1" ><tspan x="-16.14" y="5.49" fill="rgba(0,0,0,1)">14</tspan></text></g><g transform=" matrix(1 0 0 1 28 331) "><text font-family="Verdana" font-size="11" font-weight="bold" style="stroke: none; stroke-width: 1; stroke-dasharray: none; stroke-linecap: butt; stroke-linejoin: miter; stroke-miterlimit: 10;fill:#000000;fill-opacity:1; fill-rule: nonzero; opacity: 1" ><tspan x="-16.14" y="5.49" fill="rgba(0,0,0,1)">16</tspan></text></g><g transform=" matrix(1 0 0 1 28 296) "><text font-family="Verdana" font-size="11" font-weight="bold" style="stroke: none; stroke-width: 1; stroke-dasharray: none; stroke-linecap: butt; stroke-linejoin: miter; stroke-miterlimit: 10;fill:#000000;fill-opacity:1; fill-rule: nonzero; opacity: 1" ><tspan x="-16.14" y="5.49" fill="rgba(0,0,0,1)">18</tspan></text></g><g transform=" matrix(1 0 0 1 28 262) "><text font-family="Verdana" font-size="11" font-weight="bold" style="stroke: none; stroke-width: 1; stroke-dasharray: none; stroke-linecap: butt; stroke-linejoin: miter; stroke-miterlimit: 10;fill:#000000;fill-opacity:1; fill-rule: nonzero; opacity: 1" ><tspan x="-16.14" y="5.49" fill="rgba(0,0,0,1)">20</tspan></text></g><g transform=" matrix(1 0 0 1 28 227) "><text font-family="Verdana" font-size="11" font-weight="bold" style="stroke: none; stroke-width: 1; stroke-dasharray: none; stroke-linecap: butt; stroke-linejoin: miter; stroke-miterlimit: 10;fill:#000000;fill-opacity:1; fill-rule: nonzero; opacity: 1" ><tspan x="-16.14" y="5.49" fill="rgba(0,0,0,1)">22</tspan></text></g><g transform=" matrix(1 0 0 1 28 192) "><text font-family="Verdana" font-size="11" font-weight="bold" style="stroke: none; stroke-width: 1; stroke-dasharray: none; stroke-linecap: butt; stroke-linejoin: miter; stroke-miterlimit: 10;fill:#000000;fill-opacity:1; fill-rule: nonzero; opacity: 1" ><tspan x="-16.14" y="5.49" fill="rgba(0,0,0,1)">24</tspan></text></g><g transform=" matrix(1 0 0 1 28 158) "><text font-family="Verdana" font-size="11" font-weight="bold" style="stroke: none; stroke-width: 1; stroke-dasharray: none; stroke-linecap: butt; stroke-linejoin: miter; stroke-miterlimit: 10;fill:#000000;fill-opacity:1; fill-rule: nonzero; opacity: 1" ><tspan x="-16.14" y="5.49" fill="rgba(0,0,0,1)">26</tspan></text></g><g transform=" matrix(1 0 0 1 28 123) "><text font-family="Verdana" font-size="11" font-weight="bold" style="stroke: none; stroke-width: 1; stroke-dasharray: none; stroke-linecap: butt; stroke-linejoin: miter; stroke-miterlimit: 10;fill:#000000;fill-opacity:1; fill-rule: nonzero; opacity: 1" ><tspan x="-16.14" y="5.49" fill="rgba(0,0,0,1)">28</tspan></text></g><g transform=" matrix(1 0 0 1 28 88) "><text font-family="Verdana" font-size="11" font-weight="bold" style="stroke: none; stroke-width: 1; stroke-dasharray: none; stroke-linecap: butt; stroke-linejoin: miter; stroke-miterlimit: 10;fill:#000000;fill-opacity:1; fill-rule: nonzero; opacity: 1" ><tspan x="-16.14" y="5.49" fill="rgba(0,0,0,1)">30</tspan></text></g><g transform=" matrix(1 0 0 1 28 54) "><text font-family="Verdana" font-size="11" font-weight="bold" style="stroke: none; stroke-width: 1; stroke-dasharray: none; stroke-linecap: butt; stroke-linejoin: miter; stroke-miterlimit: 10;fill:#000000;fill-opacity:1; fill-rule: nonzero; opacity: 1" ><tspan x="-16.14" y="5.49" fill="rgba(0,0,0,1)">32</tspan></text></g><g transform=" matrix(1 0 0 1 28 19) "><text font-family="Verdana" font-size="11" font-weight="bold" style="stroke: none; stroke-width: 1; stroke-dasharray: none; stroke-linecap: butt; stroke-linejoin: miter; stroke-miterlimit: 10;fill:#000000;fill-opacity:1; fill-rule: nonzero; opacity: 1" ><tspan x="-16.14" y="5.49" fill="rgba(0,0,0,1)">34</tspan></text></g><rect x="0.5" y="0.5" rx="0" ry="0" width="93" height="33" style="stroke:#E5E5E5;stroke-opacity:1; stroke-opacity: 0; stroke-width: 1; stroke-dasharray: none; stroke-linecap: butt; stroke-linejoin: miter; stroke-miterlimit: 10;fill:#E5E5E5;fill-opacity:1; fill-opacity: 0; fill-rule: nonzero; opacity: 0" transform=" matrix(1 0 0 1 766 20) "/><g transform=" matrix(1 0 0 1 774 28) "><image xlink:href="http://localhost:8080/sampler/VAADIN/resources/amcharts/images/lens.svg" x="0" y="0" style="stroke: none; stroke-width: 0; stroke-dasharray: none; stroke-linecap: butt; stroke-linejoin: miter; stroke-miterlimit: 10;fill:#000000;fill-opacity:1; fill-rule: nonzero; opacity: 0" width="19" height="19" preserveAspectRatio="none"></image></g><g transform=" matrix(1 0 0 1 798 35) "><text font-family="Verdana" font-size="11" font-weight="normal" style="stroke: none; stroke-width: 1; stroke-dasharray: none; stroke-linecap: butt; stroke-linejoin: miter; stroke-miterlimit: 10;fill:#000000;fill-opacity:1; fill-opacity: 0; fill-rule: nonzero; opacity: 0" ><tspan x="0.5" y="5.49" opacity="0" fill="rgb(0,0,0)">Show All</tspan></text></g><rect x="-1" y="-1" rx="0" ry="0" width="820" height="418" style="stroke: none; stroke-width: 0; stroke-dasharray: none; stroke-linecap: butt; stroke-linejoin: miter; stroke-miterlimit: 10; fill: none; fill-rule: nonzero; opacity: 1" transform=""/></g><clipPath xmlns="http://www.w3.org/2000/svg" id="AmChartsEl-196"><rect x="0" y="0" width="818" height="416" rx="0" ry="0" stroke-width="0" fill="none" fill-opacity="0" svgUid="0"/></clipPath><clipPath xmlns="http://www.w3.org/2000/svg" id="AmChartsEl-191"><rect x="0" y="0" width="818" height="416" rx="0" ry="0" stroke-width="0" fill="none" fill-opacity="0" svgUid="0"/></clipPath></svg>