<?xml version="1.0" encoding="UTF-8" standalone="no" ?><!DOCTYPE svg PUBLIC "-//W3C//DTD SVG 1.1//EN" "http://www.w3.org/Graphics/SVG/1.1/DTD/svg11.dtd"><svg xmlns="http://www.w3.org/2000/svg" xmlns:xlink="http://www.w3.org/1999/xlink" version="1.1" width="772" height="380" style="background-color: #FFFFFF" viewBox="0 0 772 380" xml:space="preserve"><desc>Created with Fabric.js 1.6.2</desc><defs></defs><g style="stroke: none; stroke-width: 1; stroke-dasharray: none; stroke-linecap: butt; stroke-linejoin: miter; stroke-miterlimit: 10; fill: none; fill-rule: nonzero; opacity: 1" transform="translate(0.5 0.5)" ><path d="M 0.5 0.5 L 669.5 0.5 L 669.5 37.5 L 0.5 37.5 Z" style="stroke:#000000;stroke-opacity:1; stroke-opacity: 0; stroke-width: 1; stroke-dasharray: none; stroke-linecap: butt; stroke-linejoin: miter; stroke-miterlimit: 10;fill:#FFFFFF;fill-opacity:1; fill-opacity: 0; fill-rule: nonzero; opacity: 1" transform=" matrix(1 0 0 1 82 10) " stroke-linecap="round" /><path d="M -7.5 8.5 L 8.5 8.5 L 8.5 -7.5 L -7.5 -7.5 Z" style="stroke:#FF6600;stroke-opacity:1; stroke-width: 1; stroke-dasharray: none; stroke-linecap: butt; stroke-linejoin: miter; stroke-miterlimit: 10;fill:#FF6600;fill-opacity:1; fill-opacity: 0.6; fill-rule: nonzero; opacity: 1" transform=" matrix(1 0 0 1 90 29) " stroke-linecap="round" /><path d="M -5.5 -5.5 L 6.5 6.5" style="stroke:#FFFFFF;stroke-opacity:1; stroke-opacity: 0; stroke-width: 3; stroke-dasharray: none; stroke-linecap: butt; stroke-linejoin: miter; stroke-miterlimit: 10; fill: none; fill-rule: nonzero; opacity: 0" transform=" matrix(1 0 0 1 90 29) " stroke-linecap="round" /><path d="M -5.5 6.5 L 6.5 -5.5" style="stroke:#FFFFFF;stroke-opacity:1; stroke-opacity: 0; stroke-width: 3; stroke-dasharray: none; stroke-linecap: butt; stroke-linejoin: miter; stroke-miterlimit: 10; fill: none; fill-rule: nonzero; opacity: 0" transform=" matrix(1 0 0 1 90 29) " stroke-linecap="round" /><g transform=" matrix(1 0 0 1 103 28) "><text font-family="Verdana" font-size="11" font-weight="normal" style="stroke: none; stroke-width: 1; stroke-dasharray: none; stroke-linecap: butt; stroke-linejoin: miter; stroke-miterlimit: 10;fill:#000000;fill-opacity:1; fill-rule: nonzero; opacity: 1" ><tspan x="0.5" y="5.49" fill="rgba(0,0,0,1)">Cars</tspan></text></g><g transform=" matrix(1 0 0 1 133 28) "><text font-family="Verdana" font-size="11" font-weight="normal" style="stroke: none; stroke-width: 1; stroke-dasharray: none; stroke-linecap: butt; stroke-linejoin: miter; stroke-miterlimit: 10;fill:#000000;fill-opacity:1; fill-rule: nonzero; opacity: 1" ><tspan x="0.5" y="5.49" fill="rgba(0,0,0,1)">total: 25,906</tspan></text></g><rect x="16" y="0" rx="0" ry="0" width="134.96875" height="18" style="stroke: none; stroke-width: 0; stroke-dasharray: none; stroke-linecap: butt; stroke-linejoin: miter; stroke-miterlimit: 10;fill:#FFFFFF;fill-opacity:1; fill-opacity: 0.005; fill-rule: nonzero; opacity: 1" transform=" matrix(1 0 0 1 82 21) "/><path d="M -7.5 8.5 L 8.5 8.5 L 8.5 -7.5 L -7.5 -7.5 Z" style="stroke:#FCD202;stroke-opacity:1; stroke-width: 1; stroke-dasharray: none; stroke-linecap: butt; stroke-linejoin: miter; stroke-miterlimit: 10;fill:#FCD202;fill-opacity:1; fill-opacity: 0.6; fill-rule: nonzero; opacity: 1" transform=" matrix(1 0 0 1 250 29) " stroke-linecap="round" /><path d="M -5.5 -5.5 L 6.5 6.5" style="stroke:#FFFFFF;stroke-opacity:1; stroke-opacity: 0; stroke-width: 3; stroke-dasharray: none; stroke-linecap: butt; stroke-linejoin: miter; stroke-miterlimit: 10; fill: none; fill-rule: nonzero; opacity: 0" transform=" matrix(1 0 0 1 250 29) " stroke-linecap="round" /><path d="M -5.5 6.5 L 6.5 -5.5" style="stroke:#FFFFFF;stroke-opacity:1; stroke-opacity: 0; stroke-width: 3; stroke-dasharray: none; stroke-linecap: butt; stroke-linejoin: miter; stroke-miterlimit: 10; fill: none; fill-rule: nonzero; opacity: 0" transform=" matrix(1 0 0 1 250 29) " stroke-linecap="round" /><g transform=" matrix(1 0 0 1 263 28) "><text font-family="Verdana" font-size="11" font-weight="normal" style="stroke: none; stroke-width: 1; stroke-dasharray: none; stroke-linecap: butt; stroke-linejoin: miter; stroke-miterlimit: 10;fill:#000000;fill-opacity:1; fill-rule: nonzero; opacity: 1" ><tspan x="0.5" y="5.49" fill="rgba(0,0,0,1)">Motorcycles</tspan></text></g><g transform=" matrix(1 0 0 1 333 28) "><text font-family="Verdana" font-size="11" font-weight="normal" style="stroke: none; stroke-width: 1; stroke-dasharray: none; stroke-linecap: butt; stroke-linejoin: miter; stroke-miterlimit: 10;fill:#000000;fill-opacity:1; fill-rule: nonzero; opacity: 1" ><tspan x="0.5" y="5.49" fill="rgba(0,0,0,1)">total: 10,190</tspan></text></g><rect x="16" y="0" rx="0" ry="0" width="175.09375" height="18" style="stroke: none; stroke-width: 0; stroke-dasharray: none; stroke-linecap: butt; stroke-linejoin: miter; stroke-miterlimit: 10;fill:#FFFFFF;fill-opacity:1; fill-opacity: 0.005; fill-rule: nonzero; opacity: 1" transform=" matrix(1 0 0 1 242 21) "/><path d="M -7.5 8.5 L 8.5 8.5 L 8.5 -7.5 L -7.5 -7.5 Z" style="stroke:#B0DE09;stroke-opacity:1; stroke-width: 1; stroke-dasharray: none; stroke-linecap: butt; stroke-linejoin: miter; stroke-miterlimit: 10;fill:#B0DE09;fill-opacity:1; fill-opacity: 0.6; fill-rule: nonzero; opacity: 1" transform=" matrix(1 0 0 1 451 29) " stroke-linecap="round" /><path d="M -5.5 -5.5 L 6.5 6.5" style="stroke:#FFFFFF;stroke-opacity:1; stroke-opacity: 0; stroke-width: 3; stroke-dasharray: none; stroke-linecap: butt; stroke-linejoin: miter; stroke-miterlimit: 10; fill: none; fill-rule: nonzero; opacity: 0" transform=" matrix(1 0 0 1 451 29) " stroke-linecap="round" /><path d="M -5.5 6.5 L 6.5 -5.5" style="stroke:#FFFFFF;stroke-opacity:1; stroke-opacity: 0; stroke-width: 3; stroke-dasharray: none; stroke-linecap: butt; stroke-linejoin: miter; stroke-miterlimit: 10; fill: none; fill-rule: nonzero; opacity: 0" transform=" matrix(1 0 0 1 451 29) " stroke-linecap="round" /><g transform=" matrix(1 0 0 1 464 28) "><text font-family="Verdana" font-size="11" font-weight="normal" style="stroke: none; stroke-width: 1; stroke-dasharray: none; stroke-linecap: butt; stroke-linejoin: miter; stroke-miterlimit: 10;fill:#000000;fill-opacity:1; fill-rule: nonzero; opacity: 1" ><tspan x="0.5" y="5.49" fill="rgba(0,0,0,1)">Bicycles</tspan></text></g><g transform=" matrix(1 0 0 1 513 28) "><text font-family="Verdana" font-size="11" font-weight="normal" style="stroke: none; stroke-width: 1; stroke-dasharray: none; stroke-linecap: butt; stroke-linejoin: miter; stroke-miterlimit: 10;fill:#000000;fill-opacity:1; fill-rule: nonzero; opacity: 1" ><tspan x="0.5" y="5.49" fill="rgba(0,0,0,1)">total: 1,910</tspan></text></g><rect x="16" y="0" rx="0" ry="0" width="154" height="18" style="stroke: none; stroke-width: 0; stroke-dasharray: none; stroke-linecap: butt; stroke-linejoin: miter; stroke-miterlimit: 10;fill:#FFFFFF;fill-opacity:1; fill-opacity: 0.005; fill-rule: nonzero; opacity: 1" transform=" matrix(1 0 0 1 443 21) "/></g><g style="stroke: none; stroke-width: 1; stroke-dasharray: none; stroke-linecap: butt; stroke-linejoin: miter; stroke-miterlimit: 10; fill: none; fill-rule: nonzero; opacity: 1" transform="translate(0.5 48.50000000000003)" ><path d="M 0.5 0.5 L 771.5 0.5 L 771.5 331.5 L 0.5 331.5 Z" style="stroke:#000000;stroke-opacity:1; stroke-opacity: 0; stroke-width: 1; stroke-dasharray: none; stroke-linecap: butt; stroke-linejoin: miter; stroke-miterlimit: 10;fill:#FFFFFF;fill-opacity:1; fill-opacity: 0; fill-rule: nonzero; opacity: 1" transform="" stroke-linecap="round" /><path d="M 0.5 0.5 L 669.5 0.5 L 669.5 286.5 L 0.5 286.5 L 0.5 0.5 Z" style="stroke:#000000;stroke-opacity:1; stroke-opacity: 0; stroke-width: 1; stroke-dasharray: none; stroke-linecap: butt; stroke-linejoin: miter; stroke-miterlimit: 10;fill:#FFFFFF;fill-opacity:1; fill-opacity: 0; fill-rule: nonzero; opacity: 1" transform=" matrix(1 0 0 1 82 10) " stroke-linecap="round" /><path d="M 0.5 0.5 L 0.5 5.5" style="stroke:#DADADA;stroke-opacity:1; stroke-width: 1; stroke-dasharray: none; stroke-linecap: butt; stroke-linejoin: miter; stroke-miterlimit: 10; fill: none; fill-rule: nonzero; opacity: 1" transform=" matrix(1 0 0 1 82 296) " stroke-linecap="round" /><path d="M 0.5 286.5 L 0.5 286.5 L 0.5 0.5" style="stroke:#000000;stroke-opacity:1; stroke-opacity: 0.07; stroke-width: 1; stroke-dasharray: none; stroke-linecap: butt; stroke-linejoin: miter; stroke-miterlimit: 10; fill: none; fill-rule: nonzero; opacity: 1" transform=" matrix(1 0 0 1 82 10) " stroke-linecap="round" /><path d="M 74.5 0.5 L 74.5 5.5" style="stroke:#DADADA;stroke-opacity:1; stroke-width: 1; stroke-dasharray: none; stroke-linecap: butt; stroke-linejoin: miter; stroke-miterlimit: 10; fill: none; fill-rule: nonzero; opacity: 1" transform=" matrix(1 0 0 1 82 296) " stroke-linecap="round" /><path d="M 74.5 286.5 L 74.5 286.5 L 74.5 0.5" style="stroke:#000000;stroke-opacity:1; stroke-opacity: 0.07; stroke-width: 1; stroke-dasharray: none; stroke-linecap: butt; stroke-linejoin: miter; stroke-miterlimit: 10; fill: none; fill-rule: nonzero; opacity: 1" transform=" matrix(1 0 0 1 82 10) " stroke-linecap="round" /><path d="M 149.5 0.5 L 149.5 5.5" style="stroke:#DADADA;stroke-opacity:1; stroke-width: 1; stroke-dasharray: none; stroke-linecap: butt; stroke-linejoin: miter; stroke-miterlimit: 10; fill: none; fill-rule: nonzero; opacity: 1" transform=" matrix(1 0 0 1 82 296) " stroke-linecap="round" /><path d="M 149.5 286.5 L 149.5 286.5 L 149.5 0.5" style="stroke:#000000;stroke-opacity:1; stroke-opacity: 0.07; stroke-width: 1; stroke-dasharray: none; stroke-linecap: butt; stroke-linejoin: miter; stroke-miterlimit: 10; fill: none; fill-rule: nonzero; opacity: 1" transform=" matrix(1 0 0 1 82 10) " stroke-linecap="round" /><path d="M 223.5 0.5 L 223.5 5.5" style="stroke:#DADADA;stroke-opacity:1; stroke-width: 1; stroke-dasharray: none; stroke-linecap: butt; stroke-linejoin: miter; stroke-miterlimit: 10; fill: none; fill-rule: nonzero; opacity: 1" transform=" matrix(1 0 0 1 82 296) " stroke-linecap="round" /><path d="M 223.5 286.5 L 223.5 286.5 L 223.5 0.5" style="stroke:#000000;stroke-opacity:1; stroke-opacity: 0.07; stroke-width: 1; stroke-dasharray: none; stroke-linecap: butt; stroke-linejoin: miter; stroke-miterlimit: 10; fill: none; fill-rule: nonzero; opacity: 1" transform=" matrix(1 0 0 1 82 10) " stroke-linecap="round" /><path d="M 297.5 0.5 L 297.5 5.5" style="stroke:#DADADA;stroke-opacity:1; stroke-width: 1; stroke-dasharray: none; stroke-linecap: butt; stroke-linejoin: miter; stroke-miterlimit: 10; fill: none; fill-rule: nonzero; opacity: 1" transform=" matrix(1 0 0 1 82 296) " stroke-linecap="round" /><path d="M 297.5 286.5 L 297.5 286.5 L 297.5 0.5" style="stroke:#000000;stroke-opacity:1; stroke-opacity: 0.07; stroke-width: 1; stroke-dasharray: none; stroke-linecap: butt; stroke-linejoin: miter; stroke-miterlimit: 10; fill: none; fill-rule: nonzero; opacity: 1" transform=" matrix(1 0 0 1 82 10) " stroke-linecap="round" /><path d="M 372.5 0.5 L 372.5 5.5" style="stroke:#DADADA;stroke-opacity:1; stroke-width: 1; stroke-dasharray: none; stroke-linecap: butt; stroke-linejoin: miter; stroke-miterlimit: 10; fill: none; fill-rule: nonzero; opacity: 1" transform=" matrix(1 0 0 1 82 296) " stroke-linecap="round" /><path d="M 372.5 286.5 L 372.5 286.5 L 372.5 0.5" style="stroke:#000000;stroke-opacity:1; stroke-opacity: 0.07; stroke-width: 1; stroke-dasharray: none; stroke-linecap: butt; stroke-linejoin: miter; stroke-miterlimit: 10; fill: none; fill-rule: nonzero; opacity: 1" transform=" matrix(1 0 0 1 82 10) " stroke-linecap="round" /><path d="M 446.5 0.5 L 446.5 5.5" style="stroke:#DADADA;stroke-opacity:1; stroke-width: 1; stroke-dasharray: none; stroke-linecap: butt; stroke-linejoin: miter; stroke-miterlimit: 10; fill: none; fill-rule: nonzero; opacity: 1" transform=" matrix(1 0 0 1 82 296) " stroke-linecap="round" /><path d="M 446.5 286.5 L 446.5 286.5 L 446.5 0.5" style="stroke:#000000;stroke-opacity:1; stroke-opacity: 0.07; stroke-width: 1; stroke-dasharray: none; stroke-linecap: butt; stroke-linejoin: miter; stroke-miterlimit: 10; fill: none; fill-rule: nonzero; opacity: 1" transform=" matrix(1 0 0 1 82 10) " stroke-linecap="round" /><path d="M 520.5 0.5 L 520.5 5.5" style="stroke:#DADADA;stroke-opacity:1; stroke-width: 1; stroke-dasharray: none; stroke-linecap: butt; stroke-linejoin: miter; stroke-miterlimit: 10; fill: none; fill-rule: nonzero; opacity: 1" transform=" matrix(1 0 0 1 82 296) " stroke-linecap="round" /><path d="M 520.5 286.5 L 520.5 286.5 L 520.5 0.5" style="stroke:#000000;stroke-opacity:1; stroke-opacity: 0.07; stroke-width: 1; stroke-dasharray: none; stroke-linecap: butt; stroke-linejoin: miter; stroke-miterlimit: 10; fill: none; fill-rule: nonzero; opacity: 1" transform=" matrix(1 0 0 1 82 10) " stroke-linecap="round" /><path d="M 595.5 0.5 L 595.5 5.5" style="stroke:#DADADA;stroke-opacity:1; stroke-width: 1; stroke-dasharray: none; stroke-linecap: butt; stroke-linejoin: miter; stroke-miterlimit: 10; fill: none; fill-rule: nonzero; opacity: 1" transform=" matrix(1 0 0 1 82 296) " stroke-linecap="round" /><path d="M 595.5 286.5 L 595.5 286.5 L 595.5 0.5" style="stroke:#000000;stroke-opacity:1; stroke-opacity: 0.07; stroke-width: 1; stroke-dasharray: none; stroke-linecap: butt; stroke-linejoin: miter; stroke-miterlimit: 10; fill: none; fill-rule: nonzero; opacity: 1" transform=" matrix(1 0 0 1 82 10) " stroke-linecap="round" /><path d="M 669.5 0.5 L 669.5 5.5" style="stroke:#DADADA;stroke-opacity:1; stroke-width: 1; stroke-dasharray: none; stroke-linecap: butt; stroke-linejoin: miter; stroke-miterlimit: 10; fill: none; fill-rule: nonzero; opacity: 1" transform=" matrix(1 0 0 1 82 296) " stroke-linecap="round" /><path d="M 669.5 286.5 L 669.5 286.5 L 669.5 0.5" style="stroke:#000000;stroke-opacity:1; stroke-opacity: 0.07; stroke-width: 1; stroke-dasharray: none; stroke-linecap: butt; stroke-linejoin: miter; stroke-miterlimit: 10; fill: none; fill-rule: nonzero; opacity: 1" transform=" matrix(1 0 0 1 82 10) " stroke-linecap="round" /><path d="M 0.5 286.5 L 6.5 286.5" style="stroke:#000000;stroke-opacity:1; stroke-width: 1; stroke-dasharray: none; stroke-linecap: butt; stroke-linejoin: miter; stroke-miterlimit: 10; fill: none; fill-rule: nonzero; opacity: 1" transform=" matrix(1 0 0 1 76 10) " stroke-linecap="round" /><path d="M 0.5 286.5 L 0.5 286.5 L 669.5 286.5" style="stroke:#000000;stroke-opacity:1; stroke-opacity: 0.07; stroke-width: 1; stroke-dasharray: none; stroke-linecap: butt; stroke-linejoin: miter; stroke-miterlimit: 10; fill: none; fill-rule: nonzero; opacity: 1" transform=" matrix(1 0 0 1 82 10) " stroke-linecap="round" /><path d="M 0.5 238.5 L 6.5 238.5" style="stroke:#000000;stroke-opacity:1; stroke-width: 1; stroke-dasharray: none; stroke-linecap: butt; stroke-linejoin: miter; stroke-miterlimit: 10; fill: none; fill-rule: nonzero; opacity: 1" transform=" matrix(1 0 0 1 76 10) " stroke-linecap="round" /><path d="M 0.5 238.5 L 0.5 238.5 L 669.5 238.5" style="stroke:#000000;stroke-opacity:1; stroke-opacity: 0.07; stroke-width: 1; stroke-dasharray: none; stroke-linecap: butt; stroke-linejoin: miter; stroke-miterlimit: 10; fill: none; fill-rule: nonzero; opacity: 1" transform=" matrix(1 0 0 1 82 10) " stroke-linecap="round" /><path d="M 0.5 191.5 L 6.5 191.5" style="stroke:#000000;stroke-opacity:1; stroke-width: 1; stroke-dasharray: none; stroke-linecap: butt; stroke-linejoin: miter; stroke-miterlimit: 10; fill: none; fill-rule: nonzero; opacity: 1" transform=" matrix(1 0 0 1 76 10) " stroke-linecap="round" /><path d="M 0.5 191.5 L 0.5 191.5 L 669.5 191.5" style="stroke:#000000;stroke-opacity:1; stroke-opacity: 0.07; stroke-width: 1; stroke-dasharray: none; stroke-linecap: butt; stroke-linejoin: miter; stroke-miterlimit: 10; fill: none; fill-rule: nonzero; opacity: 1" transform=" matrix(1 0 0 1 82 10) " stroke-linecap="round" /><path d="M 0.5 143.5 L 6.5 143.5" style="stroke:#000000;stroke-opacity:1; stroke-width: 1; stroke-dasharray: none; stroke-linecap: butt; stroke-linejoin: miter; stroke-miterlimit: 10; fill: none; fill-rule: nonzero; opacity: 1" transform=" matrix(1 0 0 1 76 10) " stroke-linecap="round" /><path d="M 0.5 143.5 L 0.5 143.5 L 669.5 143.5" style="stroke:#000000;stroke-opacity:1; stroke-opacity: 0.07; stroke-width: 1; stroke-dasharray: none; stroke-linecap: butt; stroke-linejoin: miter; stroke-miterlimit: 10; fill: none; fill-rule: nonzero; opacity: 1" transform=" matrix(1 0 0 1 82 10) " stroke-linecap="round" /><path d="M 0.5 95.5 L 6.5 95.5" style="stroke:#000000;stroke-opacity:1; stroke-width: 1; stroke-dasharray: none; stroke-linecap: butt; stroke-linejoin: miter; stroke-miterlimit: 10; fill: none; fill-rule: nonzero; opacity: 1" transform=" matrix(1 0 0 1 76 10) " stroke-linecap="round" /><path d="M 0.5 95.5 L 0.5 95.5 L 669.5 95.5" style="stroke:#000000;stroke-opacity:1; stroke-opacity: 0.07; stroke-width: 1; stroke-dasharray: none; stroke-linecap: butt; stroke-linejoin: miter; stroke-miterlimit: 10; fill: none; fill-rule: nonzero; opacity: 1" transform=" matrix(1 0 0 1 82 10) " stroke-linecap="round" /><path d="M 0.5 48.5 L 6.5 48.5" style="stroke:#000000;stroke-opacity:1; stroke-width: 1; stroke-dasharray: none; stroke-linecap: butt; stroke-linejoin: miter; stroke-miterlimit: 10; fill: none; fill-rule: nonzero; opacity: 1" transform=" matrix(1 0 0 1 76 10) " stroke-linecap="round" /><path d="M 0.5 48.5 L 0.5 48.5 L 669.5 48.5" style="stroke:#000000;stroke-opacity:1; stroke-opacity: 0.07; stroke-width: 1; stroke-dasharray: none; stroke-linecap: butt; stroke-linejoin: miter; stroke-miterlimit: 10; fill: none; fill-rule: nonzero; opacity: 1" transform=" matrix(1 0 0 1 82 10) " stroke-linecap="round" /><path d="M 0.5 0.5 L 6.5 0.5" style="stroke:#000000;stroke-opacity:1; stroke-width: 1; stroke-dasharray: none; stroke-linecap: butt; stroke-linejoin: miter; stroke-miterlimit: 10; fill: none; fill-rule: nonzero; opacity: 1" transform=" matrix(1 0 0 1 76 10) " stroke-linecap="round" /><path d="M 0.5 0.5 L 0.5 0.5 L 669.5 0.5" style="stroke:#000000;stroke-opacity:1; stroke-opacity: 0.07; stroke-width: 1; stroke-dasharray: none; stroke-linecap: butt; stroke-linejoin: miter; stroke-miterlimit: 10; fill: none; fill-rule: nonzero; opacity: 1" transform=" matrix(1 0 0 1 82 10) " stroke-linecap="round" /><path d="M 0.5 0.5 L 0.5 -150.5 L 15.5 -150.5 L 15.5 0.5 L 0.5 0.5 Z" style="stroke:#FF6600;stroke-opacity:1; stroke-opacity: 0.4; stroke-width: 1; stroke-dasharray: none; stroke-linecap: butt; stroke-linejoin: miter; stroke-miterlimit: 10;fill:#FF6600;fill-opacity:1; fill-opacity: 0.6; fill-rule: nonzero; opacity: 1" transform=" matrix(1 0 0 1 82 296) " stroke-linecap="round" /><path d="M 0.5 0.5 L 0.5 -148.5 L 30.5 -148.5 L 30.5 0.5 L 0.5 0.5 Z" style="stroke:#FF6600;stroke-opacity:1; stroke-opacity: 0.4; stroke-width: 1; stroke-dasharray: none; stroke-linecap: butt; stroke-linejoin: miter; stroke-miterlimit: 10;fill:#FF6600;fill-opacity:1; fill-opacity: 0.6; fill-rule: nonzero; opacity: 1" transform=" matrix(1 0 0 1 104 296) " stroke-linecap="round" /><path d="M 0.5 0.5 L 0.5 -153.5 L 30.5 -153.5 L 30.5 0.5 L 0.5 0.5 Z" style="stroke:#FF6600;stroke-opacity:1; stroke-opacity: 0.4; stroke-width: 1; stroke-dasharray: none; stroke-linecap: butt; stroke-linejoin: miter; stroke-miterlimit: 10;fill:#FF6600;fill-opacity:1; fill-opacity: 0.6; fill-rule: nonzero; opacity: 1" transform=" matrix(1 0 0 1 141 296) " stroke-linecap="round" /><path d="M 0.5 0.5 L 0.5 -154.5 L 30.5 -154.5 L 30.5 0.5 L 0.5 0.5 Z" style="stroke:#FF6600;stroke-opacity:1; stroke-opacity: 0.4; stroke-width: 1; stroke-dasharray: none; stroke-linecap: butt; stroke-linejoin: miter; stroke-miterlimit: 10;fill:#FF6600;fill-opacity:1; fill-opacity: 0.6; fill-rule: nonzero; opacity: 1" transform=" matrix(1 0 0 1 179 296) " stroke-linecap="round" /><path d="M 0.5 0.5 L 0.5 -157.5 L 30.5 -157.5 L 30.5 0.5 L 0.5 0.5 Z" style="stroke:#FF6600;stroke-opacity:1; stroke-opacity: 0.4; stroke-width: 1; stroke-dasharray: none; stroke-linecap: butt; stroke-linejoin: miter; stroke-miterlimit: 10;fill:#FF6600;fill-opacity:1; fill-opacity: 0.6; fill-rule: nonzero; opacity: 1" transform=" matrix(1 0 0 1 216 296) " stroke-linecap="round" /><path d="M 0.5 0.5 L 0.5 -159.5 L 30.5 -159.5 L 30.5 0.5 L 0.5 0.5 Z" style="stroke:#FF6600;stroke-opacity:1; stroke-opacity: 0.4; stroke-width: 1; stroke-dasharray: none; stroke-linecap: butt; stroke-linejoin: miter; stroke-miterlimit: 10;fill:#FF6600;fill-opacity:1; fill-opacity: 0.6; fill-rule: nonzero; opacity: 1" transform=" matrix(1 0 0 1 253 296) " stroke-linecap="round" /><path d="M 0.5 0.5 L 0.5 -160.5 L 30.5 -160.5 L 30.5 0.5 L 0.5 0.5 Z" style="stroke:#FF6600;stroke-opacity:1; stroke-opacity: 0.4; stroke-width: 1; stroke-dasharray: none; stroke-linecap: butt; stroke-linejoin: miter; stroke-miterlimit: 10;fill:#FF6600;fill-opacity:1; fill-opacity: 0.6; fill-rule: nonzero; opacity: 1" transform=" matrix(1 0 0 1 290 296) " stroke-linecap="round" /><path d="M 0.5 0.5 L 0.5 -123.5 L 30.5 -123.5 L 30.5 0.5 L 0.5 0.5 Z" style="stroke:#FF6600;stroke-opacity:1; stroke-opacity: 0.4; stroke-width: 1; stroke-dasharray: none; stroke-linecap: butt; stroke-linejoin: miter; stroke-miterlimit: 10;fill:#FF6600;fill-opacity:1; fill-opacity: 0.6; fill-rule: nonzero; opacity: 1" transform=" matrix(1 0 0 1 327 296) " stroke-linecap="round" /><path d="M 0.5 0.5 L 0.5 -121.5 L 30.5 -121.5 L 30.5 0.5 L 0.5 0.5 Z" style="stroke:#FF6600;stroke-opacity:1; stroke-opacity: 0.4; stroke-width: 1; stroke-dasharray: none; stroke-linecap: butt; stroke-linejoin: miter; stroke-miterlimit: 10;fill:#FF6600;fill-opacity:1; fill-opacity: 0.6; fill-rule: nonzero; opacity: 1" transform=" matrix(1 0 0 1 364 296) " stroke-linecap="round" /><path d="M 0.5 0.5 L 0.5 -118.5 L 30.5 -118.5 L 30.5 0.5 L 0.5 0.5 Z" style="stroke:#FF6600;stroke-opacity:1; stroke-opacity: 0.4; stroke-width: 1; stroke-dasharray: none; stroke-linecap: butt; stroke-linejoin: miter; stroke-miterlimit: 10;fill:#FF6600;fill-opacity:1; fill-opacity: 0.6; fill-rule: nonzero; opacity: 1" transform=" matrix(1 0 0 1 402 296) " stroke-linecap="round" /><path d="M 0.5 0.5 L 0.5 -125.5 L 30.5 -125.5 L 30.5 0.5 L 0.5 0.5 Z" style="stroke:#FF6600;stroke-opacity:1; stroke-opacity: 0.4; stroke-width: 1; stroke-dasharray: none; stroke-linecap: butt; stroke-linejoin: miter; stroke-miterlimit: 10;fill:#FF6600;fill-opacity:1; fill-opacity: 0.6; fill-rule: nonzero; opacity: 1" transform=" matrix(1 0 0 1 439 296) " stroke-linecap="round" /><path d="M 0.5 0.5 L 0.5 -115.5 L 30.5 -115.5 L 30.5 0.5 L 0.5 0.5 Z" style="stroke:#FF6600;stroke-opacity:1; stroke-opacity: 0.4; stroke-width: 1; stroke-dasharray: none; stroke-linecap: butt; stroke-linejoin: miter; stroke-miterlimit: 10;fill:#FF6600;fill-opacity:1; fill-opacity: 0.6; fill-rule: nonzero; opacity: 1" transform=" matrix(1 0 0 1 476 296) " stroke-linecap="round" /><path d="M 0.5 0.5 L 0.5 -113.5 L 30.5 -113.5 L 30.5 0.5 L 0.5 0.5 Z" style="stroke:#FF6600;stroke-opacity:1; stroke-opacity: 0.4; stroke-width: 1; stroke-dasharray: none; stroke-linecap: butt; stroke-linejoin: miter; stroke-miterlimit: 10;fill:#FF6600;fill-opacity:1; fill-opacity: 0.6; fill-rule: nonzero; opacity: 1" transform=" matrix(1 0 0 1 513 296) " stroke-linecap="round" /><path d="M 0.5 0.5 L 0.5 -105.5 L 30.5 -105.5 L 30.5 0.5 L 0.5 0.5 Z" style="stroke:#FF6600;stroke-opacity:1; stroke-opacity: 0.4; stroke-width: 1; stroke-dasharray: none; stroke-linecap: butt; stroke-linejoin: miter; stroke-miterlimit: 10;fill:#FF6600;fill-opacity:1; fill-opacity: 0.6; fill-rule: nonzero; opacity: 1" transform=" matrix(1 0 0 1 550 296) " stroke-linecap="round" /><path d="M 0.5 0.5 L 0.5 -110.5 L 30.5 -110.5 L 30.5 0.5 L 0.5 0.5 Z" style="stroke:#FF6600;stroke-opacity:1; stroke-opacity: 0.4; stroke-width: 1; stroke-dasharray: none; stroke-linecap: butt; stroke-linejoin: miter; stroke-miterlimit: 10;fill:#FF6600;fill-opacity:1; fill-opacity: 0.6; fill-rule: nonzero; opacity: 1" transform=" matrix(1 0 0 1 587 296) " stroke-linecap="round" /><path d="M 0.5 0.5 L 0.5 -108.5 L 30.5 -108.5 L 30.5 0.5 L 0.5 0.5 Z" style="stroke:#FF6600;stroke-opacity:1; stroke-opacity: 0.4; stroke-width: 1; stroke-dasharray: none; stroke-linecap: butt; stroke-linejoin: miter; stroke-miterlimit: 10;fill:#FF6600;fill-opacity:1; fill-opacity: 0.6; fill-rule: nonzero; opacity: 1" transform=" matrix(1 0 0 1 625 296) " stroke-linecap="round" /><path d="M 0.5 0.5 L 0.5 -110.5 L 30.5 -110.5 L 30.5 0.5 L 0.5 0.5 Z" style="stroke:#FF6600;stroke-opacity:1; stroke-opacity: 0.4; stroke-width: 1; stroke-dasharray: none; stroke-linecap: butt; stroke-linejoin: miter; stroke-miterlimit: 10;fill:#FF6600;fill-opacity:1; fill-opacity: 0.6; fill-rule: nonzero; opacity: 1" transform=" matrix(1 0 0 1 662 296) " stroke-linecap="round" /><path d="M 0.5 0.5 L 0.5 -111.5 L 30.5 -111.5 L 30.5 0.5 L 0.5 0.5 Z" style="stroke:#FF6600;stroke-opacity:1; stroke-opacity: 0.4; stroke-width: 1; stroke-dasharray: none; stroke-linecap: butt; stroke-linejoin: miter; stroke-miterlimit: 10;fill:#FF6600;fill-opacity:1; fill-opacity: 0.6; fill-rule: nonzero; opacity: 1" transform=" matrix(1 0 0 1 699 296) " stroke-linecap="round" /><path d="M 0.5 0.5 L 0.5 -109.5 L 15.5 -109.5 L 15.5 0.5 L 0.5 0.5 Z" style="stroke:#FF6600;stroke-opacity:1; stroke-opacity: 0.4; stroke-width: 1; stroke-dasharray: none; stroke-linecap: butt; stroke-linejoin: miter; stroke-miterlimit: 10;fill:#FF6600;fill-opacity:1; fill-opacity: 0.6; fill-rule: nonzero; opacity: 1" transform=" matrix(1 0 0 1 736 296) " stroke-linecap="round" /><path d="M 0.5 0.5 L 0.5 -61.5 L 15.5 -61.5 L 15.5 0.5 L 0.5 0.5 Z" style="stroke:#FCD202;stroke-opacity:1; stroke-opacity: 0.4; stroke-width: 1; stroke-dasharray: none; stroke-linecap: butt; stroke-linejoin: miter; stroke-miterlimit: 10;fill:#FCD202;fill-opacity:1; fill-opacity: 0.6; fill-rule: nonzero; opacity: 1" transform=" matrix(1 0 0 1 82 145) " stroke-linecap="round" /><path d="M 0.5 0.5 L 0.5 -64.5 L 30.5 -64.5 L 30.5 0.5 L 0.5 0.5 Z" style="stroke:#FCD202;stroke-opacity:1; stroke-opacity: 0.4; stroke-width: 1; stroke-dasharray: none; stroke-linecap: butt; stroke-linejoin: miter; stroke-miterlimit: 10;fill:#FCD202;fill-opacity:1; fill-opacity: 0.6; fill-rule: nonzero; opacity: 1" transform=" matrix(1 0 0 1 104 147) " stroke-linecap="round" /><path d="M 0.5 0.5 L 0.5 -65.5 L 30.5 -65.5 L 30.5 0.5 L 0.5 0.5 Z" style="stroke:#FCD202;stroke-opacity:1; stroke-opacity: 0.4; stroke-width: 1; stroke-dasharray: none; stroke-linecap: butt; stroke-linejoin: miter; stroke-miterlimit: 10;fill:#FCD202;fill-opacity:1; fill-opacity: 0.6; fill-rule: nonzero; opacity: 1" transform=" matrix(1 0 0 1 141 142) " stroke-linecap="round" /><path d="M 0.5 0.5 L 0.5 -60.5 L 30.5 -60.5 L 30.5 0.5 L 0.5 0.5 Z" style="stroke:#FCD202;stroke-opacity:1; stroke-opacity: 0.4; stroke-width: 1; stroke-dasharray: none; stroke-linecap: butt; stroke-linejoin: miter; stroke-miterlimit: 10;fill:#FCD202;fill-opacity:1; fill-opacity: 0.6; fill-rule: nonzero; opacity: 1" transform=" matrix(1 0 0 1 179 141) " stroke-linecap="round" /><path d="M 0.5 0.5 L 0.5 -66.5 L 30.5 -66.5 L 30.5 0.5 L 0.5 0.5 Z" style="stroke:#FCD202;stroke-opacity:1; stroke-opacity: 0.4; stroke-width: 1; stroke-dasharray: none; stroke-linecap: butt; stroke-linejoin: miter; stroke-miterlimit: 10;fill:#FCD202;fill-opacity:1; fill-opacity: 0.6; fill-rule: nonzero; opacity: 1" transform=" matrix(1 0 0 1 216 138) " stroke-linecap="round" /><path d="M 0.5 0.5 L 0.5 -68.5 L 30.5 -68.5 L 30.5 0.5 L 0.5 0.5 Z" style="stroke:#FCD202;stroke-opacity:1; stroke-opacity: 0.4; stroke-width: 1; stroke-dasharray: none; stroke-linecap: butt; stroke-linejoin: miter; stroke-miterlimit: 10;fill:#FCD202;fill-opacity:1; fill-opacity: 0.6; fill-rule: nonzero; opacity: 1" transform=" matrix(1 0 0 1 253 136) " stroke-linecap="round" /><path d="M 0.5 0.5 L 0.5 -69.5 L 30.5 -69.5 L 30.5 0.5 L 0.5 0.5 Z" style="stroke:#FCD202;stroke-opacity:1; stroke-opacity: 0.4; stroke-width: 1; stroke-dasharray: none; stroke-linecap: butt; stroke-linejoin: miter; stroke-miterlimit: 10;fill:#FCD202;fill-opacity:1; fill-opacity: 0.6; fill-rule: nonzero; opacity: 1" transform=" matrix(1 0 0 1 290 135) " stroke-linecap="round" /><path d="M 0.5 0.5 L 0.5 -64.5 L 30.5 -64.5 L 30.5 0.5 L 0.5 0.5 Z" style="stroke:#FCD202;stroke-opacity:1; stroke-opacity: 0.4; stroke-width: 1; stroke-dasharray: none; stroke-linecap: butt; stroke-linejoin: miter; stroke-miterlimit: 10;fill:#FCD202;fill-opacity:1; fill-opacity: 0.6; fill-rule: nonzero; opacity: 1" transform=" matrix(1 0 0 1 327 172) " stroke-linecap="round" /><path d="M 0.5 0.5 L 0.5 -62.5 L 30.5 -62.5 L 30.5 0.5 L 0.5 0.5 Z" style="stroke:#FCD202;stroke-opacity:1; stroke-opacity: 0.4; stroke-width: 1; stroke-dasharray: none; stroke-linecap: butt; stroke-linejoin: miter; stroke-miterlimit: 10;fill:#FCD202;fill-opacity:1; fill-opacity: 0.6; fill-rule: nonzero; opacity: 1" transform=" matrix(1 0 0 1 364 174) " stroke-linecap="round" /><path d="M 0.5 0.5 L 0.5 -61.5 L 30.5 -61.5 L 30.5 0.5 L 0.5 0.5 Z" style="stroke:#FCD202;stroke-opacity:1; stroke-opacity: 0.4; stroke-width: 1; stroke-dasharray: none; stroke-linecap: butt; stroke-linejoin: miter; stroke-miterlimit: 10;fill:#FCD202;fill-opacity:1; fill-opacity: 0.6; fill-rule: nonzero; opacity: 1" transform=" matrix(1 0 0 1 402 177) " stroke-linecap="round" /><path d="M 0.5 0.5 L 0.5 -65.5 L 30.5 -65.5 L 30.5 0.5 L 0.5 0.5 Z" style="stroke:#FCD202;stroke-opacity:1; stroke-opacity: 0.4; stroke-width: 1; stroke-dasharray: none; stroke-linecap: butt; stroke-linejoin: miter; stroke-miterlimit: 10;fill:#FCD202;fill-opacity:1; fill-opacity: 0.6; fill-rule: nonzero; opacity: 1" transform=" matrix(1 0 0 1 439 170) " stroke-linecap="round" /><path d="M 0.5 0.5 L 0.5 -59.5 L 30.5 -59.5 L 30.5 0.5 L 0.5 0.5 Z" style="stroke:#FCD202;stroke-opacity:1; stroke-opacity: 0.4; stroke-width: 1; stroke-dasharray: none; stroke-linecap: butt; stroke-linejoin: miter; stroke-miterlimit: 10;fill:#FCD202;fill-opacity:1; fill-opacity: 0.6; fill-rule: nonzero; opacity: 1" transform=" matrix(1 0 0 1 476 180) " stroke-linecap="round" /><path d="M 0.5 0.5 L 0.5 -58.5 L 30.5 -58.5 L 30.5 0.5 L 0.5 0.5 Z" style="stroke:#FCD202;stroke-opacity:1; stroke-opacity: 0.4; stroke-width: 1; stroke-dasharray: none; stroke-linecap: butt; stroke-linejoin: miter; stroke-miterlimit: 10;fill:#FCD202;fill-opacity:1; fill-opacity: 0.6; fill-rule: nonzero; opacity: 1" transform=" matrix(1 0 0 1 513 182) " stroke-linecap="round" /><path d="M 0.5 0.5 L 0.5 -19.5 L 30.5 -19.5 L 30.5 0.5 L 0.5 0.5 Z" style="stroke:#FCD202;stroke-opacity:1; stroke-opacity: 0.4; stroke-width: 1; stroke-dasharray: none; stroke-linecap: butt; stroke-linejoin: miter; stroke-miterlimit: 10;fill:#FCD202;fill-opacity:1; fill-opacity: 0.6; fill-rule: nonzero; opacity: 1" transform=" matrix(1 0 0 1 550 190) " stroke-linecap="round" /><path d="M 0.5 0.5 L 0.5 -21.5 L 30.5 -21.5 L 30.5 0.5 L 0.5 0.5 Z" style="stroke:#FCD202;stroke-opacity:1; stroke-opacity: 0.4; stroke-width: 1; stroke-dasharray: none; stroke-linecap: butt; stroke-linejoin: miter; stroke-miterlimit: 10;fill:#FCD202;fill-opacity:1; fill-opacity: 0.6; fill-rule: nonzero; opacity: 1" transform=" matrix(1 0 0 1 587 185) " stroke-linecap="round" /><path d="M 0.5 0.5 L 0.5 -20.5 L 30.5 -20.5 L 30.5 0.5 L 0.5 0.5 Z" style="stroke:#FCD202;stroke-opacity:1; stroke-opacity: 0.4; stroke-width: 1; stroke-dasharray: none; stroke-linecap: butt; stroke-linejoin: miter; stroke-miterlimit: 10;fill:#FCD202;fill-opacity:1; fill-opacity: 0.6; fill-rule: nonzero; opacity: 1" transform=" matrix(1 0 0 1 625 187) " stroke-linecap="round" /><path d="M 0.5 0.5 L 0.5 -18.5 L 30.5 -18.5 L 30.5 0.5 L 0.5 0.5 Z" style="stroke:#FCD202;stroke-opacity:1; stroke-opacity: 0.4; stroke-width: 1; stroke-dasharray: none; stroke-linecap: butt; stroke-linejoin: miter; stroke-miterlimit: 10;fill:#FCD202;fill-opacity:1; fill-opacity: 0.6; fill-rule: nonzero; opacity: 1" transform=" matrix(1 0 0 1 662 185) " stroke-linecap="round" /><path d="M 0.5 0.5 L 0.5 -26.5 L 30.5 -26.5 L 30.5 0.5 L 0.5 0.5 Z" style="stroke:#FCD202;stroke-opacity:1; stroke-opacity: 0.4; stroke-width: 1; stroke-dasharray: none; stroke-linecap: butt; stroke-linejoin: miter; stroke-miterlimit: 10;fill:#FCD202;fill-opacity:1; fill-opacity: 0.6; fill-rule: nonzero; opacity: 1" transform=" matrix(1 0 0 1 699 184) " stroke-linecap="round" /><path d="M 0.5 0.5 L 0.5 -25.5 L 15.5 -25.5 L 15.5 0.5 L 0.5 0.5 Z" style="stroke:#FCD202;stroke-opacity:1; stroke-opacity: 0.4; stroke-width: 1; stroke-dasharray: none; stroke-linecap: butt; stroke-linejoin: miter; stroke-miterlimit: 10;fill:#FCD202;fill-opacity:1; fill-opacity: 0.6; fill-rule: nonzero; opacity: 1" transform=" matrix(1 0 0 1 736 186) " stroke-linecap="round" /><path d="M 0.5 0.5 L 0.5 -11.5 L 15.5 -11.5 L 15.5 0.5 L 0.5 0.5 Z" style="stroke:#B0DE09;stroke-opacity:1; stroke-opacity: 0.4; stroke-width: 1; stroke-dasharray: none; stroke-linecap: butt; stroke-linejoin: miter; stroke-miterlimit: 10;fill:#B0DE09;fill-opacity:1; fill-opacity: 0.6; fill-rule: nonzero; opacity: 1" transform=" matrix(1 0 0 1 82 83) " stroke-linecap="round" /><path d="M 0.5 0.5 L 0.5 -13.5 L 30.5 -13.5 L 30.5 0.5 L 0.5 0.5 Z" style="stroke:#B0DE09;stroke-opacity:1; stroke-opacity: 0.4; stroke-width: 1; stroke-dasharray: none; stroke-linecap: butt; stroke-linejoin: miter; stroke-miterlimit: 10;fill:#B0DE09;fill-opacity:1; fill-opacity: 0.6; fill-rule: nonzero; opacity: 1" transform=" matrix(1 0 0 1 104 82) " stroke-linecap="round" /><path d="M 0.5 0.5 L 0.5 -12.5 L 30.5 -12.5 L 30.5 0.5 L 0.5 0.5 Z" style="stroke:#B0DE09;stroke-opacity:1; stroke-opacity: 0.4; stroke-width: 1; stroke-dasharray: none; stroke-linecap: butt; stroke-linejoin: miter; stroke-miterlimit: 10;fill:#B0DE09;fill-opacity:1; fill-opacity: 0.6; fill-rule: nonzero; opacity: 1" transform=" matrix(1 0 0 1 141 76) " stroke-linecap="round" /><path d="M 0.5 0.5 L 0.5 -11.5 L 30.5 -11.5 L 30.5 0.5 L 0.5 0.5 Z" style="stroke:#B0DE09;stroke-opacity:1; stroke-opacity: 0.4; stroke-width: 1; stroke-dasharray: none; stroke-linecap: butt; stroke-linejoin: miter; stroke-miterlimit: 10;fill:#B0DE09;fill-opacity:1; fill-opacity: 0.6; fill-rule: nonzero; opacity: 1" transform=" matrix(1 0 0 1 179 79) " stroke-linecap="round" /><path d="M 0.5 0.5 L 0.5 -9.5 L 30.5 -9.5 L 30.5 0.5 L 0.5 0.5 Z" style="stroke:#B0DE09;stroke-opacity:1; stroke-opacity: 0.4; stroke-width: 1; stroke-dasharray: none; stroke-linecap: butt; stroke-linejoin: miter; stroke-miterlimit: 10;fill:#B0DE09;fill-opacity:1; fill-opacity: 0.6; fill-rule: nonzero; opacity: 1" transform=" matrix(1 0 0 1 216 71) " stroke-linecap="round" /><path d="M 0.5 0.5 L 0.5 -9.5 L 30.5 -9.5 L 30.5 0.5 L 0.5 0.5 Z" style="stroke:#B0DE09;stroke-opacity:1; stroke-opacity: 0.4; stroke-width: 1; stroke-dasharray: none; stroke-linecap: butt; stroke-linejoin: miter; stroke-miterlimit: 10;fill:#B0DE09;fill-opacity:1; fill-opacity: 0.6; fill-rule: nonzero; opacity: 1" transform=" matrix(1 0 0 1 253 67) " stroke-linecap="round" /><path d="M 0.5 0.5 L 0.5 -10.5 L 30.5 -10.5 L 30.5 0.5 L 0.5 0.5 Z" style="stroke:#B0DE09;stroke-opacity:1; stroke-opacity: 0.4; stroke-width: 1; stroke-dasharray: none; stroke-linecap: butt; stroke-linejoin: miter; stroke-miterlimit: 10;fill:#B0DE09;fill-opacity:1; fill-opacity: 0.6; fill-rule: nonzero; opacity: 1" transform=" matrix(1 0 0 1 290 65) " stroke-linecap="round" /><path d="M 0.5 0.5 L 0.5 -9.5 L 30.5 -9.5 L 30.5 0.5 L 0.5 0.5 Z" style="stroke:#B0DE09;stroke-opacity:1; stroke-opacity: 0.4; stroke-width: 1; stroke-dasharray: none; stroke-linecap: butt; stroke-linejoin: miter; stroke-miterlimit: 10;fill:#B0DE09;fill-opacity:1; fill-opacity: 0.6; fill-rule: nonzero; opacity: 1" transform=" matrix(1 0 0 1 327 107) " stroke-linecap="round" /><path d="M 0.5 0.5 L 0.5 -8.5 L 30.5 -8.5 L 30.5 0.5 L 0.5 0.5 Z" style="stroke:#B0DE09;stroke-opacity:1; stroke-opacity: 0.4; stroke-width: 1; stroke-dasharray: none; stroke-linecap: butt; stroke-linejoin: miter; stroke-miterlimit: 10;fill:#B0DE09;fill-opacity:1; fill-opacity: 0.6; fill-rule: nonzero; opacity: 1" transform=" matrix(1 0 0 1 364 111) " stroke-linecap="round" /><path d="M 0.5 0.5 L 0.5 -8.5 L 30.5 -8.5 L 30.5 0.5 L 0.5 0.5 Z" style="stroke:#B0DE09;stroke-opacity:1; stroke-opacity: 0.4; stroke-width: 1; stroke-dasharray: none; stroke-linecap: butt; stroke-linejoin: miter; stroke-miterlimit: 10;fill:#B0DE09;fill-opacity:1; fill-opacity: 0.6; fill-rule: nonzero; opacity: 1" transform=" matrix(1 0 0 1 402 115) " stroke-linecap="round" /><path d="M 0.5 0.5 L 0.5 -10.5 L 30.5 -10.5 L 30.5 0.5 L 0.5 0.5 Z" style="stroke:#B0DE09;stroke-opacity:1; stroke-opacity: 0.4; stroke-width: 1; stroke-dasharray: none; stroke-linecap: butt; stroke-linejoin: miter; stroke-miterlimit: 10;fill:#B0DE09;fill-opacity:1; fill-opacity: 0.6; fill-rule: nonzero; opacity: 1" transform=" matrix(1 0 0 1 439 104) " stroke-linecap="round" /><path d="M 0.5 0.5 L 0.5 -7.5 L 30.5 -7.5 L 30.5 0.5 L 0.5 0.5 Z" style="stroke:#B0DE09;stroke-opacity:1; stroke-opacity: 0.4; stroke-width: 1; stroke-dasharray: none; stroke-linecap: butt; stroke-linejoin: miter; stroke-miterlimit: 10;fill:#B0DE09;fill-opacity:1; fill-opacity: 0.6; fill-rule: nonzero; opacity: 1" transform=" matrix(1 0 0 1 476 120) " stroke-linecap="round" /><path d="M 0.5 0.5 L 0.5 -7.5 L 30.5 -7.5 L 30.5 0.5 L 0.5 0.5 Z" style="stroke:#B0DE09;stroke-opacity:1; stroke-opacity: 0.4; stroke-width: 1; stroke-dasharray: none; stroke-linecap: butt; stroke-linejoin: miter; stroke-miterlimit: 10;fill:#B0DE09;fill-opacity:1; fill-opacity: 0.6; fill-rule: nonzero; opacity: 1" transform=" matrix(1 0 0 1 513 122) " stroke-linecap="round" /><path d="M 0.5 0.5 L 0.5 -7.5 L 30.5 -7.5 L 30.5 0.5 L 0.5 0.5 Z" style="stroke:#B0DE09;stroke-opacity:1; stroke-opacity: 0.4; stroke-width: 1; stroke-dasharray: none; stroke-linecap: butt; stroke-linejoin: miter; stroke-miterlimit: 10;fill:#B0DE09;fill-opacity:1; fill-opacity: 0.6; fill-rule: nonzero; opacity: 1" transform=" matrix(1 0 0 1 550 170) " stroke-linecap="round" /><path d="M 0.5 0.5 L 0.5 -6.5 L 30.5 -6.5 L 30.5 0.5 L 0.5 0.5 Z" style="stroke:#B0DE09;stroke-opacity:1; stroke-opacity: 0.4; stroke-width: 1; stroke-dasharray: none; stroke-linecap: butt; stroke-linejoin: miter; stroke-miterlimit: 10;fill:#B0DE09;fill-opacity:1; fill-opacity: 0.6; fill-rule: nonzero; opacity: 1" transform=" matrix(1 0 0 1 587 163) " stroke-linecap="round" /><path d="M 0.5 0.5 L 0.5 -7.5 L 30.5 -7.5 L 30.5 0.5 L 0.5 0.5 Z" style="stroke:#B0DE09;stroke-opacity:1; stroke-opacity: 0.4; stroke-width: 1; stroke-dasharray: none; stroke-linecap: butt; stroke-linejoin: miter; stroke-miterlimit: 10;fill:#B0DE09;fill-opacity:1; fill-opacity: 0.6; fill-rule: nonzero; opacity: 1" transform=" matrix(1 0 0 1 625 166) " stroke-linecap="round" /><path d="M 0.5 0.5 L 0.5 -7.5 L 30.5 -7.5 L 30.5 0.5 L 0.5 0.5 Z" style="stroke:#B0DE09;stroke-opacity:1; stroke-opacity: 0.4; stroke-width: 1; stroke-dasharray: none; stroke-linecap: butt; stroke-linejoin: miter; stroke-miterlimit: 10;fill:#B0DE09;fill-opacity:1; fill-opacity: 0.6; fill-rule: nonzero; opacity: 1" transform=" matrix(1 0 0 1 662 166) " stroke-linecap="round" /><path d="M 0.5 0.5 L 0.5 -7.5 L 30.5 -7.5 L 30.5 0.5 L 0.5 0.5 Z" style="stroke:#B0DE09;stroke-opacity:1; stroke-opacity: 0.4; stroke-width: 1; stroke-dasharray: none; stroke-linecap: butt; stroke-linejoin: miter; stroke-miterlimit: 10;fill:#B0DE09;fill-opacity:1; fill-opacity: 0.6; fill-rule: nonzero; opacity: 1" transform=" matrix(1 0 0 1 699 156) " stroke-linecap="round" /><path d="M 0.5 0.5 L 0.5 -6.5 L 15.5 -6.5 L 15.5 0.5 L 0.5 0.5 Z" style="stroke:#B0DE09;stroke-opacity:1; stroke-opacity: 0.4; stroke-width: 1; stroke-dasharray: none; stroke-linecap: butt; stroke-linejoin: miter; stroke-miterlimit: 10;fill:#B0DE09;fill-opacity:1; fill-opacity: 0.6; fill-rule: nonzero; opacity: 1" transform=" matrix(1 0 0 1 736 159) " stroke-linecap="round" /><path d="M 0.5 286.5 L 669.5 286.5 L 669.5 286.5" style="stroke:#000000;stroke-opacity:1; stroke-opacity: 0.14; stroke-width: 1; stroke-dasharray: none; stroke-linecap: butt; stroke-linejoin: miter; stroke-miterlimit: 10; fill: none; fill-rule: nonzero; opacity: 1" transform=" matrix(1 0 0 1 82 10) " stroke-linecap="round" /><path d="M 0.5 0.5 L 669.5 0.5" style="stroke:#DADADA;stroke-opacity:1; stroke-width: 1; stroke-dasharray: none; stroke-linecap: butt; stroke-linejoin: miter; stroke-miterlimit: 10; fill: none; fill-rule: nonzero; opacity: 1" transform=" matrix(1 0 0 1 82 296) " stroke-linecap="round" /><path d="M 0.5 0.5 L 0.5 286.5" style="stroke:#000000;stroke-opacity:1; stroke-width: 1; stroke-dasharray: none; stroke-linecap: butt; stroke-linejoin: miter; stroke-miterlimit: 10; fill: none; fill-rule: nonzero; opacity: 1" transform=" matrix(1 0 0 1 82 10) " stroke-linecap="round" /><path d="M 0.5 0.5 L 0.5 0.5 L 0.5 286.5" style="stroke:#CC0000;stroke-opacity:1; stroke-opacity: 0; stroke-width: 1; stroke-dasharray: none; stroke-linecap: butt; stroke-linejoin: miter; stroke-miterlimit: 10; fill: none; fill-rule: nonzero; opacity: 0" transform=" matrix(1 0 0 1 82 10) " stroke-linecap="round"  clip-path="url(#AmChartsEl-565)" /><path d="M 0.5 0.5 L 669.5 0.5 L 669.5 0.5" style="stroke:#CC0000;stroke-opacity:1; stroke-opacity: 0; stroke-width: 1; stroke-dasharray: none; stroke-linecap: butt; stroke-linejoin: miter; stroke-miterlimit: 10; fill: none; fill-rule: nonzero; opacity: 0" transform=" matrix(1 0 0 1 82 10) " stroke-linecap="round" /><rect x="0" y="0" rx="0" ry="0" width="669" height="286" style="stroke: none; stroke-width: 0; stroke-dasharray: none; stroke-linecap: butt; stroke-linejoin: miter; stroke-miterlimit: 10; fill: none; fill-rule: nonzero; opacity: 1" transform=""/><g transform=" matrix(1 0 0 1 82 313.5) "><text font-family="Verdana" font-size="11" font-weight="normal" style="stroke: none; stroke-width: 1; stroke-dasharray: none; stroke-linecap: butt; stroke-linejoin: miter; stroke-miterlimit: 10;fill:#000000;fill-opacity:1; fill-rule: nonzero; opacity: 1" ><tspan x="-13.99" y="5.49" fill="rgba(0,0,0,1)">1994</tspan></text></g><g transform=" matrix(1 0 0 1 156 313.5) "><text font-family="Verdana" font-size="11" font-weight="normal" style="stroke: none; stroke-width: 1; stroke-dasharray: none; stroke-linecap: butt; stroke-linejoin: miter; stroke-miterlimit: 10;fill:#000000;fill-opacity:1; fill-rule: nonzero; opacity: 1" ><tspan x="-13.99" y="5.49" fill="rgba(0,0,0,1)">1996</tspan></text></g><g transform=" matrix(1 0 0 1 231 313.5) "><text font-family="Verdana" font-size="11" font-weight="normal" style="stroke: none; stroke-width: 1; stroke-dasharray: none; stroke-linecap: butt; stroke-linejoin: miter; stroke-miterlimit: 10;fill:#000000;fill-opacity:1; fill-rule: nonzero; opacity: 1" ><tspan x="-13.99" y="5.49" fill="rgba(0,0,0,1)">1998</tspan></text></g><g transform=" matrix(1 0 0 1 305 313.5) "><text font-family="Verdana" font-size="11" font-weight="normal" style="stroke: none; stroke-width: 1; stroke-dasharray: none; stroke-linecap: butt; stroke-linejoin: miter; stroke-miterlimit: 10;fill:#000000;fill-opacity:1; fill-rule: nonzero; opacity: 1" ><tspan x="-13.99" y="5.49" fill="rgba(0,0,0,1)">2000</tspan></text></g><g transform=" matrix(1 0 0 1 379 313.5) "><text font-family="Verdana" font-size="11" font-weight="normal" style="stroke: none; stroke-width: 1; stroke-dasharray: none; stroke-linecap: butt; stroke-linejoin: miter; stroke-miterlimit: 10;fill:#000000;fill-opacity:1; fill-rule: nonzero; opacity: 1" ><tspan x="-13.99" y="5.49" fill="rgba(0,0,0,1)">2002</tspan></text></g><g transform=" matrix(1 0 0 1 454 313.5) "><text font-family="Verdana" font-size="11" font-weight="normal" style="stroke: none; stroke-width: 1; stroke-dasharray: none; stroke-linecap: butt; stroke-linejoin: miter; stroke-miterlimit: 10;fill:#000000;fill-opacity:1; fill-rule: nonzero; opacity: 1" ><tspan x="-13.99" y="5.49" fill="rgba(0,0,0,1)">2004</tspan></text></g><g transform=" matrix(1 0 0 1 528 313.5) "><text font-family="Verdana" font-size="11" font-weight="normal" style="stroke: none; stroke-width: 1; stroke-dasharray: none; stroke-linecap: butt; stroke-linejoin: miter; stroke-miterlimit: 10;fill:#000000;fill-opacity:1; fill-rule: nonzero; opacity: 1" ><tspan x="-13.99" y="5.49" fill="rgba(0,0,0,1)">2006</tspan></text></g><g transform=" matrix(1 0 0 1 602 313.5) "><text font-family="Verdana" font-size="11" font-weight="normal" style="stroke: none; stroke-width: 1; stroke-dasharray: none; stroke-linecap: butt; stroke-linejoin: miter; stroke-miterlimit: 10;fill:#000000;fill-opacity:1; fill-rule: nonzero; opacity: 1" ><tspan x="-13.99" y="5.49" fill="rgba(0,0,0,1)">2008</tspan></text></g><g transform=" matrix(1 0 0 1 677 313.5) "><text font-family="Verdana" font-size="11" font-weight="normal" style="stroke: none; stroke-width: 1; stroke-dasharray: none; stroke-linecap: butt; stroke-linejoin: miter; stroke-miterlimit: 10;fill:#000000;fill-opacity:1; fill-rule: nonzero; opacity: 1" ><tspan x="-13.99" y="5.49" fill="rgba(0,0,0,1)">2010</tspan></text></g><g transform=" matrix(1 0 0 1 751 313.5) "><text font-family="Verdana" font-size="11" font-weight="normal" style="stroke: none; stroke-width: 1; stroke-dasharray: none; stroke-linecap: butt; stroke-linejoin: miter; stroke-miterlimit: 10;fill:#000000;fill-opacity:1; fill-rule: nonzero; opacity: 1" ><tspan x="-13.99" y="5.49" fill="rgba(0,0,0,1)">2012</tspan></text></g><g transform=" matrix(1 0 0 1 70 294.8359375) "><text font-family="Verdana" font-size="11" font-weight="normal" style="stroke: none; stroke-width: 1; stroke-dasharray: none; stroke-linecap: butt; stroke-linejoin: miter; stroke-miterlimit: 10;fill:#000000;fill-opacity:1; fill-rule: nonzero; opacity: 1" ><tspan x="-7.49" y="5.49" fill="rgba(0,0,0,1)">0</tspan></text></g><g transform=" matrix(1 0 0 1 70 246.8359375) "><text font-family="Verdana" font-size="11" font-weight="normal" style="stroke: none; stroke-width: 1; stroke-dasharray: none; stroke-linecap: butt; stroke-linejoin: miter; stroke-miterlimit: 10;fill:#000000;fill-opacity:1; fill-rule: nonzero; opacity: 1" ><tspan x="-21.48" y="5.49" fill="rgba(0,0,0,1)">500</tspan></text></g><g transform=" matrix(1 0 0 1 70 199.8359375) "><text font-family="Verdana" font-size="11" font-weight="normal" style="stroke: none; stroke-width: 1; stroke-dasharray: none; stroke-linecap: butt; stroke-linejoin: miter; stroke-miterlimit: 10;fill:#000000;fill-opacity:1; fill-rule: nonzero; opacity: 1" ><tspan x="-32.47" y="5.49" fill="rgba(0,0,0,1)">1,000</tspan></text></g><g transform=" matrix(1 0 0 1 70 151.8359375) "><text font-family="Verdana" font-size="11" font-weight="normal" style="stroke: none; stroke-width: 1; stroke-dasharray: none; stroke-linecap: butt; stroke-linejoin: miter; stroke-miterlimit: 10;fill:#000000;fill-opacity:1; fill-rule: nonzero; opacity: 1" ><tspan x="-32.47" y="5.49" fill="rgba(0,0,0,1)">1,500</tspan></text></g><g transform=" matrix(1 0 0 1 70 103.8359375) "><text font-family="Verdana" font-size="11" font-weight="normal" style="stroke: none; stroke-width: 1; stroke-dasharray: none; stroke-linecap: butt; stroke-linejoin: miter; stroke-miterlimit: 10;fill:#000000;fill-opacity:1; fill-rule: nonzero; opacity: 1" ><tspan x="-32.47" y="5.49" fill="rgba(0,0,0,1)">2,000</tspan></text></g><g transform=" matrix(1 0 0 1 70 56.8359375) "><text font-family="Verdana" font-size="11" font-weight="normal" style="stroke: none; stroke-width: 1; stroke-dasharray: none; stroke-linecap: butt; stroke-linejoin: miter; stroke-miterlimit: 10;fill:#000000;fill-opacity:1; fill-rule: nonzero; opacity: 1" ><tspan x="-32.47" y="5.49" fill="rgba(0,0,0,1)">2,500</tspan></text></g><g transform=" matrix(1 0 0 1 70 8.8359375) "><text font-family="Verdana" font-size="11" font-weight="normal" style="stroke: none; stroke-width: 1; stroke-dasharray: none; stroke-linecap: butt; stroke-linejoin: miter; stroke-miterlimit: 10;fill:#000000;fill-opacity:1; fill-rule: nonzero; opacity: 1" ><tspan x="-32.47" y="5.49" fill="rgba(0,0,0,1)">3,000</tspan></text></g><g transform=" matrix(6.123233995736766e-17 -1 1 6.123233995736766e-17 21 153) "><text font-family="Verdana" font-size="12" font-weight="bold" style="stroke: none; stroke-width: 1; stroke-dasharray: none; stroke-linecap: butt; stroke-linejoin: miter; stroke-miterlimit: 10;fill:#000000;fill-opacity:1; fill-rule: nonzero; opacity: 1" ><tspan x="-54.43" y="5.49" fill="rgba(0,0,0,1)">Traffic incidents</tspan></text></g><rect x="-1" y="-1" rx="0" ry="0" width="671" height="288" style="stroke: none; stroke-width: 0; stroke-dasharray: none; stroke-linecap: butt; stroke-linejoin: miter; stroke-miterlimit: 10; fill: none; fill-rule: nonzero; opacity: 1" transform=""/></g><clipPath xmlns="http://www.w3.org/2000/svg" id="AmChartsEl-565"><rect x="0" y="0" width="669" height="286" rx="0" ry="0" stroke-width="0" fill="none" fill-opacity="0" svgUid="1"/></clipPath></svg>