<?xml version="1.0" encoding="UTF-8" standalone="no" ?><!DOCTYPE svg PUBLIC "-//W3C//DTD SVG 1.1//EN" "http://www.w3.org/Graphics/SVG/1.1/DTD/svg11.dtd"><svg xmlns="http://www.w3.org/2000/svg" xmlns:xlink="http://www.w3.org/1999/xlink" version="1.1" width="860" height="384" style="background-color: #FFFFFF" viewBox="0 0 860 384" xml:space="preserve"><desc>Created with Fabric.js 1.6.2</desc><defs></defs><g style="stroke: none; stroke-width: 1; stroke-dasharray: none; stroke-linecap: butt; stroke-linejoin: miter; stroke-miterlimit: 10; fill: none; fill-rule: nonzero; opacity: 1" transform="translate(0.5 0.5)" ><g transform=" matrix(1 0 0 1 0 11) "><text font-family="Verdana" font-size="11" font-weight="bold" style="stroke: none; stroke-width: 1; stroke-dasharray: none; stroke-linecap: butt; stroke-linejoin: miter; stroke-miterlimit: 10;fill:#000000;fill-opacity:1; fill-rule: nonzero; opacity: 1" ><tspan x="0.5" y="5.49" fill="rgba(0,0,0,1)">Value</tspan></text></g><path d="M 0.5 0.5 L 808.5 0.5 L 808.5 23.5 L 0.5 23.5 Z" style="stroke:#000000;stroke-opacity:1; stroke-opacity: 0; stroke-width: 1; stroke-dasharray: none; stroke-linecap: butt; stroke-linejoin: miter; stroke-miterlimit: 10;fill:#FFFFFF;fill-opacity:1; fill-opacity: 0; fill-rule: nonzero; opacity: 1" transform=" matrix(1 0 0 1 51 0) " stroke-linecap="round" /><path d="M -5.5 -5.5 L 6.5 6.5" style="stroke:#FFFFFF;stroke-opacity:1; stroke-opacity: 0; stroke-width: 3; stroke-dasharray: none; stroke-linecap: butt; stroke-linejoin: miter; stroke-miterlimit: 10; fill: none; fill-rule: nonzero; opacity: 0" transform=" matrix(1 0 0 1 59 12) " stroke-linecap="round" /><path d="M -5.5 6.5 L 6.5 -5.5" style="stroke:#FFFFFF;stroke-opacity:1; stroke-opacity: 0; stroke-width: 3; stroke-dasharray: none; stroke-linecap: butt; stroke-linejoin: miter; stroke-miterlimit: 10; fill: none; fill-rule: nonzero; opacity: 0" transform=" matrix(1 0 0 1 59 12) " stroke-linecap="round" /><g transform=" matrix(1 0 0 1 77 11) "><text font-family="Verdana" font-size="11" font-weight="normal" style="stroke: none; stroke-width: 1; stroke-dasharray: none; stroke-linecap: butt; stroke-linejoin: miter; stroke-miterlimit: 10;fill:#000000;fill-opacity:1; fill-rule: nonzero; opacity: 1" ><tspan x="0.5" y="5.49" fill="rgba(0,0,0,1)"> </tspan></text></g><rect x="16" y="0" rx="0" ry="0" width="60" height="18" style="stroke: none; stroke-width: 0; stroke-dasharray: none; stroke-linecap: butt; stroke-linejoin: miter; stroke-miterlimit: 10;fill:#FFFFFF;fill-opacity:1; fill-opacity: 0.005; fill-rule: nonzero; opacity: 1" transform=" matrix(1 0 0 1 51 4) "/></g><g style="stroke: none; stroke-width: 1; stroke-dasharray: none; stroke-linecap: butt; stroke-linejoin: miter; stroke-miterlimit: 10; fill: none; fill-rule: nonzero; opacity: 1" transform="translate(0.5 24.5)" ><path d="M 0.5 0.5 L 859.5 0.5 L 859.5 319.5 L 0.5 319.5 Z" style="stroke:#000000;stroke-opacity:1; stroke-opacity: 0; stroke-width: 1; stroke-dasharray: none; stroke-linecap: butt; stroke-linejoin: miter; stroke-miterlimit: 10;fill:#FFFFFF;fill-opacity:1; fill-opacity: 0; fill-rule: nonzero; opacity: 1" transform="" stroke-linecap="round" /><path d="M 0.5 0.5 L 859.5 0.5 L 859.5 291.5 L 0.5 291.5 L 0.5 0.5 Z" style="stroke:#000000;stroke-opacity:1; stroke-opacity: 0; stroke-width: 1; stroke-dasharray: none; stroke-linecap: butt; stroke-linejoin: miter; stroke-miterlimit: 10;fill:#FFFFFF;fill-opacity:1; fill-opacity: 0; fill-rule: nonzero; opacity: 1" transform=" matrix(1 0 0 1 0 0) " stroke-linecap="round" /><path d="M 24.5 291.5 L 24.5 291.5 L 24.5 0.5" style="stroke:#000000;stroke-opacity:1; stroke-opacity: 0.15; stroke-width: 1; stroke-dasharray: none; stroke-linecap: butt; stroke-linejoin: miter; stroke-miterlimit: 10; fill: none; fill-rule: nonzero; opacity: 1" transform=" matrix(1 0 0 1 0 0) " stroke-linecap="round" /><path d="M 128.5 291.5 L 128.5 291.5 L 128.5 0.5" style="stroke:#000000;stroke-opacity:1; stroke-opacity: 0.15; stroke-width: 1; stroke-dasharray: none; stroke-linecap: butt; stroke-linejoin: miter; stroke-miterlimit: 10; fill: none; fill-rule: nonzero; opacity: 1" transform=" matrix(1 0 0 1 0 0) " stroke-linecap="round" /><path d="M 232.5 291.5 L 232.5 291.5 L 232.5 0.5" style="stroke:#000000;stroke-opacity:1; stroke-opacity: 0.15; stroke-width: 1; stroke-dasharray: none; stroke-linecap: butt; stroke-linejoin: miter; stroke-miterlimit: 10; fill: none; fill-rule: nonzero; opacity: 1" transform=" matrix(1 0 0 1 0 0) " stroke-linecap="round" /><path d="M 332.5 291.5 L 332.5 291.5 L 332.5 0.5" style="stroke:#000000;stroke-opacity:1; stroke-opacity: 0.15; stroke-width: 1; stroke-dasharray: none; stroke-linecap: butt; stroke-linejoin: miter; stroke-miterlimit: 10; fill: none; fill-rule: nonzero; opacity: 1" transform=" matrix(1 0 0 1 0 0) " stroke-linecap="round" /><path d="M 436.5 291.5 L 436.5 291.5 L 436.5 0.5" style="stroke:#000000;stroke-opacity:1; stroke-opacity: 0.15; stroke-width: 1; stroke-dasharray: none; stroke-linecap: butt; stroke-linejoin: miter; stroke-miterlimit: 10; fill: none; fill-rule: nonzero; opacity: 1" transform=" matrix(1 0 0 1 0 0) " stroke-linecap="round" /><path d="M 540.5 291.5 L 540.5 291.5 L 540.5 0.5" style="stroke:#000000;stroke-opacity:1; stroke-opacity: 0.15; stroke-width: 1; stroke-dasharray: none; stroke-linecap: butt; stroke-linejoin: miter; stroke-miterlimit: 10; fill: none; fill-rule: nonzero; opacity: 1" transform=" matrix(1 0 0 1 0 0) " stroke-linecap="round" /><path d="M 646.5 291.5 L 646.5 291.5 L 646.5 0.5" style="stroke:#000000;stroke-opacity:1; stroke-opacity: 0.15; stroke-width: 1; stroke-dasharray: none; stroke-linecap: butt; stroke-linejoin: miter; stroke-miterlimit: 10; fill: none; fill-rule: nonzero; opacity: 1" transform=" matrix(1 0 0 1 0 0) " stroke-linecap="round" /><path d="M 750.5 291.5 L 750.5 291.5 L 750.5 0.5" style="stroke:#000000;stroke-opacity:1; stroke-opacity: 0.15; stroke-width: 1; stroke-dasharray: none; stroke-linecap: butt; stroke-linejoin: miter; stroke-miterlimit: 10; fill: none; fill-rule: nonzero; opacity: 1" transform=" matrix(1 0 0 1 0 0) " stroke-linecap="round" /><path d="M 854.5 291.5 L 854.5 291.5 L 854.5 0.5" style="stroke:#000000;stroke-opacity:1; stroke-opacity: 0.15; stroke-width: 1; stroke-dasharray: none; stroke-linecap: butt; stroke-linejoin: miter; stroke-miterlimit: 10; fill: none; fill-rule: nonzero; opacity: 1" transform=" matrix(1 0 0 1 0 0) " stroke-linecap="round" /><path d="M 0.5 291.5 L 0.5 291.5 L 859.5 291.5" style="stroke:#000000;stroke-opacity:1; stroke-opacity: 0.15; stroke-width: 1; stroke-dasharray: none; stroke-linecap: butt; stroke-linejoin: miter; stroke-miterlimit: 10; fill: none; fill-rule: nonzero; opacity: 1" transform=" matrix(1 0 0 1 0 0) " stroke-linecap="round" /><path d="M 0.5 243.5 L 0.5 243.5 L 859.5 243.5" style="stroke:#000000;stroke-opacity:1; stroke-opacity: 0.15; stroke-width: 1; stroke-dasharray: none; stroke-linecap: butt; stroke-linejoin: miter; stroke-miterlimit: 10; fill: none; fill-rule: nonzero; opacity: 1" transform=" matrix(1 0 0 1 0 0) " stroke-linecap="round" /><path d="M 0.5 194.5 L 0.5 194.5 L 859.5 194.5" style="stroke:#000000;stroke-opacity:1; stroke-opacity: 0.15; stroke-width: 1; stroke-dasharray: none; stroke-linecap: butt; stroke-linejoin: miter; stroke-miterlimit: 10; fill: none; fill-rule: nonzero; opacity: 1" transform=" matrix(1 0 0 1 0 0) " stroke-linecap="round" /><path d="M 0.5 146.5 L 0.5 146.5 L 859.5 146.5" style="stroke:#000000;stroke-opacity:1; stroke-opacity: 0.15; stroke-width: 1; stroke-dasharray: none; stroke-linecap: butt; stroke-linejoin: miter; stroke-miterlimit: 10; fill: none; fill-rule: nonzero; opacity: 1" transform=" matrix(1 0 0 1 0 0) " stroke-linecap="round" /><path d="M 0.5 97.5 L 0.5 97.5 L 859.5 97.5" style="stroke:#000000;stroke-opacity:1; stroke-opacity: 0.15; stroke-width: 1; stroke-dasharray: none; stroke-linecap: butt; stroke-linejoin: miter; stroke-miterlimit: 10; fill: none; fill-rule: nonzero; opacity: 1" transform=" matrix(1 0 0 1 0 0) " stroke-linecap="round" /><path d="M 0.5 49.5 L 0.5 49.5 L 859.5 49.5" style="stroke:#000000;stroke-opacity:1; stroke-opacity: 0.15; stroke-width: 1; stroke-dasharray: none; stroke-linecap: butt; stroke-linejoin: miter; stroke-miterlimit: 10; fill: none; fill-rule: nonzero; opacity: 1" transform=" matrix(1 0 0 1 0 0) " stroke-linecap="round" /><path d="M 0.5 0.5 L 0.5 0.5 L 859.5 0.5" style="stroke:#000000;stroke-opacity:1; stroke-opacity: 0.15; stroke-width: 1; stroke-dasharray: none; stroke-linecap: butt; stroke-linejoin: miter; stroke-miterlimit: 10; fill: none; fill-rule: nonzero; opacity: 1" transform=" matrix(1 0 0 1 0 0) " stroke-linecap="round" /><rect x="0.5" y="0.5" rx="0" ry="0" width="12" height="291" style="stroke:#CC0000;stroke-opacity:1; stroke-opacity: 0; stroke-width: 0.1; stroke-dasharray: none; stroke-linecap: butt; stroke-linejoin: miter; stroke-miterlimit: 10;fill:#CC0000;fill-opacity:1; fill-opacity: 0; fill-rule: nonzero; opacity: 0" transform=" matrix(1 0 0 1 798 0) " clip-path="url(#AmChartsEl-503)" /><path d="M 6.5 258.52 L 18.5 254.155 L 30.5 258.7625 L 42.5 248.5775 L 54.5 244.94 L 66.5 240.8175 L 78.5 235.9675 L 89.5 252.7 L 101.5 247.365 L 113.5 235.725 L 125.5 229.905 L 137.5 229.6625 L 149.5 239.605 L 161.5 240.575 L 173.5 212.2025 L 185.5 216.5675 L 197.5 201.5325 L 209.5 198.1375 L 221.5 211.2325 L 233.5 212.93 L 245.5 216.0825 L 257.5 208.3225 L 268.5 192.8025 L 280.5 218.5075 L 292.5 213.9 L 304.5 202.9875 L 316.5 202.745 L 328.5 188.68 L 340.5 194.985 L 352.5 213.9 L 364.5 157.155 L 376.5 212.93 L 388.5 153.275 L 400.5 180.6775 L 412.5 202.0175 L 424.5 190.3775 L 435.5 168.5525 L 447.5 153.0325 L 459.5 173.16 L 471.5 176.07 L 483.5 165.4 L 495.5 168.795 L 507.5 183.1025 L 519.5 134.845 L 531.5 170.25 L 543.5 161.7625 L 555.5 181.1625 L 567.5 102.1075 L 579.5 134.6025 L 591.5 167.825 L 602.5 138.725 L 614.5 160.55 L 626.5 92.8925 L 638.5 159.3375 L 650.5 139.9375 L 662.5 167.825 L 674.5 86.1025 L 686.5 99.6825 L 698.5 117.1425 L 710.5 68.6425 L 722.5 79.07 L 734.5 154.0025 L 746.5 136.785 L 758.5 41.9675 L 770.5 149.6375 L 781.5 140.665 L 793.5 145.7575 L 805.5 100.895 L 817.5 25.235 L 829.5 51.1825 L 841.5 61.8525 L 853.5 47.545 M 0 0 L 0 0" style="stroke:#B0DE09;stroke-opacity:1; stroke-width: 1; stroke-dasharray: none; stroke-linecap: butt; stroke-linejoin: round; stroke-miterlimit: 10; fill: none; fill-rule: nonzero; opacity: 1" transform=" matrix(1 0 0 1 0 0) " stroke-linecap="round"  clip-path="url(#AmChartsEl-505)" /><rect x="0" y="0" rx="0" ry="0" width="859" height="291" style="stroke: none; stroke-width: 0; stroke-dasharray: none; stroke-linecap: butt; stroke-linejoin: miter; stroke-miterlimit: 10; fill: none; fill-rule: nonzero; opacity: 1" transform=""/><path d="M 0.5 291.5 L 859.5 291.5 L 859.5 291.5" style="stroke:#000000;stroke-opacity:1; stroke-opacity: 0.3; stroke-width: 1; stroke-dasharray: none; stroke-linecap: butt; stroke-linejoin: miter; stroke-miterlimit: 10; fill: none; fill-rule: nonzero; opacity: 1" transform=" matrix(1 0 0 1 0 0) " stroke-linecap="round" /><path d="M 0.5 0.5 L 859.5 0.5" style="stroke:#000000;stroke-opacity:1; stroke-opacity: 0; stroke-width: 1; stroke-dasharray: none; stroke-linecap: butt; stroke-linejoin: miter; stroke-miterlimit: 10; fill: none; fill-rule: nonzero; opacity: 1" transform=" matrix(1 0 0 1 0 291) " stroke-linecap="round" /><path d="M 0.5 0.5 L 0.5 291.5" style="stroke:#000000;stroke-opacity:1; stroke-opacity: 0; stroke-width: 1; stroke-dasharray: none; stroke-linecap: butt; stroke-linejoin: miter; stroke-miterlimit: 10; fill: none; fill-rule: nonzero; opacity: 1" transform=" matrix(1 0 0 1 0 0) " stroke-linecap="round" /><path d="M 0.5 0.5 L 859.5 0.5 L 859.5 0.5" style="stroke:#CC0000;stroke-opacity:1; stroke-opacity: 0; stroke-width: 1; stroke-dasharray: none; stroke-linecap: butt; stroke-linejoin: miter; stroke-miterlimit: 10; fill: none; fill-rule: nonzero; opacity: 0" transform=" matrix(1 0 0 1 0 9) " stroke-linecap="round"  clip-path="url(#AmChartsEl-504)" /><rect x="0" y="0" rx="0" ry="0" width="859" height="291" style="stroke: none; stroke-width: 0; stroke-dasharray: none; stroke-linecap: butt; stroke-linejoin: miter; stroke-miterlimit: 10; fill: none; fill-rule: nonzero; opacity: 1" transform=""/><path d="M 0.5 0.5 L 0.5 -7.5" style="stroke:#888888;stroke-opacity:1; stroke-width: 1; stroke-dasharray: none; stroke-linecap: butt; stroke-linejoin: miter; stroke-miterlimit: 10; fill: none; fill-rule: nonzero; opacity: 1" transform=" matrix(1 0 0 1 54 244) " stroke-linecap="round" /><circle cx="0" cy="0" r="7.5" style="stroke:#888888;stroke-opacity:1; stroke-width: 1; stroke-dasharray: none; stroke-linecap: butt; stroke-linejoin: miter; stroke-miterlimit: 10;fill:#85CDE6;fill-opacity:1; fill-rule: nonzero; opacity: 1" transform="  matrix(1 0 0 1 54 229) "/><g transform=" matrix(1 0 0 1 54 227) "><text font-family="Verdana" font-size="11" font-weight="normal" style="stroke: none; stroke-width: 1; stroke-dasharray: none; stroke-linecap: butt; stroke-linejoin: miter; stroke-miterlimit: 10;fill:#000000;fill-opacity:1; fill-rule: nonzero; opacity: 1" ><tspan x="-3.76" y="5.49" fill="rgba(0,0,0,1)">S</tspan></text></g><path d="M 0.5 0.5 L 0.5 -22.5" style="stroke:#888888;stroke-opacity:1; stroke-width: 1; stroke-dasharray: none; stroke-linecap: butt; stroke-linejoin: miter; stroke-miterlimit: 10; fill: none; fill-rule: nonzero; opacity: 1" transform=" matrix(1 0 0 1 161 240) " stroke-linecap="round" /><path d="M 0.5 0.5 L 13.5 0.5 L 13.5 15.5 L 0.5 15.5 Z" style="stroke:#888888;stroke-opacity:1; stroke-width: 1; stroke-dasharray: none; stroke-linecap: butt; stroke-linejoin: miter; stroke-miterlimit: 10;fill:#FFFFFF;fill-opacity:1; fill-opacity: 0.5; fill-rule: nonzero; opacity: 1" transform=" matrix(1 0 0 1 161 217) " stroke-linecap="round" /><g transform=" matrix(1 0 0 1 168 223) "><text font-family="Verdana" font-size="11" font-weight="normal" style="stroke: none; stroke-width: 1; stroke-dasharray: none; stroke-linecap: butt; stroke-linejoin: miter; stroke-miterlimit: 10;fill:#000000;fill-opacity:1; fill-rule: nonzero; opacity: 1" ><tspan x="-3.16" y="5.49" fill="rgba(0,0,0,1)">F</tspan></text></g><path d="M 0.5 0.5 L 8.5 -3.5 L 8.5 -18.5 L -6.5 -18.5 L -6.5 -3.5 L 0.5 0.5 Z" style="stroke:#888888;stroke-opacity:1; stroke-width: 1; stroke-dasharray: none; stroke-linecap: butt; stroke-linejoin: miter; stroke-miterlimit: 10;fill:#85CDE6;fill-opacity:1; fill-rule: nonzero; opacity: 1" transform=" matrix(1 0 0 1 197 291) " stroke-linecap="round" /><g transform=" matrix(1 0 0 1 197 280) "><text font-family="Verdana" font-size="11" font-weight="normal" style="stroke: none; stroke-width: 1; stroke-dasharray: none; stroke-linecap: butt; stroke-linejoin: miter; stroke-miterlimit: 10;fill:#000000;fill-opacity:1; fill-rule: nonzero; opacity: 1" ><tspan x="-3.77" y="5.49" fill="rgba(0,0,0,1)">X</tspan></text></g><path d="M 0.5 0.5 L 8.5 -3.5 L 8.5 -18.5 L -6.5 -18.5 L -6.5 -3.5 L 0.5 0.5 Z" style="stroke:#888888;stroke-opacity:1; stroke-width: 1; stroke-dasharray: none; stroke-linecap: butt; stroke-linejoin: miter; stroke-miterlimit: 10;fill:#85CDE6;fill-opacity:1; fill-rule: nonzero; opacity: 1" transform=" matrix(1 0 0 1 221 291) " stroke-linecap="round" /><g transform=" matrix(1 0 0 1 221 280) "><text font-family="Verdana" font-size="11" font-weight="normal" style="stroke: none; stroke-width: 1; stroke-dasharray: none; stroke-linecap: butt; stroke-linejoin: miter; stroke-miterlimit: 10;fill:#000000;fill-opacity:1; fill-rule: nonzero; opacity: 1" ><tspan x="-3.77" y="5.49" fill="rgba(0,0,0,1)">Z</tspan></text></g><path d="M 0.5 0.5 L 0.5 -7.5" style="stroke:#888888;stroke-opacity:1; stroke-width: 1; stroke-dasharray: none; stroke-linecap: butt; stroke-linejoin: miter; stroke-miterlimit: 10; fill: none; fill-rule: nonzero; opacity: 1" transform=" matrix(1 0 0 1 233 212) " stroke-linecap="round" /><circle cx="0" cy="0" r="7.5" style="stroke:#888888;stroke-opacity:1; stroke-width: 1; stroke-dasharray: none; stroke-linecap: butt; stroke-linejoin: miter; stroke-miterlimit: 10;fill:#85CDE6;fill-opacity:1; fill-rule: nonzero; opacity: 1" transform="  matrix(1 0 0 1 233 197) "/><g transform=" matrix(1 0 0 1 233 195) "><text font-family="Verdana" font-size="11" font-weight="normal" style="stroke: none; stroke-width: 1; stroke-dasharray: none; stroke-linecap: butt; stroke-linejoin: miter; stroke-miterlimit: 10;fill:#000000;fill-opacity:1; fill-rule: nonzero; opacity: 1" ><tspan x="-4.03" y="5.49" fill="rgba(0,0,0,1)">U</tspan></text></g><path d="M 0.5 0.5 L 0.5 -7.5" style="stroke:#888888;stroke-opacity:1; stroke-width: 1; stroke-dasharray: none; stroke-linecap: butt; stroke-linejoin: miter; stroke-miterlimit: 10; fill: none; fill-rule: nonzero; opacity: 1" transform=" matrix(1 0 0 1 292 213) " stroke-linecap="round" /><circle cx="0" cy="0" r="7.5" style="stroke:#888888;stroke-opacity:1; stroke-width: 1; stroke-dasharray: none; stroke-linecap: butt; stroke-linejoin: miter; stroke-miterlimit: 10;fill:#DADADA;fill-opacity:1; fill-rule: nonzero; opacity: 1" transform="  matrix(1 0 0 1 292 198) "/><g transform=" matrix(1 0 0 1 292 196) "><text font-family="Verdana" font-size="11" font-weight="normal" style="stroke: none; stroke-width: 1; stroke-dasharray: none; stroke-linecap: butt; stroke-linejoin: miter; stroke-miterlimit: 10;fill:#000000;fill-opacity:1; fill-rule: nonzero; opacity: 1" ><tspan x="-4.24" y="5.49" fill="rgba(0,0,0,1)">D</tspan></text></g><path d="M 0.5 0.5 L 0.5 -7.5" style="stroke:#888888;stroke-opacity:1; stroke-width: 1; stroke-dasharray: none; stroke-linecap: butt; stroke-linejoin: miter; stroke-miterlimit: 10; fill: none; fill-rule: nonzero; opacity: 1" transform=" matrix(1 0 0 1 388 153) " stroke-linecap="round" /><circle cx="0" cy="0" r="7.5" style="stroke:#888888;stroke-opacity:1; stroke-width: 1; stroke-dasharray: none; stroke-linecap: butt; stroke-linejoin: miter; stroke-miterlimit: 10;fill:#DADADA;fill-opacity:1; fill-rule: nonzero; opacity: 1" transform="  matrix(1 0 0 1 388 138) "/><g transform=" matrix(1 0 0 1 388 136) "><text font-family="Verdana" font-size="11" font-weight="normal" style="stroke: none; stroke-width: 1; stroke-dasharray: none; stroke-linecap: butt; stroke-linejoin: miter; stroke-miterlimit: 10;fill:#000000;fill-opacity:1; fill-rule: nonzero; opacity: 1" ><tspan x="-3.06" y="5.49" fill="rgba(0,0,0,1)">L</tspan></text></g><path d="M 0.5 0.5 L 0.5 -7.5" style="stroke:#888888;stroke-opacity:1; stroke-width: 1; stroke-dasharray: none; stroke-linecap: butt; stroke-linejoin: miter; stroke-miterlimit: 10; fill: none; fill-rule: nonzero; opacity: 1" transform=" matrix(1 0 0 1 388 130) " stroke-linecap="round" /><circle cx="0" cy="0" r="7.5" style="stroke:#888888;stroke-opacity:1; stroke-width: 1; stroke-dasharray: none; stroke-linecap: butt; stroke-linejoin: miter; stroke-miterlimit: 10;fill:#DADADA;fill-opacity:1; fill-rule: nonzero; opacity: 1" transform="  matrix(1 0 0 1 388 115) "/><g transform=" matrix(1 0 0 1 388 113) "><text font-family="Verdana" font-size="11" font-weight="normal" style="stroke: none; stroke-width: 1; stroke-dasharray: none; stroke-linecap: butt; stroke-linejoin: miter; stroke-miterlimit: 10;fill:#000000;fill-opacity:1; fill-rule: nonzero; opacity: 1" ><tspan x="-3.82" y="5.49" fill="rgba(0,0,0,1)">R</tspan></text></g><path d="M 0.5 0.5 L 8.5 8.5 L 4.5 8.5 L 4.5 16.5 L -3.5 16.5 L -3.5 8.5 L -7.5 8.5 L 0.5 0.5 Z" style="stroke:#888888;stroke-opacity:1; stroke-width: 1; stroke-dasharray: none; stroke-linecap: butt; stroke-linejoin: miter; stroke-miterlimit: 10;fill:#00CC00;fill-opacity:1; fill-rule: nonzero; opacity: 1" transform=" matrix(1 0 0 1 519 134) " stroke-linecap="round" /><g transform=" matrix(1 0 0 1 519 134) "><text font-family="Verdana" font-size="11" font-weight="normal" style="stroke: none; stroke-width: 1; stroke-dasharray: none; stroke-linecap: butt; stroke-linejoin: miter; stroke-miterlimit: 10;fill:#000000;fill-opacity:1; fill-opacity: 0; fill-rule: nonzero; opacity: 0" ><tspan x="0" y="5.49" opacity="0" fill="rgb(0,0,0)"></tspan></text></g><path d="M 0.5 0.5 L 8.5 -7.5 L 4.5 -7.5 L 4.5 -15.5 L -3.5 -15.5 L -3.5 -7.5 L -7.5 -7.5 L 0.5 0.5 Z" style="stroke:#888888;stroke-opacity:1; stroke-width: 1; stroke-dasharray: none; stroke-linecap: butt; stroke-linejoin: miter; stroke-miterlimit: 10;fill:#CC0000;fill-opacity:1; fill-rule: nonzero; opacity: 1" transform=" matrix(1 0 0 1 579 134) " stroke-linecap="round" /><g transform=" matrix(1 0 0 1 579 134) "><text font-family="Verdana" font-size="11" font-weight="normal" style="stroke: none; stroke-width: 1; stroke-dasharray: none; stroke-linecap: butt; stroke-linejoin: miter; stroke-miterlimit: 10;fill:#000000;fill-opacity:1; fill-opacity: 0; fill-rule: nonzero; opacity: 0" ><tspan x="0" y="5.49" opacity="0" fill="rgb(0,0,0)"></tspan></text></g><path d="M -52.5 -4.5 L -4.5 -4.5 L 0.5 0.5 L 5.5 -4.5 L 53.5 -4.5 L 53.5 -37.5 L -52.5 -37.5 L -52.5 -4.5 Z" style="stroke:#888888;stroke-opacity:1; stroke-width: 1; stroke-dasharray: none; stroke-linecap: butt; stroke-linejoin: miter; stroke-miterlimit: 10;fill:#DADADA;fill-opacity:1; fill-rule: nonzero; opacity: 1" transform=" matrix(1 0 0 1 650 139) " stroke-linecap="round" /><g transform=" matrix(1 0 0 1 650 110) "><text font-family="Verdana" font-size="11" font-weight="normal" style="stroke: none; stroke-width: 1; stroke-dasharray: none; stroke-linecap: butt; stroke-linejoin: miter; stroke-miterlimit: 10;fill:#000000;fill-opacity:1; fill-rule: nonzero; opacity: 1" ><tspan x="-43.31" y="8.42" fill="rgba(0,0,0,1)">Longer text can</tspan><tspan x="-47.49" y="20.41" fill="rgba(0,0,0,1)">also be displayed</tspan></text></g><g transform=" matrix(1 0 0 1 27 303.5) "><text font-family="Verdana" font-size="11" font-weight="normal" style="stroke: none; stroke-width: 1; stroke-dasharray: none; stroke-linecap: butt; stroke-linejoin: miter; stroke-miterlimit: 10;fill:#000000;fill-opacity:1; fill-rule: nonzero; opacity: 1" ><tspan x="0.5" y="5.49" fill="rgba(0,0,0,1)">Сен</tspan></text></g><g transform=" matrix(1 0 0 1 131 303.5) "><text font-family="Verdana" font-size="11" font-weight="normal" style="stroke: none; stroke-width: 1; stroke-dasharray: none; stroke-linecap: butt; stroke-linejoin: miter; stroke-miterlimit: 10;fill:#000000;fill-opacity:1; fill-rule: nonzero; opacity: 1" ><tspan x="0.5" y="5.49" fill="rgba(0,0,0,1)">Ноя</tspan></text></g><g transform=" matrix(1 0 0 1 235 303.5) "><text font-family="Verdana" font-size="11" font-weight="bold" style="stroke: none; stroke-width: 1; stroke-dasharray: none; stroke-linecap: butt; stroke-linejoin: miter; stroke-miterlimit: 10;fill:#000000;fill-opacity:1; fill-rule: nonzero; opacity: 1" ><tspan x="0.5" y="5.49" fill="rgba(0,0,0,1)">2015</tspan></text></g><g transform=" matrix(1 0 0 1 335 303.5) "><text font-family="Verdana" font-size="11" font-weight="normal" style="stroke: none; stroke-width: 1; stroke-dasharray: none; stroke-linecap: butt; stroke-linejoin: miter; stroke-miterlimit: 10;fill:#000000;fill-opacity:1; fill-rule: nonzero; opacity: 1" ><tspan x="0.5" y="5.49" fill="rgba(0,0,0,1)">Мар</tspan></text></g><g transform=" matrix(1 0 0 1 439 303.5) "><text font-family="Verdana" font-size="11" font-weight="normal" style="stroke: none; stroke-width: 1; stroke-dasharray: none; stroke-linecap: butt; stroke-linejoin: miter; stroke-miterlimit: 10;fill:#000000;fill-opacity:1; fill-rule: nonzero; opacity: 1" ><tspan x="0.5" y="5.49" fill="rgba(0,0,0,1)">Май</tspan></text></g><g transform=" matrix(1 0 0 1 543 303.5) "><text font-family="Verdana" font-size="11" font-weight="normal" style="stroke: none; stroke-width: 1; stroke-dasharray: none; stroke-linecap: butt; stroke-linejoin: miter; stroke-miterlimit: 10;fill:#000000;fill-opacity:1; fill-rule: nonzero; opacity: 1" ><tspan x="0.5" y="5.49" fill="rgba(0,0,0,1)">Июл</tspan></text></g><g transform=" matrix(1 0 0 1 649 303.5) "><text font-family="Verdana" font-size="11" font-weight="normal" style="stroke: none; stroke-width: 1; stroke-dasharray: none; stroke-linecap: butt; stroke-linejoin: miter; stroke-miterlimit: 10;fill:#000000;fill-opacity:1; fill-rule: nonzero; opacity: 1" ><tspan x="0.5" y="5.49" fill="rgba(0,0,0,1)">Сен</tspan></text></g><g transform=" matrix(1 0 0 1 753 303.5) "><text font-family="Verdana" font-size="11" font-weight="normal" style="stroke: none; stroke-width: 1; stroke-dasharray: none; stroke-linecap: butt; stroke-linejoin: miter; stroke-miterlimit: 10;fill:#000000;fill-opacity:1; fill-rule: nonzero; opacity: 1" ><tspan x="0.5" y="5.49" fill="rgba(0,0,0,1)">Ноя</tspan></text></g><g transform=" matrix(1 0 0 1 857 303.5) "><text font-family="Verdana" font-size="11" font-weight="bold" style="stroke: none; stroke-width: 1; stroke-dasharray: none; stroke-linecap: butt; stroke-linejoin: miter; stroke-miterlimit: 10;fill:#000000;fill-opacity:1; fill-rule: nonzero; opacity: 1" ><tspan x="0.5" y="5.49" fill="rgba(0,0,0,1)">2016</tspan></text></g><g transform=" matrix(1 0 0 1 4 283.5) "><text font-family="Verdana" font-size="11" font-weight="normal" style="stroke: none; stroke-width: 1; stroke-dasharray: none; stroke-linecap: butt; stroke-linejoin: miter; stroke-miterlimit: 10;fill:#000000;fill-opacity:1; fill-rule: nonzero; opacity: 1" ><tspan x="0.5" y="5.49" fill="rgba(0,0,0,1)">0</tspan></text></g><g transform=" matrix(1 0 0 1 4 235.5) "><text font-family="Verdana" font-size="11" font-weight="normal" style="stroke: none; stroke-width: 1; stroke-dasharray: none; stroke-linecap: butt; stroke-linejoin: miter; stroke-miterlimit: 10;fill:#000000;fill-opacity:1; fill-rule: nonzero; opacity: 1" ><tspan x="0.5" y="5.49" fill="rgba(0,0,0,1)">200</tspan></text></g><g transform=" matrix(1 0 0 1 4 186.5) "><text font-family="Verdana" font-size="11" font-weight="normal" style="stroke: none; stroke-width: 1; stroke-dasharray: none; stroke-linecap: butt; stroke-linejoin: miter; stroke-miterlimit: 10;fill:#000000;fill-opacity:1; fill-rule: nonzero; opacity: 1" ><tspan x="0.5" y="5.49" fill="rgba(0,0,0,1)">400</tspan></text></g><g transform=" matrix(1 0 0 1 4 138.5) "><text font-family="Verdana" font-size="11" font-weight="normal" style="stroke: none; stroke-width: 1; stroke-dasharray: none; stroke-linecap: butt; stroke-linejoin: miter; stroke-miterlimit: 10;fill:#000000;fill-opacity:1; fill-rule: nonzero; opacity: 1" ><tspan x="0.5" y="5.49" fill="rgba(0,0,0,1)">600</tspan></text></g><g transform=" matrix(1 0 0 1 4 89.5) "><text font-family="Verdana" font-size="11" font-weight="normal" style="stroke: none; stroke-width: 1; stroke-dasharray: none; stroke-linecap: butt; stroke-linejoin: miter; stroke-miterlimit: 10;fill:#000000;fill-opacity:1; fill-rule: nonzero; opacity: 1" ><tspan x="0.5" y="5.49" fill="rgba(0,0,0,1)">800</tspan></text></g><g transform=" matrix(1 0 0 1 4 41.5) "><text font-family="Verdana" font-size="11" font-weight="normal" style="stroke: none; stroke-width: 1; stroke-dasharray: none; stroke-linecap: butt; stroke-linejoin: miter; stroke-miterlimit: 10;fill:#000000;fill-opacity:1; fill-rule: nonzero; opacity: 1" ><tspan x="0.5" y="5.49" fill="rgba(0,0,0,1)">1к</tspan></text></g><g transform=" matrix(1 0 0 1 4 -1) "><text font-family="Verdana" font-size="11" font-weight="normal" style="stroke: none; stroke-width: 1; stroke-dasharray: none; stroke-linecap: butt; stroke-linejoin: miter; stroke-miterlimit: 10;fill:#000000;fill-opacity:1; fill-rule: nonzero; opacity: 1" ><tspan x="0.5" y="5.49" fill="rgba(0,0,0,1)"> </tspan></text></g><rect x="-1" y="-1" rx="0" ry="0" width="861" height="293" style="stroke: none; stroke-width: 0; stroke-dasharray: none; stroke-linecap: butt; stroke-linejoin: miter; stroke-miterlimit: 10; fill: none; fill-rule: nonzero; opacity: 1" transform=""/></g><g style="stroke: none; stroke-width: 1; stroke-dasharray: none; stroke-linecap: butt; stroke-linejoin: miter; stroke-miterlimit: 10; fill: none; fill-rule: nonzero; opacity: 1" transform="translate(0.5 344.5)" ><path d="M 0.5 0.5 L 859.5 0.5 L 859.5 39.5 L 0.5 39.5 Z" style="stroke:#000000;stroke-opacity:1; stroke-opacity: 0; stroke-width: 1; stroke-dasharray: none; stroke-linecap: butt; stroke-linejoin: miter; stroke-miterlimit: 10;fill:#FFFFFF;fill-opacity:1; fill-opacity: 0; fill-rule: nonzero; opacity: 1" transform="" stroke-linecap="round" /><path d="M 0.5 0.5 L 859.5 0.5 L 859.5 0.5 L 0.5 0.5 L 0.5 0.5 Z" style="stroke:#000000;stroke-opacity:1; stroke-opacity: 0; stroke-width: 1; stroke-dasharray: none; stroke-linecap: butt; stroke-linejoin: miter; stroke-miterlimit: 10;fill:#FFFFFF;fill-opacity:1; fill-opacity: 0; fill-rule: nonzero; opacity: 1" transform=" matrix(1 0 0 1 0 40) " stroke-linecap="round" /><path d="M 24.5 0.5 L 24.5 0.5 L 24.5 0.5" style="stroke:#000000;stroke-opacity:1; stroke-opacity: 0.15; stroke-width: 1; stroke-dasharray: none; stroke-linecap: butt; stroke-linejoin: miter; stroke-miterlimit: 10; fill: none; fill-rule: nonzero; opacity: 1" transform=" matrix(1 0 0 1 0 40) " stroke-linecap="round" /><path d="M 129.5 0.5 L 129.5 0.5 L 129.5 0.5" style="stroke:#000000;stroke-opacity:1; stroke-opacity: 0.15; stroke-width: 1; stroke-dasharray: none; stroke-linecap: butt; stroke-linejoin: miter; stroke-miterlimit: 10; fill: none; fill-rule: nonzero; opacity: 1" transform=" matrix(1 0 0 1 0 40) " stroke-linecap="round" /><path d="M 234.5 0.5 L 234.5 0.5 L 234.5 0.5" style="stroke:#000000;stroke-opacity:1; stroke-opacity: 0.15; stroke-width: 1; stroke-dasharray: none; stroke-linecap: butt; stroke-linejoin: miter; stroke-miterlimit: 10; fill: none; fill-rule: nonzero; opacity: 1" transform=" matrix(1 0 0 1 0 40) " stroke-linecap="round" /><path d="M 335.5 0.5 L 335.5 0.5 L 335.5 0.5" style="stroke:#000000;stroke-opacity:1; stroke-opacity: 0.15; stroke-width: 1; stroke-dasharray: none; stroke-linecap: butt; stroke-linejoin: miter; stroke-miterlimit: 10; fill: none; fill-rule: nonzero; opacity: 1" transform=" matrix(1 0 0 1 0 40) " stroke-linecap="round" /><path d="M 440.5 0.5 L 440.5 0.5 L 440.5 0.5" style="stroke:#000000;stroke-opacity:1; stroke-opacity: 0.15; stroke-width: 1; stroke-dasharray: none; stroke-linecap: butt; stroke-linejoin: miter; stroke-miterlimit: 10; fill: none; fill-rule: nonzero; opacity: 1" transform=" matrix(1 0 0 1 0 40) " stroke-linecap="round" /><path d="M 545.5 0.5 L 545.5 0.5 L 545.5 0.5" style="stroke:#000000;stroke-opacity:1; stroke-opacity: 0.15; stroke-width: 1; stroke-dasharray: none; stroke-linecap: butt; stroke-linejoin: miter; stroke-miterlimit: 10; fill: none; fill-rule: nonzero; opacity: 1" transform=" matrix(1 0 0 1 0 40) " stroke-linecap="round" /><path d="M 651.5 0.5 L 651.5 0.5 L 651.5 0.5" style="stroke:#000000;stroke-opacity:1; stroke-opacity: 0.15; stroke-width: 1; stroke-dasharray: none; stroke-linecap: butt; stroke-linejoin: miter; stroke-miterlimit: 10; fill: none; fill-rule: nonzero; opacity: 1" transform=" matrix(1 0 0 1 0 40) " stroke-linecap="round" /><path d="M 756.5 0.5 L 756.5 0.5 L 756.5 0.5" style="stroke:#000000;stroke-opacity:1; stroke-opacity: 0.15; stroke-width: 1; stroke-dasharray: none; stroke-linecap: butt; stroke-linejoin: miter; stroke-miterlimit: 10; fill: none; fill-rule: nonzero; opacity: 1" transform=" matrix(1 0 0 1 0 40) " stroke-linecap="round" /><path d="M 0.5 40.5 L 860.5 40.5 L 860.5 40.5" style="stroke:#000000;stroke-opacity:1; stroke-opacity: 0; stroke-width: 1; stroke-dasharray: none; stroke-linecap: butt; stroke-linejoin: miter; stroke-miterlimit: 10; fill: none; fill-rule: nonzero; opacity: 1" transform=" matrix(1 0 0 1 0 0) " stroke-linecap="round" /><path d="M 0.5 0.5 L 859.5 0.5" style="stroke:#000000;stroke-opacity:1; stroke-opacity: 0; stroke-width: 1; stroke-dasharray: none; stroke-linecap: butt; stroke-linejoin: miter; stroke-miterlimit: 10; fill: none; fill-rule: nonzero; opacity: 1" transform=" matrix(1 0 0 1 0 40) " stroke-linecap="round" /><path d="M 0.5 0.5 L 0.5 40.5" style="stroke:#000000;stroke-opacity:1; stroke-opacity: 0; stroke-width: 1; stroke-dasharray: none; stroke-linecap: butt; stroke-linejoin: miter; stroke-miterlimit: 10; fill: none; fill-rule: nonzero; opacity: 0" transform=" matrix(1 0 0 1 0 0) " stroke-linecap="round" /><path d="M 0.5 0.5 L 859.5 0.5" style="stroke:#000000;stroke-opacity:1; stroke-opacity: 0; stroke-width: 1; stroke-dasharray: none; stroke-linecap: butt; stroke-linejoin: miter; stroke-miterlimit: 10; fill: none; fill-rule: nonzero; opacity: 1" transform=" matrix(1 0 0 1 0 40) " stroke-linecap="round" /><rect x="0.5" y="0.5" rx="0" ry="0" width="860" height="40" style="stroke:#D4D4D4;stroke-opacity:1; stroke-width: 1; stroke-dasharray: none; stroke-linecap: butt; stroke-linejoin: miter; stroke-miterlimit: 10;fill:#D4D4D4;fill-opacity:1; fill-rule: nonzero; opacity: 1" transform=" matrix(1 0 0 1 0 0) "/><rect x="0.5" y="0.5" rx="0" ry="0" width="859" height="41" style="stroke:#EFEFEF;stroke-opacity:1; stroke-width: 0; stroke-dasharray: none; stroke-linecap: butt; stroke-linejoin: miter; stroke-miterlimit: 10;fill:#EFEFEF;fill-opacity:1; fill-rule: nonzero; opacity: 1" transform=" matrix(1 0 0 1 0 0) "/><path d="M 1.5 37.35333 L 3.5 37.06 L 4.5 37.08667 L 6.5 37.16667 L 8.5 37.19333 L 9.5 37.3 L 11.5 36.87333 L 13.5 36.44667 L 15.5 37.56667 L 16.5 36.44667 L 18.5 37.06 L 20.5 36.36667 L 21.5 36.66 L 23.5 36.39333 L 25.5 37.08667 L 27.5 37.27333 L 28.5 36.07333 L 30.5 37.03333 L 32.5 36.60667 L 34.5 35.80667 L 35.5 36.9 L 37.5 36.58 L 39.5 36.98 L 40.5 35.67333 L 42.5 37.14 L 44.5 36.34 L 46.5 36.92667 L 47.5 35.78 L 49.5 35.62 L 51.5 36.58 L 52.5 35.51333 L 54.5 35.40667 L 56.5 36.60667 L 58.5 35.35333 L 59.5 35.38 L 61.5 35.27333 L 63.5 35.14 L 64.5 34.98 L 66.5 35.96667 L 68.5 35.14 L 70.5 35.35333 L 71.5 34.92667 L 73.5 36.20667 L 75.5 36.66 L 76.5 36.26 L 78.5 34.98 L 80.5 34.36667 L 82.5 34.84667 L 83.5 34.39333 L 85.5 34.63333 L 87.5 34.18 L 88.5 35.72667 L 90.5 36.36667 L 92.5 35.48667 L 94.5 34.84667 L 95.5 36.23333 L 97.5 35.16667 L 99.5 34.74 L 101.5 35.72667 L 102.5 35.06 L 104.5 34.60667 L 106.5 35.51333 L 107.5 35.64667 L 109.5 34.34 L 111.5 35.64667 L 113.5 33.48667 L 114.5 34.47333 L 116.5 35.78 L 118.5 34.5 L 119.5 34.36667 L 121.5 35.51333 L 123.5 35.64667 L 125.5 33.00667 L 126.5 35.35333 L 128.5 32.92667 L 130.5 33.86 L 131.5 33.72667 L 133.5 35.27333 L 135.5 33.43333 L 137.5 34.12667 L 138.5 35.56667 L 140.5 33.88667 L 142.5 34.18 L 143.5 33.7 L 145.5 35.56667 L 147.5 35.3 L 149.5 34.18 L 150.5 34.76667 L 152.5 34.52667 L 154.5 32.1 L 155.5 34.79333 L 157.5 33.43333 L 159.5 32.82 L 161.5 32.28667 L 162.5 33.14 L 164.5 33.40667 L 166.5 34.07333 L 168.5 34.9 L 169.5 34.1 L 171.5 32.20667 L 173.5 33.78 L 174.5 33.46 L 176.5 32.18 L 178.5 31.51333 L 180.5 31.78 L 181.5 34.68667 L 183.5 31.22 L 185.5 33.14 L 186.5 33.7 L 188.5 34.82 L 190.5 32.18 L 192.5 32.260000000000005 L 193.5 33.08667 L 195.5 31.91333 L 197.5 33.46 L 198.5 33.67333 L 200.5 33.86 L 202.5 33.3 L 204.5 30.60667 L 205.5 32.473330000000004 L 207.5 32.1 L 209.5 34.52667 L 210.5 31.91333 L 212.5 30.28667 L 214.5 31.11333 L 216.5 30.23333 L 217.5 33.94 L 219.5 33.59333 L 221.5 31.88667 L 222.5 33.00667 L 224.5 33.43333 L 226.5 33.00667 L 228.5 31.67333 L 229.5 33.78 L 231.5 31.80667 L 233.5 30.5 L 235.5 33.54 L 236.5 30.23333 L 238.5 30.52667 L 240.5 31.86 L 241.5 33.46 L 243.5 32.68667 L 245.5 33.83333 L 247.5 30.23333 L 248.5 33.00667 L 250.5 30.52667 L 252.5 32.20667 L 253.5 31.67333 L 255.5 28.9 L 257.5 30.98 L 259.5 30.71333 L 260.5 32.63333 L 262.5 31.48667 L 264.5 31.35333 L 265.5 30.12667 L 267.5 30.26 L 269.5 32.58 L 271.5 29.7 L 272.5 31.40667 L 274.5 30.98 L 276.5 29.64667 L 277.5 33.24667 L 279.5 31.7 L 281.5 31.80667 L 283.5 29.7 L 284.5 27.99333 L 286.5 33.16667 L 288.5 32.473330000000004 L 289.5 30.02 L 291.5 31.75333 L 293.5 27.83333 L 295.5 30.71333 L 296.5 33.19333 L 298.5 30.66 L 300.5 31.96667 L 302.5 31.19333 L 303.5 30.55333 L 305.5 29.27333 L 307.5 29.24667 L 308.5 30.60667 L 310.5 32.473330000000004 L 312.5 30.76667 L 314.5 29.75333 L 315.5 30.55333 L 317.5 27.7 L 319.5 27.27333 L 320.5 31.32667 L 322.5 32.28667 L 324.5 30.74 L 326.5 31.64667 L 327.5 27.7 L 329.5 27.24667 L 331.5 28.47333 L 332.5 27.64667 L 334.5 28.47333 L 336.5 29.19333 L 338.5 28.74 L 339.5 26.36667 L 341.5 30.39333 L 343.5 32.473330000000004 L 344.5 32.260000000000005 L 346.5 29.72667 L 348.5 29.88667 L 350.5 29.16667 L 351.5 27.83333 L 353.5 31.7 L 355.5 27.59333 L 356.5 30.98 L 358.5 30.42 L 360.5 31.96667 L 362.5 26.79333 L 363.5 31.11333 L 365.5 28.04667 L 367.5 31.64667 L 369.5 26.20667 L 370.5 29.78 L 372.5 25.72667 L 374.5 28.98 L 375.5 26.5 L 377.5 25.91333 L 379.5 29.3 L 381.5 27.80667 L 382.5 29.40667 L 384.5 31.86 L 386.5 29.86 L 387.5 27.7 L 389.5 31.08667 L 391.5 30.55333 L 393.5 26.92667 L 394.5 24.9 L 396.5 25.3 L 398.5 29.11333 L 399.5 29.72667 L 401.5 24.79333 L 403.5 31.51333 L 405.5 27.27333 L 406.5 25.06 L 408.5 28.31333 L 410.5 29.14 L 411.5 30.58 L 413.5 25.08667 L 415.5 30.9 L 417.5 25.22 L 418.5 24.52667 L 420.5 30.66 L 422.5 29.7 L 423.5 26.15333 L 425.5 30.04667 L 427.5 25.78 L 429.5 23.91333 L 430.5 26.9 L 432.5 29.38 L 434.5 27.38 L 436.5 29.72667 L 437.5 25.32667 L 439.5 29.96667 L 441.5 27.32667 L 442.5 27.35333 L 444.5 26.98 L 446.5 28.1 L 448.5 25.96667 L 449.5 28.74 L 451.5 25.86 L 453.5 24.39333 L 454.5 29.40667 L 456.5 25.27333 L 458.5 30.55333 L 460.5 30.31333 L 461.5 29.35333 L 463.5 24.23333 L 465.5 22.79333 L 466.5 27.94 L 468.5 27.48667 L 470.5 28.12667 L 472.5 29.24667 L 473.5 25.06 L 475.5 26.34 L 477.5 29.48667 L 478.5 21.99333 L 480.5 27.80667 L 482.5 27.00667 L 484.5 23.14 L 485.5 26.39333 L 487.5 25.91333 L 489.5 24.02 L 490.5 25.7 L 492.5 26.63333 L 494.5 23.14 L 496.5 27.96667 L 497.5 29.22 L 499.5 23.75333 L 501.5 23.00667 L 503.5 24.20667 L 504.5 27.00667 L 506.5 21.35333 L 508.5 29.78 L 509.5 23.32667 L 511.5 27.80667 L 513.5 21.83333 L 515.5 28.39333 L 516.5 28.58 L 518.5 28.55333 L 520.5 22.1 L 521.5 29.64667 L 523.5 28.18 L 525.5 28.42 L 527.5 22.15333 L 528.5 23.27333 L 530.5 26.92667 L 532.5 25.80667 L 533.5 21.06 L 535.5 28.55333 L 537.5 26.95333 L 539.5 24.34 L 540.5 27.16667 L 542.5 22.15333 L 544.5 27.46 L 545.5 27.62 L 547.5 23.32667 L 549.5 26.44667 L 551.5 21.91333 L 552.5 26.23333 L 554.5 22.87333 L 556.5 26.44667 L 557.5 24.15333 L 559.5 27.7 L 561.5 20.34 L 563.5 25.59333 L 564.5 28.36667 L 566.5 24.47333 L 568.5 25.43333 L 570.5 22.63333 L 571.5 24.98 L 573.5 21.83333 L 575.5 23.91333 L 576.5 19.67333 L 578.5 21.88667 L 580.5 24.60667 L 582.5 25.35333 L 583.5 27.19333 L 585.5 24.12667 L 587.5 23.06 L 588.5 23.24667 L 590.5 25.91333 L 592.5 20.63333 L 594.5 18.47333 L 595.5 24.18 L 597.5 25.7 L 599.5 28.20667 L 600.5 26.9 L 602.5 24.04667 L 604.5 26.68667 L 606.5 25.24667 L 607.5 22.52667 L 609.5 25.64667 L 611.5 26.44667 L 612.5 23.7 L 614.5 20.04667 L 616.5 18.28667 L 618.5 25.00667 L 619.5 23.54 L 621.5 28.02 L 623.5 22.84667 L 624.5 26.1 L 626.5 21.80667 L 628.5 23.22 L 630.5 19.80667 L 631.5 19.14 L 633.5 21.7 L 635.5 18.42 L 637.5 18.66 L 638.5 21.91333 L 640.5 22.23333 L 642.5 23.54 L 643.5 27.11333 L 645.5 22.79333 L 647.5 21.94 L 649.5 25.96667 L 650.5 23.59333 L 652.5 27.19333 L 654.5 23.56667 L 655.5 22.66 L 657.5 20.02 L 659.5 18.74 L 661.5 23.83333 L 662.5 22.04667 L 664.5 21.22 L 666.5 16.233330000000002 L 667.5 24.92667 L 669.5 16.76667 L 671.5 25.00667 L 673.5 26.9 L 674.5 23.96667 L 676.5 17.48667 L 678.5 19.24667 L 679.5 27.11333 L 681.5 22.79333 L 683.5 20.9 L 685.5 17.91333 L 686.5 26.52667 L 688.5 19.67333 L 690.5 18.9 L 691.5 26.47333 L 693.5 24.02 L 695.5 20.39333 L 697.5 19.40667 L 698.5 17.43333 L 700.5 17.83333 L 702.5 23.14 L 704.5 19.22 L 705.5 23.40667 L 707.5 22.42 L 709.5 21.32667 L 710.5 19.75333 L 712.5 25.32667 L 714.5 16.28667 L 716.5 20.34 L 717.5 21.06 L 719.5 18.04667 L 721.5 15.99333 L 722.5 23.35333 L 724.5 20.55333 L 726.5 21.03333 L 728.5 14.28667 L 729.5 22.63333 L 731.5 16.58 L 733.5 17.14 L 734.5 21.86 L 736.5 18.9 L 738.5 13.96667 L 740.5 24.23333 L 741.5 25.14 L 743.5 14.76667 L 745.5 25.38 L 746.5 22.39333 L 748.5 25.00667 L 750.5 22.42 L 752.5 20.39333 L 753.5 23.67333 L 755.5 22.18 L 757.5 23.48667 L 758.5 24.39333 L 760.5 22.28667 L 762.5 21.59333 L 764.5 17.48667 L 765.5 23.80667 L 767.5 20.76667 L 769.5 13.06 L 771.5 15.35333 L 772.5 24.34 L 774.5 25.54 L 776.5 23.43333 L 777.5 18.02 L 779.5 25.51333 L 781.5 24.9 L 783.5 21.43333 L 784.5 20.07333 L 786.5 24.84667 L 788.5 14.31333 L 789.5 24.52667 L 791.5 23.38 L 793.5 23.91333 L 795.5 14.07333 L 796.5 24.98 L 798.5 15.72667 L 800.5 16.12667 L 801.5 16.9 L 803.5 13.99333 L 805.5 24.47333 L 807.5 12.5 L 808.5 13.78 L 810.5 15.64667 L 812.5 18.5 L 813.5 11.96667 L 815.5 19.46 L 817.5 19.54 L 819.5 18.58 L 820.5 19.88667 L 822.5 23.99333 L 824.5 22.79333 L 825.5 19.72667 L 827.5 13.19333 L 829.5 11.22 L 831.5 11.06 L 832.5 12.84667 L 834.5 20.66 L 836.5 23.00667 L 838.5 17.86 L 839.5 13.14 L 841.5 14.07333 L 843.5 15.75333 L 844.5 23.54 L 846.5 22.44667 L 848.5 23.11333 L 850.5 20.79333 L 851.5 22.42 L 853.5 15.24667 L 855.5 20.20667 L 856.5 13.86 L 858.5 13.67333 M 0 0 L 0 0" style="stroke:#BBBBBB;stroke-opacity:1; stroke-opacity: 0; stroke-width: 1; stroke-dasharray: none; stroke-linecap: butt; stroke-linejoin: round; stroke-miterlimit: 10; fill: none; fill-rule: nonzero; opacity: 1" transform=" matrix(1 0 0 1 0 0) " stroke-linecap="round" /><path d="M 1.5 37.35333 L 3.5 37.06 L 4.5 37.08667 L 6.5 37.16667 L 8.5 37.19333 L 9.5 37.3 L 11.5 36.87333 L 13.5 36.44667 L 15.5 37.56667 L 16.5 36.44667 L 18.5 37.06 L 20.5 36.36667 L 21.5 36.66 L 23.5 36.39333 L 25.5 37.08667 L 27.5 37.27333 L 28.5 36.07333 L 30.5 37.03333 L 32.5 36.60667 L 34.5 35.80667 L 35.5 36.9 L 37.5 36.58 L 39.5 36.98 L 40.5 35.67333 L 42.5 37.14 L 44.5 36.34 L 46.5 36.92667 L 47.5 35.78 L 49.5 35.62 L 51.5 36.58 L 52.5 35.51333 L 54.5 35.40667 L 56.5 36.60667 L 58.5 35.35333 L 59.5 35.38 L 61.5 35.27333 L 63.5 35.14 L 64.5 34.98 L 66.5 35.96667 L 68.5 35.14 L 70.5 35.35333 L 71.5 34.92667 L 73.5 36.20667 L 75.5 36.66 L 76.5 36.26 L 78.5 34.98 L 80.5 34.36667 L 82.5 34.84667 L 83.5 34.39333 L 85.5 34.63333 L 87.5 34.18 L 88.5 35.72667 L 90.5 36.36667 L 92.5 35.48667 L 94.5 34.84667 L 95.5 36.23333 L 97.5 35.16667 L 99.5 34.74 L 101.5 35.72667 L 102.5 35.06 L 104.5 34.60667 L 106.5 35.51333 L 107.5 35.64667 L 109.5 34.34 L 111.5 35.64667 L 113.5 33.48667 L 114.5 34.47333 L 116.5 35.78 L 118.5 34.5 L 119.5 34.36667 L 121.5 35.51333 L 123.5 35.64667 L 125.5 33.00667 L 126.5 35.35333 L 128.5 32.92667 L 130.5 33.86 L 131.5 33.72667 L 133.5 35.27333 L 135.5 33.43333 L 137.5 34.12667 L 138.5 35.56667 L 140.5 33.88667 L 142.5 34.18 L 143.5 33.7 L 145.5 35.56667 L 147.5 35.3 L 149.5 34.18 L 150.5 34.76667 L 152.5 34.52667 L 154.5 32.1 L 155.5 34.79333 L 157.5 33.43333 L 159.5 32.82 L 161.5 32.28667 L 162.5 33.14 L 164.5 33.40667 L 166.5 34.07333 L 168.5 34.9 L 169.5 34.1 L 171.5 32.20667 L 173.5 33.78 L 174.5 33.46 L 176.5 32.18 L 178.5 31.51333 L 180.5 31.78 L 181.5 34.68667 L 183.5 31.22 L 185.5 33.14 L 186.5 33.7 L 188.5 34.82 L 190.5 32.18 L 192.5 32.260000000000005 L 193.5 33.08667 L 195.5 31.91333 L 197.5 33.46 L 198.5 33.67333 L 200.5 33.86 L 202.5 33.3 L 204.5 30.60667 L 205.5 32.473330000000004 L 207.5 32.1 L 209.5 34.52667 L 210.5 31.91333 L 212.5 30.28667 L 214.5 31.11333 L 216.5 30.23333 L 217.5 33.94 L 219.5 33.59333 L 221.5 31.88667 L 222.5 33.00667 L 224.5 33.43333 L 226.5 33.00667 L 228.5 31.67333 L 229.5 33.78 L 231.5 31.80667 L 233.5 30.5 L 235.5 33.54 L 236.5 30.23333 L 238.5 30.52667 L 240.5 31.86 L 241.5 33.46 L 243.5 32.68667 L 245.5 33.83333 L 247.5 30.23333 L 248.5 33.00667 L 250.5 30.52667 L 252.5 32.20667 L 253.5 31.67333 L 255.5 28.9 L 257.5 30.98 L 259.5 30.71333 L 260.5 32.63333 L 262.5 31.48667 L 264.5 31.35333 L 265.5 30.12667 L 267.5 30.26 L 269.5 32.58 L 271.5 29.7 L 272.5 31.40667 L 274.5 30.98 L 276.5 29.64667 L 277.5 33.24667 L 279.5 31.7 L 281.5 31.80667 L 283.5 29.7 L 284.5 27.99333 L 286.5 33.16667 L 288.5 32.473330000000004 L 289.5 30.02 L 291.5 31.75333 L 293.5 27.83333 L 295.5 30.71333 L 296.5 33.19333 L 298.5 30.66 L 300.5 31.96667 L 302.5 31.19333 L 303.5 30.55333 L 305.5 29.27333 L 307.5 29.24667 L 308.5 30.60667 L 310.5 32.473330000000004 L 312.5 30.76667 L 314.5 29.75333 L 315.5 30.55333 L 317.5 27.7 L 319.5 27.27333 L 320.5 31.32667 L 322.5 32.28667 L 324.5 30.74 L 326.5 31.64667 L 327.5 27.7 L 329.5 27.24667 L 331.5 28.47333 L 332.5 27.64667 L 334.5 28.47333 L 336.5 29.19333 L 338.5 28.74 L 339.5 26.36667 L 341.5 30.39333 L 343.5 32.473330000000004 L 344.5 32.260000000000005 L 346.5 29.72667 L 348.5 29.88667 L 350.5 29.16667 L 351.5 27.83333 L 353.5 31.7 L 355.5 27.59333 L 356.5 30.98 L 358.5 30.42 L 360.5 31.96667 L 362.5 26.79333 L 363.5 31.11333 L 365.5 28.04667 L 367.5 31.64667 L 369.5 26.20667 L 370.5 29.78 L 372.5 25.72667 L 374.5 28.98 L 375.5 26.5 L 377.5 25.91333 L 379.5 29.3 L 381.5 27.80667 L 382.5 29.40667 L 384.5 31.86 L 386.5 29.86 L 387.5 27.7 L 389.5 31.08667 L 391.5 30.55333 L 393.5 26.92667 L 394.5 24.9 L 396.5 25.3 L 398.5 29.11333 L 399.5 29.72667 L 401.5 24.79333 L 403.5 31.51333 L 405.5 27.27333 L 406.5 25.06 L 408.5 28.31333 L 410.5 29.14 L 411.5 30.58 L 413.5 25.08667 L 415.5 30.9 L 417.5 25.22 L 418.5 24.52667 L 420.5 30.66 L 422.5 29.7 L 423.5 26.15333 L 425.5 30.04667 L 427.5 25.78 L 429.5 23.91333 L 430.5 26.9 L 432.5 29.38 L 434.5 27.38 L 436.5 29.72667 L 437.5 25.32667 L 439.5 29.96667 L 441.5 27.32667 L 442.5 27.35333 L 444.5 26.98 L 446.5 28.1 L 448.5 25.96667 L 449.5 28.74 L 451.5 25.86 L 453.5 24.39333 L 454.5 29.40667 L 456.5 25.27333 L 458.5 30.55333 L 460.5 30.31333 L 461.5 29.35333 L 463.5 24.23333 L 465.5 22.79333 L 466.5 27.94 L 468.5 27.48667 L 470.5 28.12667 L 472.5 29.24667 L 473.5 25.06 L 475.5 26.34 L 477.5 29.48667 L 478.5 21.99333 L 480.5 27.80667 L 482.5 27.00667 L 484.5 23.14 L 485.5 26.39333 L 487.5 25.91333 L 489.5 24.02 L 490.5 25.7 L 492.5 26.63333 L 494.5 23.14 L 496.5 27.96667 L 497.5 29.22 L 499.5 23.75333 L 501.5 23.00667 L 503.5 24.20667 L 504.5 27.00667 L 506.5 21.35333 L 508.5 29.78 L 509.5 23.32667 L 511.5 27.80667 L 513.5 21.83333 L 515.5 28.39333 L 516.5 28.58 L 518.5 28.55333 L 520.5 22.1 L 521.5 29.64667 L 523.5 28.18 L 525.5 28.42 L 527.5 22.15333 L 528.5 23.27333 L 530.5 26.92667 L 532.5 25.80667 L 533.5 21.06 L 535.5 28.55333 L 537.5 26.95333 L 539.5 24.34 L 540.5 27.16667 L 542.5 22.15333 L 544.5 27.46 L 545.5 27.62 L 547.5 23.32667 L 549.5 26.44667 L 551.5 21.91333 L 552.5 26.23333 L 554.5 22.87333 L 556.5 26.44667 L 557.5 24.15333 L 559.5 27.7 L 561.5 20.34 L 563.5 25.59333 L 564.5 28.36667 L 566.5 24.47333 L 568.5 25.43333 L 570.5 22.63333 L 571.5 24.98 L 573.5 21.83333 L 575.5 23.91333 L 576.5 19.67333 L 578.5 21.88667 L 580.5 24.60667 L 582.5 25.35333 L 583.5 27.19333 L 585.5 24.12667 L 587.5 23.06 L 588.5 23.24667 L 590.5 25.91333 L 592.5 20.63333 L 594.5 18.47333 L 595.5 24.18 L 597.5 25.7 L 599.5 28.20667 L 600.5 26.9 L 602.5 24.04667 L 604.5 26.68667 L 606.5 25.24667 L 607.5 22.52667 L 609.5 25.64667 L 611.5 26.44667 L 612.5 23.7 L 614.5 20.04667 L 616.5 18.28667 L 618.5 25.00667 L 619.5 23.54 L 621.5 28.02 L 623.5 22.84667 L 624.5 26.1 L 626.5 21.80667 L 628.5 23.22 L 630.5 19.80667 L 631.5 19.14 L 633.5 21.7 L 635.5 18.42 L 637.5 18.66 L 638.5 21.91333 L 640.5 22.23333 L 642.5 23.54 L 643.5 27.11333 L 645.5 22.79333 L 647.5 21.94 L 649.5 25.96667 L 650.5 23.59333 L 652.5 27.19333 L 654.5 23.56667 L 655.5 22.66 L 657.5 20.02 L 659.5 18.74 L 661.5 23.83333 L 662.5 22.04667 L 664.5 21.22 L 666.5 16.233330000000002 L 667.5 24.92667 L 669.5 16.76667 L 671.5 25.00667 L 673.5 26.9 L 674.5 23.96667 L 676.5 17.48667 L 678.5 19.24667 L 679.5 27.11333 L 681.5 22.79333 L 683.5 20.9 L 685.5 17.91333 L 686.5 26.52667 L 688.5 19.67333 L 690.5 18.9 L 691.5 26.47333 L 693.5 24.02 L 695.5 20.39333 L 697.5 19.40667 L 698.5 17.43333 L 700.5 17.83333 L 702.5 23.14 L 704.5 19.22 L 705.5 23.40667 L 707.5 22.42 L 709.5 21.32667 L 710.5 19.75333 L 712.5 25.32667 L 714.5 16.28667 L 716.5 20.34 L 717.5 21.06 L 719.5 18.04667 L 721.5 15.99333 L 722.5 23.35333 L 724.5 20.55333 L 726.5 21.03333 L 728.5 14.28667 L 729.5 22.63333 L 731.5 16.58 L 733.5 17.14 L 734.5 21.86 L 736.5 18.9 L 738.5 13.96667 L 740.5 24.23333 L 741.5 25.14 L 743.5 14.76667 L 745.5 25.38 L 746.5 22.39333 L 748.5 25.00667 L 750.5 22.42 L 752.5 20.39333 L 753.5 23.67333 L 755.5 22.18 L 757.5 23.48667 L 758.5 24.39333 L 760.5 22.28667 L 762.5 21.59333 L 764.5 17.48667 L 765.5 23.80667 L 767.5 20.76667 L 769.5 13.06 L 771.5 15.35333 L 772.5 24.34 L 774.5 25.54 L 776.5 23.43333 L 777.5 18.02 L 779.5 25.51333 L 781.5 24.9 L 783.5 21.43333 L 784.5 20.07333 L 786.5 24.84667 L 788.5 14.31333 L 789.5 24.52667 L 791.5 23.38 L 793.5 23.91333 L 795.5 14.07333 L 796.5 24.98 L 798.5 15.72667 L 800.5 16.12667 L 801.5 16.9 L 803.5 13.99333 L 805.5 24.47333 L 807.5 12.5 L 808.5 13.78 L 810.5 15.64667 L 812.5 18.5 L 813.5 11.96667 L 815.5 19.46 L 817.5 19.54 L 819.5 18.58 L 820.5 19.88667 L 822.5 23.99333 L 824.5 22.79333 L 825.5 19.72667 L 827.5 13.19333 L 829.5 11.22 L 831.5 11.06 L 832.5 12.84667 L 834.5 20.66 L 836.5 23.00667 L 838.5 17.86 L 839.5 13.14 L 841.5 14.07333 L 843.5 15.75333 L 844.5 23.54 L 846.5 22.44667 L 848.5 23.11333 L 850.5 20.79333 L 851.5 22.42 L 853.5 15.24667 L 855.5 20.20667 L 856.5 13.86 L 858.5 13.67333 L 858.5 40.5 L 1.5 40.5 L 1.5 37.35333 Z" style="stroke:#000000;stroke-opacity:1; stroke-opacity: 0; stroke-width: 1; stroke-dasharray: none; stroke-linecap: butt; stroke-linejoin: miter; stroke-miterlimit: 10;fill:#BBBBBB;fill-opacity:1; fill-rule: nonzero; opacity: 1" transform=" matrix(1 0 0 1 0 0) " stroke-linecap="round" /><path d="M 1.5 37.35333 L 3.5 37.06 L 4.5 37.08667 L 6.5 37.16667 L 8.5 37.19333 L 9.5 37.3 L 11.5 36.87333 L 13.5 36.44667 L 15.5 37.56667 L 16.5 36.44667 L 18.5 37.06 L 20.5 36.36667 L 21.5 36.66 L 23.5 36.39333 L 25.5 37.08667 L 27.5 37.27333 L 28.5 36.07333 L 30.5 37.03333 L 32.5 36.60667 L 34.5 35.80667 L 35.5 36.9 L 37.5 36.58 L 39.5 36.98 L 40.5 35.67333 L 42.5 37.14 L 44.5 36.34 L 46.5 36.92667 L 47.5 35.78 L 49.5 35.62 L 51.5 36.58 L 52.5 35.51333 L 54.5 35.40667 L 56.5 36.60667 L 58.5 35.35333 L 59.5 35.38 L 61.5 35.27333 L 63.5 35.14 L 64.5 34.98 L 66.5 35.96667 L 68.5 35.14 L 70.5 35.35333 L 71.5 34.92667 L 73.5 36.20667 L 75.5 36.66 L 76.5 36.26 L 78.5 34.98 L 80.5 34.36667 L 82.5 34.84667 L 83.5 34.39333 L 85.5 34.63333 L 87.5 34.18 L 88.5 35.72667 L 90.5 36.36667 L 92.5 35.48667 L 94.5 34.84667 L 95.5 36.23333 L 97.5 35.16667 L 99.5 34.74 L 101.5 35.72667 L 102.5 35.06 L 104.5 34.60667 L 106.5 35.51333 L 107.5 35.64667 L 109.5 34.34 L 111.5 35.64667 L 113.5 33.48667 L 114.5 34.47333 L 116.5 35.78 L 118.5 34.5 L 119.5 34.36667 L 121.5 35.51333 L 123.5 35.64667 L 125.5 33.00667 L 126.5 35.35333 L 128.5 32.92667 L 130.5 33.86 L 131.5 33.72667 L 133.5 35.27333 L 135.5 33.43333 L 137.5 34.12667 L 138.5 35.56667 L 140.5 33.88667 L 142.5 34.18 L 143.5 33.7 L 145.5 35.56667 L 147.5 35.3 L 149.5 34.18 L 150.5 34.76667 L 152.5 34.52667 L 154.5 32.1 L 155.5 34.79333 L 157.5 33.43333 L 159.5 32.82 L 161.5 32.28667 L 162.5 33.14 L 164.5 33.40667 L 166.5 34.07333 L 168.5 34.9 L 169.5 34.1 L 171.5 32.20667 L 173.5 33.78 L 174.5 33.46 L 176.5 32.18 L 178.5 31.51333 L 180.5 31.78 L 181.5 34.68667 L 183.5 31.22 L 185.5 33.14 L 186.5 33.7 L 188.5 34.82 L 190.5 32.18 L 192.5 32.260000000000005 L 193.5 33.08667 L 195.5 31.91333 L 197.5 33.46 L 198.5 33.67333 L 200.5 33.86 L 202.5 33.3 L 204.5 30.60667 L 205.5 32.473330000000004 L 207.5 32.1 L 209.5 34.52667 L 210.5 31.91333 L 212.5 30.28667 L 214.5 31.11333 L 216.5 30.23333 L 217.5 33.94 L 219.5 33.59333 L 221.5 31.88667 L 222.5 33.00667 L 224.5 33.43333 L 226.5 33.00667 L 228.5 31.67333 L 229.5 33.78 L 231.5 31.80667 L 233.5 30.5 L 235.5 33.54 L 236.5 30.23333 L 238.5 30.52667 L 240.5 31.86 L 241.5 33.46 L 243.5 32.68667 L 245.5 33.83333 L 247.5 30.23333 L 248.5 33.00667 L 250.5 30.52667 L 252.5 32.20667 L 253.5 31.67333 L 255.5 28.9 L 257.5 30.98 L 259.5 30.71333 L 260.5 32.63333 L 262.5 31.48667 L 264.5 31.35333 L 265.5 30.12667 L 267.5 30.26 L 269.5 32.58 L 271.5 29.7 L 272.5 31.40667 L 274.5 30.98 L 276.5 29.64667 L 277.5 33.24667 L 279.5 31.7 L 281.5 31.80667 L 283.5 29.7 L 284.5 27.99333 L 286.5 33.16667 L 288.5 32.473330000000004 L 289.5 30.02 L 291.5 31.75333 L 293.5 27.83333 L 295.5 30.71333 L 296.5 33.19333 L 298.5 30.66 L 300.5 31.96667 L 302.5 31.19333 L 303.5 30.55333 L 305.5 29.27333 L 307.5 29.24667 L 308.5 30.60667 L 310.5 32.473330000000004 L 312.5 30.76667 L 314.5 29.75333 L 315.5 30.55333 L 317.5 27.7 L 319.5 27.27333 L 320.5 31.32667 L 322.5 32.28667 L 324.5 30.74 L 326.5 31.64667 L 327.5 27.7 L 329.5 27.24667 L 331.5 28.47333 L 332.5 27.64667 L 334.5 28.47333 L 336.5 29.19333 L 338.5 28.74 L 339.5 26.36667 L 341.5 30.39333 L 343.5 32.473330000000004 L 344.5 32.260000000000005 L 346.5 29.72667 L 348.5 29.88667 L 350.5 29.16667 L 351.5 27.83333 L 353.5 31.7 L 355.5 27.59333 L 356.5 30.98 L 358.5 30.42 L 360.5 31.96667 L 362.5 26.79333 L 363.5 31.11333 L 365.5 28.04667 L 367.5 31.64667 L 369.5 26.20667 L 370.5 29.78 L 372.5 25.72667 L 374.5 28.98 L 375.5 26.5 L 377.5 25.91333 L 379.5 29.3 L 381.5 27.80667 L 382.5 29.40667 L 384.5 31.86 L 386.5 29.86 L 387.5 27.7 L 389.5 31.08667 L 391.5 30.55333 L 393.5 26.92667 L 394.5 24.9 L 396.5 25.3 L 398.5 29.11333 L 399.5 29.72667 L 401.5 24.79333 L 403.5 31.51333 L 405.5 27.27333 L 406.5 25.06 L 408.5 28.31333 L 410.5 29.14 L 411.5 30.58 L 413.5 25.08667 L 415.5 30.9 L 417.5 25.22 L 418.5 24.52667 L 420.5 30.66 L 422.5 29.7 L 423.5 26.15333 L 425.5 30.04667 L 427.5 25.78 L 429.5 23.91333 L 430.5 26.9 L 432.5 29.38 L 434.5 27.38 L 436.5 29.72667 L 437.5 25.32667 L 439.5 29.96667 L 441.5 27.32667 L 442.5 27.35333 L 444.5 26.98 L 446.5 28.1 L 448.5 25.96667 L 449.5 28.74 L 451.5 25.86 L 453.5 24.39333 L 454.5 29.40667 L 456.5 25.27333 L 458.5 30.55333 L 460.5 30.31333 L 461.5 29.35333 L 463.5 24.23333 L 465.5 22.79333 L 466.5 27.94 L 468.5 27.48667 L 470.5 28.12667 L 472.5 29.24667 L 473.5 25.06 L 475.5 26.34 L 477.5 29.48667 L 478.5 21.99333 L 480.5 27.80667 L 482.5 27.00667 L 484.5 23.14 L 485.5 26.39333 L 487.5 25.91333 L 489.5 24.02 L 490.5 25.7 L 492.5 26.63333 L 494.5 23.14 L 496.5 27.96667 L 497.5 29.22 L 499.5 23.75333 L 501.5 23.00667 L 503.5 24.20667 L 504.5 27.00667 L 506.5 21.35333 L 508.5 29.78 L 509.5 23.32667 L 511.5 27.80667 L 513.5 21.83333 L 515.5 28.39333 L 516.5 28.58 L 518.5 28.55333 L 520.5 22.1 L 521.5 29.64667 L 523.5 28.18 L 525.5 28.42 L 527.5 22.15333 L 528.5 23.27333 L 530.5 26.92667 L 532.5 25.80667 L 533.5 21.06 L 535.5 28.55333 L 537.5 26.95333 L 539.5 24.34 L 540.5 27.16667 L 542.5 22.15333 L 544.5 27.46 L 545.5 27.62 L 547.5 23.32667 L 549.5 26.44667 L 551.5 21.91333 L 552.5 26.23333 L 554.5 22.87333 L 556.5 26.44667 L 557.5 24.15333 L 559.5 27.7 L 561.5 20.34 L 563.5 25.59333 L 564.5 28.36667 L 566.5 24.47333 L 568.5 25.43333 L 570.5 22.63333 L 571.5 24.98 L 573.5 21.83333 L 575.5 23.91333 L 576.5 19.67333 L 578.5 21.88667 L 580.5 24.60667 L 582.5 25.35333 L 583.5 27.19333 L 585.5 24.12667 L 587.5 23.06 L 588.5 23.24667 L 590.5 25.91333 L 592.5 20.63333 L 594.5 18.47333 L 595.5 24.18 L 597.5 25.7 L 599.5 28.20667 L 600.5 26.9 L 602.5 24.04667 L 604.5 26.68667 L 606.5 25.24667 L 607.5 22.52667 L 609.5 25.64667 L 611.5 26.44667 L 612.5 23.7 L 614.5 20.04667 L 616.5 18.28667 L 618.5 25.00667 L 619.5 23.54 L 621.5 28.02 L 623.5 22.84667 L 624.5 26.1 L 626.5 21.80667 L 628.5 23.22 L 630.5 19.80667 L 631.5 19.14 L 633.5 21.7 L 635.5 18.42 L 637.5 18.66 L 638.5 21.91333 L 640.5 22.23333 L 642.5 23.54 L 643.5 27.11333 L 645.5 22.79333 L 647.5 21.94 L 649.5 25.96667 L 650.5 23.59333 L 652.5 27.19333 L 654.5 23.56667 L 655.5 22.66 L 657.5 20.02 L 659.5 18.74 L 661.5 23.83333 L 662.5 22.04667 L 664.5 21.22 L 666.5 16.233330000000002 L 667.5 24.92667 L 669.5 16.76667 L 671.5 25.00667 L 673.5 26.9 L 674.5 23.96667 L 676.5 17.48667 L 678.5 19.24667 L 679.5 27.11333 L 681.5 22.79333 L 683.5 20.9 L 685.5 17.91333 L 686.5 26.52667 L 688.5 19.67333 L 690.5 18.9 L 691.5 26.47333 L 693.5 24.02 L 695.5 20.39333 L 697.5 19.40667 L 698.5 17.43333 L 700.5 17.83333 L 702.5 23.14 L 704.5 19.22 L 705.5 23.40667 L 707.5 22.42 L 709.5 21.32667 L 710.5 19.75333 L 712.5 25.32667 L 714.5 16.28667 L 716.5 20.34 L 717.5 21.06 L 719.5 18.04667 L 721.5 15.99333 L 722.5 23.35333 L 724.5 20.55333 L 726.5 21.03333 L 728.5 14.28667 L 729.5 22.63333 L 731.5 16.58 L 733.5 17.14 L 734.5 21.86 L 736.5 18.9 L 738.5 13.96667 L 740.5 24.23333 L 741.5 25.14 L 743.5 14.76667 L 745.5 25.38 L 746.5 22.39333 L 748.5 25.00667 L 750.5 22.42 L 752.5 20.39333 L 753.5 23.67333 L 755.5 22.18 L 757.5 23.48667 L 758.5 24.39333 L 760.5 22.28667 L 762.5 21.59333 L 764.5 17.48667 L 765.5 23.80667 L 767.5 20.76667 L 769.5 13.06 L 771.5 15.35333 L 772.5 24.34 L 774.5 25.54 L 776.5 23.43333 L 777.5 18.02 L 779.5 25.51333 L 781.5 24.9 L 783.5 21.43333 L 784.5 20.07333 L 786.5 24.84667 L 788.5 14.31333 L 789.5 24.52667 L 791.5 23.38 L 793.5 23.91333 L 795.5 14.07333 L 796.5 24.98 L 798.5 15.72667 L 800.5 16.12667 L 801.5 16.9 L 803.5 13.99333 L 805.5 24.47333 L 807.5 12.5 L 808.5 13.78 L 810.5 15.64667 L 812.5 18.5 L 813.5 11.96667 L 815.5 19.46 L 817.5 19.54 L 819.5 18.58 L 820.5 19.88667 L 822.5 23.99333 L 824.5 22.79333 L 825.5 19.72667 L 827.5 13.19333 L 829.5 11.22 L 831.5 11.06 L 832.5 12.84667 L 834.5 20.66 L 836.5 23.00667 L 838.5 17.86 L 839.5 13.14 L 841.5 14.07333 L 843.5 15.75333 L 844.5 23.54 L 846.5 22.44667 L 848.5 23.11333 L 850.5 20.79333 L 851.5 22.42 L 853.5 15.24667 L 855.5 20.20667 L 856.5 13.86 L 858.5 13.67333 M 0 0 L 0 0" style="stroke:#888888;stroke-opacity:1; stroke-opacity: 0; stroke-width: 1; stroke-dasharray: none; stroke-linecap: butt; stroke-linejoin: round; stroke-miterlimit: 10; fill: none; fill-rule: nonzero; opacity: 1" transform=" matrix(1 0 0 1 0 0) " stroke-linecap="round"  clip-path="url(#AmChartsEl-506)" /><path d="M 1.5 37.35333 L 3.5 37.06 L 4.5 37.08667 L 6.5 37.16667 L 8.5 37.19333 L 9.5 37.3 L 11.5 36.87333 L 13.5 36.44667 L 15.5 37.56667 L 16.5 36.44667 L 18.5 37.06 L 20.5 36.36667 L 21.5 36.66 L 23.5 36.39333 L 25.5 37.08667 L 27.5 37.27333 L 28.5 36.07333 L 30.5 37.03333 L 32.5 36.60667 L 34.5 35.80667 L 35.5 36.9 L 37.5 36.58 L 39.5 36.98 L 40.5 35.67333 L 42.5 37.14 L 44.5 36.34 L 46.5 36.92667 L 47.5 35.78 L 49.5 35.62 L 51.5 36.58 L 52.5 35.51333 L 54.5 35.40667 L 56.5 36.60667 L 58.5 35.35333 L 59.5 35.38 L 61.5 35.27333 L 63.5 35.14 L 64.5 34.98 L 66.5 35.96667 L 68.5 35.14 L 70.5 35.35333 L 71.5 34.92667 L 73.5 36.20667 L 75.5 36.66 L 76.5 36.26 L 78.5 34.98 L 80.5 34.36667 L 82.5 34.84667 L 83.5 34.39333 L 85.5 34.63333 L 87.5 34.18 L 88.5 35.72667 L 90.5 36.36667 L 92.5 35.48667 L 94.5 34.84667 L 95.5 36.23333 L 97.5 35.16667 L 99.5 34.74 L 101.5 35.72667 L 102.5 35.06 L 104.5 34.60667 L 106.5 35.51333 L 107.5 35.64667 L 109.5 34.34 L 111.5 35.64667 L 113.5 33.48667 L 114.5 34.47333 L 116.5 35.78 L 118.5 34.5 L 119.5 34.36667 L 121.5 35.51333 L 123.5 35.64667 L 125.5 33.00667 L 126.5 35.35333 L 128.5 32.92667 L 130.5 33.86 L 131.5 33.72667 L 133.5 35.27333 L 135.5 33.43333 L 137.5 34.12667 L 138.5 35.56667 L 140.5 33.88667 L 142.5 34.18 L 143.5 33.7 L 145.5 35.56667 L 147.5 35.3 L 149.5 34.18 L 150.5 34.76667 L 152.5 34.52667 L 154.5 32.1 L 155.5 34.79333 L 157.5 33.43333 L 159.5 32.82 L 161.5 32.28667 L 162.5 33.14 L 164.5 33.40667 L 166.5 34.07333 L 168.5 34.9 L 169.5 34.1 L 171.5 32.20667 L 173.5 33.78 L 174.5 33.46 L 176.5 32.18 L 178.5 31.51333 L 180.5 31.78 L 181.5 34.68667 L 183.5 31.22 L 185.5 33.14 L 186.5 33.7 L 188.5 34.82 L 190.5 32.18 L 192.5 32.260000000000005 L 193.5 33.08667 L 195.5 31.91333 L 197.5 33.46 L 198.5 33.67333 L 200.5 33.86 L 202.5 33.3 L 204.5 30.60667 L 205.5 32.473330000000004 L 207.5 32.1 L 209.5 34.52667 L 210.5 31.91333 L 212.5 30.28667 L 214.5 31.11333 L 216.5 30.23333 L 217.5 33.94 L 219.5 33.59333 L 221.5 31.88667 L 222.5 33.00667 L 224.5 33.43333 L 226.5 33.00667 L 228.5 31.67333 L 229.5 33.78 L 231.5 31.80667 L 233.5 30.5 L 235.5 33.54 L 236.5 30.23333 L 238.5 30.52667 L 240.5 31.86 L 241.5 33.46 L 243.5 32.68667 L 245.5 33.83333 L 247.5 30.23333 L 248.5 33.00667 L 250.5 30.52667 L 252.5 32.20667 L 253.5 31.67333 L 255.5 28.9 L 257.5 30.98 L 259.5 30.71333 L 260.5 32.63333 L 262.5 31.48667 L 264.5 31.35333 L 265.5 30.12667 L 267.5 30.26 L 269.5 32.58 L 271.5 29.7 L 272.5 31.40667 L 274.5 30.98 L 276.5 29.64667 L 277.5 33.24667 L 279.5 31.7 L 281.5 31.80667 L 283.5 29.7 L 284.5 27.99333 L 286.5 33.16667 L 288.5 32.473330000000004 L 289.5 30.02 L 291.5 31.75333 L 293.5 27.83333 L 295.5 30.71333 L 296.5 33.19333 L 298.5 30.66 L 300.5 31.96667 L 302.5 31.19333 L 303.5 30.55333 L 305.5 29.27333 L 307.5 29.24667 L 308.5 30.60667 L 310.5 32.473330000000004 L 312.5 30.76667 L 314.5 29.75333 L 315.5 30.55333 L 317.5 27.7 L 319.5 27.27333 L 320.5 31.32667 L 322.5 32.28667 L 324.5 30.74 L 326.5 31.64667 L 327.5 27.7 L 329.5 27.24667 L 331.5 28.47333 L 332.5 27.64667 L 334.5 28.47333 L 336.5 29.19333 L 338.5 28.74 L 339.5 26.36667 L 341.5 30.39333 L 343.5 32.473330000000004 L 344.5 32.260000000000005 L 346.5 29.72667 L 348.5 29.88667 L 350.5 29.16667 L 351.5 27.83333 L 353.5 31.7 L 355.5 27.59333 L 356.5 30.98 L 358.5 30.42 L 360.5 31.96667 L 362.5 26.79333 L 363.5 31.11333 L 365.5 28.04667 L 367.5 31.64667 L 369.5 26.20667 L 370.5 29.78 L 372.5 25.72667 L 374.5 28.98 L 375.5 26.5 L 377.5 25.91333 L 379.5 29.3 L 381.5 27.80667 L 382.5 29.40667 L 384.5 31.86 L 386.5 29.86 L 387.5 27.7 L 389.5 31.08667 L 391.5 30.55333 L 393.5 26.92667 L 394.5 24.9 L 396.5 25.3 L 398.5 29.11333 L 399.5 29.72667 L 401.5 24.79333 L 403.5 31.51333 L 405.5 27.27333 L 406.5 25.06 L 408.5 28.31333 L 410.5 29.14 L 411.5 30.58 L 413.5 25.08667 L 415.5 30.9 L 417.5 25.22 L 418.5 24.52667 L 420.5 30.66 L 422.5 29.7 L 423.5 26.15333 L 425.5 30.04667 L 427.5 25.78 L 429.5 23.91333 L 430.5 26.9 L 432.5 29.38 L 434.5 27.38 L 436.5 29.72667 L 437.5 25.32667 L 439.5 29.96667 L 441.5 27.32667 L 442.5 27.35333 L 444.5 26.98 L 446.5 28.1 L 448.5 25.96667 L 449.5 28.74 L 451.5 25.86 L 453.5 24.39333 L 454.5 29.40667 L 456.5 25.27333 L 458.5 30.55333 L 460.5 30.31333 L 461.5 29.35333 L 463.5 24.23333 L 465.5 22.79333 L 466.5 27.94 L 468.5 27.48667 L 470.5 28.12667 L 472.5 29.24667 L 473.5 25.06 L 475.5 26.34 L 477.5 29.48667 L 478.5 21.99333 L 480.5 27.80667 L 482.5 27.00667 L 484.5 23.14 L 485.5 26.39333 L 487.5 25.91333 L 489.5 24.02 L 490.5 25.7 L 492.5 26.63333 L 494.5 23.14 L 496.5 27.96667 L 497.5 29.22 L 499.5 23.75333 L 501.5 23.00667 L 503.5 24.20667 L 504.5 27.00667 L 506.5 21.35333 L 508.5 29.78 L 509.5 23.32667 L 511.5 27.80667 L 513.5 21.83333 L 515.5 28.39333 L 516.5 28.58 L 518.5 28.55333 L 520.5 22.1 L 521.5 29.64667 L 523.5 28.18 L 525.5 28.42 L 527.5 22.15333 L 528.5 23.27333 L 530.5 26.92667 L 532.5 25.80667 L 533.5 21.06 L 535.5 28.55333 L 537.5 26.95333 L 539.5 24.34 L 540.5 27.16667 L 542.5 22.15333 L 544.5 27.46 L 545.5 27.62 L 547.5 23.32667 L 549.5 26.44667 L 551.5 21.91333 L 552.5 26.23333 L 554.5 22.87333 L 556.5 26.44667 L 557.5 24.15333 L 559.5 27.7 L 561.5 20.34 L 563.5 25.59333 L 564.5 28.36667 L 566.5 24.47333 L 568.5 25.43333 L 570.5 22.63333 L 571.5 24.98 L 573.5 21.83333 L 575.5 23.91333 L 576.5 19.67333 L 578.5 21.88667 L 580.5 24.60667 L 582.5 25.35333 L 583.5 27.19333 L 585.5 24.12667 L 587.5 23.06 L 588.5 23.24667 L 590.5 25.91333 L 592.5 20.63333 L 594.5 18.47333 L 595.5 24.18 L 597.5 25.7 L 599.5 28.20667 L 600.5 26.9 L 602.5 24.04667 L 604.5 26.68667 L 606.5 25.24667 L 607.5 22.52667 L 609.5 25.64667 L 611.5 26.44667 L 612.5 23.7 L 614.5 20.04667 L 616.5 18.28667 L 618.5 25.00667 L 619.5 23.54 L 621.5 28.02 L 623.5 22.84667 L 624.5 26.1 L 626.5 21.80667 L 628.5 23.22 L 630.5 19.80667 L 631.5 19.14 L 633.5 21.7 L 635.5 18.42 L 637.5 18.66 L 638.5 21.91333 L 640.5 22.23333 L 642.5 23.54 L 643.5 27.11333 L 645.5 22.79333 L 647.5 21.94 L 649.5 25.96667 L 650.5 23.59333 L 652.5 27.19333 L 654.5 23.56667 L 655.5 22.66 L 657.5 20.02 L 659.5 18.74 L 661.5 23.83333 L 662.5 22.04667 L 664.5 21.22 L 666.5 16.233330000000002 L 667.5 24.92667 L 669.5 16.76667 L 671.5 25.00667 L 673.5 26.9 L 674.5 23.96667 L 676.5 17.48667 L 678.5 19.24667 L 679.5 27.11333 L 681.5 22.79333 L 683.5 20.9 L 685.5 17.91333 L 686.5 26.52667 L 688.5 19.67333 L 690.5 18.9 L 691.5 26.47333 L 693.5 24.02 L 695.5 20.39333 L 697.5 19.40667 L 698.5 17.43333 L 700.5 17.83333 L 702.5 23.14 L 704.5 19.22 L 705.5 23.40667 L 707.5 22.42 L 709.5 21.32667 L 710.5 19.75333 L 712.5 25.32667 L 714.5 16.28667 L 716.5 20.34 L 717.5 21.06 L 719.5 18.04667 L 721.5 15.99333 L 722.5 23.35333 L 724.5 20.55333 L 726.5 21.03333 L 728.5 14.28667 L 729.5 22.63333 L 731.5 16.58 L 733.5 17.14 L 734.5 21.86 L 736.5 18.9 L 738.5 13.96667 L 740.5 24.23333 L 741.5 25.14 L 743.5 14.76667 L 745.5 25.38 L 746.5 22.39333 L 748.5 25.00667 L 750.5 22.42 L 752.5 20.39333 L 753.5 23.67333 L 755.5 22.18 L 757.5 23.48667 L 758.5 24.39333 L 760.5 22.28667 L 762.5 21.59333 L 764.5 17.48667 L 765.5 23.80667 L 767.5 20.76667 L 769.5 13.06 L 771.5 15.35333 L 772.5 24.34 L 774.5 25.54 L 776.5 23.43333 L 777.5 18.02 L 779.5 25.51333 L 781.5 24.9 L 783.5 21.43333 L 784.5 20.07333 L 786.5 24.84667 L 788.5 14.31333 L 789.5 24.52667 L 791.5 23.38 L 793.5 23.91333 L 795.5 14.07333 L 796.5 24.98 L 798.5 15.72667 L 800.5 16.12667 L 801.5 16.9 L 803.5 13.99333 L 805.5 24.47333 L 807.5 12.5 L 808.5 13.78 L 810.5 15.64667 L 812.5 18.5 L 813.5 11.96667 L 815.5 19.46 L 817.5 19.54 L 819.5 18.58 L 820.5 19.88667 L 822.5 23.99333 L 824.5 22.79333 L 825.5 19.72667 L 827.5 13.19333 L 829.5 11.22 L 831.5 11.06 L 832.5 12.84667 L 834.5 20.66 L 836.5 23.00667 L 838.5 17.86 L 839.5 13.14 L 841.5 14.07333 L 843.5 15.75333 L 844.5 23.54 L 846.5 22.44667 L 848.5 23.11333 L 850.5 20.79333 L 851.5 22.42 L 853.5 15.24667 L 855.5 20.20667 L 856.5 13.86 L 858.5 13.67333 L 858.5 40.5 L 1.5 40.5 L 1.5 37.35333 Z" style="stroke:#000000;stroke-opacity:1; stroke-opacity: 0; stroke-width: 1; stroke-dasharray: none; stroke-linecap: butt; stroke-linejoin: miter; stroke-miterlimit: 10;fill:#888888;fill-opacity:1; fill-rule: nonzero; opacity: 1" transform=" matrix(1 0 0 1 0 0) " stroke-linecap="round" /><path d="M 24.5 40.5 L 24.5 40.5 L 24.5 0.5" style="stroke:#FFFFFF;stroke-opacity:1; stroke-opacity: 0.7; stroke-width: 1; stroke-dasharray: none; stroke-linecap: butt; stroke-linejoin: miter; stroke-miterlimit: 10; fill: none; fill-rule: nonzero; opacity: 1" transform=" matrix(1 0 0 1 0 0) " stroke-linecap="round" /><path d="M 129.5 40.5 L 129.5 40.5 L 129.5 0.5" style="stroke:#FFFFFF;stroke-opacity:1; stroke-opacity: 0.7; stroke-width: 1; stroke-dasharray: none; stroke-linecap: butt; stroke-linejoin: miter; stroke-miterlimit: 10; fill: none; fill-rule: nonzero; opacity: 1" transform=" matrix(1 0 0 1 0 0) " stroke-linecap="round" /><path d="M 234.5 40.5 L 234.5 40.5 L 234.5 0.5" style="stroke:#FFFFFF;stroke-opacity:1; stroke-opacity: 0.7; stroke-width: 1; stroke-dasharray: none; stroke-linecap: butt; stroke-linejoin: miter; stroke-miterlimit: 10; fill: none; fill-rule: nonzero; opacity: 1" transform=" matrix(1 0 0 1 0 0) " stroke-linecap="round" /><path d="M 335.5 40.5 L 335.5 40.5 L 335.5 0.5" style="stroke:#FFFFFF;stroke-opacity:1; stroke-opacity: 0.7; stroke-width: 1; stroke-dasharray: none; stroke-linecap: butt; stroke-linejoin: miter; stroke-miterlimit: 10; fill: none; fill-rule: nonzero; opacity: 1" transform=" matrix(1 0 0 1 0 0) " stroke-linecap="round" /><path d="M 440.5 40.5 L 440.5 40.5 L 440.5 0.5" style="stroke:#FFFFFF;stroke-opacity:1; stroke-opacity: 0.7; stroke-width: 1; stroke-dasharray: none; stroke-linecap: butt; stroke-linejoin: miter; stroke-miterlimit: 10; fill: none; fill-rule: nonzero; opacity: 1" transform=" matrix(1 0 0 1 0 0) " stroke-linecap="round" /><path d="M 545.5 40.5 L 545.5 40.5 L 545.5 0.5" style="stroke:#FFFFFF;stroke-opacity:1; stroke-opacity: 0.7; stroke-width: 1; stroke-dasharray: none; stroke-linecap: butt; stroke-linejoin: miter; stroke-miterlimit: 10; fill: none; fill-rule: nonzero; opacity: 1" transform=" matrix(1 0 0 1 0 0) " stroke-linecap="round" /><path d="M 651.5 40.5 L 651.5 40.5 L 651.5 0.5" style="stroke:#FFFFFF;stroke-opacity:1; stroke-opacity: 0.7; stroke-width: 1; stroke-dasharray: none; stroke-linecap: butt; stroke-linejoin: miter; stroke-miterlimit: 10; fill: none; fill-rule: nonzero; opacity: 1" transform=" matrix(1 0 0 1 0 0) " stroke-linecap="round" /><path d="M 756.5 40.5 L 756.5 40.5 L 756.5 0.5" style="stroke:#FFFFFF;stroke-opacity:1; stroke-opacity: 0.7; stroke-width: 1; stroke-dasharray: none; stroke-linecap: butt; stroke-linejoin: miter; stroke-miterlimit: 10; fill: none; fill-rule: nonzero; opacity: 1" transform=" matrix(1 0 0 1 0 0) " stroke-linecap="round" /><g transform=" matrix(1 0 0 1 27 28.5) "><text font-family="Verdana" font-size="11" font-weight="normal" style="stroke: none; stroke-width: 1; stroke-dasharray: none; stroke-linecap: butt; stroke-linejoin: miter; stroke-miterlimit: 10;fill:#FFFFFF;fill-opacity:1; fill-rule: nonzero; opacity: 1" ><tspan x="0.5" y="5.49" fill="rgba(255,255,255,1)">Сен</tspan></text></g><g transform=" matrix(1 0 0 1 132 28.5) "><text font-family="Verdana" font-size="11" font-weight="normal" style="stroke: none; stroke-width: 1; stroke-dasharray: none; stroke-linecap: butt; stroke-linejoin: miter; stroke-miterlimit: 10;fill:#FFFFFF;fill-opacity:1; fill-rule: nonzero; opacity: 1" ><tspan x="0.5" y="5.49" fill="rgba(255,255,255,1)">Ноя</tspan></text></g><g transform=" matrix(1 0 0 1 237 28.5) "><text font-family="Verdana" font-size="11" font-weight="normal" style="stroke: none; stroke-width: 1; stroke-dasharray: none; stroke-linecap: butt; stroke-linejoin: miter; stroke-miterlimit: 10;fill:#FFFFFF;fill-opacity:1; fill-rule: nonzero; opacity: 1" ><tspan x="0.5" y="5.49" fill="rgba(255,255,255,1)">2015</tspan></text></g><g transform=" matrix(1 0 0 1 338 28.5) "><text font-family="Verdana" font-size="11" font-weight="normal" style="stroke: none; stroke-width: 1; stroke-dasharray: none; stroke-linecap: butt; stroke-linejoin: miter; stroke-miterlimit: 10;fill:#FFFFFF;fill-opacity:1; fill-rule: nonzero; opacity: 1" ><tspan x="0.5" y="5.49" fill="rgba(255,255,255,1)">Мар</tspan></text></g><g transform=" matrix(1 0 0 1 443 28.5) "><text font-family="Verdana" font-size="11" font-weight="normal" style="stroke: none; stroke-width: 1; stroke-dasharray: none; stroke-linecap: butt; stroke-linejoin: miter; stroke-miterlimit: 10;fill:#FFFFFF;fill-opacity:1; fill-rule: nonzero; opacity: 1" ><tspan x="0.5" y="5.49" fill="rgba(255,255,255,1)">Май</tspan></text></g><g transform=" matrix(1 0 0 1 548 28.5) "><text font-family="Verdana" font-size="11" font-weight="normal" style="stroke: none; stroke-width: 1; stroke-dasharray: none; stroke-linecap: butt; stroke-linejoin: miter; stroke-miterlimit: 10;fill:#FFFFFF;fill-opacity:1; fill-rule: nonzero; opacity: 1" ><tspan x="0.5" y="5.49" fill="rgba(255,255,255,1)">Июл</tspan></text></g><g transform=" matrix(1 0 0 1 654 28.5) "><text font-family="Verdana" font-size="11" font-weight="normal" style="stroke: none; stroke-width: 1; stroke-dasharray: none; stroke-linecap: butt; stroke-linejoin: miter; stroke-miterlimit: 10;fill:#FFFFFF;fill-opacity:1; fill-rule: nonzero; opacity: 1" ><tspan x="0.5" y="5.49" fill="rgba(255,255,255,1)">Сен</tspan></text></g><g transform=" matrix(1 0 0 1 759 28.5) "><text font-family="Verdana" font-size="11" font-weight="normal" style="stroke: none; stroke-width: 1; stroke-dasharray: none; stroke-linecap: butt; stroke-linejoin: miter; stroke-miterlimit: 10;fill:#FFFFFF;fill-opacity:1; fill-rule: nonzero; opacity: 1" ><tspan x="0.5" y="5.49" fill="rgba(255,255,255,1)">Ноя</tspan></text></g><rect x="0.5" y="0.5" rx="0" ry="0" width="860" height="40" style="stroke:#000000;stroke-opacity:1; stroke-opacity: 0.005; stroke-width: 0; stroke-dasharray: none; stroke-linecap: butt; stroke-linejoin: miter; stroke-miterlimit: 10;fill:#000000;fill-opacity:1; fill-opacity: 0.005; fill-rule: nonzero; opacity: 1" transform=" matrix(1 0 0 1 0 0) "/><rect x="0" y="0.5" rx="0" ry="0" width="859" height="40" style="stroke:#000000;stroke-opacity:1; stroke-opacity: 0.005; stroke-width: 0; stroke-dasharray: none; stroke-linecap: butt; stroke-linejoin: miter; stroke-miterlimit: 10;fill:#000000;fill-opacity:1; fill-opacity: 0.005; fill-rule: nonzero; opacity: 1" transform=" matrix(1 0 0 1 0 0) "/><g transform=" matrix(1 0 0 1 -17 3) "><image xlink:href="http://localhost:8080/sampler/VAADIN/resources/amcharts/images/dragIconRoundBig.svg" x="0" y="0" style="stroke: none; stroke-width: 0; stroke-dasharray: none; stroke-linecap: butt; stroke-linejoin: miter; stroke-miterlimit: 10;fill:#000000;fill-opacity:1; fill-rule: nonzero; opacity: 1" width="35" height="35" preserveAspectRatio="none"></image></g><rect x="0.5" y="0.5" rx="0" ry="0" width="25" height="40" style="stroke:#000000;stroke-opacity:1; stroke-opacity: 0.005; stroke-width: 0; stroke-dasharray: none; stroke-linecap: butt; stroke-linejoin: miter; stroke-miterlimit: 10;fill:#000000;fill-opacity:1; fill-opacity: 0.005; fill-rule: nonzero; opacity: 1" transform=" matrix(1 0 0 1 -12 1) "/><g transform=" matrix(1 0 0 1 842 3) "><image xlink:href="http://localhost:8080/sampler/VAADIN/resources/amcharts/images/dragIconRoundBig.svg" x="0" y="0" style="stroke: none; stroke-width: 0; stroke-dasharray: none; stroke-linecap: butt; stroke-linejoin: miter; stroke-miterlimit: 10;fill:#000000;fill-opacity:1; fill-rule: nonzero; opacity: 1" width="35" height="35" preserveAspectRatio="none"></image></g><rect x="0.5" y="0.5" rx="0" ry="0" width="25" height="40" style="stroke:#000000;stroke-opacity:1; stroke-opacity: 0.005; stroke-width: 0; stroke-dasharray: none; stroke-linecap: butt; stroke-linejoin: miter; stroke-miterlimit: 10;fill:#000000;fill-opacity:1; fill-opacity: 0.005; fill-rule: nonzero; opacity: 1" transform=" matrix(1 0 0 1 847 1) "/><rect x="0" y="0" rx="0" ry="0" width="859" height="41" style="stroke: none; stroke-width: 0; stroke-dasharray: none; stroke-linecap: butt; stroke-linejoin: miter; stroke-miterlimit: 10; fill: none; fill-rule: nonzero; opacity: 1" transform=""/></g><clipPath xmlns="http://www.w3.org/2000/svg" id="AmChartsEl-503"><rect x="-1" y="-1" width="861" height="293" rx="0" ry="0" stroke-width="0" fill="none" fill-opacity="0" svgUid="31"/></clipPath><clipPath xmlns="http://www.w3.org/2000/svg" id="AmChartsEl-505"><rect x="0" y="0" width="859" height="291" rx="0" ry="0" stroke-width="0" fill="none" fill-opacity="0" svgUid="31"/></clipPath><clipPath xmlns="http://www.w3.org/2000/svg" id="AmChartsEl-504"><rect x="0" y="0" width="859" height="291" rx="0" ry="0" stroke-width="0" fill="none" fill-opacity="0" svgUid="31"/></clipPath><clipPath xmlns="http://www.w3.org/2000/svg" id="AmChartsEl-506"><rect x="0" y="0" width="859" height="41" rx="0" ry="0" stroke-width="0" fill="none" fill-opacity="0" svgUid="32"/></clipPath></svg>