<?xml version="1.0" encoding="UTF-8" standalone="no" ?><!DOCTYPE svg PUBLIC "-//W3C//DTD SVG 1.1//EN" "http://www.w3.org/Graphics/SVG/1.1/DTD/svg11.dtd"><svg xmlns="http://www.w3.org/2000/svg" xmlns:xlink="http://www.w3.org/1999/xlink" version="1.1" width="964" height="481" viewBox="0 0 964 481" xml:space="preserve"><desc>Created with Fabric.js 1.7.19</desc><defs></defs><rect x="0" y="0" width="964" height="481" fill="#FFFFFF"></rect><g style="stroke: none; stroke-width: 1; stroke-dasharray: none; stroke-linecap: butt; stroke-linejoin: miter; stroke-miterlimit: 10; fill: none; fill-rule: nonzero; opacity: 1" transform="translate(0 0)" ><path d="M 0.5 0.5 L 963.5 0.5 L 963.5 480.5 L 0.5 480.5 Z" style="stroke:#000000;stroke-opacity:1; stroke-opacity: 0; stroke-width: 1; stroke-dasharray: none; stroke-linecap: butt; stroke-linejoin: miter; stroke-miterlimit: 10;fill:#FFFFFF;fill-opacity:1; fill-opacity: 0; fill-rule: nonzero; opacity: 1" transform="" stroke-linecap="round" /><path d="M 0.5 0.5 L 895.5 0.5 L 895.5 310.5 L 0.5 310.5 L 0.5 0.5 Z" style="stroke:#000000;stroke-opacity:1; stroke-opacity: 0; stroke-width: 1; stroke-dasharray: none; stroke-linecap: butt; stroke-linejoin: miter; stroke-miterlimit: 10;fill:#FFFFFF;fill-opacity:1; fill-opacity: 0; fill-rule: nonzero; opacity: 1" transform=" matrix(1 0 0 1 48 20) " stroke-linecap="round" /><path d="M 45.5 0.5 L 45.5 5.5" style="stroke:#000000;stroke-opacity:1; stroke-width: 1; stroke-dasharray: none; stroke-linecap: butt; stroke-linejoin: miter; stroke-miterlimit: 10; fill: none; fill-rule: nonzero; opacity: 1" transform=" matrix(1 0 0 1 48 330) " stroke-linecap="round" /><path d="M 134.5 0.5 L 134.5 5.5" style="stroke:#000000;stroke-opacity:1; stroke-width: 1; stroke-dasharray: none; stroke-linecap: butt; stroke-linejoin: miter; stroke-miterlimit: 10; fill: none; fill-rule: nonzero; opacity: 1" transform=" matrix(1 0 0 1 48 330) " stroke-linecap="round" /><path d="M 224.5 0.5 L 224.5 5.5" style="stroke:#000000;stroke-opacity:1; stroke-width: 1; stroke-dasharray: none; stroke-linecap: butt; stroke-linejoin: miter; stroke-miterlimit: 10; fill: none; fill-rule: nonzero; opacity: 1" transform=" matrix(1 0 0 1 48 330) " stroke-linecap="round" /><path d="M 313.5 0.5 L 313.5 5.5" style="stroke:#000000;stroke-opacity:1; stroke-width: 1; stroke-dasharray: none; stroke-linecap: butt; stroke-linejoin: miter; stroke-miterlimit: 10; fill: none; fill-rule: nonzero; opacity: 1" transform=" matrix(1 0 0 1 48 330) " stroke-linecap="round" /><path d="M 403.5 0.5 L 403.5 5.5" style="stroke:#000000;stroke-opacity:1; stroke-width: 1; stroke-dasharray: none; stroke-linecap: butt; stroke-linejoin: miter; stroke-miterlimit: 10; fill: none; fill-rule: nonzero; opacity: 1" transform=" matrix(1 0 0 1 48 330) " stroke-linecap="round" /><path d="M 492.5 0.5 L 492.5 5.5" style="stroke:#000000;stroke-opacity:1; stroke-width: 1; stroke-dasharray: none; stroke-linecap: butt; stroke-linejoin: miter; stroke-miterlimit: 10; fill: none; fill-rule: nonzero; opacity: 1" transform=" matrix(1 0 0 1 48 330) " stroke-linecap="round" /><path d="M 582.5 0.5 L 582.5 5.5" style="stroke:#000000;stroke-opacity:1; stroke-width: 1; stroke-dasharray: none; stroke-linecap: butt; stroke-linejoin: miter; stroke-miterlimit: 10; fill: none; fill-rule: nonzero; opacity: 1" transform=" matrix(1 0 0 1 48 330) " stroke-linecap="round" /><path d="M 671.5 0.5 L 671.5 5.5" style="stroke:#000000;stroke-opacity:1; stroke-width: 1; stroke-dasharray: none; stroke-linecap: butt; stroke-linejoin: miter; stroke-miterlimit: 10; fill: none; fill-rule: nonzero; opacity: 1" transform=" matrix(1 0 0 1 48 330) " stroke-linecap="round" /><path d="M 761.5 0.5 L 761.5 5.5" style="stroke:#000000;stroke-opacity:1; stroke-width: 1; stroke-dasharray: none; stroke-linecap: butt; stroke-linejoin: miter; stroke-miterlimit: 10; fill: none; fill-rule: nonzero; opacity: 1" transform=" matrix(1 0 0 1 48 330) " stroke-linecap="round" /><path d="M 850.5 0.5 L 850.5 5.5" style="stroke:#000000;stroke-opacity:1; stroke-width: 1; stroke-dasharray: none; stroke-linecap: butt; stroke-linejoin: miter; stroke-miterlimit: 10; fill: none; fill-rule: nonzero; opacity: 1" transform=" matrix(1 0 0 1 48 330) " stroke-linecap="round" /><path d="M 895.5 0.5 L 895.5 120.5" style="stroke:#000000;stroke-opacity:1; stroke-width: 1; stroke-dasharray: none; stroke-linecap: butt; stroke-linejoin: miter; stroke-miterlimit: 10; fill: none; fill-rule: nonzero; opacity: 1" transform=" matrix(1 0 0 1 48 330) " stroke-linecap="round" /><path d="M 716.5 0.5 L 716.5 120.5" style="stroke:#000000;stroke-opacity:1; stroke-width: 1; stroke-dasharray: none; stroke-linecap: butt; stroke-linejoin: miter; stroke-miterlimit: 10; fill: none; fill-rule: nonzero; opacity: 1" transform=" matrix(1 0 0 1 48 330) " stroke-linecap="round" /><rect x="0.5" y="0.5" rx="0" ry="0" width="179" height="310" style="stroke: none; stroke-width: 0; stroke-dasharray: none; stroke-linecap: butt; stroke-linejoin: miter; stroke-miterlimit: 10;fill:#000000;fill-opacity:1; fill-opacity: 0; fill-rule: nonzero; opacity: 1" transform=" matrix(1 0 0 1 764 20) "/><path d="M 716.5 0.5 L 716.5 120.5" style="stroke:#000000;stroke-opacity:1; stroke-width: 1; stroke-dasharray: none; stroke-linecap: butt; stroke-linejoin: miter; stroke-miterlimit: 10; fill: none; fill-rule: nonzero; opacity: 1" transform=" matrix(1 0 0 1 48 330) " stroke-linecap="round" /><path d="M 537.5 0.5 L 537.5 120.5" style="stroke:#000000;stroke-opacity:1; stroke-width: 1; stroke-dasharray: none; stroke-linecap: butt; stroke-linejoin: miter; stroke-miterlimit: 10; fill: none; fill-rule: nonzero; opacity: 1" transform=" matrix(1 0 0 1 48 330) " stroke-linecap="round" /><rect x="0.5" y="0.5" rx="0" ry="0" width="179" height="310" style="stroke: none; stroke-width: 0; stroke-dasharray: none; stroke-linecap: butt; stroke-linejoin: miter; stroke-miterlimit: 10;fill:#000000;fill-opacity:1; fill-opacity: 0; fill-rule: nonzero; opacity: 1" transform=" matrix(1 0 0 1 585 20) "/><path d="M 179.5 0.5 L 179.5 120.5" style="stroke:#000000;stroke-opacity:1; stroke-width: 1; stroke-dasharray: none; stroke-linecap: butt; stroke-linejoin: miter; stroke-miterlimit: 10; fill: none; fill-rule: nonzero; opacity: 1" transform=" matrix(1 0 0 1 48 330) " stroke-linecap="round" /><path d="M 0.5 0.5 L 0.5 120.5" style="stroke:#000000;stroke-opacity:1; stroke-width: 1; stroke-dasharray: none; stroke-linecap: butt; stroke-linejoin: miter; stroke-miterlimit: 10; fill: none; fill-rule: nonzero; opacity: 1" transform=" matrix(1 0 0 1 48 330) " stroke-linecap="round" /><rect x="0.5" y="0.5" rx="0" ry="0" width="179" height="310" style="stroke: none; stroke-width: 0; stroke-dasharray: none; stroke-linecap: butt; stroke-linejoin: miter; stroke-miterlimit: 10;fill:#000000;fill-opacity:1; fill-opacity: 0; fill-rule: nonzero; opacity: 1" transform=" matrix(1 0 0 1 48 20) "/><path d="M 358.5 0.5 L 358.5 120.5" style="stroke:#000000;stroke-opacity:1; stroke-width: 1; stroke-dasharray: none; stroke-linecap: butt; stroke-linejoin: miter; stroke-miterlimit: 10; fill: none; fill-rule: nonzero; opacity: 1" transform=" matrix(1 0 0 1 48 330) " stroke-linecap="round" /><path d="M 179.5 0.5 L 179.5 120.5" style="stroke:#000000;stroke-opacity:1; stroke-width: 1; stroke-dasharray: none; stroke-linecap: butt; stroke-linejoin: miter; stroke-miterlimit: 10; fill: none; fill-rule: nonzero; opacity: 1" transform=" matrix(1 0 0 1 48 330) " stroke-linecap="round" /><rect x="0.5" y="0.5" rx="0" ry="0" width="179" height="310" style="stroke: none; stroke-width: 0; stroke-dasharray: none; stroke-linecap: butt; stroke-linejoin: miter; stroke-miterlimit: 10;fill:#000000;fill-opacity:1; fill-opacity: 0; fill-rule: nonzero; opacity: 1" transform=" matrix(1 0 0 1 227 20) "/><path d="M 537.5 0.5 L 537.5 120.5" style="stroke:#000000;stroke-opacity:1; stroke-width: 1; stroke-dasharray: none; stroke-linecap: butt; stroke-linejoin: miter; stroke-miterlimit: 10; fill: none; fill-rule: nonzero; opacity: 1" transform=" matrix(1 0 0 1 48 330) " stroke-linecap="round" /><path d="M 358.5 0.5 L 358.5 120.5" style="stroke:#000000;stroke-opacity:1; stroke-width: 1; stroke-dasharray: none; stroke-linecap: butt; stroke-linejoin: miter; stroke-miterlimit: 10; fill: none; fill-rule: nonzero; opacity: 1" transform=" matrix(1 0 0 1 48 330) " stroke-linecap="round" /><rect x="0.5" y="0.5" rx="0" ry="0" width="179" height="310" style="stroke: none; stroke-width: 0; stroke-dasharray: none; stroke-linecap: butt; stroke-linejoin: miter; stroke-miterlimit: 10;fill:#000000;fill-opacity:1; fill-opacity: 0; fill-rule: nonzero; opacity: 1" transform=" matrix(1 0 0 1 406 20) "/><path d="M 0.5 310.5 L 6.5 310.5" style="stroke:#000000;stroke-opacity:1; stroke-width: 1; stroke-dasharray: none; stroke-linecap: butt; stroke-linejoin: miter; stroke-miterlimit: 10; fill: none; fill-rule: nonzero; opacity: 1" transform=" matrix(1 0 0 1 42 20) " stroke-linecap="round" /><path d="M 0.5 310.5 L 0.5 310.5 L 895.5 310.5" style="stroke:#000000;stroke-opacity:1; stroke-opacity: 0.15; stroke-width: 1; stroke-dasharray: none; stroke-linecap: butt; stroke-linejoin: miter; stroke-miterlimit: 10; fill: none; fill-rule: nonzero; opacity: 1" transform=" matrix(1 0 0 1 48 20) " stroke-linecap="round" /><path d="M 0.5 258.5 L 6.5 258.5" style="stroke:#000000;stroke-opacity:1; stroke-width: 1; stroke-dasharray: none; stroke-linecap: butt; stroke-linejoin: miter; stroke-miterlimit: 10; fill: none; fill-rule: nonzero; opacity: 1" transform=" matrix(1 0 0 1 42 20) " stroke-linecap="round" /><path d="M 0.5 258.5 L 0.5 258.5 L 895.5 258.5" style="stroke:#000000;stroke-opacity:1; stroke-opacity: 0.15; stroke-width: 1; stroke-dasharray: none; stroke-linecap: butt; stroke-linejoin: miter; stroke-miterlimit: 10; fill: none; fill-rule: nonzero; opacity: 1" transform=" matrix(1 0 0 1 48 20) " stroke-linecap="round" /><path d="M 0.5 207.5 L 6.5 207.5" style="stroke:#000000;stroke-opacity:1; stroke-width: 1; stroke-dasharray: none; stroke-linecap: butt; stroke-linejoin: miter; stroke-miterlimit: 10; fill: none; fill-rule: nonzero; opacity: 1" transform=" matrix(1 0 0 1 42 20) " stroke-linecap="round" /><path d="M 0.5 207.5 L 0.5 207.5 L 895.5 207.5" style="stroke:#000000;stroke-opacity:1; stroke-opacity: 0.15; stroke-width: 1; stroke-dasharray: none; stroke-linecap: butt; stroke-linejoin: miter; stroke-miterlimit: 10; fill: none; fill-rule: nonzero; opacity: 1" transform=" matrix(1 0 0 1 48 20) " stroke-linecap="round" /><path d="M 0.5 155.5 L 6.5 155.5" style="stroke:#000000;stroke-opacity:1; stroke-width: 1; stroke-dasharray: none; stroke-linecap: butt; stroke-linejoin: miter; stroke-miterlimit: 10; fill: none; fill-rule: nonzero; opacity: 1" transform=" matrix(1 0 0 1 42 20) " stroke-linecap="round" /><path d="M 0.5 155.5 L 0.5 155.5 L 895.5 155.5" style="stroke:#000000;stroke-opacity:1; stroke-opacity: 0.15; stroke-width: 1; stroke-dasharray: none; stroke-linecap: butt; stroke-linejoin: miter; stroke-miterlimit: 10; fill: none; fill-rule: nonzero; opacity: 1" transform=" matrix(1 0 0 1 48 20) " stroke-linecap="round" /><path d="M 0.5 103.5 L 6.5 103.5" style="stroke:#000000;stroke-opacity:1; stroke-width: 1; stroke-dasharray: none; stroke-linecap: butt; stroke-linejoin: miter; stroke-miterlimit: 10; fill: none; fill-rule: nonzero; opacity: 1" transform=" matrix(1 0 0 1 42 20) " stroke-linecap="round" /><path d="M 0.5 103.5 L 0.5 103.5 L 895.5 103.5" style="stroke:#000000;stroke-opacity:1; stroke-opacity: 0.15; stroke-width: 1; stroke-dasharray: none; stroke-linecap: butt; stroke-linejoin: miter; stroke-miterlimit: 10; fill: none; fill-rule: nonzero; opacity: 1" transform=" matrix(1 0 0 1 48 20) " stroke-linecap="round" /><path d="M 0.5 52.5 L 6.5 52.5" style="stroke:#000000;stroke-opacity:1; stroke-width: 1; stroke-dasharray: none; stroke-linecap: butt; stroke-linejoin: miter; stroke-miterlimit: 10; fill: none; fill-rule: nonzero; opacity: 1" transform=" matrix(1 0 0 1 42 20) " stroke-linecap="round" /><path d="M 0.5 52.5 L 0.5 52.5 L 895.5 52.5" style="stroke:#000000;stroke-opacity:1; stroke-opacity: 0.15; stroke-width: 1; stroke-dasharray: none; stroke-linecap: butt; stroke-linejoin: miter; stroke-miterlimit: 10; fill: none; fill-rule: nonzero; opacity: 1" transform=" matrix(1 0 0 1 48 20) " stroke-linecap="round" /><path d="M 0.5 0.5 L 6.5 0.5" style="stroke:#000000;stroke-opacity:1; stroke-width: 1; stroke-dasharray: none; stroke-linecap: butt; stroke-linejoin: miter; stroke-miterlimit: 10; fill: none; fill-rule: nonzero; opacity: 1" transform=" matrix(1 0 0 1 42 20) " stroke-linecap="round" /><path d="M 0.5 0.5 L 0.5 0.5 L 895.5 0.5" style="stroke:#000000;stroke-opacity:1; stroke-opacity: 0.15; stroke-width: 1; stroke-dasharray: none; stroke-linecap: butt; stroke-linejoin: miter; stroke-miterlimit: 10; fill: none; fill-rule: nonzero; opacity: 1" transform=" matrix(1 0 0 1 48 20) " stroke-linecap="round" /><path d="M 0.5 0.5 L 0.5 -233.5 L 33.5 -233.5 L 33.5 0.5 L 0.5 0.5 Z" style="stroke:#000000;stroke-opacity:1; stroke-width: 1; stroke-dasharray: none; stroke-linecap: butt; stroke-linejoin: miter; stroke-miterlimit: 10;fill:#028E9B;fill-opacity:1; fill-rule: nonzero; opacity: 1" transform=" matrix(1 0 0 1 57 330) " stroke-linecap="round" /><path d="M 0.5 0.5 L 0.5 -239.5 L 33.5 -239.5 L 33.5 0.5 L 0.5 0.5 Z" style="stroke:#000000;stroke-opacity:1; stroke-width: 1; stroke-dasharray: none; stroke-linecap: butt; stroke-linejoin: miter; stroke-miterlimit: 10;fill:#028E9B;fill-opacity:1; fill-rule: nonzero; opacity: 1" transform=" matrix(1 0 0 1 146 330) " stroke-linecap="round" /><path d="M 0.5 0.5 L 0.5 -229.5 L 33.5 -229.5 L 33.5 0.5 L 0.5 0.5 Z" style="stroke:#000000;stroke-opacity:1; stroke-width: 1; stroke-dasharray: none; stroke-linecap: butt; stroke-linejoin: miter; stroke-miterlimit: 10;fill:#028E9B;fill-opacity:1; fill-rule: nonzero; opacity: 1" transform=" matrix(1 0 0 1 236 330) " stroke-linecap="round" /><path d="M 0.5 0.5 L 0.5 -270.5 L 33.5 -270.5 L 33.5 0.5 L 0.5 0.5 Z" style="stroke:#000000;stroke-opacity:1; stroke-width: 1; stroke-dasharray: none; stroke-linecap: butt; stroke-linejoin: miter; stroke-miterlimit: 10;fill:#028E9B;fill-opacity:1; fill-rule: nonzero; opacity: 1" transform=" matrix(1 0 0 1 325 330) " stroke-linecap="round" /><path d="M 0.5 0.5 L 0.5 -204.5 L 33.5 -204.5 L 33.5 0.5 L 0.5 0.5 Z" style="stroke:#000000;stroke-opacity:1; stroke-width: 1; stroke-dasharray: none; stroke-linecap: butt; stroke-linejoin: miter; stroke-miterlimit: 10;fill:#028E9B;fill-opacity:1; fill-rule: nonzero; opacity: 1" transform=" matrix(1 0 0 1 415 330) " stroke-linecap="round" /><path d="M 0.5 0.5 L 0.5 -285.5 L 33.5 -285.5 L 33.5 0.5 L 0.5 0.5 Z" style="stroke:#000000;stroke-opacity:1; stroke-width: 1; stroke-dasharray: none; stroke-linecap: butt; stroke-linejoin: miter; stroke-miterlimit: 10;fill:#028E9B;fill-opacity:1; fill-rule: nonzero; opacity: 1" transform=" matrix(1 0 0 1 504 330) " stroke-linecap="round" /><path d="M 0.5 0.5 L 0.5 -279.5 L 33.5 -279.5 L 33.5 0.5 L 0.5 0.5 Z" style="stroke:#000000;stroke-opacity:1; stroke-width: 1; stroke-dasharray: none; stroke-linecap: butt; stroke-linejoin: miter; stroke-miterlimit: 10;fill:#028E9B;fill-opacity:1; fill-rule: nonzero; opacity: 1" transform=" matrix(1 0 0 1 594 330) " stroke-linecap="round" /><path d="M 0.5 0.5 L 0.5 -183.5 L 33.5 -183.5 L 33.5 0.5 L 0.5 0.5 Z" style="stroke:#000000;stroke-opacity:1; stroke-width: 1; stroke-dasharray: none; stroke-linecap: butt; stroke-linejoin: miter; stroke-miterlimit: 10;fill:#028E9B;fill-opacity:1; fill-rule: nonzero; opacity: 1" transform=" matrix(1 0 0 1 683 330) " stroke-linecap="round" /><path d="M 0.5 0.5 L 0.5 -200.5 L 33.5 -200.5 L 33.5 0.5 L 0.5 0.5 Z" style="stroke:#000000;stroke-opacity:1; stroke-width: 1; stroke-dasharray: none; stroke-linecap: butt; stroke-linejoin: miter; stroke-miterlimit: 10;fill:#028E9B;fill-opacity:1; fill-rule: nonzero; opacity: 1" transform=" matrix(1 0 0 1 773 330) " stroke-linecap="round" /><path d="M 0.5 0.5 L 0.5 -205.5 L 33.5 -205.5 L 33.5 0.5 L 0.5 0.5 Z" style="stroke:#000000;stroke-opacity:1; stroke-width: 1; stroke-dasharray: none; stroke-linecap: butt; stroke-linejoin: miter; stroke-miterlimit: 10;fill:#028E9B;fill-opacity:1; fill-rule: nonzero; opacity: 1" transform=" matrix(1 0 0 1 862 330) " stroke-linecap="round" /><path d="M 0.5 0.5 L 0.5 -49.5 L 33.5 -49.5 L 33.5 0.5 L 0.5 0.5 Z" style="stroke:#000000;stroke-opacity:1; stroke-width: 1; stroke-dasharray: none; stroke-linecap: butt; stroke-linejoin: miter; stroke-miterlimit: 10;fill:#FF7800;fill-opacity:1; fill-rule: nonzero; opacity: 1" transform=" matrix(1 0 0 1 96 330) " stroke-linecap="round" /><path d="M 0.5 0.5 L 0.5 -37.5 L 33.5 -37.5 L 33.5 0.5 L 0.5 0.5 Z" style="stroke:#000000;stroke-opacity:1; stroke-width: 1; stroke-dasharray: none; stroke-linecap: butt; stroke-linejoin: miter; stroke-miterlimit: 10;fill:#FF7800;fill-opacity:1; fill-rule: nonzero; opacity: 1" transform=" matrix(1 0 0 1 185 330) " stroke-linecap="round" /><path d="M 0.5 0.5 L 0.5 -33.5 L 33.5 -33.5 L 33.5 0.5 L 0.5 0.5 Z" style="stroke:#000000;stroke-opacity:1; stroke-width: 1; stroke-dasharray: none; stroke-linecap: butt; stroke-linejoin: miter; stroke-miterlimit: 10;fill:#FF7800;fill-opacity:1; fill-rule: nonzero; opacity: 1" transform=" matrix(1 0 0 1 275 330) " stroke-linecap="round" /><path d="M 0.5 0.5 L 0.5 -52.5 L 33.5 -52.5 L 33.5 0.5 L 0.5 0.5 Z" style="stroke:#000000;stroke-opacity:1; stroke-width: 1; stroke-dasharray: none; stroke-linecap: butt; stroke-linejoin: miter; stroke-miterlimit: 10;fill:#FF7800;fill-opacity:1; fill-rule: nonzero; opacity: 1" transform=" matrix(1 0 0 1 364 330) " stroke-linecap="round" /><path d="M 0.5 0.5 L 0.5 -12.5 L 33.5 -12.5 L 33.5 0.5 L 0.5 0.5 Z" style="stroke:#000000;stroke-opacity:1; stroke-width: 1; stroke-dasharray: none; stroke-linecap: butt; stroke-linejoin: miter; stroke-miterlimit: 10;fill:#FF7800;fill-opacity:1; fill-rule: nonzero; opacity: 1" transform=" matrix(1 0 0 1 454 330) " stroke-linecap="round" /><path d="M 0.5 0.5 L 0.5 -26.5 L 33.5 -26.5 L 33.5 0.5 L 0.5 0.5 Z" style="stroke:#000000;stroke-opacity:1; stroke-width: 1; stroke-dasharray: none; stroke-linecap: butt; stroke-linejoin: miter; stroke-miterlimit: 10;fill:#FF7800;fill-opacity:1; fill-rule: nonzero; opacity: 1" transform=" matrix(1 0 0 1 543 330) " stroke-linecap="round" /><path d="M 0.5 0.5 L 0.5 -17.5 L 33.5 -17.5 L 33.5 0.5 L 0.5 0.5 Z" style="stroke:#000000;stroke-opacity:1; stroke-width: 1; stroke-dasharray: none; stroke-linecap: butt; stroke-linejoin: miter; stroke-miterlimit: 10;fill:#FF7800;fill-opacity:1; fill-rule: nonzero; opacity: 1" transform=" matrix(1 0 0 1 633 330) " stroke-linecap="round" /><path d="M 0.5 0.5 L 0.5 -39.5 L 33.5 -39.5 L 33.5 0.5 L 0.5 0.5 Z" style="stroke:#000000;stroke-opacity:1; stroke-width: 1; stroke-dasharray: none; stroke-linecap: butt; stroke-linejoin: miter; stroke-miterlimit: 10;fill:#FF7800;fill-opacity:1; fill-rule: nonzero; opacity: 1" transform=" matrix(1 0 0 1 722 330) " stroke-linecap="round" /><path d="M 0.5 0.5 L 0.5 -49.5 L 33.5 -49.5 L 33.5 0.5 L 0.5 0.5 Z" style="stroke:#000000;stroke-opacity:1; stroke-width: 1; stroke-dasharray: none; stroke-linecap: butt; stroke-linejoin: miter; stroke-miterlimit: 10;fill:#FF7800;fill-opacity:1; fill-rule: nonzero; opacity: 1" transform=" matrix(1 0 0 1 812 330) " stroke-linecap="round" /><path d="M 0.5 0.5 L 0.5 -14.5 L 33.5 -14.5 L 33.5 0.5 L 0.5 0.5 Z" style="stroke:#000000;stroke-opacity:1; stroke-width: 1; stroke-dasharray: none; stroke-linecap: butt; stroke-linejoin: miter; stroke-miterlimit: 10;fill:#FF7800;fill-opacity:1; fill-rule: nonzero; opacity: 1" transform=" matrix(1 0 0 1 901 330) " stroke-linecap="round" /><path d="M 0.5 0.5 L 895.5 0.5" style="stroke:#000000;stroke-opacity:1; stroke-width: 1; stroke-dasharray: none; stroke-linecap: butt; stroke-linejoin: miter; stroke-miterlimit: 10; fill: none; fill-rule: nonzero; opacity: 1" transform=" matrix(1 0 0 1 48 330) " stroke-linecap="round" /><path d="M 0.5 0.5 L 0.5 310.5" style="stroke:#000000;stroke-opacity:1; stroke-width: 1; stroke-dasharray: none; stroke-linecap: butt; stroke-linejoin: miter; stroke-miterlimit: 10; fill: none; fill-rule: nonzero; opacity: 1" transform=" matrix(1 0 0 1 48 20) " stroke-linecap="round" /><g transform=" matrix(6.123233995736766e-17 -1 1 6.123233995736766e-17 93 364.0625) "><text xml:space="preserve" font-family="Verdana" font-size="11" font-weight="normal" style="stroke: none; stroke-width: 1; stroke-dasharray: none; stroke-linecap: butt; stroke-linejoin: miter; stroke-miterlimit: 10;fill:#000000;fill-opacity:1; fill-rule: nonzero; opacity: 1; white-space: pre" ><tspan x="-26" y="7.48" fill="rgba(0,0,0,1)">Keyboard</tspan></text></g><g transform=" matrix(6.123233995736766e-17 -1 1 6.123233995736766e-17 182 385.6875) "><text xml:space="preserve" font-family="Verdana" font-size="11" font-weight="normal" style="stroke: none; stroke-width: 1; stroke-dasharray: none; stroke-linecap: butt; stroke-linejoin: miter; stroke-miterlimit: 10;fill:#000000;fill-opacity:1; fill-rule: nonzero; opacity: 1; white-space: pre" ><tspan x="-47.47" y="7.48" fill="rgba(0,0,0,1)">Computer mouse</tspan></text></g><g transform=" matrix(6.123233995736766e-17 -1 1 6.123233995736766e-17 272 364.0625) "><text xml:space="preserve" font-family="Verdana" font-size="11" font-weight="normal" style="stroke: none; stroke-width: 1; stroke-dasharray: none; stroke-linecap: butt; stroke-linejoin: miter; stroke-miterlimit: 10;fill:#000000;fill-opacity:1; fill-rule: nonzero; opacity: 1; white-space: pre" ><tspan x="-26" y="7.48" fill="rgba(0,0,0,1)">Keyboard</tspan></text></g><g transform=" matrix(6.123233995736766e-17 -1 1 6.123233995736766e-17 361 385.6875) "><text xml:space="preserve" font-family="Verdana" font-size="11" font-weight="normal" style="stroke: none; stroke-width: 1; stroke-dasharray: none; stroke-linecap: butt; stroke-linejoin: miter; stroke-miterlimit: 10;fill:#000000;fill-opacity:1; fill-rule: nonzero; opacity: 1; white-space: pre" ><tspan x="-47.47" y="7.48" fill="rgba(0,0,0,1)">Computer mouse</tspan></text></g><g transform=" matrix(6.123233995736766e-17 -1 1 6.123233995736766e-17 451 364.0625) "><text xml:space="preserve" font-family="Verdana" font-size="11" font-weight="normal" style="stroke: none; stroke-width: 1; stroke-dasharray: none; stroke-linecap: butt; stroke-linejoin: miter; stroke-miterlimit: 10;fill:#000000;fill-opacity:1; fill-rule: nonzero; opacity: 1; white-space: pre" ><tspan x="-26" y="7.48" fill="rgba(0,0,0,1)">Keyboard</tspan></text></g><g transform=" matrix(6.123233995736766e-17 -1 1 6.123233995736766e-17 540 385.6875) "><text xml:space="preserve" font-family="Verdana" font-size="11" font-weight="normal" style="stroke: none; stroke-width: 1; stroke-dasharray: none; stroke-linecap: butt; stroke-linejoin: miter; stroke-miterlimit: 10;fill:#000000;fill-opacity:1; fill-rule: nonzero; opacity: 1; white-space: pre" ><tspan x="-47.47" y="7.48" fill="rgba(0,0,0,1)">Computer mouse</tspan></text></g><g transform=" matrix(6.123233995736766e-17 -1 1 6.123233995736766e-17 630 364.0625) "><text xml:space="preserve" font-family="Verdana" font-size="11" font-weight="normal" style="stroke: none; stroke-width: 1; stroke-dasharray: none; stroke-linecap: butt; stroke-linejoin: miter; stroke-miterlimit: 10;fill:#000000;fill-opacity:1; fill-rule: nonzero; opacity: 1; white-space: pre" ><tspan x="-26" y="7.48" fill="rgba(0,0,0,1)">Keyboard</tspan></text></g><g transform=" matrix(6.123233995736766e-17 -1 1 6.123233995736766e-17 719 385.6875) "><text xml:space="preserve" font-family="Verdana" font-size="11" font-weight="normal" style="stroke: none; stroke-width: 1; stroke-dasharray: none; stroke-linecap: butt; stroke-linejoin: miter; stroke-miterlimit: 10;fill:#000000;fill-opacity:1; fill-rule: nonzero; opacity: 1; white-space: pre" ><tspan x="-47.47" y="7.48" fill="rgba(0,0,0,1)">Computer mouse</tspan></text></g><g transform=" matrix(6.123233995736766e-17 -1 1 6.123233995736766e-17 809 385.6875) "><text xml:space="preserve" font-family="Verdana" font-size="11" font-weight="normal" style="stroke: none; stroke-width: 1; stroke-dasharray: none; stroke-linecap: butt; stroke-linejoin: miter; stroke-miterlimit: 10;fill:#000000;fill-opacity:1; fill-rule: nonzero; opacity: 1; white-space: pre" ><tspan x="-47.47" y="7.48" fill="rgba(0,0,0,1)">Computer mouse</tspan></text></g><g transform=" matrix(6.123233995736766e-17 -1 1 6.123233995736766e-17 898 364.0625) "><text xml:space="preserve" font-family="Verdana" font-size="11" font-weight="normal" style="stroke: none; stroke-width: 1; stroke-dasharray: none; stroke-linecap: butt; stroke-linejoin: miter; stroke-miterlimit: 10;fill:#000000;fill-opacity:1; fill-rule: nonzero; opacity: 1; white-space: pre" ><tspan x="-26" y="7.48" fill="rgba(0,0,0,1)">Keyboard</tspan></text></g><g transform=" matrix(1 0 0 1 853.25 462.5) "><text xml:space="preserve" font-family="Verdana" font-size="11" font-weight="normal" style="stroke: none; stroke-width: 1; stroke-dasharray: none; stroke-linecap: butt; stroke-linejoin: miter; stroke-miterlimit: 10;fill:#000000;fill-opacity:1; fill-rule: nonzero; opacity: 1; white-space: pre" ><tspan x="-11.49" y="7.48" fill="rgba(0,0,0,1)">USA</tspan></text></g><g transform=" matrix(1 0 0 1 674.25 462.5) "><text xml:space="preserve" font-family="Verdana" font-size="11" font-weight="normal" style="stroke: none; stroke-width: 1; stroke-dasharray: none; stroke-linecap: butt; stroke-linejoin: miter; stroke-miterlimit: 10;fill:#000000;fill-opacity:1; fill-rule: nonzero; opacity: 1; white-space: pre" ><tspan x="-7.84" y="7.48" fill="rgba(0,0,0,1)">UK</tspan></text></g><g transform=" matrix(1 0 0 1 137.25 462.5) "><text xml:space="preserve" font-family="Verdana" font-size="11" font-weight="normal" style="stroke: none; stroke-width: 1; stroke-dasharray: none; stroke-linecap: butt; stroke-linejoin: miter; stroke-miterlimit: 10;fill:#000000;fill-opacity:1; fill-rule: nonzero; opacity: 1; white-space: pre" ><tspan x="-18.34" y="7.48" fill="rgba(0,0,0,1)">France</tspan></text></g><g transform=" matrix(1 0 0 1 316.25 462.5) "><text xml:space="preserve" font-family="Verdana" font-size="11" font-weight="normal" style="stroke: none; stroke-width: 1; stroke-dasharray: none; stroke-linecap: butt; stroke-linejoin: miter; stroke-miterlimit: 10;fill:#000000;fill-opacity:1; fill-rule: nonzero; opacity: 1; white-space: pre" ><tspan x="-25.22" y="7.48" fill="rgba(0,0,0,1)">Germany</tspan></text></g><g transform=" matrix(1 0 0 1 495.25 462.5) "><text xml:space="preserve" font-family="Verdana" font-size="11" font-weight="normal" style="stroke: none; stroke-width: 1; stroke-dasharray: none; stroke-linecap: butt; stroke-linejoin: miter; stroke-miterlimit: 10;fill:#000000;fill-opacity:1; fill-rule: nonzero; opacity: 1; white-space: pre" ><tspan x="-17.79" y="7.48" fill="rgba(0,0,0,1)">Russia</tspan></text></g><g transform=" matrix(1 0 0 1 36 329) "><text xml:space="preserve" font-family="Verdana" font-size="11" font-weight="normal" style="stroke: none; stroke-width: 1; stroke-dasharray: none; stroke-linecap: butt; stroke-linejoin: miter; stroke-miterlimit: 10;fill:#000000;fill-opacity:1; fill-rule: nonzero; opacity: 1; white-space: pre" ><tspan x="-21.48" y="7.48" fill="rgba(0,0,0,1)">150</tspan></text></g><g transform=" matrix(1 0 0 1 36 277) "><text xml:space="preserve" font-family="Verdana" font-size="11" font-weight="normal" style="stroke: none; stroke-width: 1; stroke-dasharray: none; stroke-linecap: butt; stroke-linejoin: miter; stroke-miterlimit: 10;fill:#000000;fill-opacity:1; fill-rule: nonzero; opacity: 1; white-space: pre" ><tspan x="-21.48" y="7.48" fill="rgba(0,0,0,1)">200</tspan></text></g><g transform=" matrix(1 0 0 1 36 226) "><text xml:space="preserve" font-family="Verdana" font-size="11" font-weight="normal" style="stroke: none; stroke-width: 1; stroke-dasharray: none; stroke-linecap: butt; stroke-linejoin: miter; stroke-miterlimit: 10;fill:#000000;fill-opacity:1; fill-rule: nonzero; opacity: 1; white-space: pre" ><tspan x="-21.48" y="7.48" fill="rgba(0,0,0,1)">250</tspan></text></g><g transform=" matrix(1 0 0 1 36 174) "><text xml:space="preserve" font-family="Verdana" font-size="11" font-weight="normal" style="stroke: none; stroke-width: 1; stroke-dasharray: none; stroke-linecap: butt; stroke-linejoin: miter; stroke-miterlimit: 10;fill:#000000;fill-opacity:1; fill-rule: nonzero; opacity: 1; white-space: pre" ><tspan x="-21.48" y="7.48" fill="rgba(0,0,0,1)">300</tspan></text></g><g transform=" matrix(1 0 0 1 36 122) "><text xml:space="preserve" font-family="Verdana" font-size="11" font-weight="normal" style="stroke: none; stroke-width: 1; stroke-dasharray: none; stroke-linecap: butt; stroke-linejoin: miter; stroke-miterlimit: 10;fill:#000000;fill-opacity:1; fill-rule: nonzero; opacity: 1; white-space: pre" ><tspan x="-21.48" y="7.48" fill="rgba(0,0,0,1)">350</tspan></text></g><g transform=" matrix(1 0 0 1 36 71) "><text xml:space="preserve" font-family="Verdana" font-size="11" font-weight="normal" style="stroke: none; stroke-width: 1; stroke-dasharray: none; stroke-linecap: butt; stroke-linejoin: miter; stroke-miterlimit: 10;fill:#000000;fill-opacity:1; fill-rule: nonzero; opacity: 1; white-space: pre" ><tspan x="-21.48" y="7.48" fill="rgba(0,0,0,1)">400</tspan></text></g><g transform=" matrix(1 0 0 1 36 19) "><text xml:space="preserve" font-family="Verdana" font-size="11" font-weight="normal" style="stroke: none; stroke-width: 1; stroke-dasharray: none; stroke-linecap: butt; stroke-linejoin: miter; stroke-miterlimit: 10;fill:#000000;fill-opacity:1; fill-rule: nonzero; opacity: 1; white-space: pre" ><tspan x="-21.48" y="7.48" fill="rgba(0,0,0,1)">450</tspan></text></g></g></svg>